ply
format ascii 1.0
comment Created in Blender version 4.2.9 LTS
element vertex 40
property float x
property float y
property float z
property float nx
property float ny
property float nz
property uchar red
property uchar green
property uchar blue
property uchar alpha
element face 60
property list uchar uint vertex_indices
end_header
-0.73047435 -0.23547658 -2.8304152 -0.3415743 -0.3415848 -0.8755838 162 92 42 255
-0.73047435 -0.33064052 -2.735251 -0.3415945 -0.8755779 -0.34157956 162 92 42 255
-0.8256383 -0.23547658 -2.735251 -0.87557966 -0.34158534 -0.34158438 162 92 42 255
-0.73047435 0.23533915 -2.8304152 -0.34158987 0.34157962 -0.8755797 162 92 42 255
-0.8256383 0.23533915 -2.735251 -0.87557787 0.34159455 -0.34157982 162 92 42 255
-0.73047435 0.3305031 -2.735251 -0.34158516 0.8755798 -0.3415843 162 92 42 255
-0.25965863 -0.23547658 -2.8304152 0.34158984 -0.34157962 -0.8755797 162 92 42 255
-0.16449466 -0.23547658 -2.735251 0.8755801 -0.34159166 -0.34157684 162 92 42 255
-0.25965863 -0.33064052 -2.735251 0.34158513 -0.8755798 -0.3415843 162 92 42 255
-0.25965863 0.23533915 -2.8304152 0.3415742 0.34158465 -0.8755838 162 92 42 255
-0.25965863 0.3305031 -2.735251 0.34159452 0.87557787 -0.3415797 162 92 42 255
-0.16449466 0.23533915 -2.735251 0.87557733 0.34158808 -0.34158742 162 92 42 255
-0.73047435 -0.3306404 -0.6371289 -0.38268355 -0.92387956 5.4075183e-08 162 92 42 255
-0.8256383 -0.23547645 -0.6371289 -0.92387575 -0.38269264 2.1420435e-08 162 92 42 255
-0.73047435 0.33050326 -0.6371289 -0.3826925 0.9238758 -6.810805e-08 162 92 42 255
-0.25965863 0.33050326 -0.6371289 0.38268343 0.92387956 -7.040279e-08 162 92 42 255
-0.25965863 -0.3306404 -0.6371289 0.38269264 -0.92387575 5.4074903e-08 162 92 42 255
-0.16449466 -0.23547645 -0.6371289 0.923877 -0.3826895 2.1420254e-08 162 92 42 255
-0.16449466 0.23533928 -0.6371289 0.9238782 0.38268664 -2.1420098e-08 162 92 42 255
-0.8256383 0.23533928 -0.6371289 -0.92387944 0.38268366 -2.141991e-08 162 92 42 255
-0.7305003 -0.33063713 0.20874529 -0.34158406 -0.875579 0.3415872 111 44 168 255
-0.8256642 -0.23547316 0.20874527 -0.87557864 -0.34159037 0.34158167 111 44 168 255
-0.7305003 -0.23547314 0.30390865 -0.34158853 -0.34157765 0.87558097 111 44 168 255
-0.7305003 -0.33063725 -0.63712865 -0.3826868 -0.9238782 1.3412887e-07 111 44 168 255
-0.8256642 -0.23547325 -0.63712865 -0.92388034 -0.38268176 5.3130172e-08 111 44 168 255
-0.25968444 -0.33063713 0.20874529 0.34159082 -0.8755784 0.34158182 111 44 168 255
-0.25968444 -0.33063725 -0.63712865 0.38268194 -0.9238802 1.3590771e-07 111 44 168 255
-0.25968444 -0.23547314 0.30390865 0.34157273 -0.3415829 0.8755851 111 44 168 255
-0.1645205 -0.23547316 0.20874527 0.87557924 -0.34158376 0.34158695 111 44 168 255
-0.1645205 0.23534262 0.20874524 0.87557846 0.34159067 0.34158185 111 44 168 255
-0.1645205 -0.23547325 -0.63712865 0.92387825 -0.3826866 5.3130805e-08 111 44 168 255
-0.1645205 0.23534253 -0.63712865 0.92388034 0.38268176 -6.550463e-08 111 44 168 255
-0.25968444 0.33050662 0.20874523 0.34158385 0.87557906 0.3415871 111 44 168 255
-0.25968444 0.33050653 -0.63712865 0.38268676 0.9238782 -1.2443513e-07 111 44 168 255
-0.7305003 0.33050662 0.20874523 -0.34159097 0.87557846 0.34158182 111 44 168 255
-0.7305003 0.33050653 -0.63712865 -0.38268214 0.92388016 -9.1851184e-08 111 44 168 255
-0.8256642 0.23534262 0.20874524 -0.87557924 0.3415837 0.34158716 111 44 168 255
-0.8256642 0.23534253 -0.63712865 -0.9238784 0.38268638 -5.3130815e-08 111 44 168 255
-0.7305003 0.23534264 0.3039086 -0.34157255 0.34158295 0.8755851 111 44 168 255
-0.25968444 0.23534264 0.3039086 0.34158823 0.34157786 0.87558097 111 44 168 255
3 0 1 2
3 3 4 5
3 6 7 8
3 9 10 11
3 0 4 3
3 14 4 19
3 3 10 9
3 18 10 15
3 9 7 6
3 16 7 17
3 6 1 0
3 9 0 3
3 1 13 2
3 14 10 5
3 13 4 2
3 11 17 7
3 16 1 8
3 0 2 4
3 14 5 4
3 3 5 10
3 18 11 10
3 9 11 7
3 16 8 7
3 6 8 1
3 9 6 0
3 1 12 13
3 14 15 10
3 13 19 4
3 11 18 17
3 16 12 1
3 20 21 24
3 20 22 21
3 22 20 25
3 25 20 23
3 20 24 23
3 26 28 25
3 25 23 26
3 22 25 27
3 27 25 28
3 27 28 29
3 26 30 28
3 29 28 30
3 29 30 31
3 31 32 29
3 31 33 32
3 34 32 33
3 34 33 35
3 35 36 34
3 35 37 36
3 21 36 37
3 21 37 24
3 38 36 21
3 38 34 36
3 39 34 38
3 38 27 39
3 38 22 27
3 38 21 22
3 27 29 39
3 39 32 34
3 39 29 32
