ply
format ascii 1.0
comment Created in Blender version 4.2.9 LTS
element vertex 40
property float x
property float y
property float z
property float nx
property float ny
property float nz
property uchar red
property uchar green
property uchar blue
property uchar alpha
element face 60
property list uchar uint vertex_indices
end_header
-0.23540948 -0.33057174 0.22838365 -0.34158182 -0.87558126 0.34158382 111 44 168 255
-0.23540948 -0.2354094 0.3235468 -0.34158736 -0.34158096 0.8755801 111 44 168 255
-0.33057344 -0.23540941 0.22838363 -0.8755827 -0.34158286 0.34157908 111 44 168 255
-0.23540948 0.23540795 0.32354674 -0.34157225 0.34158275 0.8755853 111 44 168 255
-0.23540948 0.33057192 0.22838359 -0.34157923 0.875584 0.34157935 111 44 168 255
-0.33057344 0.23540793 0.2283836 -0.8755789 0.34158486 0.34158677 111 44 168 255
0.23540625 -0.2354094 0.3235468 0.3415717 -0.34158587 0.8755843 111 44 168 255
0.23540625 -0.33057174 0.22838365 0.34158126 -0.8755856 0.3415731 111 44 168 255
0.33057022 -0.23540941 0.22838363 0.875582 -0.3415786 0.34158513 111 44 168 255
0.23540625 0.23540795 0.32354674 0.34158778 0.3415775 0.8755814 111 44 168 255
0.33057022 0.23540793 0.2283836 0.8755796 0.34158912 0.34158075 111 44 168 255
0.23540625 0.33057192 0.22838359 0.34157982 0.8755795 0.34159032 111 44 168 255
-0.23540948 -0.33057183 -0.31069788 -0.38266242 -0.92388827 1.3449845e-07 111 44 168 255
-0.33057344 -0.23540948 -0.31069788 -0.92387795 -0.3826874 2.7789282e-08 111 44 168 255
-0.23540948 0.33057183 -0.31069794 -0.38268352 0.92387956 -1.8267325e-07 111 44 168 255
0.23540625 0.33057183 -0.31069794 0.38267365 0.9238836 -1.5363076e-07 111 44 168 255
0.23540625 -0.33057183 -0.31069788 0.38267213 -0.9238842 1.6354096e-07 111 44 168 255
0.33057022 -0.23540948 -0.31069788 0.92387795 -0.3826873 2.778928e-08 111 44 168 255
0.33057022 0.23540786 -0.31069794 0.9238867 0.38266635 -5.124819e-08 111 44 168 255
-0.33057344 0.23540786 -0.31069794 -0.9238867 0.3826661 -5.1248193e-08 111 44 168 255
-0.2354353 -0.23540635 -1.5068536 -0.3415734 -0.34158796 -0.8755828 170 100 48 255
-0.33059928 -0.23540634 -1.4116894 -0.875575 -0.34159353 -0.3415882 170 100 48 255
-0.2354353 -0.33056873 -1.4116894 -0.3415907 -0.87557924 -0.34157997 170 100 48 255
-0.2354353 0.23541105 -1.5068536 -0.3415896 0.34157944 -0.87557983 170 100 48 255
-0.33059928 0.23541106 -1.4116894 -0.87558025 0.34158957 -0.34157866 170 100 48 255
0.23538049 -0.23540635 -1.5068536 0.34158918 -0.34158278 -0.8755787 170 100 48 255
0.23538049 0.23541105 -1.5068536 0.34157354 0.34158444 -0.8755842 170 100 48 255
0.33054447 0.23541106 -1.4116894 0.8755793 0.34158593 -0.34158468 170 100 48 255
0.23538049 0.33057502 -1.4116894 0.34159356 0.875577 -0.341583 170 100 48 255
0.33054447 -0.23540634 -1.4116894 0.8755757 -0.34159735 -0.3415825 170 100 48 255
0.23538049 -0.33056873 -1.4116894 0.34158254 -0.875582 -0.3415813 170 100 48 255
0.33054447 0.23541111 -0.31069708 0.92387587 0.38269234 -1.3606702e-08 170 100 48 255
0.33054447 -0.23540628 -0.31069702 0.9238776 -0.38268808 1.46599035e-08 170 100 48 255
0.23538049 -0.33056867 -0.31069702 0.3826886 -0.9238774 4.472099e-08 170 100 48 255
-0.2354353 -0.33056867 -0.31069702 -0.38268048 -0.92388076 5.7274526e-08 170 100 48 255
-0.33059928 -0.23540628 -0.31069702 -0.92387795 -0.3826873 2.7213048e-08 170 100 48 255
-0.33059928 0.23541111 -0.31069708 -0.9238755 0.38269314 -1.46601025e-08 170 100 48 255
-0.2354353 0.33057502 -1.4116894 -0.3415855 0.8755796 -0.3415843 170 100 48 255
-0.2354353 0.3305751 -0.31069708 -0.3826925 0.9238758 -6.783113e-08 170 100 48 255
0.23538049 0.3305751 -0.31069708 0.3826845 0.9238791 -7.688955e-08 170 100 48 255
3 7 12 16
3 18 8 17
3 3 6 9
3 2 19 13
3 4 15 14
3 0 1 2
3 3 4 5
3 6 7 8
3 9 10 11
3 12 2 13
3 3 2 1
3 9 4 3
3 6 10 9
3 1 7 6
3 16 8 7
3 18 11 10
3 4 19 5
3 7 0 12
3 18 10 8
3 3 1 6
3 2 5 19
3 4 11 15
3 12 0 2
3 3 5 2
3 9 11 4
3 6 8 10
3 1 0 7
3 16 17 8
3 18 15 11
3 4 14 19
3 20 21 24
3 20 22 21
3 25 22 20
3 26 20 23
3 20 24 23
3 26 25 20
3 26 27 29
3 26 28 27
3 23 28 26
3 26 29 25
3 25 29 30
3 30 29 32
3 31 32 29
3 31 29 27
3 30 32 33
3 33 22 30
3 33 34 22
3 34 21 22
3 34 35 21
3 21 35 36
3 37 24 36
3 37 36 38
3 21 36 24
3 38 28 37
3 38 39 28
3 27 28 39
3 27 39 31
3 23 37 28
3 23 24 37
3 25 30 22
