ply
format ascii 1.0
comment Created in Blender version 4.2.9 LTS
element vertex 151
property float x
property float y
property float z
property float nx
property float ny
property float nz
property uchar red
property uchar green
property uchar blue
property uchar alpha
element face 210
property list uchar uint vertex_indices
end_header
-0.84902716 -0.6019694 4.8129735 -0.74773705 -0.26326033 -0.60957634 88 39 17 255
-0.84902716 0.60183287 4.8129735 -0.7519759 0.28168896 -0.5959728 88 39 17 255
0.59809375 -0.8452881 4.8129735 0.26819873 -0.7297301 -0.6289383 88 39 17 255
0.59809375 0.8451514 4.8129735 0.27266335 0.7637612 -0.58508414 88 39 17 255
-0.6057344 -0.84528494 4.8129745 -0.27112958 -0.73047227 -0.6268166 88 39 17 255
0.8156393 1.1246142 5.2791624 0.32280675 0.712838 0.6226218 88 39 17 255
0.8156393 -1.1671312 5.2791624 0.3189407 -0.71741384 0.6193498 88 39 17 255
-0.6057344 0.8451547 4.8129745 -0.27568457 0.7644091 -0.5828179 88 39 17 255
-1.1462368 0.7947449 5.2791624 -0.7165579 0.31558034 0.62205625 88 39 17 255
0.8413866 -0.60196626 4.8129745 0.7421774 -0.26256534 -0.61662966 88 39 17 255
-1.1462368 -0.8372617 5.2791624 -0.7138004 -0.32507223 0.62033635 88 39 17 255
0.8413866 0.60183614 4.8129745 0.74650294 0.28091338 -0.6031758 88 39 17 255
-0.8164024 -1.167127 5.2791634 -0.3174442 -0.7179162 0.61953664 88 39 17 255
-0.8164024 1.1246188 5.2791634 -0.32122755 0.713257 0.6229585 88 39 17 255
1.1454738 -0.8372573 5.2791634 0.7145163 -0.32440257 0.6198625 88 39 17 255
1.1454738 0.79474944 5.2791634 0.7172528 0.3149672 0.62156594 88 39 17 255
0.8156393 1.1246142 5.2791624 0 0 1 88 39 17 255
0.8156393 -1.1671312 5.2791624 0 0 1 88 39 17 255
-1.1462368 0.7947449 5.2791624 0 0 1 88 39 17 255
-1.1462368 -0.8372617 5.2791624 0 0 1 88 39 17 255
-0.8164024 -1.167127 5.2791634 0 0 1 88 39 17 255
-0.8164024 1.1246188 5.2791634 0 0 1 88 39 17 255
1.1454738 -0.8372573 5.2791634 0 0 1 88 39 17 255
1.1454738 0.79474944 5.2791634 0 0 1 88 39 17 255
0.8156393 1.1246142 5.2791624 0.28408468 0.7105491 0.6437514 88 39 17 255
0.8156393 -1.1671312 5.2791624 0.28411084 -0.7106023 0.64368117 88 39 17 255
-1.1462368 0.7947449 5.2791624 -0.7106185 0.28405747 0.64368683 88 39 17 255
-1.1462368 -0.8372617 5.2791624 -0.710614 -0.2840625 0.6436896 88 39 17 255
-0.8164024 -1.167127 5.2791634 -0.28410828 -0.71060663 0.64367753 88 39 17 255
-0.8164024 1.1246188 5.2791634 -0.28411132 0.7106028 0.6436804 88 39 17 255
1.1454738 -0.8372573 5.2791634 0.7106187 -0.28405815 0.64368635 88 39 17 255
1.1454738 0.79474944 5.2791634 0.71061414 0.2840635 0.643689 88 39 17 255
0.89591974 1.2373453 5.9229727 0.3940959 0.9095336 0.13204923 88 39 17 255
0.89591974 -1.2798626 5.9229727 0.39409253 -0.90953594 0.13204351 88 39 17 255
-1.2589663 0.8750233 5.9229727 -0.90955555 0.39404643 0.13204671 88 39 17 255
-1.2589663 -0.9175405 5.9229727 -0.90955657 -0.3940462 0.13204037 88 39 17 255
-0.8966827 -1.2798581 5.9229736 -0.3940952 -0.90953374 0.13205045 88 39 17 255
-0.8966827 1.2373502 5.9229736 -0.39409167 0.9095362 0.1320446 88 39 17 255
1.2582034 -0.9175357 5.9229736 0.90955526 -0.39404672 0.13204716 88 39 17 255
1.2582034 0.8750283 5.9229736 0.9095562 0.39404678 0.13204063 88 39 17 255
0.7185698 0.9883075 6.48018 0.26557198 0.66806054 0.69510186 88 39 17 255
0.7185698 -1.0308238 6.48018 0.26557472 -0.6680593 0.69510204 88 39 17 255
-1.0099318 0.6976776 6.48018 -0.66808563 0.26552814 0.6950946 88 39 17 255
-1.0099318 -0.7401939 6.48018 -0.6680822 -0.26553336 0.6950959 88 39 17 255
-0.71933275 -1.0308201 6.4801807 -0.26557246 -0.6680608 0.6951015 88 39 17 255
-0.71933275 0.9883114 6.4801807 -0.26557472 0.66805947 0.6951019 88 39 17 255
1.0091689 -0.74019 6.4801807 0.66808414 -0.2655295 0.6950954 88 39 17 255
1.0091689 0.69768167 6.4801807 0.6680805 0.2655348 0.6950969 88 39 17 255
-0.3337018 0.4467997 6.765486 -0.08068361 0.24559307 0.96600944 88 39 17 255
0.33293867 0.4467978 6.765486 0.08068254 0.24559608 0.9660087 88 39 17 255
-0.3337018 -0.48931032 6.765486 -0.080682315 -0.24559572 0.96600896 88 39 17 255
0.33293867 -0.48931193 6.765486 0.080682136 -0.24559316 0.96600956 88 39 17 255
-0.4684294 -0.3545702 6.765486 -0.24559551 -0.08067003 0.96601003 88 39 17 255
0.4676662 -0.35456836 6.765486 0.24559703 -0.08066941 0.9660096 88 39 17 255
0.4676662 0.31205785 6.765486 0.24559402 0.080669776 0.96601033 88 39 17 255
-0.4684294 0.312056 6.765486 -0.24560238 0.080669604 0.9660083 88 39 17 255
-0.23212409 -0.57570976 3.1313555 0.04090516 0.8710204 -0.4895409 254 254 0 255
-0.29719514 -0.57570976 3.130585 0.0031187772 0.86122406 -0.5082159 254 254 0 255
-0.23394406 -0.5018993 3.23179 -0.0045665335 0.80929875 -0.5873795 254 254 0 255
-0.3006088 -0.5018993 3.2328799 -0.009568129 0.81075096 -0.5853132 254 254 0 255
-0.188835 -0.6378587 3.0264626 0.16067897 0.9622419 -0.21971071 254 254 0 255
-0.24225134 -0.6378587 2.9873981 0.09884805 0.9763998 -0.19202243 254 254 0 255
-0.13056126 -0.6378587 2.9415495 0 1 0 254 254 0 255
-0.165663 -0.6378587 2.89416 0 1 -1.3671642e-09 254 254 0 255
-0.068957575 -0.6378587 2.8916006 0 1 -2.271709e-09 254 254 0 255
-0.06909505 -0.6378587 2.8209016 -6.861361e-08 1 2.8488913e-07 254 254 0 255
0.21592483 -0.57570976 3.1313553 0.040901948 -0.8710205 0.48954117 254 254 0 255
0.2809959 -0.57570976 3.130585 0.0031152947 -0.861224 0.5082162 254 254 0 255
0.2177448 -0.5018993 3.2317898 -0.0045712306 -0.809299 0.5873792 254 254 0 255
0.28440955 -0.5018993 3.2328799 -0.009571677 -0.8107513 0.5853125 254 254 0 255
0.17263576 -0.6378587 3.0264626 0.16067924 -0.9622418 0.21971105 254 254 0 255
0.2260521 -0.6378587 2.9873981 0.09884822 -0.9763997 0.19202286 254 254 0 255
0.11436201 -0.6378587 2.9415495 0 -1 4.1632225e-07 254 254 0 255
0.14946377 -0.6378587 2.89416 0 -1 4.933547e-07 254 254 0 255
0.05275833 -0.6378587 2.8916006 0 -1 2.254318e-09 254 254 0 255
0.052895807 -0.6378587 2.8209016 -7.201988e-08 -1 1.7352368e-09 254 254 0 255
-0.005945094 -0.6378587 2.940593 -6.650168e-06 1 1.3864167e-05 254 254 0 255
0.23608837 -0.6378586 2.4356463 -1.1722891e-07 1 4.897133e-07 254 254 0 255
-0.24931675 -0.6378586 2.4350038 -1.2116735e-07 -1 0 254 254 0 255
0.52157634 -0.86058867 4.5863695 0 1 0 0 0 0 255
0.03312579 -0.86058867 4.368302 0 1 0 0 0 0 255
0.52157634 -0.86058867 4.647727 0 1 0 0 0 0 255
0.03312579 -0.86058867 4.5080285 0 1 0 0 0 0 255
0.065860935 -0.8605887 3.8455527 -6.228353e-09 1 -1.7610387e-06 133 0 4 255
-0.08745336 -0.8605887 3.8481126 -9.996871e-09 1 -9.763859e-07 133 0 4 255
0.15061909 -0.86058867 3.9459872 -5.3537037e-09 1 -1.9431518e-06 133 0 4 255
-0.15247074 -0.86058867 3.9487424 -7.964914e-09 1 -1.3994648e-06 133 0 4 255
0.25677997 -0.8605887 4.277602 0 1 0 0 0 0 255
0.087726094 -0.8605887 4.286011 0 1 0 0 0 0 255
0.25677997 -0.8605887 4.383338 0 1 0 0 0 0 255
0.087726094 -0.8605887 4.323261 0 1 0 0 0 0 255
0.33621562 -0.8605887 3.936856 -2.4857223e-07 1 0 0 0 0 255
0.033125807 -0.8605887 4.0144105 -2.2260424e-07 1 -1.2551409e-06 0 0 0 255
0.33621562 -0.86058867 3.998213 -2.4256983e-07 1 -2.901212e-07 0 0 0 255
0.033125807 -0.86058867 4.154137 -2.1945328e-07 1 -1.407439e-06 0 0 0 255
-0.26371142 -0.8605887 4.277602 0 -1 0 0 0 0 255
-0.09465753 -0.8605887 4.286011 0 -1 0 0 0 0 255
-0.26371142 -0.8605887 4.383338 0 -1 0 0 0 0 255
-0.09465753 -0.8605887 4.323261 0 -1 0 0 0 0 255
-0.34314707 -0.8605887 3.936856 -2.485722e-07 -1 0 0 0 0 255
-0.04005724 -0.8605887 4.0144105 -2.226042e-07 -1 1.2551405e-06 0 0 0 255
-0.34314707 -0.86058867 3.998213 -2.425698e-07 -1 2.9012114e-07 0 0 0 255
-0.04005724 -0.86058867 4.154137 -2.1945327e-07 -1 1.4074387e-06 0 0 0 255
-0.52850777 -0.8605887 4.5863695 0 -1 0 0 0 0 255
-0.04005724 -0.8605887 4.368302 0 -1 0 0 0 0 255
-0.52850777 -0.8605887 4.6477265 0 -1 0 0 0 0 255
-0.04005724 -0.8605887 4.5080285 0 -1 0 0 0 0 255
-0.60047233 -0.43759665 0.43302596 -0.33272532 -0.40414873 -0.8520315 111 44 168 255
-0.60047233 -0.61446834 0.67634445 -0.28436753 -0.915573 -0.28436112 111 44 168 255
-0.84379095 -0.43759662 0.67634445 -0.85202867 -0.40414673 -0.33273497 111 44 168 255
-0.60047233 -0.61446816 3.0132265 -0.2843631 -0.91557425 0.2843617 111 44 168 255
-0.60047233 -0.43759644 3.256546 -0.33273923 -0.4041409 0.8520299 111 44 168 255
-0.84379095 -0.43759644 3.0132265 -0.8520245 -0.40415785 0.33273214 111 44 168 255
-0.60047233 0.43746418 0.4330259 -0.33273858 0.40414014 -0.8520305 111 44 168 255
-0.84379095 0.4374642 0.67634434 -0.85202426 0.40415767 -0.332733 111 44 168 255
-0.60047233 0.6143359 0.67634434 -0.28436294 0.915574 -0.28436258 111 44 168 255
-0.60047233 0.4374644 3.256546 -0.33272597 0.40414923 0.852031 111 44 168 255
-0.60047233 0.6143361 3.0132265 -0.2843677 0.9155733 0.28436026 111 44 168 255
-0.84379095 0.4374644 3.0132265 -0.85202897 0.404147 0.33273426 111 44 168 255
0.60332996 -0.43759665 0.43302596 0.33273864 -0.4041402 -0.8520304 111 44 168 255
0.8466485 -0.43759662 0.67634445 0.85202426 -0.40415767 -0.33273295 111 44 168 255
0.60332996 -0.61446834 0.67634445 0.28436303 -0.915574 -0.28436252 111 44 168 255
0.60332996 -0.43759644 3.256546 0.33272606 -0.40414938 0.852031 111 44 168 255
0.60332996 -0.61446816 3.0132265 0.28436783 -0.9155732 0.28436026 111 44 168 255
0.8466485 -0.43759644 3.0132265 0.85202897 -0.40414676 0.33273417 111 44 168 255
0.60332996 0.43746418 0.4330259 0.3327254 0.40414855 -0.85203165 111 44 168 255
0.60332996 0.6143359 0.67634434 0.28436765 0.9155729 -0.28436124 111 44 168 255
0.8466485 0.4374642 0.67634434 0.85202867 0.40414664 -0.3327351 111 44 168 255
0.60332996 0.4374644 3.256546 0.3327393 0.40414077 0.8520298 111 44 168 255
0.8466485 0.4374644 3.0132265 0.8520245 0.4041579 0.33273217 111 44 168 255
0.60332996 0.6143361 3.0132265 0.28436306 0.9155743 0.2843616 111 44 168 255
-0.60570854 -0.60196954 3.3658526 -0.3415736 -0.34158394 -0.8755843 170 100 48 255
-0.60570854 -0.84528816 3.6091712 -0.34158152 -0.8755841 -0.34157655 170 100 48 255
-0.84902716 -0.6019695 3.6091712 -0.87558 -0.34157628 -0.34159222 170 100 48 255
-0.84902716 -0.6019694 4.8129735 -0.92389286 -0.38265124 3.8937575e-08 170 100 48 255
-0.60570854 0.60183275 3.3658526 -0.34158915 0.34157896 -0.8755802 170 100 48 255
-0.84902716 0.6018328 3.6091712 -0.8755842 0.3415841 -0.3415739 170 100 48 255
-0.60570854 0.84515136 3.6091712 -0.34157905 0.8755796 -0.3415909 170 100 48 255
-0.84902716 0.60183287 4.8129735 -0.92389256 0.3826521 -7.6246665e-06 170 100 48 255
0.59809375 -0.60196954 3.3658526 0.34158945 -0.34157878 -0.87558013 170 100 48 255
0.8414123 -0.6019695 3.6091712 0.87558806 -0.34158424 -0.3415639 170 100 48 255
0.59809375 -0.84528816 3.6091712 0.34158263 -0.87558013 -0.34158584 170 100 48 255
0.59809375 -0.8452881 4.8129735 0.38269955 -0.9238729 7.752091e-07 170 100 48 255
0.59809375 0.60183275 3.3658526 0.3415737 0.34158403 -0.8755843 170 100 48 255
0.59809375 0.84515136 3.6091712 0.34158438 0.87558407 -0.34157413 170 100 48 255
0.8414123 0.6018328 3.6091712 0.8755836 0.34157613 -0.34158325 170 100 48 255
0.59809375 0.8451514 4.8129735 0.38269344 0.9238754 5.8308037e-06 170 100 48 255
-0.6057344 -0.84528494 4.8129745 -0.382698 -0.92387354 2.1675841e-07 170 100 48 255
-0.6057344 0.8451547 4.8129745 -0.3827035 0.9238713 -1.0024175e-05 170 100 48 255
0.8413866 -0.60196626 4.8129745 0.92389226 -0.3826529 1.3180223e-05 170 100 48 255
0.8413866 0.60183614 4.8129745 0.923892 0.38265353 1.8636149e-05 170 100 48 255
3 5 21 16
3 8 19 18
3 10 20 19
3 15 16 23
3 14 23 22
3 12 17 20
3 9 15 14
3 4 10 0
3 11 5 15
3 0 8 1
3 2 14 6
3 1 13 7
3 2 12 4
3 3 13 5
3 13 18 21
3 6 22 17
3 18 27 26
3 21 26 29
3 17 30 25
3 20 25 28
3 16 29 24
3 22 31 30
3 23 24 31
3 19 28 27
3 31 38 30
3 24 39 31
3 28 35 27
3 29 32 24
3 27 34 26
3 29 34 37
3 25 38 33
3 25 36 28
3 38 47 46
3 39 40 47
3 35 44 43
3 37 40 32
3 34 43 42
3 34 45 37
3 38 41 33
3 36 41 44
3 42 52 55
3 52 51 54
3 42 48 45
3 46 51 41
3 44 51 50
3 46 54 53
3 47 49 54
3 43 50 52
3 40 48 49
3 57 58 56
3 56 61 57
3 61 62 63
3 63 64 65
3 67 68 66
3 66 71 67
3 71 72 73
3 73 74 75
3 65 76 77
3 75 76 78
3 79 82 81
3 83 86 85
3 87 90 89
3 92 93 91
3 95 98 97
3 100 101 99
3 103 106 105
3 123 108 121
3 129 120 127
3 116 122 128
3 112 114 109
3 117 126 115
3 107 108 109
3 110 111 112
3 113 114 115
3 116 117 118
3 119 120 121
3 122 123 124
3 125 126 127
3 128 129 130
3 107 114 113
3 110 109 108
3 116 112 111
3 115 118 117
3 113 126 125
3 128 117 116
3 127 130 129
3 125 120 119
3 122 129 128
3 121 124 123
3 119 108 107
3 111 123 122
3 125 107 113
3 123 110 108
3 129 124 120
3 116 111 122
3 112 118 114
3 117 130 126
3 107 109 114
3 110 112 109
3 116 118 112
3 115 114 118
3 113 115 126
3 128 130 117
3 127 126 130
3 125 127 120
3 122 124 129
3 121 120 124
3 119 121 108
3 111 110 123
3 125 119 107
3 142 132 141
3 150 140 145
3 134 136 133
3 148 144 137
3 131 132 133
3 135 136 137
3 139 140 141
3 143 144 145
3 131 136 135
3 147 133 132
3 137 138 148
3 135 144 143
3 145 146 150
3 143 140 139
3 141 149 142
3 139 132 131
3 143 131 135
3 142 147 132
3 150 149 140
3 134 138 136
3 148 146 144
3 131 133 136
3 147 134 133
3 137 136 138
3 135 137 144
3 145 144 146
3 143 145 140
3 141 140 149
3 139 141 132
3 143 139 131
3 5 13 21
3 8 10 19
3 10 12 20
3 15 5 16
3 14 15 23
3 12 6 17
3 9 11 15
3 4 12 10
3 11 3 5
3 0 10 8
3 2 9 14
3 1 8 13
3 2 6 12
3 3 7 13
3 13 8 18
3 6 14 22
3 18 19 27
3 21 18 26
3 17 22 30
3 20 17 25
3 16 21 29
3 22 23 31
3 23 16 24
3 19 20 28
3 31 39 38
3 24 32 39
3 28 36 35
3 29 37 32
3 27 35 34
3 29 26 34
3 25 30 38
3 25 33 36
3 38 39 47
3 39 32 40
3 35 36 44
3 37 45 40
3 34 35 43
3 34 42 45
3 38 46 41
3 36 33 41
3 42 43 52
3 54 49 48
3 48 55 52
3 52 50 51
3 51 53 54
3 54 48 52
3 42 55 48
3 46 53 51
3 44 41 51
3 46 47 54
3 47 40 49
3 43 44 50
3 40 45 48
3 57 59 58
3 56 60 61
3 61 60 62
3 63 62 64
3 67 69 68
3 66 70 71
3 71 70 72
3 73 72 74
3 65 64 76
3 75 74 76
3 79 80 82
3 83 84 86
3 87 88 90
3 92 94 93
3 95 96 98
3 100 102 101
3 103 104 106
