ply
format ascii 1.0
comment Created in Blender version 4.2.8 LTS
element vertex 32
property float x
property float y
property float z
property float nx
property float ny
property float nz
property uchar red
property uchar green
property uchar blue
property uchar alpha
element face 60
property list uchar uint vertex_indices
end_header
0.23541407 -0.3305734 0.1851007 0.34159023 -0.8755856 0.34156403 167 254 139 255
-0.23540194 -0.33057332 -0.35398126 -0.38541055 -0.9182011 -0.09146368 167 254 139 255
0.33057803 0.23540662 -0.3539812 0.9181949 0.3854229 -0.0914739 167 254 139 255
0.33057803 -0.23541042 0.18510072 0.87558275 -0.34158447 0.34157735 167 254 139 255
0.33057803 -0.23541035 -0.35398126 0.9181641 -0.3854959 -0.09147597 167 254 139 255
-0.23540194 0.23540653 0.28026387 -0.341572 0.34158224 0.8755856 167 254 139 255
0.23541407 -0.23541044 0.2802638 0.34157193 -0.34158462 0.8755847 167 254 139 255
0.23541407 0.23540653 0.28026387 0.34158778 0.34157714 0.8755815 167 254 139 255
-0.330566 -0.23541042 0.18510072 -0.87558305 -0.34158155 0.3415794 167 254 139 255
-0.330566 0.23540662 -0.3539812 -0.9181957 0.38542563 -0.09145409 167 254 139 255
-0.330566 -0.23541035 -0.35398126 -0.9181935 -0.3854302 -0.09145705 167 254 139 255
-0.23540194 0.33057055 0.1851008 -0.34157926 0.87558377 0.34157985 167 254 139 255
0.23541407 0.33057064 -0.3539812 0.38542342 0.9181952 -0.09146824 167 254 139 255
-0.23540194 0.33057064 -0.3539812 -0.38543147 0.9181928 -0.09145931 167 254 139 255
-0.23540194 -0.3305734 0.1851007 -0.34158286 -0.8755803 0.34158498 167 254 139 255
-0.23540194 -0.23541044 0.2802638 -0.34158742 -0.34157965 0.87558067 167 254 139 255
-0.330566 0.23540655 0.18510078 -0.87557876 0.34158477 0.34158716 167 254 139 255
0.33057803 0.23540655 0.18510078 0.8755796 0.34158885 0.34158093 167 254 139 255
0.23541407 0.33057055 0.1851008 0.3415799 0.8755793 0.34159067 167 254 139 255
-0.10958703 -0.109565616 -1.5162218 -0.34157348 -0.34158632 -0.8755834 167 254 139 255
-0.10958703 -0.15385771 -1.4719292 -0.32287616 -0.8439161 -0.42843512 167 254 139 255
-0.1538796 -0.109565616 -1.4719292 -0.8439169 -0.3228762 -0.42843348 167 254 139 255
-0.10958703 0.10956843 -1.5162218 -0.34158936 0.34157896 -0.87558013 167 254 139 255
-0.1538796 0.10956843 -1.4719292 -0.8439199 0.32287443 -0.42842895 167 254 139 255
-0.10958703 0.15386093 -1.4719292 -0.32287663 0.84391475 -0.42843738 167 254 139 255
0.10954659 -0.109565616 -1.5162218 0.3415891 -0.34158057 -0.8755796 167 254 139 255
0.15383916 -0.109565616 -1.4719292 0.84390855 -0.3228757 -0.42845052 167 254 139 255
0.10954659 -0.15385771 -1.4719292 0.32286763 -0.8439146 -0.42844462 167 254 139 255
0.10954659 0.10956843 -1.5162218 0.34157377 0.34158462 -0.875584 167 254 139 255
0.10954659 0.15386093 -1.4719292 0.32287115 0.8439142 -0.42844254 167 254 139 255
0.15383916 0.10956843 -1.4719292 0.8439089 0.32287306 -0.42845154 167 254 139 255
0.23538809 -0.3305703 -0.3539803 0.38536114 -0.9182214 -0.091467895 167 254 139 255
3 0 1 31
3 2 3 4
3 5 6 7
3 8 9 10
3 11 12 13
3 14 15 8
3 5 11 16
3 6 0 3
3 7 17 18
3 1 8 10
3 5 8 15
3 7 11 5
3 6 17 7
3 15 0 6
3 31 3 0
3 2 18 17
3 11 9 16
3 19 20 21
3 22 23 24
3 25 26 27
3 28 29 30
3 19 23 22
3 24 9 13
3 22 29 28
3 30 12 2
3 28 26 25
3 27 4 31
3 25 20 19
3 28 19 22
3 1 21 20
3 13 29 24
3 21 9 23
3 2 26 30
3 31 20 27
3 0 14 1
3 2 17 3
3 5 15 6
3 8 16 9
3 11 18 12
3 1 14 8
3 5 16 8
3 7 18 11
3 6 3 17
3 15 14 0
3 31 4 3
3 2 12 18
3 11 13 9
3 19 21 23
3 24 23 9
3 22 24 29
3 30 29 12
3 28 30 26
3 27 26 4
3 25 27 20
3 28 25 19
3 1 10 21
3 13 12 29
3 21 10 9
3 2 4 26
3 31 1 20
