ply
format ascii 1.0
comment Created in Blender version 4.2.8 LTS
element vertex 80
property float x
property float y
property float z
property float nx
property float ny
property float nz
property uchar red
property uchar green
property uchar blue
property uchar alpha
element face 140
property list uchar uint vertex_indices
end_header
0.603346 -0.6144004 3.0132267 0.2843684 -0.9155728 0.28436074 164 250 137 255
-0.600457 -0.6144001 0.67634386 -0.2843684 -0.9155725 -0.284362 164 250 137 255
0.603346 -0.6144001 0.67634386 0.28436372 -0.91557354 -0.28436342 164 250 137 255
0.846664 0.43753254 3.0132267 0.8520249 0.4041572 0.33273217 168 250 142 255
0.846664 -0.43752807 0.67634386 0.8520246 -0.40415686 -0.33273312 164 250 137 255
0.846664 0.43753287 0.676344 0.85202867 0.40414694 -0.33273488 164 250 137 255
-0.600457 0.4375325 3.2565458 -0.33272633 0.4041485 0.85203135 164 250 137 255
0.603346 -0.43752843 3.2565458 0.3327262 -0.40414876 0.8520311 164 250 137 255
0.603346 0.4375325 3.2565458 0.3327394 0.40414014 0.85203016 164 250 137 255
-0.843775 -0.4375284 3.0132267 -0.852025 -0.40415704 0.3327321 164 250 137 255
-0.843775 0.43753287 0.676344 -0.85202426 0.4041581 -0.33273277 164 250 137 255
-0.843775 -0.43752807 0.67634386 -0.8520291 -0.4041459 -0.33273515 164 250 137 255
-0.600457 0.6144045 3.0132267 -0.28436866 0.9155728 0.28436086 164 250 137 255
0.603346 0.61440384 0.676344 0.2843674 0.9155732 -0.2843609 164 250 137 255
-0.600457 0.61440384 0.676344 -0.2843628 0.9155742 -0.28436223 164 250 137 255
-0.600457 -0.43752804 0.4330259 -0.3327255 -0.4041478 -0.8520319 164 250 137 255
-0.600457 -0.6144004 3.0132267 -0.2843639 -0.9155738 0.28436226 164 250 137 255
-0.600457 -0.43752843 3.2565458 -0.33273956 -0.40414008 0.85203004 164 250 137 255
-0.600457 0.4375329 0.43302602 -0.3327387 0.40414053 -0.85203016 164 250 137 255
-0.843775 0.43753254 3.0132267 -0.85202944 0.40414602 0.33273417 164 250 137 255
0.603346 -0.43752804 0.4330259 0.33273867 -0.40413934 -0.8520308 164 250 137 255
0.846664 -0.4375284 3.0132267 0.8520292 -0.40414622 0.3327341 165 250 140 255
0.603346 0.4375329 0.43302602 0.33272538 0.4041491 -0.85203135 164 250 137 255
0.603346 0.6144045 3.0132267 0.28436357 0.91557384 0.28436226 164 250 137 255
0.598109 -0.8452196 4.8129725 0.34888735 -0.92393386 0.15692022 164 250 137 255
-0.47740468 -0.6685392 3.6091707 -0.33060527 -0.8837311 -0.33123922 164 250 137 255
0.46982083 -0.6685392 3.6091707 0.33060172 -0.883736 -0.33123013 164 250 137 255
0.841402 0.6019043 4.8129735 0.9241557 0.34907466 0.15518732 164 250 137 255
0.66127914 -0.4770809 3.6091707 0.88395053 -0.3323486 -0.32890117 164 250 137 255
0.66127914 0.47014448 3.6091707 0.88534844 0.32997 -0.32753313 164 250 137 255
-0.849011 -0.6019016 4.8129725 -0.92422706 -0.34843382 0.15619946 164 250 137 255
-0.6688623 0.47014448 3.6091707 -0.8853487 0.32996735 -0.32753518 164 250 137 255
-0.6688623 -0.4770809 3.6091707 -0.88394433 -0.3323502 -0.32891634 164 250 137 255
-0.605719 0.8452223 4.8129735 -0.3487126 0.9244106 0.15448222 164 250 137 255
0.46982083 0.6616029 3.6091707 0.3317297 0.8855737 -0.32513818 164 250 137 255
-0.47740468 0.6616029 3.6091707 -0.33173543 0.88556993 -0.32514232 164 250 137 255
-0.510932 -0.50714046 3.3658528 -0.42595568 -0.42204702 -0.8002738 164 250 137 255
-0.510932 0.5071395 3.3658528 -0.42687365 0.4308021 -0.7951028 164 250 137 255
0.50334805 -0.50714046 3.3658528 0.42598662 -0.4220293 -0.8002667 164 250 137 255
0.50334805 0.5071395 3.3658528 0.42684174 0.43081963 -0.7951105 164 250 137 255
-0.605719 -0.8452166 4.8129735 -0.348872 -0.9239407 0.15691367 164 250 137 255
-0.849011 0.6019003 4.8129725 -0.9241659 0.34906426 0.15515019 164 250 137 255
0.598109 0.8452193 4.8129725 0.3487045 0.92441094 0.15449822 164 250 137 255
0.841402 -0.6018986 4.8129735 0.9242229 -0.34842482 0.1562439 164 250 137 255
-0.66784066 0.66402596 5.084648 -0.50958025 0.5095758 0.6932968 164 250 137 255
0.66020566 -0.6640203 5.084648 0.5095521 -0.50957054 0.69332135 164 250 137 255
0.66020566 0.66402596 5.084648 0.50957537 0.509552 0.6933179 164 250 137 255
-0.66784066 -0.6640203 5.084648 -0.5096019 -0.5095518 0.6932986 164 250 137 255
-0.39045605 0.38664132 5.291154 -0.26876137 0.26876655 0.92494965 164 250 137 255
0.06911448 -0.07292919 5.35501 0.35686508 -0.36524424 0.85979295 164 250 137 255
0.06911448 0.07293476 5.35501 0.38121504 0.3719955 0.8463418 164 250 137 255
-0.076749474 -0.07292919 5.35501 -0.3568881 -0.3652281 0.8597904 164 250 137 255
-0.076749474 0.07293476 5.35501 -0.38120943 0.37200978 0.8463381 164 250 137 255
0.38282105 0.38664132 5.291154 0.26876688 0.26876134 0.92494965 164 250 137 255
-0.39045605 -0.38663575 5.291154 -0.2687669 -0.26876158 0.9249495 164 250 137 255
0.38282105 -0.38663575 5.291154 0.26876137 -0.26876676 0.9249496 164 250 137 255
-0.05404068 0.14184502 6.403903 -0.47188535 0.36197227 -0.803928 164 250 137 255
0.046405684 0.042358596 6.4177566 0.46480313 -0.56678843 -0.68022716 164 250 137 255
0.046405684 0.14184502 6.403903 0.4718492 0.3617977 -0.804028 164 250 137 255
-0.05404068 0.042358596 6.4177566 -0.46482277 -0.56692475 -0.68010014 164 250 137 255
-0.099929884 0.1902618 6.4188743 -0.61818147 0.5452775 -0.5661485 164 250 137 255
0.09229489 -0.00012598358 6.445386 0.6181814 -0.6792076 -0.39563733 164 250 137 255
0.09229489 0.1902618 6.4188743 0.6181512 0.54530585 -0.56615424 164 250 137 255
-0.099929884 -0.00012598358 6.445386 -0.6181515 -0.6792348 -0.39563733 164 250 137 255
-0.099929884 0.22430612 6.6633554 -0.57733196 0.65146685 0.49221838 164 250 137 255
0.09229489 0.033918347 6.689867 0.577332 -0.49220628 0.6514758 164 250 137 255
0.09229489 0.22430612 6.6633554 0.577365 0.6514527 0.4921983 164 250 137 255
-0.099929884 0.033918347 6.689867 -0.5773651 -0.4921982 0.6514526 164 250 137 255
0.057760082 0.08793648 5.885094 0.7160421 0.69740516 -0.03016252 164 250 137 255
0.057760082 -0.03521867 5.885094 0.6979714 -0.7102439 0.09159477 164 250 137 255
-0.06539508 0.08793648 5.885094 -0.7159907 0.6974493 -0.030360486 164 250 137 255
-0.06539508 -0.03521867 5.885094 -0.69793725 -0.71029705 0.0914427 164 250 137 255
-0.13456255 -0.77028435 4.1779113 0.035992045 0.97690886 0.21060306 30 46 26 255
-0.40229306 -0.7702838 4.229302 0.04223492 0.9745808 0.22001904 18 25 14 255
-0.5096758 -0.8080653 4.417269 0.03694166 0.9765633 0.21203667 0 0 0 255
-0.252226 -0.8082271 4.3788385 0.030905236 0.97870845 0.20291537 1 2 1 255
0.13456112 -0.7702843 4.177911 0.03599166 -0.976909 -0.21060282 30 46 26 255
0.40229163 -0.77028376 4.2293015 0.042234823 -0.974581 -0.22001854 18 25 14 255
0.5096744 -0.80806524 4.4172688 0.036941316 -0.97656333 -0.2120364 0 0 0 255
0.25222456 -0.80822706 4.378838 0.030904619 -0.97870845 -0.20291536 1 2 1 255
3 0 1 2
3 3 4 5
3 6 7 8
3 9 10 11
3 12 13 14
3 15 1 11
3 16 17 9
3 18 10 14
3 6 12 19
3 20 4 2
3 7 0 21
3 22 13 5
3 8 3 23
3 15 10 18
3 16 11 1
3 6 9 17
3 14 19 12
3 18 13 22
3 8 12 6
3 5 23 3
3 22 4 20
3 7 3 8
3 2 21 0
3 20 1 15
3 17 0 7
3 22 15 18
3 0 16 1
3 3 21 4
3 6 17 7
3 9 19 10
3 12 23 13
3 15 11 10
3 16 9 11
3 6 19 9
3 14 10 19
3 18 14 13
3 8 23 12
3 5 13 23
3 22 5 4
3 7 21 3
3 2 4 21
3 20 2 1
3 17 16 0
3 22 20 15
3 27 28 29
3 30 31 32
3 33 34 35
3 36 25 32
3 37 31 35
3 38 28 26
3 39 34 29
3 36 31 37
3 40 32 25
3 35 41 33
3 37 34 39
3 29 42 27
3 39 28 38
3 26 43 24
3 38 25 36
3 39 36 37
3 46 44 48
3 46 48 53
3 40 47 30
3 44 33 41
3 45 24 43
3 46 27 42
3 44 30 47
3 46 33 44
3 45 27 46
3 47 24 45
3 27 43 28
3 30 41 31
3 33 42 34
3 36 32 31
3 40 30 32
3 35 31 41
3 37 35 34
3 29 34 42
3 39 29 28
3 26 28 43
3 25 26 40
3 24 40 26
3 39 38 36
3 47 45 55
3 47 55 54
3 44 41 30
3 46 42 33
3 45 43 27
3 38 26 25
3 47 40 24
3 68 70 56
3 68 56 58
3 69 68 58
3 69 58 57
3 45 46 53
3 45 53 55
3 44 47 54
3 44 54 48
3 52 50 53
3 52 53 48
3 51 52 48
3 51 48 54
3 50 49 55
3 50 55 53
3 49 51 54
3 49 54 55
3 58 56 60
3 58 60 62
3 57 58 62
3 57 62 61
3 71 69 57
3 71 57 59
3 70 71 59
3 70 59 56
3 62 60 64
3 62 64 66
3 61 62 66
3 61 66 65
3 59 57 61
3 59 61 63
3 56 59 63
3 56 63 60
3 64 65 66
3 64 67 65
3 63 61 65
3 63 65 67
3 60 63 67
3 60 67 64
3 52 51 71
3 52 71 70
3 51 49 69
3 51 69 71
3 49 50 68
3 49 68 69
3 50 52 70
3 50 70 68
3 72 73 74
3 72 74 75
3 76 77 78
3 76 78 79
