ply
format ascii 1.0
comment Created in Blender version 4.2.8 LTS
element vertex 32
property float x
property float y
property float z
property float nx
property float ny
property float nz
property uchar red
property uchar green
property uchar blue
property uchar alpha
element face 60
property list uchar uint vertex_indices
end_header
-0.57587457 -0.08081934 -2.714797 -0.3415734 -0.34158254 -0.8755849 167 254 139 255
-0.57587457 -0.11349098 -2.6821253 -0.28167757 -0.76765895 -0.5756367 167 254 139 255
-0.6085462 -0.080819346 -2.6821253 -0.7676406 -0.2816823 -0.57565886 167 254 139 255
-0.57587457 0.08082079 -2.714797 -0.3415896 0.3415814 -0.87557906 167 254 139 255
-0.6085462 0.080820784 -2.6821253 -0.76765025 0.28168407 -0.57564497 167 254 139 255
-0.57587457 0.113492414 -2.6821253 -0.28167078 0.7676577 -0.57564163 167 254 139 255
-0.4142344 -0.08081934 -2.714797 0.34158972 -0.34158128 -0.87557906 167 254 139 255
-0.38156277 -0.080819346 -2.6821253 0.767662 -0.28168616 -0.5756284 167 254 139 255
-0.4142344 -0.11349098 -2.6821253 0.28168324 -0.76766306 -0.5756283 167 254 139 255
-0.4142344 0.08082079 -2.714797 0.34157336 0.341583 -0.8755848 167 254 139 255
-0.4142344 0.113492414 -2.6821253 0.28168955 0.7676599 -0.57562965 167 254 139 255
-0.38156277 0.080820784 -2.6821253 0.7676601 0.28168613 -0.5756309 167 254 139 255
-0.6851599 0.13537921 -2.5178573 -0.88689625 0.37576538 -0.2687296 167 254 139 255
-0.30494893 0.13537921 -2.5178573 0.8868627 0.3758553 -0.26871443 167 254 139 255
-0.35967585 -0.19010477 -2.5178573 0.37580255 -0.88688266 -0.2687226 167 254 139 255
-0.30494893 -0.13537781 -2.5178573 0.88688093 -0.3758035 -0.26872647 167 254 139 255
-0.259669 -0.330569 0.20874494 0.34682578 -0.884177 0.3129586 167 254 139 255
-0.164505 0.23541096 0.20874502 0.8841759 0.34682697 0.31296015 167 254 139 255
-0.730485 0.23541094 0.303909 -0.34157354 0.34158397 0.87558436 167 254 139 255
-0.259669 -0.23540503 0.30390894 0.34157372 -0.34158418 0.8755843 167 254 139 255
-0.259669 0.23541094 0.303909 0.3415894 0.34157896 0.87558013 167 254 139 255
-0.825649 -0.23540501 0.20874496 -0.8841784 -0.34682605 0.31295422 167 254 139 255
-0.6851749 -0.13537608 -2.5178573 -0.88686764 -0.37582466 -0.26874122 167 254 139 255
-0.730485 0.33057493 0.20874503 -0.34682715 0.88417727 0.31295618 167 254 139 255
-0.35969082 0.19010788 -2.5178573 0.37575287 0.8869054 -0.26871678 167 254 139 255
-0.6304479 0.19010788 -2.5178573 -0.37586567 0.8868518 -0.2687358 167 254 139 255
-0.730485 -0.330569 0.20874494 -0.34682256 -0.8841775 0.3129604 167 254 139 255
-0.730485 -0.23540503 0.30390894 -0.3415895 -0.34157917 0.8755801 167 254 139 255
-0.825649 0.23541096 0.20874502 -0.8841788 0.34682134 0.31295842 167 254 139 255
-0.164505 -0.23540501 0.20874496 0.88417643 -0.34682214 0.31296432 167 254 139 255
-0.259669 0.33057493 0.20874503 0.34682098 0.88417757 0.31296206 167 254 139 255
-0.63043296 -0.19010477 -2.5178573 -0.37575588 -0.8869007 -0.2687278 167 254 139 255
3 0 1 2
3 3 4 5
3 6 7 8
3 9 10 11
3 0 4 3
3 25 4 12
3 3 10 9
3 13 10 24
3 9 7 6
3 14 7 15
3 6 1 0
3 9 0 3
3 1 22 2
3 25 10 5
3 22 4 2
3 11 15 7
3 14 1 8
3 16 31 14
3 17 15 13
3 18 19 20
3 21 12 22
3 23 24 25
3 26 27 21
3 18 23 28
3 19 16 29
3 20 17 30
3 26 22 31
3 18 21 27
3 20 23 18
3 19 17 20
3 27 16 19
3 14 29 16
3 13 30 17
3 25 28 23
3 0 2 4
3 25 5 4
3 3 5 10
3 13 11 10
3 9 11 7
3 14 8 7
3 6 8 1
3 9 6 0
3 1 31 22
3 25 24 10
3 22 12 4
3 11 13 15
3 14 31 1
3 16 26 31
3 17 29 15
3 18 27 19
3 21 28 12
3 23 30 24
3 26 21 22
3 18 28 21
3 20 30 23
3 19 29 17
3 27 26 16
3 14 15 29
3 13 24 30
3 25 12 28
