ply
format ascii 1.0
comment Created in Blender version 4.3.2
element vertex 40
property float x
property float y
property float z
property float nx
property float ny
property float nz
property uchar red
property uchar green
property uchar blue
property uchar alpha
element face 60
property list uchar uint vertex_indices
end_header
-0.23540948 -0.33057174 0.22838365 -0.34158182 -0.87558115 0.3415838 254 3 173 255
-0.23540948 -0.2354094 0.3235468 -0.34158745 -0.34158096 0.87558013 254 3 173 255
-0.33057344 -0.23540941 0.22838363 -0.87558264 -0.34158272 0.34157902 254 3 173 255
-0.23540948 0.23540795 0.32354674 -0.34157228 0.34158263 0.8755854 254 3 173 255
-0.23540948 0.33057192 0.22838359 -0.34157938 0.8755839 0.3415794 254 3 173 255
-0.33057344 0.23540793 0.2283836 -0.8755788 0.34158477 0.34158668 254 3 173 255
0.23540625 -0.2354094 0.3235468 0.34157172 -0.34158587 0.87558436 254 3 173 255
0.23540625 -0.33057174 0.22838365 0.34158137 -0.8755856 0.34157312 254 3 173 255
0.33057022 -0.23540941 0.22838363 0.8755819 -0.3415784 0.34158522 254 3 173 255
0.23540625 0.23540795 0.32354674 0.34158793 0.3415776 0.87558126 254 3 173 255
0.33057022 0.23540793 0.2283836 0.87557954 0.34158912 0.3415807 254 3 173 255
0.23540625 0.33057192 0.22838359 0.34157985 0.8755794 0.34159026 254 3 173 255
-0.23540948 -0.33057183 -0.31069788 -0.38266236 -0.92388827 1.328814e-07 254 3 173 255
-0.33057344 -0.23540948 -0.31069788 -0.9238779 -0.38268736 2.831612e-08 254 3 173 255
-0.23540948 0.33057183 -0.31069794 -0.38268352 0.9238795 -1.34744e-07 254 3 173 255
0.23540625 0.33057183 -0.31069794 0.38267365 0.9238835 -1.2568675e-07 254 3 173 255
0.23540625 -0.33057183 -0.31069788 0.3826721 -0.9238842 1.3288039e-07 254 3 173 255
0.33057022 -0.23540948 -0.31069788 0.9238779 -0.38268736 3.820211e-08 254 3 173 255
0.33057022 0.23540786 -0.31069794 0.92388666 0.38266626 -5.3296485e-08 254 3 173 255
-0.33057344 0.23540786 -0.31069794 -0.92388666 0.38266626 -7.1627355e-08 254 3 173 255
-0.2354353 -0.23540635 -1.5068536 -0.3415735 -0.34158775 -0.8755828 254 180 177 255
-0.2354353 -0.33056873 -1.4116894 -0.3415908 -0.8755791 -0.34158 254 180 177 255
-0.33059928 -0.23540634 -1.4116894 -0.8755749 -0.34159356 -0.34158802 254 180 177 255
-0.2354353 0.23541105 -1.5068536 -0.34158972 0.34157917 -0.87557995 254 180 177 255
-0.33059928 0.23541106 -1.4116894 -0.87558025 0.34158927 -0.34157854 254 180 177 255
-0.2354353 0.33057502 -1.4116894 -0.34158576 0.8755794 -0.34158432 254 180 177 255
0.23538049 -0.23540635 -1.5068536 0.34158912 -0.3415827 -0.87557876 254 180 177 255
0.33054447 -0.23540634 -1.4116894 0.8755756 -0.34159726 -0.3415826 254 180 177 255
0.23538049 -0.33056873 -1.4116894 0.3415828 -0.87558174 -0.34158123 254 180 177 255
0.23538049 0.23541105 -1.5068536 0.34157404 0.3415842 -0.87558407 254 180 177 255
0.23538049 0.33057502 -1.4116894 0.3415939 0.8755767 -0.34158307 254 180 177 255
0.33054447 0.23541106 -1.4116894 0.87557954 0.34158555 -0.34158412 254 180 177 255
-0.2354353 -0.33056867 -0.31069702 -0.38268045 -0.9238808 3.7117353e-08 254 180 177 255
-0.33059928 -0.23540628 -0.31069702 -0.9238779 -0.38268745 -1.5287423e-08 254 180 177 255
-0.2354353 0.3305751 -0.31069708 -0.3826925 0.92387575 -3.7927826e-08 254 180 177 255
0.23538049 0.3305751 -0.31069708 0.38268438 0.9238791 -5.6206925e-08 254 180 177 255
0.23538049 -0.33056867 -0.31069702 0.38268834 -0.9238775 3.7927833e-08 254 180 177 255
0.33054447 -0.23540628 -0.31069702 0.9238775 -0.3826884 -1.630809e-08 254 180 177 255
0.33054447 0.23541111 -0.31069708 0.92387587 0.38269225 -4.328076e-08 254 180 177 255
-0.33059928 0.23541111 -0.31069708 -0.92387545 0.38269314 -2.030873e-08 254 180 177 255
3 7 12 16
3 18 8 17
3 3 6 9
3 2 19 13
3 4 15 14
3 0 1 2
3 3 4 5
3 6 7 8
3 9 10 11
3 12 2 13
3 3 2 1
3 9 4 3
3 6 10 9
3 1 7 6
3 16 8 7
3 18 11 10
3 4 19 5
3 20 21 22
3 23 24 25
3 26 27 28
3 29 30 31
3 20 24 23
3 25 39 34
3 23 30 29
3 31 35 38
3 29 27 26
3 28 37 36
3 26 21 20
3 29 20 23
3 32 22 21
3 34 30 25
3 22 39 24
3 38 27 31
3 36 21 28
3 7 0 12
3 18 10 8
3 3 1 6
3 2 5 19
3 4 11 15
3 12 0 2
3 3 5 2
3 9 11 4
3 6 8 10
3 1 0 7
3 16 17 8
3 18 15 11
3 4 14 19
3 20 22 24
3 25 24 39
3 23 25 30
3 31 30 35
3 29 31 27
3 28 27 37
3 26 28 21
3 29 26 20
3 32 33 22
3 34 35 30
3 22 33 39
3 38 37 27
3 36 32 21
