ply
format ascii 1.0
comment Created in Blender version 4.2.8 LTS
element vertex 92
property float x
property float y
property float z
property float nx
property float ny
property float nz
property uchar red
property uchar green
property uchar blue
property uchar alpha
element face 148
property list uchar uint vertex_indices
end_header
0.603346 -0.6144004 3.0132267 0.2843684 -0.9155728 0.28436074 249 219 90 255
-0.600457 -0.6144001 0.67634386 -0.2843684 -0.9155725 -0.284362 249 219 90 255
0.603346 -0.6144001 0.67634386 0.28436372 -0.91557354 -0.28436342 249 219 90 255
0.846664 0.43753254 3.0132267 0.8520249 0.4041572 0.33273217 249 219 90 255
0.846664 -0.43752807 0.67634386 0.8520246 -0.40415686 -0.33273312 249 219 90 255
0.846664 0.43753287 0.676344 0.85202867 0.40414694 -0.33273488 249 219 90 255
-0.600457 0.4375325 3.2565458 -0.33272633 0.4041485 0.85203135 249 219 90 255
0.603346 -0.43752843 3.2565458 0.3327262 -0.40414876 0.8520311 249 219 90 255
0.603346 0.4375325 3.2565458 0.3327394 0.40414014 0.85203016 249 219 90 255
-0.843775 -0.4375284 3.0132267 -0.852025 -0.40415704 0.3327321 249 219 90 255
-0.843775 0.43753287 0.676344 -0.85202426 0.4041581 -0.33273277 249 219 90 255
-0.843775 -0.43752807 0.67634386 -0.8520291 -0.4041459 -0.33273515 249 219 90 255
-0.600457 0.6144045 3.0132267 -0.28436866 0.9155728 0.28436086 249 219 90 255
0.603346 0.61440384 0.676344 0.2843674 0.9155732 -0.2843609 249 219 90 255
-0.600457 0.61440384 0.676344 -0.2843628 0.9155742 -0.28436223 249 219 90 255
-0.600457 -0.43752804 0.4330259 -0.3327255 -0.4041478 -0.8520319 249 219 90 255
-0.600457 -0.6144004 3.0132267 -0.2843639 -0.9155738 0.28436226 249 219 90 255
-0.600457 -0.43752843 3.2565458 -0.33273956 -0.40414008 0.85203004 249 219 90 255
-0.600457 0.4375329 0.43302602 -0.3327387 0.40414053 -0.85203016 249 219 90 255
-0.843775 0.43753254 3.0132267 -0.85202944 0.40414602 0.33273417 249 219 90 255
0.603346 -0.43752804 0.4330259 0.33273867 -0.40413934 -0.8520308 249 219 90 255
0.846664 -0.4375284 3.0132267 0.8520292 -0.40414622 0.3327341 249 219 90 255
0.603346 0.4375329 0.43302602 0.33272538 0.4041491 -0.85203135 249 219 90 255
0.603346 0.6144045 3.0132267 0.28436357 0.91557384 0.28436226 249 219 90 255
0.6470907 -0.91400075 4.8129725 0.32596427 -0.94192237 0.08080546 249 219 90 255
-0.605693 -0.84522045 3.6091707 -0.335229 -0.8650132 -0.3733279 249 219 90 255
0.598109 -0.84522045 3.6091707 0.3352323 -0.86500806 -0.3733369 249 219 90 255
0.910182 0.65088505 4.8129735 0.9391953 0.317933 0.12973376 249 219 90 255
0.841428 -0.6019014 3.6091707 0.86501765 -0.3352317 -0.37331513 249 219 90 255
0.841428 0.60190046 3.6091707 0.865012 0.33522585 -0.37333363 249 219 90 255
-0.91779095 -0.65088236 4.8129725 -0.94332707 -0.32036772 0.086594336 249 219 90 255
-0.849011 0.60190046 3.6091707 -0.86501426 0.3352306 -0.37332413 249 219 90 255
-0.849011 -0.6019014 3.6091707 -0.86500865 -0.33522537 -0.37334183 249 219 90 255
-0.6547007 0.9140035 4.8129735 -0.30968484 0.93981344 0.14438139 249 219 90 255
0.598109 0.8452195 3.6091707 0.33523142 0.86501336 -0.3733255 249 219 90 255
-0.605693 0.8452195 3.6091707 -0.33523 0.8650069 -0.37334165 249 219 90 255
-0.605693 -0.6019014 3.3658528 -0.34157375 -0.34158304 -0.87558466 249 219 90 255
-0.605693 0.60190046 3.3658528 -0.34158924 0.34157786 -0.87558055 249 219 90 255
0.598109 -0.6019014 3.3658528 0.34158847 -0.34157777 -0.8755809 249 219 90 255
0.598109 0.60190046 3.3658528 0.34157297 0.34158343 -0.8755848 249 219 90 255
-0.6547007 -0.9139975 4.8129735 -0.32594827 -0.9419282 0.08080318 249 219 90 255
-0.91779095 0.65088075 4.8129725 -0.9400946 0.30998185 0.14189237 249 219 90 255
0.6470907 0.9140003 4.8129725 0.30967984 0.9398132 0.14439417 249 219 90 255
0.910182 -0.65087914 4.8129735 0.94195473 -0.32630295 0.07904216 249 219 90 255
-0.8058558 0.8006225 5.008611 -0.70954216 0.67224294 0.21128055 249 219 90 255
0.7982208 -0.8006169 5.103974 0.6572919 -0.6793716 0.32622328 249 219 90 255
0.7982208 0.8006225 5.008611 0.70696485 0.673772 0.21501662 249 219 90 255
-0.8058558 -0.8006169 5.103974 -0.6594328 -0.6785074 0.32369158 249 219 90 255
-0.6737384 0.82243204 5.6296215 -0.7528432 0.6578096 -0.022664139 249 219 90 255
0.6661034 -0.5079758 5.7883368 0.6439005 -0.60777736 0.4647569 249 219 90 255
0.6661034 0.82243204 5.6296215 0.7575044 0.65266466 -0.014698714 249 219 90 255
-0.6737384 -0.5079758 5.7883368 -0.64026135 -0.61119056 0.46530807 249 219 90 255
-0.58684444 1.0736321 6.0670705 -0.75997686 0.5945806 -0.26250547 249 219 90 255
0.57920945 -0.049187776 6.3816447 0.6469487 -0.45806816 0.6096154 245 218 90 255
0.57920945 1.0736321 6.0670705 0.77252066 0.5929917 -0.22709613 249 219 92 255
-0.58684444 -0.049187776 6.3816447 -0.63958764 -0.46501142 0.6121209 249 219 90 255
-0.45173863 1.4424602 6.3761353 -0.68165654 0.6622585 -0.31105983 178 206 94 255
0.44410363 0.6935363 6.8677106 0.63174975 -0.18849932 0.7519045 178 206 94 255
0.44410363 1.4424602 6.3761353 0.69611806 0.6623175 -0.27704737 180 207 94 255
-0.45173863 0.6935363 6.8677106 -0.612992 -0.19804654 0.76486504 178 206 94 255
-0.21376565 1.7041273 6.6852646 -0.62321806 0.654671 -0.427791 86 55 24 255
0.20613065 1.4709318 7.0344524 0.69303334 -0.15568651 0.7038939 89 60 25 255
0.20613065 1.7041273 6.6852646 0.6630259 0.61251384 -0.43037608 103 78 49 255
-0.21376565 1.4709318 7.0344524 -0.6574235 -0.13601989 0.7411431 86 55 24 255
-0.21376565 2.0727992 6.9339657 -0.58535117 0.7825642 -0.21203116 86 55 24 255
0.20613065 1.8908596 7.312397 0.5704971 0.21826458 0.79176617 86 55 24 255
0.20613065 2.0727992 6.9339657 0.58539176 0.7825359 -0.21202414 86 55 24 255
-0.21376565 1.8908596 7.312397 -0.57053095 0.21825328 0.79174495 86 55 24 255
0.26760912 -0.8809598 4.209616 0.35069403 -0.6717386 -0.652519 30 46 26 255
0.4036909 -0.8829654 4.248542 0.2793363 -0.87316275 -0.39944747 18 25 14 255
0.30502313 -0.92243844 4.2724237 0.26629952 -0.79228014 -0.548978 0 0 0 255
0.24922948 -0.9201849 4.2285204 0.5005273 -0.55482745 -0.66455925 1 2 1 255
0.4379694 -0.8855057 4.2934465 0.3926809 -0.8881384 -0.2387715 18 25 14 255
0.3637363 -0.925207 4.3260136 0.3418699 -0.8991757 -0.27314487 0 0 0 255
0.45643967 -0.8917682 4.401928 0.5164622 -0.8524575 0.08113587 18 25 14 255
0.38469088 -0.93046814 4.3906546 0.46267277 -0.87423 -0.14715919 0 0 0 255
0.38830653 -0.89634544 4.4759164 0.6987326 -0.5435516 0.4651069 18 25 14 255
0.38834214 -0.9317603 4.41385 0.5978805 -0.7863875 0.1553508 0 0 0 255
0.41758254 -0.89305484 4.4357805 0.59934664 -0.6562451 0.45839494 18 25 14 255
0.36843017 -0.9352879 4.4602656 0.70468795 -0.6139943 0.35556427 0 0 0 255
-0.26760912 -0.88095975 4.2096157 0.3506968 0.67173016 0.6525262 30 46 26 255
-0.4036909 -0.8829653 4.2485414 0.27933744 0.87316173 0.39944863 18 25 14 255
-0.30502313 -0.9224384 4.2724233 0.26630098 0.7922764 0.5489827 0 0 0 255
-0.24922948 -0.92018485 4.22852 0.5005306 0.55481577 0.6645665 1 2 1 255
-0.4379694 -0.8855056 4.293446 0.39268234 0.88813794 0.23877144 18 25 14 255
-0.3637363 -0.92520696 4.326013 0.3418718 0.89917505 0.27314445 0 0 0 255
-0.45643967 -0.89176816 4.4019275 0.51646113 0.85245824 -0.081135884 18 25 14 255
-0.38469088 -0.9304681 4.390654 0.46267357 0.8742296 0.14715934 0 0 0 255
-0.38830653 -0.8963454 4.475916 0.6987216 0.5435707 -0.46510115 18 25 14 255
-0.38834214 -0.93176025 4.4138494 0.5978844 0.7863844 -0.15535125 0 0 0 255
-0.41758254 -0.8930548 4.43578 0.5993453 0.65624714 -0.45839384 18 25 14 255
-0.36843017 -0.93528783 4.460265 0.7046859 0.6139982 -0.3555615 0 0 0 255
3 0 1 2
3 3 4 5
3 6 7 8
3 9 10 11
3 12 13 14
3 15 1 11
3 16 17 9
3 18 10 14
3 6 12 19
3 20 4 2
3 7 0 21
3 22 13 5
3 8 3 23
3 15 10 18
3 16 11 1
3 6 9 17
3 14 19 12
3 18 13 22
3 8 12 6
3 5 23 3
3 22 4 20
3 7 3 8
3 2 21 0
3 20 1 15
3 17 0 7
3 22 15 18
3 0 16 1
3 3 21 4
3 6 17 7
3 9 19 10
3 12 23 13
3 15 11 10
3 16 9 11
3 6 19 9
3 14 10 19
3 18 14 13
3 8 23 12
3 5 13 23
3 22 5 4
3 7 21 3
3 2 4 21
3 20 2 1
3 17 16 0
3 22 20 15
3 24 25 26
3 27 28 29
3 30 31 32
3 33 34 35
3 36 25 32
3 37 31 35
3 38 28 26
3 39 34 29
3 36 31 37
3 40 32 25
3 35 41 33
3 37 34 39
3 29 42 27
3 39 28 38
3 26 43 24
3 38 25 36
3 39 36 37
3 46 44 48
3 46 48 50
3 40 47 30
3 44 33 41
3 45 24 43
3 46 27 42
3 44 30 47
3 46 33 44
3 45 27 46
3 47 24 45
3 24 40 25
3 27 43 28
3 30 41 31
3 33 42 34
3 36 32 31
3 40 30 32
3 35 31 41
3 37 35 34
3 29 34 42
3 39 29 28
3 26 28 43
3 38 26 25
3 39 38 36
3 47 45 49
3 47 49 51
3 44 41 30
3 46 42 33
3 45 43 27
3 47 40 24
3 50 48 52
3 50 52 54
3 49 50 54
3 49 54 53
3 45 46 50
3 45 50 49
3 44 47 51
3 44 51 48
3 52 55 59
3 52 59 56
3 55 53 57
3 55 57 59
3 51 49 53
3 51 53 55
3 48 51 55
3 48 55 52
3 58 56 60
3 58 60 62
3 57 58 62
3 57 62 61
3 53 54 58
3 53 58 57
3 54 52 56
3 54 56 58
3 62 60 64
3 62 64 66
3 61 62 66
3 61 66 65
3 59 57 61
3 59 61 63
3 56 59 63
3 56 63 60
3 64 65 66
3 64 67 65
3 63 61 65
3 63 65 67
3 60 63 67
3 60 67 64
3 68 69 70
3 68 70 71
3 69 73 70
3 72 75 73
3 74 77 75
3 78 79 77
3 80 81 82
3 80 82 83
3 81 85 82
3 84 87 85
3 86 89 87
3 90 91 89
3 69 72 73
3 72 74 75
3 74 78 77
3 78 76 79
3 81 84 85
3 84 86 87
3 86 90 89
3 90 88 91
