ply
format ascii 1.0
comment Created in Blender version 4.2.8 LTS
element vertex 32
property float x
property float y
property float z
property float nx
property float ny
property float nz
property uchar red
property uchar green
property uchar blue
property uchar alpha
element face 60
property list uchar uint vertex_indices
end_header
0.23542106 -0.34901682 0.10305632 0.35022336 -0.93331784 0.07912889 249 219 90 255
-0.15064311 -0.006332547 -0.4360254 -0.39523807 -0.9064377 -0.1488546 249 219 90 255
0.21156096 0.35587153 -0.43602535 0.89225936 0.45039096 0.031955868 249 219 90 255
0.330585 -0.25385383 0.10305633 0.9048694 -0.40051526 0.14421876 249 219 90 255
0.21156096 0.0545679 -0.4360254 0.9483384 -0.30474752 -0.08822387 249 219 90 255
-0.23539495 0.11952213 0.19821948 -0.34157267 0.34158427 0.87558454 249 219 90 255
0.23542106 -0.25385386 0.19821943 0.34157264 -0.3415867 0.87558365 249 219 90 255
0.23542106 0.11952213 0.19821948 0.34158793 0.34157717 0.87558144 249 219 90 255
-0.33055902 -0.25385383 0.10305633 -0.90486753 -0.40051946 0.14421877 249 219 90 255
-0.21154428 0.35587153 -0.43602535 -0.89225906 0.45038986 0.031980794 249 219 90 255
-0.21154428 0.0545679 -0.4360254 -0.948358 -0.30469665 -0.08818888 249 219 90 255
-0.23539495 0.21468616 0.10305639 -0.35971344 0.8104002 0.46244764 249 219 90 255
0.15065992 0.41677263 -0.43602535 0.3414681 0.9332309 0.11171285 249 219 90 255
-0.15064311 0.41677263 -0.43602535 -0.34147632 0.9332274 0.11171699 249 219 90 255
-0.23539495 -0.34901682 0.10305632 -0.3502094 -0.9333225 0.07913585 249 219 90 255
-0.23539495 -0.25385386 0.19821943 -0.3415873 -0.34157968 0.87558067 249 219 90 255
-0.33055902 0.11952215 0.10305638 -0.90983415 0.2869984 0.2997229 249 219 90 255
0.330585 0.11952215 0.10305638 0.9098379 0.2870028 0.29970726 249 219 90 255
0.23542106 0.21468616 0.10305639 0.35970932 0.8104023 0.4624471 249 219 90 255
-0.23542094 -0.2538506 -1.6321806 -0.34157333 -0.3415864 -0.8755835 249 219 90 255
-0.23542094 -0.34901363 -1.5370165 -0.3493498 -0.9154545 -0.19974458 249 219 90 255
-0.330585 -0.2538506 -1.5370165 -0.89372224 -0.37731814 -0.24267597 249 219 90 255
-0.23542094 0.21696636 -1.6321806 -0.34158933 0.3415792 -0.87558013 249 219 90 255
-0.330585 0.21696635 -1.5370165 -0.89198315 0.3245167 -0.3147303 249 219 90 255
-0.23542094 0.31213033 -1.5370165 -0.35232735 0.86070555 -0.36749342 249 219 90 255
0.23539507 -0.2538506 -1.6321806 0.34158933 -0.34158084 -0.8755794 249 219 90 255
0.33055902 -0.2538506 -1.5370165 0.89371806 -0.37732506 -0.24268095 249 219 90 255
0.23539507 -0.34901363 -1.5370165 0.3493283 -0.9154612 -0.19975139 249 219 90 255
0.23539507 0.21696636 -1.6321806 0.34157395 0.34158438 -0.8755841 249 219 90 255
0.23539507 0.31213033 -1.5370165 0.35233593 0.8606991 -0.36750028 249 219 90 255
0.33055902 0.21696635 -1.5370165 0.8919772 0.32450736 -0.31475654 249 219 91 255
0.15064335 -0.00633061 -0.43602493 0.39517316 -0.90646607 -0.14885391 249 219 90 255
3 0 1 31
3 2 3 4
3 5 6 7
3 8 9 10
3 11 12 13
3 14 15 8
3 5 11 16
3 6 0 3
3 7 17 18
3 1 8 10
3 5 8 15
3 7 11 5
3 6 17 7
3 15 0 6
3 31 3 0
3 2 18 17
3 11 9 16
3 19 20 21
3 22 23 24
3 25 26 27
3 28 29 30
3 19 23 22
3 24 9 13
3 22 29 28
3 30 12 2
3 28 26 25
3 27 4 31
3 25 20 19
3 28 19 22
3 1 21 20
3 13 29 24
3 21 9 23
3 2 26 30
3 31 20 27
3 0 14 1
3 2 17 3
3 5 15 6
3 8 16 9
3 11 18 12
3 1 14 8
3 5 16 8
3 7 18 11
3 6 3 17
3 15 14 0
3 31 4 3
3 2 12 18
3 11 13 9
3 19 21 23
3 24 23 9
3 22 24 29
3 30 29 12
3 28 30 26
3 27 26 4
3 25 27 20
3 28 25 19
3 1 10 21
3 13 12 29
3 21 10 9
3 2 4 26
3 31 1 20
