ply
format ascii 1.0
comment Created in Blender version 4.2.8 LTS
element vertex 32
property float x
property float y
property float z
property float nx
property float ny
property float nz
property uchar red
property uchar green
property uchar blue
property uchar alpha
element face 60
property list uchar uint vertex_indices
end_header
-0.730459 -0.28447086 -2.8203535 -0.40791073 -0.4079241 -0.81682724 249 219 90 255
-0.730459 -0.3796349 -2.6770532 -0.35526094 -0.92611045 -0.12692218 249 219 90 255
-0.825623 -0.2844709 -2.6770532 -0.9076158 -0.3829974 -0.17189167 249 219 90 255
-0.730459 0.11757655 -2.8203535 -0.40793064 0.40791497 -0.8168219 249 219 90 255
-0.825623 0.11757653 -2.6770532 -0.9103188 0.3276505 -0.2529128 249 219 90 255
-0.730459 0.21274053 -2.6770532 -0.36112592 0.8754735 -0.32114547 249 219 90 255
-0.259643 -0.28447086 -2.8203535 0.4079306 -0.4079148 -0.816822 249 219 90 255
-0.164479 -0.2844709 -2.6770532 0.9076166 -0.382999 -0.17188331 249 219 90 255
-0.259643 -0.3796349 -2.6770532 0.35525358 -0.92611367 -0.12691918 249 219 90 255
-0.259643 0.11757655 -2.8203535 0.40791073 0.4079244 -0.81682724 249 219 90 255
-0.259643 0.21274053 -2.6770532 0.3611365 0.8754704 -0.32114184 249 219 90 255
-0.164479 0.11757653 -2.6770532 0.9103202 0.32764915 -0.25290924 249 219 90 255
-0.6417152 0.46814722 -1.1522218 -0.3591039 0.93277204 -0.031317115 249 219 90 255
-0.70100296 0.4088595 -1.1522219 -0.9061652 0.4224937 -0.019076377 249 219 90 255
-0.34839404 0.46814722 -1.1522218 0.3591678 0.9327477 -0.031311322 249 219 90 255
-0.34839404 0.05625062 -1.1522219 0.39520958 -0.91859084 -0.0006758534 249 219 90 255
-0.70100296 0.11553837 -1.1522219 -0.9425928 -0.3339185 -0.0041557075 249 219 90 255
-0.259669 -0.330569 0.20874494 0.3484063 -0.9130405 0.2120618 249 219 90 255
-0.64173144 0.0562525 -1.1522219 -0.3952076 -0.91859156 -0.00068099773 249 219 90 255
-0.164505 0.23541096 0.20874502 0.88942736 0.3242031 0.3221977 249 219 90 255
-0.28912252 0.115540236 -1.1522219 0.942596 -0.3339099 -0.004138272 249 219 90 255
-0.28912252 0.40886134 -1.1522219 0.9061983 0.4224232 -0.01905927 249 219 90 255
-0.730485 0.23541094 0.303909 -0.34157354 0.34158397 0.87558436 249 219 90 255
-0.259669 -0.23540503 0.30390894 0.34157372 -0.34158418 0.8755843 249 219 90 255
-0.259669 0.23541094 0.303909 0.3415894 0.34157896 0.87558013 249 219 90 255
-0.825649 -0.23540501 0.20874496 -0.8915931 -0.37510848 0.2536836 249 219 90 255
-0.730485 0.33057493 0.20874503 -0.35055882 0.8593307 0.37236977 249 219 90 255
-0.730485 -0.330569 0.20874494 -0.348395 -0.9130456 0.21205865 249 219 90 255
-0.730485 -0.23540503 0.30390894 -0.3415895 -0.34157917 0.8755801 249 219 90 255
-0.825649 0.23541096 0.20874502 -0.8894286 0.32419762 0.3221999 249 219 90 255
-0.164505 -0.23540501 0.20874496 0.89159334 -0.37509733 0.25369975 249 219 90 255
-0.259669 0.33057493 0.20874503 0.35054272 0.8593347 0.3723757 249 219 90 255
3 0 1 2
3 3 4 5
3 6 7 8
3 9 10 11
3 0 4 3
3 12 4 13
3 3 10 9
3 21 10 14
3 9 7 6
3 15 7 20
3 6 1 0
3 9 0 3
3 1 16 2
3 12 10 5
3 16 4 2
3 11 20 7
3 15 1 8
3 17 18 15
3 19 20 21
3 22 23 24
3 25 13 16
3 26 14 12
3 27 28 25
3 22 26 29
3 23 17 30
3 24 19 31
3 27 16 18
3 22 25 28
3 24 26 22
3 23 19 24
3 28 17 23
3 15 30 17
3 21 31 19
3 12 29 26
3 0 2 4
3 12 5 4
3 3 5 10
3 21 11 10
3 9 11 7
3 15 8 7
3 6 8 1
3 9 6 0
3 1 18 16
3 12 14 10
3 16 13 4
3 11 21 20
3 15 18 1
3 17 27 18
3 19 30 20
3 22 28 23
3 25 29 13
3 26 31 14
3 27 25 16
3 22 29 25
3 24 31 26
3 23 30 19
3 28 27 17
3 15 20 30
3 21 14 31
3 12 13 29
