ply
format ascii 1.0
comment Created in Blender version 4.3.2
element vertex 56
property float x
property float y
property float z
property float nx
property float ny
property float nz
property uchar red
property uchar green
property uchar blue
property uchar alpha
element face 88
property list uchar uint vertex_indices
end_header
-0.60045666 -0.43752804 0.43302596 -0.33272532 -0.40414873 -0.8520315 253 0 172 255
-0.60045666 -0.61439973 0.67634445 -0.28436753 -0.915573 -0.28436112 253 0 172 255
-0.8437753 -0.437528 0.67634445 -0.85202867 -0.40414673 -0.33273497 253 0 172 255
-0.60045666 -0.61439955 3.0132265 -0.2843631 -0.91557425 0.2843617 253 0 172 255
-0.60045666 -0.43752784 3.256546 -0.33273923 -0.4041409 0.8520299 253 0 172 255
-0.8437753 -0.43752784 3.0132265 -0.8520245 -0.40415785 0.33273214 253 0 172 255
-0.60045666 0.43753278 0.4330259 -0.33273858 0.40414014 -0.8520305 253 0 172 255
-0.8437753 0.4375328 0.67634434 -0.85202426 0.40415767 -0.332733 253 0 172 255
-0.60045666 0.6144045 0.67634434 -0.28436294 0.915574 -0.28436258 253 0 172 255
-0.60045666 0.437533 3.256546 -0.33272597 0.40414923 0.852031 253 0 172 255
-0.60045666 0.6144047 3.0132265 -0.2843677 0.9155733 0.28436026 253 0 172 255
-0.8437753 0.437533 3.0132265 -0.85202897 0.404147 0.33273426 253 0 172 255
0.60334563 -0.43752804 0.43302596 0.33273864 -0.4041402 -0.8520304 253 0 172 255
0.8466642 -0.437528 0.67634445 0.85202426 -0.40415767 -0.33273295 253 0 172 255
0.60334563 -0.61439973 0.67634445 0.28436303 -0.915574 -0.28436252 253 0 172 255
0.60334563 -0.43752784 3.256546 0.33272606 -0.40414938 0.852031 253 0 172 255
0.60334563 -0.61439955 3.0132265 0.28436783 -0.9155732 0.28436026 253 0 172 255
0.8466642 -0.43752784 3.0132265 0.85202897 -0.40414676 0.33273417 253 0 172 255
0.60334563 0.43753278 0.4330259 0.3327254 0.40414855 -0.85203165 253 0 172 255
0.60334563 0.6144045 0.67634434 0.28436765 0.9155729 -0.28436124 253 0 172 255
0.8466642 0.4375328 0.67634434 0.85202867 0.40414664 -0.3327351 253 0 172 255
0.60334563 0.437533 3.256546 0.3327393 0.40414077 0.8520298 253 0 172 255
0.8466642 0.437533 3.0132265 0.8520245 0.4041579 0.33273217 253 0 172 255
0.60334563 0.6144047 3.0132265 0.28436306 0.9155743 0.2843616 253 0 172 255
-0.60569286 -0.60190094 3.3658526 -0.3415736 -0.34158394 -0.8755843 253 181 177 255
-0.60569286 -0.84521955 3.6091712 -0.34158435 -0.87558424 -0.34157357 253 181 177 255
-0.8490115 -0.6019009 3.6091712 -0.8755801 -0.3415788 -0.34158954 253 181 177 255
-0.60569286 -0.8452195 4.8129735 -0.38267443 -0.9238834 3.2035228e-08 253 181 177 255
-0.8490115 -0.6019008 4.8129735 -0.923884 -0.3826727 3.893561e-08 253 181 177 255
-0.60569286 0.60190135 3.3658526 -0.34158915 0.34157896 -0.8755802 253 181 177 255
-0.8490115 0.6019014 3.6091712 -0.8755842 0.3415841 -0.3415739 253 181 177 255
-0.60569286 0.84521997 3.6091712 -0.34157884 0.8755802 -0.34158936 253 181 177 255
-0.60569286 0.84522 4.8129735 -0.3826724 0.9238841 -8.3456804e-08 253 181 177 255
-0.8490115 0.6019015 4.8129735 -0.9238832 0.38267463 -3.203525e-08 253 181 177 255
0.5981094 -0.60190094 3.3658526 0.34158945 -0.34157878 -0.87558013 253 181 177 255
0.841428 -0.6019009 3.6091712 0.87558436 -0.34158382 -0.34157357 253 181 177 255
0.5981094 -0.84521955 3.6091712 0.3415793 -0.87558 -0.34158927 253 181 177 255
0.5981094 -0.8452195 4.8129735 0.38267255 -0.92388403 8.34568e-08 253 181 177 255
0.841428 -0.6019008 4.8129735 0.92388326 -0.38267446 3.203522e-08 253 181 177 255
0.5981094 0.60190135 3.3658526 0.3415737 0.34158403 -0.8755843 253 181 177 255
0.5981094 0.84521997 3.6091712 0.34158406 0.8755843 -0.34157377 253 181 177 255
0.841428 0.6019014 3.6091712 0.8755802 0.34157902 -0.34158933 253 181 177 255
0.841428 0.6019015 4.8129735 0.923884 0.38267282 -3.8935635e-08 253 181 177 255
0.5981094 0.84522 4.8129735 0.3826744 0.9238834 -1.2107719e-07 253 181 177 255
-0.60571873 -0.84521633 4.8129745 -0.24183416 -0.6861178 0.6861185 82 40 0 255
-0.60571873 -0.60189766 5.056293 -0.34158915 -0.34157866 0.8755803 82 40 0 255
-0.84903735 -0.60189766 4.8129745 -0.6861169 -0.24184035 0.6861173 82 40 0 255
-0.60571873 0.60190475 5.056293 -0.34157392 0.34158397 0.8755842 82 40 0 255
-0.60571873 0.8452233 4.8129745 -0.2418412 0.6861169 0.68611693 82 40 0 255
-0.84903735 0.60190475 4.8129745 -0.6861188 0.24183345 0.6861178 82 40 0 255
0.5980837 -0.60189766 5.056293 0.34157383 -0.34158388 0.87558424 82 40 0 255
0.5980837 -0.84521633 4.8129745 0.24184103 -0.6861168 0.6861171 82 40 0 255
0.8414023 -0.60189766 4.8129745 0.68611866 -0.24183348 0.68611795 82 40 0 255
0.5980837 0.60190475 5.056293 0.3415892 0.34157884 0.8755802 82 40 0 255
0.8414023 0.60190475 4.8129745 0.68611693 0.24184048 0.6861172 82 40 0 255
0.5980837 0.8452233 4.8129745 0.24183425 0.6861182 0.68611807 82 40 0 255
3 16 1 14
3 22 13 20
3 9 15 21
3 5 7 2
3 10 19 8
3 0 1 2
3 3 4 5
3 6 7 8
3 9 10 11
3 12 13 14
3 15 16 17
3 18 19 20
3 21 22 23
3 0 7 6
3 3 2 1
3 9 5 4
3 8 11 10
3 6 19 18
3 21 10 9
3 20 23 22
3 18 13 12
3 15 22 21
3 14 17 16
3 12 1 0
3 4 16 15
3 18 0 6
3 16 3 1
3 22 17 13
3 9 4 15
3 5 11 7
3 10 23 19
3 0 2 7
3 3 5 2
3 9 11 5
3 8 7 11
3 6 8 19
3 21 23 10
3 20 19 23
3 18 20 13
3 15 17 22
3 14 13 17
3 12 14 1
3 4 3 16
3 18 12 0
3 37 25 36
3 42 35 41
3 28 30 26
3 32 40 31
3 24 25 26
3 29 30 31
3 34 35 36
3 39 40 41
3 24 30 29
3 27 26 25
3 31 33 32
3 29 40 39
3 41 43 42
3 39 35 34
3 36 38 37
3 34 25 24
3 39 24 29
3 47 50 53
3 44 45 46
3 47 48 49
3 50 51 52
3 53 54 55
3 47 46 45
3 53 48 47
3 50 54 53
3 45 51 50
3 37 27 25
3 42 38 35
3 28 33 30
3 32 43 40
3 24 26 30
3 27 28 26
3 31 30 33
3 29 31 40
3 41 40 43
3 39 41 35
3 36 35 38
3 34 36 25
3 39 34 24
3 47 45 50
3 47 49 46
3 53 55 48
3 50 52 54
3 45 44 51
