ply
format ascii 1.0
comment Created in Blender version 4.2.9 LTS
element vertex 28
property float x
property float y
property float z
property float nx
property float ny
property float nz
property uchar red
property uchar green
property uchar blue
property uchar alpha
element face 46
property list uchar uint vertex_indices
end_header
-0.59557074 -0.100520045 -2.7940626 -0.3415895 -0.34157884 -0.8755802 254 184 181 255
-0.59557074 -0.14115535 -2.7534273 -0.33687884 -0.86776036 -0.36538273 254 184 181 255
-0.6362061 -0.100520045 -2.7534273 -0.867761 -0.3368853 -0.36537546 254 184 181 255
-0.59557074 0.10051982 -2.7940626 -0.34157532 0.341584 -0.87558365 254 184 181 255
-0.6362061 0.10051982 -2.7534273 -0.8677615 0.33687764 -0.3653814 254 184 181 255
-0.59557074 0.14115515 -2.7534273 -0.33688614 0.8677606 -0.3653755 254 184 181 255
-0.3945309 -0.100520045 -2.7940626 0.3415755 -0.3415843 -0.8755834 254 184 181 255
-0.35389557 -0.100520045 -2.7534273 0.8677615 -0.3368779 -0.3653812 254 184 181 255
-0.3945309 -0.14115535 -2.7534273 0.3368861 -0.8677608 -0.36537516 254 184 181 255
-0.3945309 0.10051982 -2.7940626 0.34158948 0.34157884 -0.8755801 254 184 181 255
-0.3945309 0.14115515 -2.7534273 0.3368791 0.8677603 -0.36538294 254 184 181 255
-0.35389557 0.10051982 -2.7534273 0.86776125 0.33688504 -0.36537525 254 184 181 255
-0.7304846 -0.33056852 0.20874529 -0.38568854 -0.9176356 -0.09586061 254 184 181 255
-0.82564855 -0.23540455 0.20874527 -0.917633 -0.38569242 -0.09586997 254 184 181 255
-0.7304846 0.33057523 0.20874523 -0.38568816 0.9176354 -0.09586433 254 184 181 255
-0.25966877 0.33057523 0.20874523 0.38569146 0.91763526 -0.09585253 254 184 181 255
-0.16450481 -0.23540455 0.20874527 0.9176337 -0.38569775 -0.09584187 254 184 181 255
-0.16450481 0.23541123 0.20874524 0.91763777 0.3856877 -0.095843196 254 184 181 255
-0.82564855 0.23541123 0.20874524 -0.91763717 0.3856824 -0.09587133 254 184 181 255
-0.25966877 -0.33056852 0.20874529 0.38569173 -0.9176355 -0.09584882 254 184 181 255
-0.69166726 0.14001508 -1.457434 -0.9219036 0.38032123 -0.07382083 254 184 181 255
-0.3550357 0.1966164 -1.457434 0.38031897 0.92190546 -0.073811 254 184 181 255
-0.29843438 -0.14001517 -1.457434 0.9219078 -0.38031438 -0.07380505 254 184 181 255
-0.69166726 -0.14001517 -1.457434 -0.9219055 -0.38031676 -0.07381988 254 184 181 255
-0.6350659 0.1966164 -1.457434 -0.38031515 0.92190653 -0.073816895 254 184 181 255
-0.3550357 -0.19661649 -1.457434 0.3803177 -0.92190605 -0.07380911 254 184 181 255
-0.29843438 0.14001508 -1.457434 0.92190677 0.38031638 -0.073806114 254 184 181 255
-0.6350659 -0.19661649 -1.457434 -0.3803163 -0.92190623 -0.07381491 254 184 181 255
3 0 1 2
3 3 4 5
3 6 7 8
3 9 10 11
3 5 20 24
3 5 9 3
3 11 6 9
3 8 22 25
3 8 0 6
3 6 3 9
3 12 23 27
3 24 10 5
3 20 2 23
3 26 16 22
3 27 8 25
3 11 21 26
3 2 3 0
3 17 21 15
3 19 27 25
3 26 7 11
3 13 20 23
3 15 24 14
3 27 2 1
3 25 16 19
3 14 20 18
3 5 4 20
3 5 10 9
3 11 7 6
3 8 7 22
3 8 1 0
3 6 0 3
3 12 13 23
3 24 21 10
3 20 4 2
3 26 17 16
3 27 1 8
3 11 10 21
3 2 4 3
3 17 26 21
3 19 12 27
3 26 22 7
3 13 18 20
3 15 21 24
3 27 23 2
3 25 22 16
3 14 24 20
