ply
format ascii 1.0
comment Created in Blender version 4.2.9 LTS
element vertex 72
property float x
property float y
property float z
property float nx
property float ny
property float nz
property uchar red
property uchar green
property uchar blue
property uchar alpha
property float Color_r
property float Color_g
property float Color_b
property float Color_a
element face 112
property list uchar uint vertex_indices
end_header
-0.84382683 -0.437528 0.67634445 -0.8786316 -0.45696846 0.13851541 69 69 69 255 1 1 1 1
-0.6005083 -0.61439973 0.67634445 -0.31906143 -0.9406515 0.11564903 69 69 69 255 1 1 1 1
-0.84382683 0.4375328 0.67634434 -0.8724272 0.46324205 0.15581295 69 69 69 255 1 1 1 1
0.84661263 0.4375328 0.67634434 0.8724271 0.46324176 0.15581392 69 69 69 255 1 1 1 1
0.603294 0.6144045 0.67634434 0.3045783 0.9373587 0.169088 69 69 69 255 1 1 1 1
0.84661263 -0.437528 0.67634445 0.8786315 -0.45696822 0.13851644 69 69 69 255 1 1 1 1
0.603294 -0.61439973 0.67634445 0.3190588 -0.9406524 0.115649186 69 69 69 255 1 1 1 1
0.64190125 0.18815072 1.8600837 0.861133 0.508368 -0.003452618 69 69 69 255 1 1 1 1
0.64190125 -0.24032676 1.8600837 0.93778056 -0.34585842 0.030814815 69 69 69 255 1 1 1 1
0.84661263 -0.43752784 3.0132265 0.9045951 -0.31810847 0.28375116 69 69 69 255 1 1 1 1
0.4575136 -0.42571032 2.1198475 0.39824092 -0.8750673 -0.27506644 69 69 69 255 1 1 1 1
0.58928365 -0.9306373 2.6440737 0.49569917 -0.86233145 -0.103280485 69 69 69 255 1 1 1 1
-0.45473105 -0.42571032 2.1198475 -0.39752233 -0.8741111 -0.27911592 69 69 69 255 1 1 1 1
-0.63911855 -0.24032676 1.8600837 -0.9377807 -0.34585842 0.030814404 69 69 69 255 1 1 1 1
-0.84382683 -0.43752784 3.0132265 -0.90777594 -0.305273 0.28766513 69 69 69 255 1 1 1 1
-0.61451864 -0.9306373 2.6440737 -0.51902187 -0.84810185 -0.106488094 69 69 69 255 1 1 1 1
-0.6005083 -0.43752784 3.256546 -0.3346283 -0.3834482 0.86080855 69 69 69 255 1 1 1 1
-0.6005083 0.437533 3.256546 -0.33272603 0.40414923 0.8520311 69 69 69 255 1 1 1 1
0.603294 -0.43752784 3.256546 0.33638877 -0.38601238 0.85897446 69 69 69 255 1 1 1 1
0.603294 0.437533 3.256546 0.33273923 0.40414083 0.8520299 69 69 69 255 1 1 1 1
0.84661263 0.437533 3.0132265 0.8751197 0.4367613 0.20833947 69 69 69 255 1 1 1 1
0.603294 0.6144047 3.0132265 0.2956126 0.945269 0.13812986 69 69 69 255 1 1 1 1
0.4575136 0.27475673 1.8600837 0.22460313 0.9744434 -0.003702088 69 69 69 255 1 1 1 1
-0.6005083 0.6144047 3.0132265 -0.29561442 0.9452694 0.13812271 69 69 69 255 1 1 1 1
-0.45473105 0.27475673 1.8600837 -0.22461157 0.97444135 -0.0037021232 69 69 69 255 1 1 1 1
-0.6005083 0.6144045 0.67634434 -0.30457574 0.93735963 0.1690873 69 69 69 255 1 1 1 1
-0.63911855 0.18815072 1.8600837 -0.8611334 0.5083674 -0.0034526014 69 69 69 255 1 1 1 1
-0.84382683 0.437533 3.0132265 -0.87512004 0.43675512 0.20835054 69 69 69 255 1 1 1 1
-0.99970305 -0.51821786 -2.364624 -0.8895249 -0.45323852 0.057622258 69 69 69 255 1 1 1 1
-0.71151143 -0.7277084 -2.364624 -0.31306323 -0.94857997 0.046772357 69 69 69 255 1 1 1 1
-0.99970305 0.51822263 -2.3646243 -0.889533 0.45322284 0.057622258 69 69 69 255 1 1 1 1
1.0024891 0.51822263 -2.3646243 0.88953286 0.4532229 0.057622313 69 69 69 255 1 1 1 1
0.71429735 0.72771317 -2.3646243 0.3130631 0.94857997 0.046772357 69 69 69 255 1 1 1 1
1.0024891 -0.51821786 -2.364624 0.8895249 -0.4532386 0.057622343 69 69 69 255 1 1 1 1
0.71429735 -0.7277084 -2.364624 0.31307438 -0.9485763 0.04677266 69 69 69 255 1 1 1 1
-0.71151143 0.72771317 -2.3646243 -0.31307447 0.94857615 0.04677263 69 69 69 255 1 1 1 1
-0.60569286 -0.60190094 3.0930288 -0.42911 -0.49087098 -0.75822854 69 69 69 255 0 0 0 0
-0.8490115 -0.6019009 3.6091712 -0.90642154 -0.38510054 -0.17348664 69 69 69 255 0 0 0 0
-0.60569286 -0.84521955 3.6091712 -0.3607299 -0.91163325 -0.19697446 69 69 69 255 0 0 0 0
-0.60569286 0.5020762 3.042641 -0.34171522 0.32193178 -0.8829444 69 69 69 255 0 0 0 0
-0.8490115 0.50207627 3.2859595 -0.8906079 0.3712963 -0.26259607 69 69 69 255 0 0 0 0
0.5981094 -0.60190094 3.0930288 0.45365497 -0.46965915 -0.7573754 69 69 69 255 0 0 0 0
0.5981094 0.5020762 3.042641 0.37138268 0.2928716 -0.8810795 69 69 69 255 0 0 0 0
0.841428 0.50207627 3.2859595 0.9078491 0.30809218 -0.28441054 69 69 69 255 0 0 0 0
0.5981094 0.7453948 3.2859595 0.35816902 0.9025073 -0.23915572 69 69 69 255 0 0 0 0
0.841428 -0.6019009 3.6091712 0.9314932 -0.33149898 -0.14976317 69 69 69 255 0 0 0 0
0.5981094 -0.84521955 3.6091712 0.360732 -0.9116322 -0.19697574 69 69 69 255 0 0 0 0
0.55462605 0.2155551 4.8129745 0.8623234 0.35807085 0.35802743 69 69 69 255 0 0 0 0
0.8414023 -0.60189766 4.8129745 0.91988355 -0.19542344 0.34003538 69 69 69 255 0 0 0 0
0.5980837 -0.60189766 5.056293 0.38838175 -0.27424225 0.8797448 69 69 69 255 0 0 0 0
0.5981094 -0.8452195 4.8129735 0.34161115 -0.8755718 0.34157848 69 69 69 255 0 0 0 0
-0.60571873 -0.60189766 5.056293 -0.37587535 -0.2918676 0.8795061 69 69 69 255 0 0 0 0
-0.60571873 -0.84521633 4.8129745 -0.34159964 -0.8755729 0.3415871 69 69 69 255 0 0 0 0
-0.8490115 -0.6019008 4.8129735 -0.8985257 -0.24166144 0.3664031 69 69 69 255 0 0 0 0
-0.5622382 0.21555182 4.8129735 -0.8338542 0.40923232 0.3704272 69 69 69 255 0 0 0 0
-0.40149355 0.2155551 5.056293 -0.3636024 0.38892487 0.84648144 69 69 69 255 0 0 0 0
0.3938643 0.2155551 5.056293 0.37831843 0.37776914 0.84508336 69 69 69 255 0 0 0 0
-0.40149355 0.45887366 4.8129745 -0.39798418 0.80747485 0.43542272 69 69 69 255 0 0 0 0
-0.60569286 0.7453948 3.2859595 -0.36452594 0.90210414 -0.23093088 69 69 69 255 0 0 0 0
0.39388132 0.45887038 4.8129735 0.3882558 0.8071656 0.44468072 69 69 69 255 0 0 0 0
-0.58317137 -0.8614085 4.37911 -4.220335e-11 -1 -2.2157795e-07 252 180 177 255 0 0 0 0
-0.011184126 -0.8614084 4.4919972 -8.59578e-11 -1 0 254 181 178 255 0 0 0 0
0.5893978 -0.8614085 4.379301 -4.2298096e-11 -1 -2.2109813e-07 252 180 177 255 0 0 0 0
-0.012496561 -0.8614085 4.2624273 0 -1 -4.353009e-07 252 180 177 255 0 0 0 0
0.4023281 -0.8646863 4.3441176 0 1 0 181 92 35 255 0 0 0 0
0.31708565 -0.8646863 4.3278403 0 1 0 181 92 35 255 0 0 0 0
0.4023281 -0.8646863 4.4142466 0 1 0 181 92 35 255 0 0 0 0
0.31708565 -0.8646863 4.428705 0 1 0 181 92 35 255 0 0 0 0
-0.2829377 -0.86468625 4.321358 0 1 0 181 92 35 255 0 0 0 0
-0.36818022 -0.86468625 4.3369627 0 1 0 181 92 35 255 0 0 0 0
-0.2829377 -0.86468625 4.435431 0 1 0 181 92 35 255 0 0 0 0
-0.36818022 -0.86468625 4.420056 0 1 0 181 92 35 255 0 0 0 0
3 6 5 8
3 7 5 3
3 7 8 5
3 7 9 8
3 10 8 9
3 6 8 10
3 11 12 10
3 10 9 11
3 10 12 1
3 10 1 6
3 11 15 12
3 12 14 13
3 1 12 13
3 12 15 14
3 15 16 14
3 16 15 11
3 17 14 16
3 17 16 18
3 16 11 18
3 17 18 19
3 18 20 19
3 18 11 9
3 18 9 20
3 19 20 21
3 20 22 21
3 20 7 22
3 7 20 9
3 23 22 24
3 23 21 22
3 25 24 22
3 3 22 7
3 3 4 22
3 25 22 4
3 24 25 2
3 24 27 23
3 24 2 26
3 24 26 27
3 17 23 27
3 17 27 14
3 14 27 26
3 14 26 13
3 0 13 26
3 0 26 2
3 19 23 17
3 19 21 23
3 1 13 0
3 0 29 1
3 3 32 4
3 3 33 31
3 5 34 33
3 2 35 30
3 2 28 0
3 1 34 6
3 4 35 25
3 36 37 40
3 36 38 37
3 41 38 36
3 42 36 39
3 36 40 39
3 42 41 36
3 42 43 45
3 42 44 43
3 39 44 42
3 42 45 41
3 47 45 43
3 41 45 46
3 46 45 48
3 47 48 45
3 49 48 47
3 49 50 48
3 46 48 50
3 50 38 46
3 50 52 38
3 51 50 49
3 51 52 50
3 52 51 53
3 52 37 38
3 52 53 37
3 53 40 37
3 53 54 40
3 55 54 53
3 55 53 51
3 56 57 55
3 55 49 56
3 55 51 49
3 55 57 54
3 56 59 57
3 58 54 57
3 57 44 58
3 57 59 44
3 43 44 59
3 43 59 47
3 56 47 59
3 39 58 44
3 39 40 58
3 58 40 54
3 49 47 56
3 41 46 38
3 61 60 62
3 62 60 63
3 64 67 66
3 69 70 68
3 0 28 29
3 3 31 32
3 3 5 33
3 5 6 34
3 2 25 35
3 2 30 28
3 1 29 34
3 4 32 35
3 64 65 67
3 69 71 70
