ply
format ascii 1.0
comment Created in Blender version 4.2.9 LTS
element vertex 40
property float x
property float y
property float z
property float nx
property float ny
property float nz
property uchar red
property uchar green
property uchar blue
property uchar alpha
element face 60
property list uchar uint vertex_indices
end_header
-0.23540948 -0.33057174 0.22838365 -0.35455212 -0.89670587 0.2649743 69 69 69 255
-0.23540948 -0.2354094 0.3235468 -0.34157175 -0.34158593 0.87558424 69 69 69 255
-0.33057344 -0.23540941 0.22838363 -0.8967055 -0.3545501 0.26497823 69 69 69 255
-0.23540948 0.23540795 0.32354674 -0.3415878 0.34157753 0.87558126 69 69 69 255
-0.23540948 0.33057192 0.22838359 -0.35455072 0.89670324 0.26498523 69 69 69 255
-0.33057344 0.23540793 0.2283836 -0.896703 0.35455647 0.2649782 69 69 69 255
0.23540625 -0.2354094 0.3235468 0.34158733 -0.3415809 0.87558013 69 69 69 255
0.23540625 -0.33057174 0.22838365 0.3545437 -0.8967097 0.26497307 69 69 69 255
0.33057022 -0.23540941 0.22838363 0.8967073 -0.354554 0.26496708 69 69 69 255
0.23540625 0.23540795 0.32354674 0.34157214 0.34158272 0.8755854 69 69 69 255
0.33057022 0.23540793 0.2283836 0.89670396 0.35455126 0.26498213 69 69 69 255
0.23540625 0.33057192 0.22838359 0.35455152 0.8967079 0.2649687 69 69 69 255
-0.09746824 -0.13685697 -1.1634057 -0.36858585 -0.91503286 -0.16388868 69 69 69 255
-0.13686639 -0.09745949 -1.1634057 -0.9150327 -0.36858746 -0.16388601 69 69 69 255
-0.09746824 0.13685839 -1.1634057 -0.36858988 0.91503125 -0.16388811 69 69 69 255
0.097450815 0.13685839 -1.1634057 0.36858258 0.9150336 -0.16389145 69 69 69 255
0.097450815 -0.13685697 -1.1634057 0.3685787 -0.9150351 -0.16389208 69 69 69 255
0.13684899 -0.09745949 -1.1634057 0.9150286 -0.36859345 -0.16389541 69 69 69 255
0.13684899 0.09746025 -1.1634057 0.91503054 0.36858886 -0.16389465 69 69 69 255
-0.13686639 0.09746025 -1.1634057 -0.9150347 0.36858267 -0.1638853 69 69 69 255
-0.07682106 -0.07679139 -1.4641068 -0.34158906 -0.34158275 -0.8755787 253 179 177 255
-0.107865006 -0.076791376 -1.4330628 -0.8548268 -0.32921168 -0.40111205 253 179 177 255
-0.07682106 -0.107834816 -1.4330628 -0.32920936 -0.8548208 -0.40112665 253 179 177 255
-0.07682106 0.07679644 -1.4641068 -0.3415739 0.34158462 -0.87558407 253 179 177 255
0.07676624 -0.07679139 -1.4641068 0.34157375 -0.34158796 -0.8755827 253 179 177 255
0.07676624 -0.107834816 -1.4330628 0.329201 -0.85482347 -0.40112785 253 179 177 255
0.10781017 -0.076791376 -1.4330628 0.8548149 -0.329206 -0.40114212 253 179 177 255
0.07676624 0.07679644 -1.4641068 0.34158874 0.3415794 -0.8755802 253 179 177 255
0.10781017 0.07679644 -1.4330628 0.854813 0.3292122 -0.4011412 253 179 177 255
0.07676624 0.107840374 -1.4330628 0.32919958 0.8548215 -0.40113327 253 179 177 255
-0.07682106 0.107840374 -1.4330628 -0.32921627 0.8548203 -0.40112215 253 179 177 255
0.09744016 0.13685976 -1.1634052 0.3857989 0.9136738 -0.12790377 253 179 177 255
0.13683832 0.097461596 -1.1634052 0.91367024 0.38580164 -0.12792076 253 179 177 255
-0.09747894 0.13685976 -1.1634052 -0.38580117 0.913676 -0.12788126 253 179 177 255
-0.13687709 0.097461596 -1.1634052 -0.91367704 0.3858036 -0.12786727 253 179 177 255
-0.107865006 0.07679644 -1.4330628 -0.85482395 0.3292096 -0.40111995 253 179 177 255
-0.13687709 -0.09745816 -1.1634052 -0.91367763 -0.38580135 -0.1278694 253 179 177 255
-0.09747894 -0.13685566 -1.1634052 -0.38579684 -0.91367716 -0.12788597 253 179 177 255
0.09744016 -0.13685566 -1.1634052 0.38579452 -0.913675 -0.1279085 253 179 177 255
0.13683832 -0.09745816 -1.1634052 0.91367096 -0.38579962 -0.12792298 253 179 177 255
3 10 17 18
3 1 9 3
3 5 13 2
3 4 15 14
3 11 3 9
3 0 1 2
3 3 4 5
3 6 7 8
3 9 10 11
3 18 11 10
3 12 2 13
3 0 6 1
3 14 5 4
3 8 9 6
3 17 7 16
3 5 1 3
3 0 16 7
3 20 22 21
3 21 23 20
3 25 20 24
3 24 23 27
3 24 26 25
3 28 24 27
3 27 29 28
3 30 27 23
3 28 31 32
3 33 29 30
3 30 34 33
3 21 34 35
3 36 22 37
3 37 25 38
3 26 38 25
3 32 26 28
3 23 35 30
3 10 8 17
3 1 6 9
3 5 19 13
3 4 11 15
3 11 4 3
3 18 15 11
3 12 0 2
3 0 7 6
3 14 19 5
3 8 10 9
3 17 8 7
3 5 2 1
3 0 12 16
3 21 35 23
3 25 22 20
3 24 20 23
3 28 26 24
3 30 29 27
3 28 29 31
3 33 31 29
3 30 35 34
3 21 36 34
3 36 21 22
3 37 22 25
3 26 39 38
3 32 39 26
