ply
format ascii 1.0
comment Created in Blender version 4.2.9 LTS
element vertex 48
property float x
property float y
property float z
property float nx
property float ny
property float nz
property uchar red
property uchar green
property uchar blue
property uchar alpha
element face 76
property list uchar uint vertex_indices
end_header
-0.7304587 -0.23540798 -2.8304152 -0.3415899 -0.34157962 -0.8755797 254 182 179 255
-0.7304587 -0.33057192 -2.735251 -0.35170314 -0.89211386 -0.28361553 254 182 179 255
-0.8256226 -0.23540798 -2.735251 -0.8921087 -0.35171568 -0.28361648 254 182 179 255
-0.7304587 0.23540775 -2.8304152 -0.34157422 0.34158462 -0.8755838 254 182 179 255
-0.8256226 0.23540775 -2.735251 -0.89211386 0.35170326 -0.2836158 254 182 179 255
-0.7304587 0.3305717 -2.735251 -0.35171553 0.8921087 -0.2836165 254 182 179 255
-0.25964296 -0.23540798 -2.8304152 0.3415742 -0.34158474 -0.8755838 254 182 179 255
-0.16447899 -0.23540798 -2.735251 0.8921082 -0.3517107 -0.28362423 254 182 179 255
-0.25964296 -0.33057192 -2.735251 0.3517155 -0.8921088 -0.28361642 254 182 179 255
-0.25964296 0.23540775 -2.8304152 0.34158984 0.34157968 -0.8755797 254 182 179 255
-0.25964296 0.3305717 -2.735251 0.3517032 0.89211386 -0.28361553 254 182 179 255
-0.16447899 0.23540775 -2.735251 0.8921143 0.35170817 -0.28360802 254 182 179 255
-0.7304587 -0.3305718 -0.17961714 -0.38580886 -0.914122 -0.124630384 254 182 179 255
-0.8256226 -0.23540784 -0.17961714 -0.9141222 -0.3858083 -0.124630384 254 182 179 255
-0.7304587 0.33057186 -0.17961714 -0.38580802 0.9141222 -0.12463045 254 182 179 255
-0.25964296 0.33057186 -0.17961714 0.3858232 0.9141157 -0.124630935 254 182 179 255
-0.25964296 -0.3305718 -0.17961714 0.38582322 -0.9141157 -0.12463088 254 182 179 255
-0.16447899 -0.23540784 -0.17961714 0.9141219 -0.38580874 -0.12463045 254 182 179 255
-0.16447899 0.23540789 -0.17961714 0.91411555 0.3858237 -0.12463091 254 182 179 255
-0.8256226 0.23540789 -0.17961714 -0.91411555 0.38582388 -0.12463089 254 182 179 255
-0.7304846 -0.33056852 0.20874529 -0.3415782 -0.87558377 0.34158102 187 98 254 255
-0.82564855 -0.23540455 0.20874527 -0.87558246 -0.34158063 0.34158203 187 98 254 255
-0.7304846 -0.23540454 0.30390865 -0.34157285 -0.3415828 0.87558514 187 98 254 255
-0.7304846 -0.33056864 -0.1796169 -0.38268378 -0.92387944 2.9214053e-07 187 98 254 255
-0.82564855 -0.23540464 -0.1796169 -0.9238838 -0.38267317 1.1571782e-07 187 98 254 255
-0.25966877 -0.33056852 0.20874529 0.3415782 -0.8755797 0.34159133 187 98 254 255
-0.25966877 -0.33056864 -0.1796169 0.3826749 -0.9238831 2.9214186e-07 187 98 254 255
-0.25966877 -0.23540454 0.30390865 0.3415823 -0.34158206 0.8755817 187 98 254 255
-0.16450481 -0.23540455 0.20874527 0.8755824 -0.34158048 0.341582 187 98 254 255
-0.16450481 0.23541123 0.20874524 0.8755805 0.34158224 0.34158516 187 98 254 255
-0.16450481 -0.23540464 -0.1796169 0.92388374 -0.38267323 1.2390882e-07 187 98 254 255
-0.16450481 0.23541114 -0.1796169 0.9238832 0.3826746 -1.542909e-07 187 98 254 255
-0.25966877 0.33057523 0.20874523 0.34158507 0.87558305 0.341576 187 98 254 255
-0.25966877 0.33057514 -0.1796169 0.38267356 0.92388374 -2.1792951e-07 187 98 254 255
-0.7304846 0.33057523 0.20874523 -0.3415782 0.8755798 0.34159115 187 98 254 255
-0.7304846 0.33057514 -0.1796169 -0.38267478 0.9238832 -2.534083e-07 187 98 254 255
-0.82564855 0.23541123 0.20874524 -0.87557983 0.3415891 0.34158024 187 98 254 255
-0.82564855 0.23541114 -0.1796169 -0.9238873 0.38266465 -1.0752429e-07 187 98 254 255
-0.7304846 0.23541124 0.3039086 -0.34158826 0.34157783 0.87558097 187 98 254 255
-0.25966877 0.23541124 0.3039086 0.3415786 0.3415787 0.8755845 187 98 254 255
-0.69166726 0.14001508 -1.457434 -0.9266449 0.37593773 4.3642285e-07 254 182 179 255
-0.3550357 0.1966164 -1.457434 0.37594008 0.9266441 -4.7404248e-07 254 182 179 255
-0.29843438 -0.14001517 -1.457434 0.92664516 -0.37593746 1.3017439e-06 254 182 179 255
-0.69166726 -0.14001517 -1.457434 -0.9266449 -0.3759377 -4.4645552e-07 254 182 179 255
-0.6350659 0.1966164 -1.457434 -0.37593734 0.9266451 -5.016354e-07 254 182 179 255
-0.3550357 -0.19661649 -1.457434 0.37593633 -0.9266455 -8.3521996e-07 254 182 179 255
-0.29843438 0.14001508 -1.457434 0.9266461 0.37593505 -4.6401573e-07 254 182 179 255
-0.6350659 -0.19661649 -1.457434 -0.37593877 -0.9266445 9.230126e-07 254 182 179 255
3 0 1 2
3 3 4 5
3 6 7 8
3 9 10 11
3 5 40 44
3 5 9 3
3 11 6 9
3 8 42 45
3 8 0 6
3 33 29 31
3 6 3 9
3 12 43 47
3 41 5 44
3 40 2 43
3 18 42 46
3 47 8 45
3 26 20 23
3 20 22 21
3 30 25 26
3 35 32 33
3 22 39 38
3 27 25 28
3 27 20 25
3 37 21 36
3 37 34 35
3 11 41 46
3 29 27 28
3 24 20 21
3 32 38 39
3 38 34 36
3 31 28 30
3 22 36 21
3 39 29 32
3 2 3 0
3 18 41 15
3 16 47 45
3 46 7 11
3 19 43 13
3 15 44 14
3 47 2 1
3 45 17 16
3 44 19 14
3 5 4 40
3 5 10 9
3 11 7 6
3 8 7 42
3 8 1 0
3 33 32 29
3 6 0 3
3 12 13 43
3 41 10 5
3 40 4 2
3 18 17 42
3 47 1 8
3 26 25 20
3 30 28 25
3 35 34 32
3 22 27 39
3 27 22 20
3 37 24 21
3 37 36 34
3 11 10 41
3 29 39 27
3 24 23 20
3 32 34 38
3 31 29 28
3 22 38 36
3 2 4 3
3 18 46 41
3 16 12 47
3 46 42 7
3 19 40 43
3 15 41 44
3 47 43 2
3 45 42 17
3 44 40 19
