ply
format ascii 1.0
comment Created in Blender version 4.2.9 LTS
element vertex 40
property float x
property float y
property float z
property float nx
property float ny
property float nz
property uchar red
property uchar green
property uchar blue
property uchar alpha
element face 60
property list uchar uint vertex_indices
end_header
-0.23540948 -0.33057174 0.22838365 -0.35918525 -0.9041836 0.23116677 253 3 173 255
-0.23540948 -0.2354094 0.3235468 -0.34157175 -0.34158593 0.87558424 253 3 173 255
-0.33057344 -0.23540941 0.22838363 -0.9041811 -0.359181 0.231183 253 3 173 255
-0.23540948 0.23540795 0.32354674 -0.3415878 0.34157753 0.87558126 253 3 173 255
-0.23540948 0.33057192 0.22838359 -0.3591839 0.9041811 0.23117867 253 3 173 255
-0.33057344 0.23540793 0.2283836 -0.90418124 0.35918367 0.23117812 253 3 173 255
0.23540625 -0.2354094 0.3235468 0.34158733 -0.3415809 0.87558013 253 3 173 255
0.23540625 -0.33057174 0.22838365 0.35917494 -0.9041853 0.23117606 253 3 173 255
0.33057022 -0.23540941 0.22838363 0.90418243 -0.35919103 0.23116224 253 3 173 255
0.23540625 0.23540795 0.32354674 0.34157214 0.34158272 0.8755854 253 3 173 255
0.33057022 0.23540793 0.2283836 0.904182 0.35918453 0.23117393 253 3 173 255
0.23540625 0.33057192 0.22838359 0.35918272 0.9041835 0.23117125 253 3 173 255
-0.157504 -0.2211666 -0.31069776 -0.35895023 -0.90324044 -0.23518391 253 3 173 255
-0.22117285 -0.15749884 -0.31069776 -0.903243 -0.35894683 -0.23517972 253 3 173 255
-0.157504 0.22116742 -0.31069782 -0.35895422 0.90323913 -0.23518324 253 3 173 255
0.1574923 0.22116742 -0.31069782 0.35894132 0.903243 -0.2351878 253 3 173 255
0.1574923 -0.2211666 -0.31069776 0.35893732 -0.9032444 -0.23518853 253 3 173 255
0.22116116 -0.15749884 -0.31069776 0.90323955 -0.35894632 -0.23519324 253 3 173 255
0.22116116 0.15749855 -0.31069782 0.90323734 0.35895237 -0.23519288 253 3 173 255
-0.22117285 0.15749855 -0.31069782 -0.9032406 0.35895294 -0.23517941 253 3 173 255
-0.2354353 -0.23540635 -1.5068536 -0.34158936 -0.34158283 -0.8755786 253 179 177 255
-0.2354353 -0.33056873 -1.4116894 -0.35122654 -0.891348 -0.2865986 253 179 177 255
-0.33059928 -0.23540634 -1.4116894 -0.8913396 -0.351245 -0.28660202 253 179 177 255
-0.2354353 0.23541105 -1.5068536 -0.3415737 0.34158447 -0.8755842 253 179 177 255
-0.33059928 0.23541106 -1.4116894 -0.89134634 0.3512291 -0.28660062 253 179 177 255
-0.2354353 0.33057502 -1.4116894 -0.35123393 0.8913465 -0.286594 253 179 177 255
0.23538049 -0.23540635 -1.5068536 0.3415732 -0.34158796 -0.87558293 253 179 177 255
0.33054447 -0.23540634 -1.4116894 0.89133775 -0.35124084 -0.2866129 253 179 177 255
0.23538049 -0.33056873 -1.4116894 0.35123792 -0.8913423 -0.2866023 253 179 177 255
0.23538049 0.23541105 -1.5068536 0.34158942 0.3415794 -0.87557995 253 179 177 255
0.23538049 0.33057502 -1.4116894 0.35123652 0.8913397 -0.28661203 253 179 177 255
0.33054447 0.23541106 -1.4116894 0.8913458 0.35123366 -0.2865966 253 179 177 255
-0.1575213 -0.22116448 -0.3106972 -0.37367126 -0.9200419 0.11786707 253 179 177 255
-0.22119014 -0.15749669 -0.3106972 -0.9200374 -0.37368166 0.11786996 253 179 177 255
-0.1575213 0.2211696 -0.31069723 -0.3736753 0.9200402 0.11786814 253 179 177 255
0.15747507 0.2211696 -0.31069723 0.3736783 0.9200393 0.11786536 253 179 177 255
0.15747507 -0.22116448 -0.3106972 0.37367415 -0.92004114 0.117864266 253 179 177 255
0.22114393 -0.15749669 -0.3106972 0.9200402 -0.37367702 0.11786271 253 179 177 255
0.22114393 0.15750073 -0.31069723 0.92004055 0.37367594 0.117862925 253 179 177 255
-0.22119014 0.15750073 -0.31069723 -0.9200378 0.37368047 0.11787013 253 179 177 255
3 10 17 18
3 1 9 3
3 5 13 2
3 4 15 14
3 11 3 9
3 0 1 2
3 3 4 5
3 6 7 8
3 9 10 11
3 18 11 10
3 12 2 13
3 0 6 1
3 31 35 38
3 25 29 23
3 22 23 20
3 22 39 24
3 25 39 34
3 20 21 22
3 23 24 25
3 26 27 28
3 29 30 31
3 31 26 29
3 27 36 28
3 14 5 4
3 8 9 6
3 28 20 26
3 26 23 29
3 33 21 32
3 34 30 25
3 32 28 36
3 38 27 31
3 17 7 16
3 5 1 3
3 0 16 7
3 10 8 17
3 1 6 9
3 5 19 13
3 4 11 15
3 11 4 3
3 18 15 11
3 12 0 2
3 0 7 6
3 31 30 35
3 25 30 29
3 22 24 23
3 22 33 39
3 25 24 39
3 31 27 26
3 27 37 36
3 14 19 5
3 8 10 9
3 28 21 20
3 26 20 23
3 33 22 21
3 34 35 30
3 32 21 28
3 38 37 27
3 17 8 7
3 5 2 1
3 0 12 16
