ply
format ascii 1.0
comment Created in Blender version 4.2.9 LTS
element vertex 138
property float x
property float y
property float z
property float nx
property float ny
property float nz
property uchar red
property uchar green
property uchar blue
property uchar alpha
property float Color_r
property float Color_g
property float Color_b
property float Color_a
element face 178
property list uchar uint vertex_indices
end_header
-0.5798867 -0.5985177 3.1182845 -0.26820424 -0.8684721 0.41692078 44 44 44 255 1 1 1 1
-0.61838067 -0.44899896 3.4049783 -0.5702629 -0.6155304 0.5439878 44 44 44 255 1 1 1 1
-0.7962144 -0.4116476 3.1211972 -0.8236037 -0.30929625 0.47540826 44 44 44 255 1 1 1 1
-0.61838067 0.45214632 3.4049783 -0.5669914 0.6443832 0.513119 44 44 44 255 1 1 1 1
-0.5666695 0.58073795 3.1211972 -0.24246702 0.89951885 0.36342221 44 44 44 255 1 1 1 1
-0.7962144 0.41387847 3.1211972 -0.8184799 0.3333254 0.46795842 44 44 44 255 1 1 1 1
0.6213056 -0.44899896 3.4049783 0.5749082 -0.62251437 0.5309958 44 44 44 255 1 1 1 1
0.5557716 -0.5985177 3.1182845 0.23765208 -0.882473 0.40591028 44 44 44 255 1 1 1 1
0.79853404 -0.4116476 3.1211972 0.8200757 -0.3278937 0.46900064 44 44 44 255 1 1 1 1
0.6213056 0.45214632 3.4049783 0.567834 0.6443432 0.51223665 44 44 44 255 1 1 1 1
0.79853404 0.41387847 3.1211972 0.81912905 0.33367556 0.46657088 44 44 44 255 1 1 1 1
0.56898904 0.58073795 3.1211972 0.24220985 0.89973795 0.36305124 44 44 44 255 1 1 1 1
0 -0.7964641 2.9480639 1.5650742e-06 -0.6121667 -0.7907288 254 254 254 255 0.99999374 0.89677894 0.39157268 1
0.15016052 -0.8125064 3.1055565 0.7236064 -0.68948036 -0.031789444 254 254 254 255 0.99999374 0.89677894 0.39157268 1
-0.057355057 -0.86582285 3.146833 -0.27638802 -0.94640434 0.16711827 254 254 254 255 0.99999374 0.89677894 0.39157268 1
-0.1856099 -0.72624046 3.038771 -0.8944284 -0.27376765 -0.35362297 254 254 254 255 0.99999374 0.89677894 0.39157268 1
-0.057355057 -0.5866581 2.9307091 -0.42591375 0.04167976 -0.90380335 254 254 254 255 0.99999374 0.89677894 0.39157268 1
0.15016052 -0.63997453 2.9719856 0.7946537 -0.018500088 -0.60678107 254 254 254 255 0.99999374 0.89677894 0.39157268 1
0.057355057 -0.752198 3.2936008 0.27638718 -0.39886826 0.87436503 254 254 254 255 0.99999374 0.89677894 0.39157268 1
-0.15016052 -0.69888157 3.2523243 -0.72360754 -0.14194115 0.675459 254 254 254 255 0.99999374 0.89677894 0.39157268 1
-0.15016052 -0.5263497 3.1187534 -0.79465353 0.5828003 0.1699106 254 254 254 255 0.99999374 0.89677894 0.39157268 1
0.057355057 -0.47303325 3.077477 0.42591533 0.8854261 0.18605584 254 254 254 255 0.99999374 0.89677894 0.39157268 1
0.1856099 -0.61261564 3.185539 0.89442855 0.27376726 0.35362297 254 254 254 255 0.99999374 0.89677894 0.39157268 1
0 -0.542392 3.276246 -1.3466092e-06 0.6121666 0.79072887 254 254 254 255 0.99999374 0.89677894 0.39157268 1
-0.6005083 -0.43752804 0.43302596 -0.33272538 -0.4041487 -0.8520315 253 0 172 255 1 1 1 1
-0.6005083 -0.61439973 0.67634445 -0.3068962 -0.93153423 -0.19508643 253 0 172 255 1 1 1 1
-0.84382683 -0.437528 0.67634445 -0.8757924 -0.42531383 -0.22824559 253 0 172 255 1 1 1 1
-0.61451864 -0.9306373 2.6440737 -0.51902187 -0.84810185 -0.106488094 253 0 172 255 1 1 1 1
-0.6005083 -0.43752784 3.256546 -0.3346283 -0.3834482 0.86080855 253 0 172 255 1 1 1 1
-0.84382683 -0.43752784 3.0132265 -0.90777594 -0.30527303 0.2876652 253 0 172 255 1 1 1 1
-0.6005083 0.43753278 0.4330259 -0.3327386 0.4041401 -0.8520305 253 0 172 255 1 1 1 1
-0.84382683 0.4375328 0.67634434 -0.8747004 0.43613738 -0.21138442 253 0 172 255 1 1 1 1
-0.6005083 0.6144045 0.67634434 -0.2954375 0.94480383 -0.14164238 253 0 172 255 1 1 1 1
-0.6005083 0.437533 3.256546 -0.33272603 0.40414923 0.852031 253 0 172 255 1 1 1 1
-0.6005083 0.6144047 3.0132265 -0.2956144 0.9452694 0.13812272 253 0 172 255 1 1 1 1
-0.84382683 0.437533 3.0132265 -0.87512004 0.43675512 0.20835054 253 0 172 255 1 1 1 1
0.603294 -0.43752804 0.43302596 0.33273858 -0.40414023 -0.8520304 253 0 172 255 1 1 1 1
0.84661263 -0.437528 0.67634445 0.87579215 -0.42531973 -0.22823507 253 0 172 255 1 1 1 1
0.603294 -0.61439973 0.67634445 0.30689198 -0.93153507 -0.19508953 253 0 172 255 1 1 1 1
0.603294 -0.43752784 3.256546 0.33638877 -0.38601238 0.85897446 253 0 172 255 1 1 1 1
0.58928365 -0.9306373 2.6440737 0.49569917 -0.86233145 -0.103280455 253 0 172 255 1 1 1 1
0.84661263 -0.43752784 3.0132265 0.90459514 -0.31810853 0.28375122 253 0 172 255 1 1 1 1
0.603294 0.43753278 0.4330259 0.33272535 0.4041485 -0.8520316 253 0 172 255 1 1 1 1
0.603294 0.6144045 0.67634434 0.2954417 0.9448032 -0.14163771 253 0 172 255 1 1 1 1
0.84661263 0.4375328 0.67634434 0.8747014 0.4361312 -0.21139361 253 0 172 255 1 1 1 1
0.603294 0.437533 3.256546 0.33273923 0.40414083 0.8520299 253 0 172 255 1 1 1 1
0.84661263 0.437533 3.0132265 0.87511957 0.43676123 0.20833947 253 0 172 255 1 1 1 1
0.603294 0.6144047 3.0132265 0.2956126 0.945269 0.13812986 253 0 172 255 1 1 1 1
-0.45473105 -0.42571032 2.1198475 -0.39752236 -0.87411124 -0.27911592 253 0 172 255 1 1 1 1
-0.63911855 -0.24032676 1.8600837 -0.9377807 -0.3458584 0.030814404 253 0 172 255 1 1 1 1
-0.45473105 0.27475673 1.8600837 -0.22461155 0.97444135 -0.003702123 253 0 172 255 1 1 1 1
0.4575136 0.27475673 1.8600837 0.22460312 0.9744434 -0.0037020852 253 0 172 255 1 1 1 1
0.4575136 -0.42571032 2.1198475 0.39824092 -0.8750673 -0.27506644 253 0 172 255 1 1 1 1
0.64190125 -0.24032676 1.8600837 0.93778056 -0.34585842 0.030814812 253 0 172 255 1 1 1 1
0.64190125 0.18815072 1.8600837 0.861133 0.508368 -0.0034526205 253 0 172 255 1 1 1 1
-0.63911855 0.18815072 1.8600837 -0.8611334 0.50836736 -0.0034526 253 0 172 255 1 1 1 1
-0.23098859 -0.84709215 3.970843 0.2801193 0.944572 0.1712227 254 0 19 255 1 1 1 1
-0.13156885 -0.8751083 3.9627473 0.30600116 0.9356658 0.17576411 254 0 19 255 1 1 1 1
-0.08046833 -0.8473426 3.7259731 0.2507218 0.88621557 0.38956454 254 0 19 255 1 1 1 1
-0.053615138 -0.87510836 3.7668822 0.0016651498 0.9477885 0.31889534 254 0 19 255 1 1 1 1
-0.025569461 -0.8473426 3.7266798 -0.25933447 0.8856398 0.38521132 254 0 19 255 1 1 1 1
0.02469515 -0.8751083 3.9691691 -0.3093565 0.93540287 0.17123105 254 0 19 255 1 1 1 1
0.12324207 -0.84734255 3.9803412 -0.28488687 0.94387895 0.16712944 254 0 19 255 1 1 1 1
0.41008008 -0.84709215 4.373844 -0.56462413 0.76140827 -0.31852314 0 0 0 255 1 1 1 1
0.36773267 -0.8751083 4.38194 -0.5705267 0.7562503 -0.32028878 0 0 0 255 1 1 1 1
0.27381337 -0.8473426 4.6147966 -0.30094737 0.8029651 -0.5144685 0 0 0 255 1 1 1 1
0.26391345 -0.87510836 4.577805 -0.021974754 0.9268087 -0.3748903 0 0 0 255 1 1 1 1
0.24063402 -0.8473426 4.618007 0.2830396 0.8579799 -0.4286716 0 0 0 255 1 1 1 1
0.21146868 -0.8751083 4.375518 0.5775713 0.80248964 -0.14973985 0 0 0 255 1 1 1 1
0.16999413 -0.84734255 4.364346 0.5843272 0.7968797 -0.1534423 0 0 0 255 1 1 1 1
-0.5121494 -0.84709215 4.373844 -0.56462413 -0.76140827 0.31852314 0 0 0 255 1 1 1 1
-0.469802 -0.8751083 4.38194 -0.57052666 -0.7562504 0.32028875 0 0 0 255 1 1 1 1
-0.3758827 -0.8473426 4.6147966 -0.3009471 -0.80296504 0.51446867 0 0 0 255 1 1 1 1
-0.36598277 -0.87510836 4.577805 -0.021974484 -0.926809 0.3748897 0 0 0 255 1 1 1 1
-0.34270334 -0.8473426 4.618007 0.28303945 -0.8579799 0.42867163 0 0 0 255 1 1 1 1
-0.313538 -0.8751083 4.375518 0.57757115 -0.80248934 0.14974134 0 0 0 255 1 1 1 1
-0.27206343 -0.84734255 4.364346 0.5843271 -0.7968796 0.15344344 0 0 0 255 1 1 1 1
-0.6359822 -0.8876659 4.7981973 -0.2439244 -0.68574756 0.68574864 254 101 218 255 1 1 1 1
-0.88767445 -0.6321256 4.7981973 -0.8763114 -0.16106872 0.45402125 254 101 218 255 1 1 1 1
-0.6359822 -0.6321256 5.053737 -0.34466404 -0.34115145 0.8745413 254 101 218 255 1 1 1 1
0.6282861 -0.8876659 4.7981973 0.24184039 -0.6861165 0.6861177 254 101 218 255 1 1 1 1
0.6282861 -0.6321256 5.053737 0.3415732 -0.34158373 0.87558466 254 101 218 255 1 1 1 1
0.8838264 -0.6321256 4.7981973 0.8737295 -0.16169383 0.45875025 254 101 218 255 1 1 1 1
0.8838264 0.63214266 4.7981973 0.8758389 0.3417322 0.34077176 254 101 218 255 1 1 1 1
0.8838264 0.57471037 3.283742 0.9392619 0.342955 -0.013005803 254 101 218 255 1 1 1 1
0.8838264 -0.5958525 2.8998513 1 -5.1323198e-08 0 254 101 218 255 1 1 1 1
0.6282861 0.88768303 2.7352433 0.37212706 0.9281465 -0.008100137 254 101 218 255 1 1 1 1
0.6282861 0.887683 4.7981973 0.3415876 0.8755773 0.34158796 254 101 218 255 1 1 1 1
-0.6321342 0.88768303 2.8333507 -0.39147452 0.9201402 -0.009471515 254 101 218 255 1 1 1 1
-0.6321342 0.887683 4.7981973 -0.3409987 0.8761597 0.34068173 254 101 218 255 1 1 1 1
-0.88767445 0.63214266 4.7981973 -0.87747085 0.34155822 0.33672383 254 101 218 255 1 1 1 1
-0.6359822 0.63214266 5.053737 -0.34524438 0.3420775 0.8739505 254 101 218 255 1 1 1 1
0.6282861 0.63214266 5.053737 0.34158885 0.34157863 0.87558043 254 101 218 255 1 1 1 1
-0.7989459 -0.08557002 4.826584 -1.6010713e-08 -1 6.768517e-08 254 101 218 255 1 1 1 1
-0.070136055 -0.08557002 5.003994 -1.6010713e-08 -1 6.768517e-08 254 101 218 255 1 1 1 1
-0.7989459 -0.08556996 5.732804 -1.6010713e-08 -1 6.768517e-08 254 101 218 255 1 1 1 1
0.8040919 -0.084018126 4.8366046 1.2711055e-07 -1 -6.768516e-08 254 101 218 255 1 1 1 1
0.07528198 -0.08401823 5.0140147 1.2711055e-07 -1 -6.768516e-08 254 101 218 255 1 1 1 1
0.8040919 -0.084018186 5.7428246 1.2711055e-07 -1 -6.768516e-08 254 101 218 255 1 1 1 1
0.8838264 -0.19026309 3.9822738 1 -5.6190395e-08 0 254 101 218 255 1 1 1 1
0.8838264 0.15694413 3.6670437 1 -1.6759317e-08 0 254 101 218 255 1 1 1 1
0.8838264 -0.41043 3.0026252 1 0 0 254 101 218 255 1 1 1 1
0.8838264 -0.122914426 2.9784431 1 0 0 254 101 218 255 1 1 1 1
0.8838264 0.24770924 3.0842397 1 -1.4280981e-07 0 254 101 218 255 1 1 1 1
-0.8838264 0.57471037 3.283742 -0.94228816 0.33449674 -0.014317617 254 101 218 255 1 1 1 1
-0.8838264 -0.5958525 2.8998513 -0.99999815 0.0017935748 -0.0006719434 254 101 218 255 1 1 1 1
-0.8838264 -0.19026309 3.9822738 -0.99999624 0.0013970333 -0.0023708686 254 101 218 255 1 1 1 1
-0.8838264 0.15694413 3.6670437 -0.99999845 -0.0012309186 -0.0013470424 254 101 218 255 1 1 1 1
-0.8838264 -0.41043 3.0026252 -1 3.748213e-07 0 254 101 218 255 1 1 1 1
-0.8838264 -0.122914426 2.9784431 -1 0 0 254 101 218 255 1 1 1 1
-0.8838264 0.24770924 3.0842397 -1 -1.4280981e-07 0 254 101 218 255 1 1 1 1
0.26033914 0.887683 3.0800056 -5.061678e-08 1 -6.331341e-08 254 101 218 255 1 1 1 1
0.13081345 0.887683 3.0755262 -1.2008888e-09 1 -3.540689e-05 254 101 218 255 1 1 1 1
-0.09120469 0.887683 3.0757718 -3.8750622e-10 1 1.03384984e-07 254 101 218 255 1 1 1 1
-0.34992182 0.887683 3.0726032 7.0143926e-08 1 1.6070952e-07 254 101 218 255 1 1 1 1
-0.3694169 0.88768303 2.854626 -3.353128e-09 1 5.290415e-07 254 101 218 255 1 1 1 1
0.02842921 0.88768303 2.8333507 2.721044e-10 1 8.3103544e-07 254 101 218 255 1 1 1 1
0.39365312 0.88768303 2.8333507 -8.2037435e-09 1 4.578587e-07 254 101 218 255 1 1 1 1
-0.6057445 -0.6018963 3.365853 -0.34157383 -0.34158403 -0.87558424 254 184 179 255 1 1 1 1
-0.84906304 -0.6018962 3.6091716 -0.8755803 -0.34157884 -0.34158918 254 184 179 255 1 1 1 1
-0.6057445 -0.84521484 3.6091716 -0.34158418 -0.8755843 -0.34157366 254 184 179 255 1 1 1 1
-0.6057445 0.601906 3.365853 -0.34158924 0.341579 -0.8755802 254 184 179 255 1 1 1 1
-0.84906304 0.60190606 3.6091716 -0.87558424 0.34158397 -0.34157372 254 184 179 255 1 1 1 1
0.5980578 -0.6018963 3.365853 0.3415892 -0.34157893 -0.8755802 254 184 179 255 1 1 1 1
0.5980578 0.601906 3.365853 0.34157395 0.34158406 -0.8755841 254 184 179 255 1 1 1 1
0.8413764 0.60190606 3.6091716 0.8755803 0.34157902 -0.3415889 254 184 179 255 1 1 1 1
0.5980578 0.8452246 3.6091716 0.34158388 0.8755843 -0.34157375 254 184 179 255 1 1 1 1
0.8413764 -0.6018962 3.6091716 0.8755844 -0.34158394 -0.34157366 254 184 179 255 1 1 1 1
0.8413764 0.6019061 4.812974 0.923884 0.38267276 -3.8935642e-08 254 184 179 255 1 1 1 1
0.5980578 -0.84521484 3.6091716 0.34157917 -0.87558013 -0.34158933 254 184 179 255 1 1 1 1
0.8413764 -0.60189617 4.812974 0.9238833 -0.38267457 3.89358e-08 254 184 179 255 1 1 1 1
0.5980578 -0.8452148 4.812974 0.38267255 -0.92388415 8.34568e-08 254 184 179 255 1 1 1 1
-0.6057445 -0.8452148 4.812974 -0.38267455 -0.92388326 1.2797776e-07 254 184 179 255 1 1 1 1
-0.84906304 -0.60189617 4.812974 -0.9238841 -0.38267252 3.8935617e-08 254 184 179 255 1 1 1 1
-0.84906304 0.6019061 4.812974 -0.92388326 0.3826746 -3.203525e-08 254 184 179 255 1 1 1 1
-0.6057445 0.8452246 3.6091716 -0.34157896 0.8755802 -0.34158936 254 184 179 255 1 1 1 1
-0.6057445 0.8452247 4.812974 -0.3826724 0.9238841 -8.3456804e-08 254 184 179 255 1 1 1 1
0.5980578 0.8452247 4.812974 0.38267443 0.9238834 -1.2107719e-07 254 184 179 255 1 1 1 1
3 0 1 2
3 3 4 5
3 6 7 8
3 9 10 11
3 3 2 1
3 9 4 3
3 6 10 9
3 1 7 6
3 3 5 2
3 9 11 4
3 6 8 10
3 1 0 7
3 12 13 14
3 13 12 17
3 12 14 15
3 12 15 16
3 12 16 17
3 13 17 22
3 14 13 18
3 15 14 19
3 16 15 20
3 13 22 18
3 14 18 19
3 15 19 20
3 17 21 22
3 18 22 23
3 19 18 23
3 20 19 23
3 21 20 23
3 22 21 23
3 40 48 52
3 54 41 53
3 33 39 45
3 29 55 49
3 34 51 50
3 24 25 26
3 27 28 29
3 30 31 32
3 33 34 35
3 36 37 38
3 39 40 41
3 42 43 44
3 45 46 47
3 24 31 30
3 48 29 49
3 33 29 28
3 50 31 55
3 30 43 42
3 45 34 33
3 44 51 54
3 42 37 36
3 39 46 45
3 38 53 52
3 36 25 24
3 28 40 39
3 42 24 30
3 52 41 40
3 46 51 47
3 50 35 34
3 25 49 26
3 32 51 43
3 26 55 31
3 54 37 44
3 52 25 38
3 40 27 48
3 54 46 41
3 33 28 39
3 29 35 55
3 34 47 51
3 24 26 31
3 48 27 29
3 33 35 29
3 50 32 31
3 30 32 43
3 45 47 34
3 44 43 51
3 42 44 37
3 39 41 46
3 38 37 53
3 36 38 25
3 28 27 40
3 42 36 24
3 52 53 41
3 46 54 51
3 50 55 35
3 25 48 49
3 32 50 51
3 26 49 55
3 54 53 37
3 52 48 25
3 57 58 56
3 58 59 60
3 60 61 62
3 64 65 63
3 65 66 67
3 66 69 67
3 71 72 70
3 72 73 74
3 73 76 74
3 77 79 78
3 79 77 80
3 79 80 81
3 81 80 82
3 81 82 83
3 99 100 83
3 85 99 82
3 83 84 86
3 83 86 87
3 87 86 111
3 113 114 89
3 91 90 78
3 91 89 90
3 92 89 91
3 91 81 92
3 91 79 81
3 91 78 79
3 81 83 92
3 92 87 89
3 92 83 87
3 95 93 94
3 98 97 96
3 100 99 102
3 100 103 84
3 90 107 106
3 106 105 78
3 90 88 104
3 90 89 88
3 107 109 106
3 107 104 110
3 112 116 113
3 114 113 115
3 112 111 117
3 118 119 122
3 118 120 119
3 123 120 118
3 124 118 121
3 118 122 121
3 124 123 118
3 124 125 127
3 124 126 125
3 121 126 124
3 124 127 123
3 128 130 127
3 128 127 125
3 123 127 129
3 129 127 130
3 129 130 131
3 131 120 129
3 131 132 120
3 132 119 120
3 132 133 119
3 133 122 119
3 133 134 122
3 135 122 134
3 135 134 136
3 136 126 135
3 136 137 126
3 125 126 137
3 125 137 128
3 121 135 126
3 121 122 135
3 123 129 120
3 58 57 59
3 60 59 61
3 65 64 66
3 66 68 69
3 72 71 73
3 73 75 76
3 83 82 99
3 100 84 83
3 85 101 99
3 89 87 111
3 111 112 113
3 114 88 89
3 89 111 113
3 106 78 90
3 90 104 107
3 106 108 105
