ply
format ascii 1.0
comment Created in Blender version 4.2.9 LTS
element vertex 185
property float x
property float y
property float z
property float nx
property float ny
property float nz
property uchar red
property uchar green
property uchar blue
property uchar alpha
property float Color_r
property float Color_g
property float Color_b
property float Color_a
element face 261
property list uchar uint vertex_indices
end_header
-0.6359822 -0.8876659 4.7981973 -0.2439244 -0.68574756 0.68574864 253 100 217 255 1 1 1 1
-0.88767445 -0.6321256 4.7981973 -0.87631136 -0.16106871 0.4540212 253 100 217 255 1 1 1 1
-0.6359822 -0.6321256 5.053737 -0.34466404 -0.34115145 0.8745413 253 100 217 255 1 1 1 1
0.6282861 -0.8876659 4.7981973 0.24184039 -0.6861165 0.6861177 253 100 217 255 1 1 1 1
0.6282861 -0.6321256 5.053737 0.3415732 -0.34158373 0.87558466 253 100 217 255 1 1 1 1
0.8838264 -0.6321256 4.7981973 0.8737296 -0.1616938 0.4587502 253 100 217 255 1 1 1 1
0.8838264 0.63214266 4.7981973 0.8758389 0.3417322 0.34077176 253 100 217 255 1 1 1 1
0.8838264 -0.5958525 2.8998513 1 -5.1323198e-08 0 253 100 217 255 1 1 1 1
0.8838264 -0.19026309 3.9822738 1 -5.6190395e-08 0 253 100 217 255 1 1 1 1
0.8838264 0.15694413 3.6670437 1 -1.675932e-08 0 253 100 217 255 1 1 1 1
0.8838264 -0.122914426 2.9784431 1 0 0 253 100 217 255 1 1 1 1
0.8838264 -0.41043 3.0026252 1 0 0 253 100 217 255 1 1 1 1
0.8838264 0.57471037 3.283742 0.93926185 0.342955 -0.013005803 253 100 217 255 1 1 1 1
0.8838264 0.24770924 3.0842397 1 -1.4280981e-07 0 253 100 217 255 1 1 1 1
0.6282861 0.88768303 2.7352433 0.37212706 0.9281465 -0.008100137 253 100 217 255 1 1 1 1
0.6282861 0.887683 4.7981973 0.3415876 0.8755773 0.34158796 253 100 217 255 1 1 1 1
0.26033914 0.887683 3.0800056 -5.061678e-08 1 -6.331341e-08 253 100 217 255 1 1 1 1
0.13081345 0.887683 3.0755262 -1.2008888e-09 1 -3.540689e-05 253 100 217 255 1 1 1 1
0.39365312 0.88768303 2.8333507 -8.2037435e-09 1 4.578587e-07 253 100 217 255 1 1 1 1
-0.6321342 0.887683 4.7981973 -0.3409987 0.87615985 0.34068173 253 100 217 255 1 1 1 1
-0.09120469 0.887683 3.0757718 -3.8750622e-10 1 1.03384984e-07 253 100 217 255 1 1 1 1
-0.34992182 0.887683 3.0726032 7.0143926e-08 1 1.6070952e-07 253 100 217 255 1 1 1 1
0.02842921 0.88768303 2.8333507 2.721044e-10 1 8.3103544e-07 253 100 217 255 1 1 1 1
-0.3694169 0.88768303 2.854626 -3.353128e-09 1 5.290415e-07 253 100 217 255 1 1 1 1
-0.6321342 0.88768303 2.8333507 -0.39147452 0.9201402 -0.009471515 253 100 217 255 1 1 1 1
-0.88767445 0.63214266 4.7981973 -0.87747085 0.34155825 0.33672383 253 100 217 255 1 1 1 1
-0.8838264 0.57471037 3.283742 -0.94228816 0.33449674 -0.014317617 253 100 217 255 1 1 1 1
-0.8838264 0.15694413 3.6670437 -0.99999845 -0.0012309186 -0.0013470424 253 100 217 255 1 1 1 1
-0.8838264 0.24770924 3.0842397 -1 -1.4280981e-07 0 253 100 217 255 1 1 1 1
-0.8838264 -0.19026309 3.9822738 -0.99999624 0.0013970333 -0.0023708683 253 100 217 255 1 1 1 1
-0.8838264 -0.122914426 2.9784431 -1 0 0 253 100 217 255 1 1 1 1
-0.8838264 -0.5958525 2.8998513 -0.99999815 0.0017935748 -0.0006719434 253 100 217 255 1 1 1 1
-0.8838264 -0.41043 3.0026252 -1 3.748213e-07 0 253 100 217 255 1 1 1 1
-0.6359822 0.63214266 5.053737 -0.34524432 0.34207743 0.8739504 253 100 217 255 1 1 1 1
0.6282861 0.63214266 5.053737 0.34158885 0.34157863 0.87558043 253 100 217 255 1 1 1 1
0 -0.7964641 2.9480639 1.5758184e-06 -0.6121667 -0.7907288 254 243 168 255 0.99999374 0.89677894 0.39157268 1
-0.057355057 -0.86582285 3.146833 -0.27638805 -0.9464044 0.16711828 254 243 168 255 0.99999374 0.89677894 0.39157268 1
0.15016052 -0.8125064 3.1055565 0.7236064 -0.68948036 -0.03178946 254 243 168 255 0.99999374 0.89677894 0.39157268 1
0.15016052 -0.63997453 2.9719856 0.7946537 -0.01850008 -0.60678107 254 243 168 255 0.99999374 0.89677894 0.39157268 1
-0.1856099 -0.72624046 3.038771 -0.89442843 -0.27376768 -0.353623 254 243 168 255 0.99999374 0.89677894 0.39157268 1
-0.057355057 -0.5866581 2.9307091 -0.42591375 0.04167976 -0.90380335 254 243 168 255 0.99999374 0.89677894 0.39157268 1
-0.15016052 -0.5263497 3.1187534 -0.79465353 0.5828003 0.1699106 254 243 168 255 0.99999374 0.89677894 0.39157268 1
-0.15016052 -0.69888157 3.2523243 -0.72360754 -0.14194116 0.6754591 254 243 168 255 0.99999374 0.89677894 0.39157268 1
0 -0.542392 3.276246 -1.353772e-06 0.61216664 0.7907288 254 243 168 255 0.99999374 0.89677894 0.39157268 1
0.057355057 -0.47303325 3.077477 0.42591533 0.8854261 0.18605584 254 243 168 255 0.99999374 0.89677894 0.39157268 1
0.1856099 -0.61261564 3.185539 0.8944285 0.27376723 0.35362294 254 243 168 255 0.99999374 0.89677894 0.39157268 1
0.057355057 -0.752198 3.2936008 0.2763872 -0.3988683 0.8743651 254 243 168 255 0.99999374 0.89677894 0.39157268 1
-0.5798867 -0.5985177 3.1182845 -0.26820424 -0.8684721 0.41692078 43 43 43 255 1 1 1 1
-0.7962144 -0.4116476 3.1211972 -0.8236037 -0.30929625 0.47540826 43 43 43 255 1 1 1 1
-0.61838067 -0.44899896 3.4049783 -0.5702629 -0.6155304 0.54398775 43 43 43 255 1 1 1 1
0.5557716 -0.5985177 3.1182845 0.23765206 -0.8824729 0.40591025 43 43 43 255 1 1 1 1
0.6213056 -0.44899896 3.4049783 0.5749082 -0.6225143 0.5309957 43 43 43 255 1 1 1 1
0.79853404 -0.4116476 3.1211972 0.8200757 -0.3278937 0.46900064 43 43 43 255 1 1 1 1
0.79853404 0.41387847 3.1211972 0.81912905 0.33367556 0.46657082 43 43 43 255 1 1 1 1
0.6213056 0.45214632 3.4049783 0.567834 0.6443432 0.51223665 43 43 43 255 1 1 1 1
0.56898904 0.58073795 3.1211972 0.24220985 0.89973795 0.36305124 43 43 43 255 1 1 1 1
-0.5666695 0.58073795 3.1211972 -0.242467 0.8995189 0.3634222 43 43 43 255 1 1 1 1
-0.61838067 0.45214632 3.4049783 -0.5669914 0.6443832 0.513119 43 43 43 255 1 1 1 1
-0.7962144 0.41387847 3.1211972 -0.8184799 0.3333254 0.46795842 43 43 43 255 1 1 1 1
-0.84382683 -0.437528 0.67634445 -0.8817735 -0.45873317 0.109725334 252 0 172 255 1 1 1 1
-0.6005083 -0.61439973 0.67634445 -0.32214504 -0.9421728 0.09237472 252 0 172 255 1 1 1 1
-0.84382683 0.4375328 0.67634434 -0.87596744 0.4653256 0.12709485 252 0 172 255 1 1 1 1
0.84661263 0.4375328 0.67634434 0.87597036 0.46531954 0.12709756 252 0 172 255 1 1 1 1
0.603294 0.6144045 0.67634434 0.30801386 0.9401104 0.14601395 252 0 172 255 1 1 1 1
0.84661263 -0.437528 0.67634445 0.8817704 -0.45873904 0.109724864 252 0 172 255 1 1 1 1
0.603294 -0.61439973 0.67634445 0.32214084 -0.94217396 0.09237679 252 0 172 255 1 1 1 1
0.64190125 0.18815072 1.8600837 0.861133 0.508368 -0.003452618 252 0 172 255 1 1 1 1
0.64190125 -0.24032676 1.8600837 0.93778056 -0.34585842 0.030814815 252 0 172 255 1 1 1 1
0.84661263 -0.43752784 3.0132265 0.9045951 -0.31810847 0.28375116 252 0 172 255 1 1 1 1
0.4575136 -0.42571032 2.1198475 0.39824092 -0.8750673 -0.27506644 252 0 172 255 1 1 1 1
0.58928365 -0.9306373 2.6440737 0.49569917 -0.86233145 -0.103280485 252 0 172 255 1 1 1 1
-0.45473105 -0.42571032 2.1198475 -0.39752233 -0.8741111 -0.27911592 252 0 172 255 1 1 1 1
-0.63911855 -0.24032676 1.8600837 -0.9377807 -0.34585842 0.030814404 252 0 172 255 1 1 1 1
-0.84382683 -0.43752784 3.0132265 -0.90777594 -0.305273 0.28766513 252 0 172 255 1 1 1 1
-0.61451864 -0.9306373 2.6440737 -0.51902187 -0.84810185 -0.106488094 252 0 172 255 1 1 1 1
-0.6005083 -0.43752784 3.256546 -0.3346283 -0.3834482 0.86080855 252 0 172 255 1 1 1 1
-0.6005083 0.437533 3.256546 -0.33272603 0.40414923 0.8520311 252 0 172 255 1 1 1 1
0.603294 -0.43752784 3.256546 0.33638877 -0.38601238 0.85897446 252 0 172 255 1 1 1 1
0.603294 0.437533 3.256546 0.33273923 0.40414083 0.8520299 252 0 172 255 1 1 1 1
0.84661263 0.437533 3.0132265 0.8751197 0.4367613 0.20833947 252 0 172 255 1 1 1 1
0.603294 0.6144047 3.0132265 0.2956126 0.945269 0.13812986 252 0 172 255 1 1 1 1
0.4575136 0.27475673 1.8600837 0.22460313 0.9744434 -0.003702088 252 0 172 255 1 1 1 1
-0.6005083 0.6144047 3.0132265 -0.29561442 0.9452694 0.13812271 252 0 172 255 1 1 1 1
-0.45473105 0.27475673 1.8600837 -0.22461157 0.97444135 -0.0037021232 252 0 172 255 1 1 1 1
-0.6005083 0.6144045 0.67634434 -0.30800942 0.94011146 0.1460163 252 0 172 255 1 1 1 1
-0.63911855 0.18815072 1.8600837 -0.8611334 0.5083674 -0.0034526014 252 0 172 255 1 1 1 1
-0.84382683 0.437533 3.0132265 -0.87512004 0.43675512 0.20835054 252 0 172 255 1 1 1 1
-0.84382683 -0.437528 -0.11059153 -0.891068 -0.4538701 0 252 0 172 255 1 1 1 1
-0.6005083 -0.61439973 -0.11059153 -0.30912468 -0.95102155 0 252 0 172 255 1 1 1 1
-0.84382683 0.4375328 -0.11059165 -0.8910677 0.45387045 0 252 0 172 255 1 1 1 1
0.84661263 0.4375328 -0.11059165 0.8910617 0.4538823 0 252 0 172 255 1 1 1 1
0.603294 0.6144045 -0.11059165 0.30912453 0.95102155 0 252 0 172 255 1 1 1 1
0.84661263 -0.437528 -0.11059153 0.8910738 -0.4538584 0 252 0 172 255 1 1 1 1
0.603294 -0.61439973 -0.11059153 0.309131 -0.95101947 0 252 0 172 255 1 1 1 1
-0.6005083 0.6144045 -0.11059165 -0.30913097 0.95101947 0 252 0 172 255 1 1 1 1
-0.050171852 0.54251486 0.17477298 0 0.85221994 -0.52318364 254 2 174 255 0 0 0 0
-0.050171852 0.829515 0.6422707 -6.503542e-08 0.85907227 -0.51185447 254 2 174 255 0 0 0 0
0.329999 0.35284725 0.8214785 0.86212754 0.24589215 0.44302726 254 2 174 255 0 0 0 0
0.16231905 0.6315819 0.95256025 0.80165386 0.0060162507 0.59775823 254 2 174 255 0 0 0 0
-0.4303427 0.35284725 0.8214785 -0.86212105 0.24587967 0.4430469 254 2 174 255 0 0 0 0
-0.26266277 0.6315819 0.95256025 -0.801654 0.006021928 0.597758 254 2 174 255 0 0 0 0
0.10752003 0.8561642 1.1302366 0.88149244 -0.2165066 0.4196382 254 2 174 255 0 0 0 0
-0.050171718 1.0340892 0.92301047 1.13552936e-07 0.85177255 -0.52391195 254 2 174 255 0 0 0 0
-0.20786345 0.8561642 1.1302366 -0.8814962 -0.21649842 0.41963434 254 2 174 255 0 0 0 0
0.069028914 1.0209296 1.3515203 0.88528425 -0.33488214 0.32268518 254 2 174 255 0 0 0 0
-0.05017175 1.194344 1.2394769 0 0.9433962 -0.33166823 254 2 174 255 0 0 0 0
-0.16937241 1.0209296 1.3515203 -0.8852826 -0.3348812 0.3226911 254 2 174 255 0 0 0 0
0.069028914 1.1231555 1.5826415 0.94302577 -0.29627314 0.15140887 254 2 174 255 0 0 0 0
-0.05017175 1.2617772 1.5568532 5.172578e-07 0.99096125 -0.13414906 254 2 174 255 0 0 0 0
-0.16937241 1.1231555 1.5826415 -0.94300914 -0.29632083 0.15141974 254 2 174 255 0 0 0 0
0.036670223 1.1398222 1.7771161 0.9438452 -0.3295116 0.024048438 254 2 174 255 0 0 0 0
-0.05017224 1.2600509 1.7782409 -5.6470395e-07 0.97808355 0.20821325 254 2 174 255 0 0 0 0
-0.13701472 1.1398222 1.7771161 -0.94386065 -0.32946673 0.024056237 254 2 174 255 0 0 0 0
0.036670223 1.0731634 1.9232271 0.92121965 -0.33623138 -0.19571157 254 2 174 255 0 0 0 0
-0.05017224 1.151173 2.0006497 3.886271e-08 0.8703241 0.49247965 254 2 174 255 0 0 0 0
-0.13701472 1.0731634 1.9232271 -0.9212089 -0.33625442 -0.19572197 254 2 174 255 0 0 0 0
0.036670223 0.9206405 2.1547775 0.87317085 -0.41787738 -0.25090063 254 2 174 255 0 0 0 0
-0.05017224 1.0287826 2.2016306 0 0.89577717 0.44450346 254 2 174 255 0 0 0 0
-0.13701472 0.9206405 2.1547775 -0.87317234 -0.41787484 -0.25090012 254 2 174 255 0 0 0 0
0.036670223 0.8109692 2.3995671 0.8241618 -0.5537487 -0.11882693 254 2 174 255 0 0 0 0
-0.05017224 0.9509473 2.4026375 3.200052e-08 0.9749292 0.22251533 254 2 174 255 0 0 0 0
-0.13701472 0.8109692 2.3995671 -0.82416433 -0.55374426 -0.11882953 254 2 174 255 0 0 0 0
0.036670223 0.8167788 2.6522331 0.814315 -0.5627561 0.14211553 254 2 174 255 0 0 0 0
-0.05017224 0.95164204 2.5856247 -1.0006459e-07 0.9794103 -0.20187987 254 2 174 255 0 0 0 0
-0.13701472 0.8167788 2.6522331 -0.814321 -0.56274986 0.14210565 254 2 174 255 0 0 0 0
0.036670223 0.9187214 2.841704 0.8094496 -0.43718553 0.39199543 254 2 174 255 0 0 0 0
-0.05017224 1.02454 2.734806 -8.424411e-08 0.75250846 -0.65858257 254 2 174 255 0 0 0 0
-0.13701472 0.9187214 2.841704 -0.80944854 -0.43719378 0.39198825 254 2 174 255 0 0 0 0
0.036670223 1.1032943 2.9660501 0.80297756 -0.17985171 0.5682257 254 2 174 255 0 0 0 0
-0.05017224 1.1684175 2.8304636 0 0.27205306 -0.96228224 254 2 174 255 0 0 0 0
-0.13701472 1.1032943 2.9660501 -0.8029762 -0.1798625 0.5682242 254 2 174 255 0 0 0 0
0.036670223 1.3341758 2.9760385 0.7960782 0.16315919 0.5827852 254 2 174 255 0 0 0 0
-0.05017224 1.3084562 2.827839 9.8763e-08 -0.32958248 -0.9441268 254 2 174 255 0 0 0 0
-0.13701472 1.3341758 2.9760385 -0.7960689 0.16315748 0.5827985 254 2 174 255 0 0 0 0
0.036670223 1.574192 2.8169808 0.7950061 0.5829132 0.16786152 254 2 174 255 0 0 0 0
-0.05017224 1.4630582 2.7156205 -1.2485471e-07 -0.4161742 -0.9092849 254 2 174 255 0 0 0 0
-0.13701472 1.574192 2.8169808 -0.7950071 0.5829125 0.16785999 254 2 174 255 0 0 0 0
-0.050172243 1.5927569 2.6989827 1.3613096e-07 0.5913636 -0.806405 254 2 174 255 0 0 0 0
-0.23098859 -0.84709215 3.970843 0.2801193 0.944572 0.1712227 253 0 19 255 1 1 1 1
-0.13156885 -0.8751083 3.9627473 0.30600116 0.9356658 0.17576411 253 0 19 255 1 1 1 1
-0.08046833 -0.8473426 3.7259731 0.2507218 0.88621557 0.38956454 253 0 19 255 1 1 1 1
-0.025569461 -0.8473426 3.7266798 -0.25933447 0.8856398 0.38521132 253 0 19 255 1 1 1 1
-0.053615138 -0.87510836 3.7668822 0.0016651498 0.9477885 0.31889534 253 0 19 255 1 1 1 1
0.02469515 -0.8751083 3.9691691 -0.3093565 0.93540287 0.17123105 253 0 19 255 1 1 1 1
0.12324207 -0.84734255 3.9803412 -0.28488687 0.94387895 0.16712944 253 0 19 255 1 1 1 1
0.41008008 -0.84709215 4.373844 -0.56462413 0.76140827 -0.31852314 0 0 0 255 1 1 1 1
0.36773267 -0.8751083 4.38194 -0.5705267 0.7562503 -0.32028878 0 0 0 255 1 1 1 1
0.27381337 -0.8473426 4.6147966 -0.30094737 0.80296504 -0.5144685 0 0 0 255 1 1 1 1
0.24063402 -0.8473426 4.618007 0.2830396 0.8579799 -0.4286716 0 0 0 255 1 1 1 1
0.26391345 -0.87510836 4.577805 -0.021974752 0.9268088 -0.3748903 0 0 0 255 1 1 1 1
0.16999413 -0.84734255 4.364346 0.5843272 0.7968797 -0.1534423 0 0 0 255 1 1 1 1
0.21146868 -0.8751083 4.375518 0.5775713 0.80248964 -0.14973985 0 0 0 255 1 1 1 1
-0.5121494 -0.84709215 4.373844 -0.56462413 -0.76140827 0.31852314 0 0 0 255 1 1 1 1
-0.469802 -0.8751083 4.38194 -0.57052666 -0.7562504 0.32028875 0 0 0 255 1 1 1 1
-0.3758827 -0.8473426 4.6147966 -0.30094713 -0.8029651 0.5144687 0 0 0 255 1 1 1 1
-0.34270334 -0.8473426 4.618007 0.28303945 -0.8579799 0.42867163 0 0 0 255 1 1 1 1
-0.36598277 -0.87510836 4.577805 -0.021974484 -0.926809 0.3748897 0 0 0 255 1 1 1 1
-0.27206343 -0.84734255 4.364346 0.5843271 -0.7968796 0.15344344 0 0 0 255 1 1 1 1
-0.313538 -0.8751083 4.375518 0.57757115 -0.80248934 0.14974134 0 0 0 255 1 1 1 1
-0.7989459 -0.08557002 4.826584 -1.6010713e-08 -1 6.768517e-08 253 100 217 255 1 1 1 1
-0.7989459 -0.08556996 5.732804 -1.6010713e-08 -1 6.768517e-08 253 100 217 255 1 1 1 1
-0.070136055 -0.08557002 5.003994 -1.6010713e-08 -1 6.768517e-08 253 100 217 255 1 1 1 1
0.8040919 -0.084018126 4.8366046 1.2711055e-07 -1 -6.768516e-08 253 100 217 255 1 1 1 1
0.8040919 -0.084018186 5.7428246 1.2711055e-07 -1 -6.768516e-08 253 100 217 255 1 1 1 1
0.07528198 -0.08401823 5.0140147 1.2711055e-07 -1 -6.768516e-08 253 100 217 255 1 1 1 1
-0.6057445 -0.6018963 3.365853 -0.34157383 -0.34158403 -0.87558424 253 183 178 255 1 1 1 1
-0.84906304 0.60190606 3.6091716 -0.87558424 0.34158397 -0.34157372 253 183 178 255 1 1 1 1
-0.84906304 -0.6018962 3.6091716 -0.8755803 -0.34157884 -0.34158918 253 183 178 255 1 1 1 1
-0.6057445 -0.84521484 3.6091716 -0.34158418 -0.8755843 -0.34157366 253 183 178 255 1 1 1 1
0.5980578 -0.6018963 3.365853 0.3415892 -0.34157893 -0.8755802 253 183 178 255 1 1 1 1
0.5980578 0.601906 3.365853 0.34157395 0.34158403 -0.8755841 253 183 178 255 1 1 1 1
-0.6057445 0.601906 3.365853 -0.34158924 0.341579 -0.8755802 253 183 178 255 1 1 1 1
0.5980578 0.8452246 3.6091716 0.3415839 0.8755843 -0.3415738 253 183 178 255 1 1 1 1
-0.6057445 0.8452246 3.6091716 -0.34157896 0.8755801 -0.34158933 253 183 178 255 1 1 1 1
-0.84906304 0.6019061 4.812974 -0.92388326 0.3826746 -3.203525e-08 253 183 178 255 1 1 1 1
-0.6057445 0.8452247 4.812974 -0.3826724 0.9238841 -8.3456804e-08 253 183 178 255 1 1 1 1
0.5980578 0.8452247 4.812974 0.38267443 0.9238834 -1.2107719e-07 253 183 178 255 1 1 1 1
0.8413764 0.60190606 3.6091716 0.8755803 0.34157896 -0.34158888 253 183 178 255 1 1 1 1
0.8413764 0.6019061 4.812974 0.923884 0.38267276 -3.8935642e-08 253 183 178 255 1 1 1 1
0.8413764 -0.6018962 3.6091716 0.8755844 -0.34158394 -0.34157366 253 183 178 255 1 1 1 1
0.8413764 -0.60189617 4.812974 0.9238833 -0.38267457 3.89358e-08 253 183 178 255 1 1 1 1
0.5980578 -0.84521484 3.6091716 0.34157914 -0.87558013 -0.34158933 253 183 178 255 1 1 1 1
0.5980578 -0.8452148 4.812974 0.38267255 -0.92388415 8.34568e-08 253 183 178 255 1 1 1 1
-0.6057445 -0.8452148 4.812974 -0.38267455 -0.92388326 1.2797776e-07 253 183 178 255 1 1 1 1
-0.84906304 -0.60189617 4.812974 -0.9238841 -0.38267252 3.8935617e-08 253 183 178 255 1 1 1 1
3 0 2 1
3 2 0 3
3 2 3 4
3 4 3 5
3 4 5 6
3 6 5 8
3 7 8 5
3 8 9 6
3 9 8 10
3 7 11 8
3 9 12 6
3 9 13 12
3 6 12 14
3 6 14 15
3 15 14 16
3 19 15 16
3 17 16 18
3 16 17 20
3 19 16 20
3 20 21 19
3 21 20 23
3 17 22 20
3 21 24 19
3 25 24 26
3 25 19 24
3 25 26 27
3 27 26 28
3 25 27 29
3 27 30 29
3 29 1 25
3 29 31 1
3 29 32 31
3 33 25 1
3 33 19 25
3 33 1 2
3 34 19 33
3 33 4 34
3 33 2 4
3 34 15 19
3 4 6 34
3 34 6 15
3 35 36 39
3 35 37 36
3 37 35 38
3 35 40 38
3 35 39 40
3 40 39 41
3 39 42 41
3 41 42 43
3 44 41 43
3 38 44 45
3 45 44 43
3 37 45 46
3 37 38 45
3 46 45 43
3 36 46 42
3 36 37 46
3 42 46 43
3 39 36 42
3 47 49 48
3 49 47 50
3 49 50 51
3 51 50 52
3 51 52 53
3 51 53 54
3 54 53 55
3 54 55 56
3 54 56 57
3 57 56 58
3 57 58 48
3 57 48 49
3 65 64 67
3 66 64 62
3 66 67 64
3 66 68 67
3 69 67 68
3 65 67 69
3 70 71 69
3 69 68 70
3 69 71 60
3 69 60 65
3 70 74 71
3 71 73 72
3 60 71 72
3 71 74 73
3 74 75 73
3 75 74 70
3 76 73 75
3 76 75 77
3 75 70 77
3 76 77 78
3 77 79 78
3 77 70 68
3 77 68 79
3 78 79 80
3 79 81 80
3 79 66 81
3 66 79 68
3 82 81 83
3 82 80 81
3 84 83 81
3 62 81 66
3 62 63 81
3 84 81 63
3 83 84 61
3 83 86 82
3 83 61 85
3 83 85 86
3 76 82 86
3 76 86 73
3 73 86 85
3 73 85 72
3 59 72 85
3 59 85 61
3 78 82 76
3 78 80 82
3 60 72 59
3 59 88 60
3 62 91 63
3 62 92 90
3 65 92 64
3 84 89 61
3 61 87 59
3 60 93 65
3 63 94 84
3 96 97 95
3 98 99 97
3 100 102 96
3 99 96 95
3 103 105 102
3 98 103 100
3 98 102 101
3 106 108 105
3 101 106 103
3 101 105 104
3 108 112 111
3 104 109 106
3 104 108 107
3 112 114 111
3 109 110 112
3 108 110 107
3 114 118 117
3 110 115 112
3 110 114 113
3 118 120 117
3 113 118 115
3 114 116 113
3 121 123 120
3 116 121 118
3 116 120 119
3 124 126 123
3 119 124 121
3 119 123 122
3 126 130 129
3 122 127 124
3 122 126 125
3 129 133 132
3 125 130 127
3 126 128 125
3 132 136 135
3 128 133 130
3 129 131 128
3 135 136 137
3 131 136 133
3 132 134 131
3 136 134 137
3 134 135 137
3 139 140 138
3 140 139 142
3 140 142 141
3 141 142 143
3 141 143 144
3 146 147 145
3 147 146 149
3 147 149 148
3 149 150 148
3 149 151 150
3 153 154 152
3 154 153 156
3 154 156 155
3 156 157 155
3 156 158 157
3 160 159 161
3 163 164 162
3 165 167 166
3 165 166 171
3 165 168 167
3 169 168 165
3 170 169 165
3 170 165 171
3 171 172 170
3 171 166 173
3 171 173 172
3 173 166 174
3 173 174 175
3 175 172 173
3 175 176 172
3 177 172 176
3 177 176 178
3 178 180 179
3 178 179 177
3 181 179 180
3 181 180 182
3 182 168 181
3 182 183 168
3 183 167 168
3 183 184 167
3 184 166 167
3 184 174 166
3 169 179 181
3 169 181 168
3 170 177 179
3 170 179 169
3 170 172 177
3 59 87 88
3 62 90 91
3 62 64 92
3 65 93 92
3 84 94 89
3 61 89 87
3 60 88 93
3 63 91 94
3 96 98 97
3 98 100 99
3 100 103 102
3 99 100 96
3 103 106 105
3 98 101 103
3 98 96 102
3 106 109 108
3 101 104 106
3 101 102 105
3 108 109 112
3 104 107 109
3 104 105 108
3 112 115 114
3 109 107 110
3 108 111 110
3 114 115 118
3 110 113 115
3 110 111 114
3 118 121 120
3 113 116 118
3 114 117 116
3 121 124 123
3 116 119 121
3 116 117 120
3 124 127 126
3 119 122 124
3 119 120 123
3 126 127 130
3 122 125 127
3 122 123 126
3 129 130 133
3 125 128 130
3 126 129 128
3 132 133 136
3 128 131 133
3 129 132 131
3 131 134 136
3 132 135 134
