ply
format ascii 1.0
comment Created in Blender version 4.2.8 LTS
element vertex 30
property float x
property float y
property float z
property float nx
property float ny
property float nz
property uchar red
property uchar green
property uchar blue
property uchar alpha
element face 43
property list uchar uint vertex_indices
end_header
7.7200205e-08 0.18211004 -0.27928427 -1.3022468e-06 0.45415124 0.89092463 0 243 254 255
0.17319694 0.05627514 -0.27928433 0.43192354 0.14034197 0.89092433 0 243 254 255
1.6657414e-07 0.03159752 -0.20256008 1.8557513e-06 0.77278155 0.6346721 0 243 254 255
-0.17319681 0.05627514 -0.27928427 -0.43192345 0.14034039 0.89092463 0 243 254 255
-0.107041456 -0.14732999 -0.27928427 -0.2669447 -0.3674153 0.8909245 0 243 254 255
-0.03005081 0.0097642075 -0.20256008 -0.73495835 0.2388047 0.634672 0 243 254 255
-0.018572355 -0.025562832 -0.20256008 -0.45423144 -0.6251919 0.6346723 0 243 254 255
-0.030050801 0.0097642075 0.1915046 -0.7704817 0.25034246 -0.58624774 0 243 254 255
-0.018572344 -0.025562832 0.1915046 -0.47618276 -0.65540916 -0.58624977 0 243 254 255
1.778558e-07 0.03159752 0.1915046 -4.5438815e-06 0.81013054 -0.58624953 0 243 254 255
-0.30058298 0.09766528 0.36735997 -0.50010896 0.16249515 -0.85058 0 243 254 255
-0.18577069 -0.2556907 0.36736 -0.3090856 -0.42541754 -0.85057974 0 243 254 255
-4.794827e-07 0.3160513 0.36735994 -1.4285388e-06 0.52584636 -0.8505796 0 243 254 255
0.300582 0.09766528 0.36735997 0.50011015 0.16249688 -0.850579 0 243 254 255
0.18576977 -0.2556907 0.36735994 0.30908498 -0.42541918 -0.8505792 0 243 254 255
0.03005115 0.0097642075 0.1915046 0.77047884 0.2503491 -0.58624893 0 243 254 255
0.018572701 -0.025562832 0.1915046 0.47618398 -0.65540683 -0.5862514 0 243 254 255
0.03005114 0.0097642075 -0.20256008 0.7349595 0.23880151 0.63467187 0 243 254 255
0.01857269 -0.025562832 -0.20256008 0.45422772 -0.6251944 0.6346724 0 243 254 255
0.10704161 -0.14732999 -0.27928427 0.26694363 -0.36741632 0.89092445 0 243 254 255
-0.026809696 0.008711098 0.19758758 -0.49608225 0.1611869 -0.853183 254 140 244 255
-0.01656924 -0.022805769 0.19758758 -0.30659792 -0.4219918 -0.8531826 254 140 244 255
1.5415209e-07 0.028189592 0.19758758 -2.3455254e-06 0.52161306 -0.8531822 254 140 244 255
-0.19706725 0.06403098 0.30703497 -0.93027353 0.30226374 0.20791277 254 140 244 255
-0.12179443 -0.16763498 0.30703497 -0.57494456 -0.79133683 0.20790575 254 140 244 255
-4.3438695e-07 0.20720847 0.30703494 -3.9315364e-06 0.9781395 0.20794965 254 140 244 255
0.19706635 0.06403098 0.30703494 0.9302586 0.3022595 0.20798595 254 140 244 255
0.12179358 -0.16763498 0.30703494 0.5749332 -0.7913336 0.20794956 254 140 244 255
0.026810002 0.008711098 0.19758758 0.4960849 0.16118695 -0.8531814 254 140 244 255
0.01656955 -0.022805769 0.19758758 0.3065947 -0.42199603 -0.8531817 254 140 244 255
3 2 1 0
3 5 0 3
3 4 5 3
3 6 7 5
3 5 9 2
3 7 11 10
3 7 12 9
3 9 13 15
3 15 14 16
3 2 15 17
3 17 16 18
3 17 19 1
3 19 6 4
3 18 8 6
3 8 14 11
3 20 24 23
3 20 25 22
3 22 26 28
3 29 26 27
3 21 27 24
3 27 26 24
3 24 26 23
3 25 23 26
3 2 17 1
3 5 2 0
3 4 6 5
3 6 8 7
3 5 7 9
3 7 8 11
3 7 10 12
3 9 12 13
3 15 13 14
3 2 9 15
3 17 15 16
3 17 18 19
3 19 18 6
3 18 16 8
3 8 16 14
3 20 21 24
3 20 23 25
3 22 25 26
3 29 28 26
3 21 29 27
