ply
format ascii 1.0
comment Created in Blender version 4.3.2
element vertex 86
property float x
property float y
property float z
property float nx
property float ny
property float nz
property uchar red
property uchar green
property uchar blue
property uchar alpha
element face 84
property list uchar uint vertex_indices
end_header
0.7327348 -0.31422183 0.109627284 0.3941234 0.9190575 -2.9755489e-08 254 0 13 255
0.82753146 -0.35487387 0.12980738 0.3941234 0.9190575 -2.9755489e-08 254 0 13 255
0.9099592 -0.39022171 0.19931662 0.3941234 0.9190575 -2.9755489e-08 254 0 13 255
0.9573558 -0.41054702 0.30245933 0.3941234 0.9190575 -2.9755489e-08 254 0 13 255
0.9594174 -0.41143107 0.4078442 0.3941234 0.9190575 -2.9755489e-08 254 0 13 255
0.9202633 -0.39464045 0.50426036 0.3941234 0.9190575 -2.9755489e-08 254 0 13 255
0.8254735 -0.35399133 0.5849807 0.3941234 0.9190575 -2.9755489e-08 254 0 13 255
0.73891926 -0.3168739 0.60964537 0.3941234 0.9190575 -2.9755489e-08 254 0 13 255
0.63794166 -0.27357125 0.5872229 0.3941234 0.9190575 -2.9755489e-08 254 0 13 255
0.5513944 -0.2364568 0.5087447 0.3941234 0.9190575 -2.9755489e-08 254 0 13 255
0.50399774 -0.2161315 0.39663315 0.3941234 0.9190575 -2.9755489e-08 254 0 13 255
0.5039977 -0.2161315 0.29797488 0.3941234 0.9190575 -2.9755489e-08 254 0 13 255
0.5431484 -0.23292066 0.20828551 0.3941234 0.9190575 -2.9755489e-08 254 0 13 255
0.6461875 -0.27710736 0.13429184 0.3941234 0.9190575 -2.9755489e-08 254 0 13 255
-1.6658341 0.7143668 0.67970437 0.3941234 0.9190575 -3.3688462e-08 0 0 0 255
-1.5417839 0.6611698 0.64113957 0.3941234 0.9190575 -3.6963332e-08 0 0 0 255
-1.3695168 0.58729583 0.36154497 0.3941234 0.9190575 -3.8217635e-08 0 0 0 255
-1.2050716 0.516776 0.15907972 0.3941234 0.9190575 -4.8306646e-08 0 0 0 255
-0.9658342 0.41418284 0.13979709 0.3941234 0.9190575 -3.2507533e-08 0 0 0 255
-0.75317174 0.3229859 0.25549194 0.3941234 0.9190575 -2.9755489e-08 0 0 0 255
-0.5848137 0.25078818 0.3422623 0.3941234 0.9190575 -3.2708297e-08 0 0 0 255
-0.5222408 0.2239548 0.4756823 0.3941234 0.9190575 -3.203919e-08 0 0 0 255
-0.5619788 0.24099581 0.6461739 0.39412346 0.9190575 -3.002571e-08 0 0 0 255
-0.52279377 0.22419192 0.7375515 0.3941234 0.9190575 -3.0170952e-08 0 0 0 255
-0.3810179 0.16339357 0.7953986 0.3941234 0.9190575 -3.1142353e-08 0 0 0 255
-0.28927475 0.12405096 0.814681 0.3941234 0.9190575 -3.2267277e-08 0 0 0 255
-0.20864329 0.08947343 1.0345727 0.3941234 0.9190575 -3.5538125e-08 0 0 0 255
-0.059170473 0.025374366 1.1521231 0.3941234 0.9190575 -3.1148424e-08 0 0 0 255
0.035440516 -0.0151980715 1.1521231 0.3941234 0.9190575 -2.9755489e-08 0 0 0 255
0.08860787 -0.03799806 0.99786377 0.3941234 0.9190575 -3.044793e-08 0 0 0 255
0.17721313 -0.07599504 0.7953988 0.3941234 0.9190575 -3.0659642e-08 0 0 0 255
0.2924038 -0.12539275 0.7471928 0.3941234 0.9190575 -3.121254e-08 0 0 0 255
0.54050416 -0.2317867 0.7471929 0.3941234 0.9190575 -2.9755489e-08 0 0 0 255
0.7088652 -0.30398571 0.74719274 0.3941234 0.9190575 -2.99687e-08 0 0 0 255
0.8949354 -0.383779 0.7568338 0.3941234 0.9190575 -3.012096e-08 0 0 0 255
1.0898751 -0.46737584 0.65078056 0.3941234 0.9190575 -2.9755489e-08 0 0 0 255
1.2848116 -0.5509713 0.49652153 0.3941234 0.9190575 -3.2122102e-08 0 0 0 255
1.4708885 -0.63076746 0.3326208 0.3941234 0.9190575 -3.2474897e-08 0 0 0 255
1.4313577 -0.6138153 0.1512939 0.3941234 0.9190575 -2.8024306e-08 0 0 0 255
1.350755 -0.5792501 0.08584269 0.3941234 0.9190575 -7.130945e-09 0 0 0 255
1.0295559 -0.44150892 0.011866604 0.3941234 0.9190575 8.772593e-09 0 0 0 255
0.91572493 -0.39269426 0.0014858977 0.3941234 0.9190575 -3.3073313e-08 0 0 0 255
0.8209851 -0.35206655 -0.056361537 0.3941234 0.9190575 -3.375878e-08 0 0 0 255
0.6911396 -0.29638436 -0.053026818 0.3941234 0.9190575 -3.047065e-08 0 0 0 255
0.55823004 -0.2393882 -0.110873796 0.39412338 0.9190575 -3.279398e-08 0 0 0 255
0.55420494 -0.2376621 -0.21818542 0.3941234 0.9190575 -2.889749e-08 0 0 0 255
0.75943834 -0.32567322 -0.19549046 0.3941234 0.9190575 4.805886e-08 0 0 0 255
0.92152417 -0.39518118 -0.21255443 0.3941234 0.9190575 -1.17209325e-07 0 0 0 255
1.1341795 -0.48637506 -0.18800335 0.3941234 0.9190575 -1.883193e-08 0 0 0 255
1.2759559 -0.5471737 -0.23620945 0.3941234 0.9190575 -3.010852e-08 0 0 0 255
1.3557014 -0.5813713 -0.31333882 0.3941234 0.9190575 -2.9755489e-08 0 0 0 255
1.2493738 -0.53577435 -0.4772395 0.3941234 0.9190575 -2.934847e-08 0 0 0 255
1.1075976 -0.47497585 -0.6122161 0.3941234 0.9190575 -2.9755489e-08 0 0 0 255
0.8594973 -0.36858195 -0.7182693 0.3941234 0.9190575 -3.074639e-08 0 0 0 255
0.61139005 -0.26218507 -0.8994351 0.3941234 0.9190575 -3.6261287e-08 0 0 0 255
0.5079267 -0.21781641 -0.7674351 0.3941234 0.9190575 -1.2191587e-07 0 0 0 255
0.301263 -0.12919194 -0.77611625 0.3941234 0.9190575 -2.9324053e-08 0 0 0 255
0.10797179 -0.04630203 -0.8324064 0.3941234 0.9190575 -2.67228e-08 0 0 0 255
-0.017723568 0.0076004476 -0.80503994 0.3941234 0.9190575 -3.0010586e-08 0 0 0 255
-0.42791146 0.18350309 -0.96055746 0.3941234 0.9190575 -3.386696e-08 0 0 0 255
-0.37215504 0.15959282 -0.766475 0.3941234 0.9190575 -3.1573897e-08 0 0 0 255
-0.4341818 0.18619204 -0.6604217 0.3941234 0.9190575 1.1738812e-08 0 0 0 255
-0.6782654 0.29086342 -0.5823966 0.3941234 0.9190575 -2.669531e-08 0 0 0 255
-0.8860814 0.37998208 -0.5447277 0.39412352 0.9190574 5.8477355e-07 0 0 0 255
-1.1784896 0.50537676 -0.48688042 0.3941234 0.9190575 -2.407161e-08 0 0 0 255
-1.4354527 0.6155714 -0.6025747 0.3941234 0.9190575 -2.9755489e-08 0 0 0 255
-1.7101419 0.7333675 -0.70862776 0.39412338 0.9190575 -2.2673833e-08 0 0 0 255
-1.7633058 0.75616604 -0.66485894 0.39412332 0.9190575 -1.6065934e-08 0 0 0 255
-1.6126667 0.6915668 -0.1590798 0.3941234 0.9190575 -2.9145259e-08 0 0 0 255
-1.5152019 0.64977056 -0.03374435 0.3941234 0.9190575 -2.1340451e-08 0 0 0 255
-1.5636244 0.6705358 0.25593832 0.3941234 0.9190575 -3.3016573e-08 0 0 0 255
-1.6493481 0.7072971 0.45593983 0.39412346 0.9190575 -1.3697614e-08 0 0 0 255
0.7327303 -0.3142199 0.10962728 0.3941234 0.9190575 -3.2010334e-08 0 0 0 255
0.8275269 -0.35487193 0.12980738 0.3941234 0.9190575 -3.486528e-08 0 0 0 255
0.9099547 -0.3902198 0.1993166 0.3941234 0.9190575 -3.318939e-08 0 0 0 255
0.9573513 -0.41054508 0.3024593 0.3941234 0.9190575 -3.0010412e-08 0 0 0 255
0.95941293 -0.41142917 0.40784413 0.3941234 0.9190575 -2.9318734e-08 0 0 0 255
0.9202588 -0.3946385 0.50426036 0.3941234 0.9190575 -2.3664594e-08 0 0 0 255
0.825469 -0.35398942 0.58498067 0.3941234 0.9190575 -2.973903e-08 0 0 0 255
0.7389148 -0.31687197 0.6096453 0.3941234 0.9190575 -2.9755489e-08 0 0 0 255
0.6379372 -0.27356932 0.5872229 0.3941234 0.9190575 -2.8638462e-08 0 0 0 255
0.5513899 -0.23645487 0.5087447 0.39412332 0.9190575 4.7786607e-08 0 0 0 255
0.5039933 -0.21612957 0.3966331 0.3941234 0.9190575 -2.8891105e-08 0 0 0 255
0.5039932 -0.21612957 0.29797488 0.3941234 0.9190575 -3.0443815e-08 0 0 0 255
0.5431439 -0.23291874 0.2082855 0.3941234 0.9190575 -3.1299916e-08 0 0 0 255
0.646183 -0.27710545 0.13429183 0.3941234 0.9190575 -2.9755489e-08 0 0 0 255
3 3 13 9
3 62 27 29
3 76 77 38
3 7 6 5
3 5 4 3
3 3 2 1
3 1 0 13
3 13 12 11
3 11 10 9
3 9 8 7
3 7 5 3
3 3 1 13
3 13 11 9
3 9 7 3
3 58 59 60
3 58 60 61
3 56 57 58
3 53 54 55
3 56 58 61
3 53 55 56
3 51 52 53
3 49 50 51
3 47 48 49
3 45 46 47
3 72 43 44
3 45 47 49
3 85 72 44
3 45 49 51
3 84 85 44
3 45 51 53
3 84 44 45
3 83 84 45
3 45 53 56
3 56 61 62
3 62 63 64
3 64 65 66
3 66 67 68
3 66 68 69
3 64 66 69
3 70 71 14
3 64 69 70
3 45 56 62
3 62 64 70
3 70 14 15
3 70 15 16
3 83 45 62
3 82 83 62
3 62 70 16
3 62 16 17
3 81 82 62
3 33 79 80
3 80 81 62
3 62 17 18
3 18 19 20
3 21 22 23
3 62 18 20
3 21 23 24
3 62 20 21
3 33 80 62
3 31 32 33
3 31 33 62
3 62 21 24
3 25 26 27
3 62 24 25
3 30 31 62
3 27 28 29
3 29 30 62
3 62 25 27
3 42 43 72
3 42 72 73
3 39 40 41
3 41 42 73
3 41 73 74
3 38 39 41
3 36 37 38
3 34 35 36
3 79 33 34
3 78 79 34
3 34 36 38
3 38 41 74
3 38 74 75
3 78 34 38
3 77 78 38
3 38 75 76
