ply
format ascii 1.0
comment Created in Blender version 4.3.2
element vertex 67
property float x
property float y
property float z
property float nx
property float ny
property float nz
property uchar red
property uchar green
property uchar blue
property uchar alpha
element face 134
property list uchar uint vertex_indices
end_header
0.9428945 1.9440136 1.0029116 0.4358817 0.90000397 -1.4303598e-06 254 143 191 255
0.78025395 1.6081941 1.5164821 0.19325686 0.39903575 0.8963383 254 143 191 255
0.5170961 1.064827 1.3203156 -0.31963822 -0.65998703 0.67988867 254 143 191 255
0.5170961 1.064827 0.68550754 -0.31963813 -0.65999174 -0.6798842 254 143 191 255
0.78025395 1.6081941 0.48934102 0.19326013 0.3990413 -0.8963351 254 143 191 255
-0.9314789 1.9481702 1.0029116 -0.4318839 0.90192926 1.4190613e-06 254 143 191 255
-0.77032936 1.6116326 1.5164821 -0.19149065 0.39990065 0.8963319 254 143 191 255
-0.50958407 1.0671037 1.3203156 0.31671137 -0.66140604 0.6798795 254 143 191 255
-0.50958407 1.0671037 0.68550754 0.31671154 -0.6614059 -0.67987937 254 143 191 255
-0.77032936 1.6116326 0.48934102 -0.19149247 0.39990133 -0.8963313 254 143 191 255
-2.1033812 0.48531798 1.0029116 -0.9744319 0.22468337 -1.460472e-06 254 143 191 255
-1.7397904 0.40148208 1.5164821 -0.4320346 0.0996176 0.89633834 254 143 191 255
-1.1514884 0.2658327 1.3203156 0.71456605 -0.16476314 0.6798886 254 143 191 255
-1.1514884 0.2658327 0.68550754 0.71456605 -0.16476303 -0.67988867 254 143 191 255
-1.7397904 0.40148208 0.48934102 -0.43203357 0.099615954 -0.89633906 254 143 191 255
-1.6903466 -1.3429856 1.0029116 -0.78321236 -0.6217543 7.528163e-08 254 143 191 255
-1.3981057 -1.1109898 1.5164821 -0.34726351 -0.27567568 0.89633197 254 143 191 255
-0.92525053 -0.73561287 1.3203156 0.5743439 0.4559461 0.6798841 254 143 191 255
-0.92525053 -0.73561287 0.68550754 0.5743483 0.45594734 -0.6798794 254 143 191 255
-1.3981057 -1.1109898 0.48934102 -0.34726357 -0.2756757 -0.89633197 254 143 191 255
-0.003398776 -2.1599908 1.0029116 -0.0022144022 -0.9999976 -2.1417861e-06 254 143 191 255
-0.004942119 -1.6877007 2.5274034 0.016315669 -0.95931256 -0.2818745 254 143 191 255
-0.0012320876 -1.183124 1.3203156 0.0016259551 0.73331493 0.67988724 254 143 191 255
-0.0012320876 -1.183124 0.68550754 0.0016281307 0.73331785 -0.679884 254 143 191 255
-0.0025712252 -1.7868608 0.48934102 -0.0009814203 -0.44337758 -0.8963344 254 143 191 255
1.6871574 -1.3504759 1.0029116 0.7804472 -0.62522167 -1.0426561e-06 254 143 191 255
1.3959485 -1.1171862 1.5164821 0.3460377 -0.27721527 0.8963312 254 143 191 255
0.9247629 -0.7397157 1.3203156 -0.57231545 0.45848933 0.6798842 254 143 191 255
0.9247629 -0.7397157 0.68550754 -0.5723136 0.45848513 -0.6798886 254 143 191 255
1.3959485 -1.1171862 0.48934102 0.34602708 -0.27720347 -0.89633894 254 143 191 255
2.1082976 0.4759766 1.0029116 0.9754191 0.22035801 -1.3174339e-07 254 143 191 255
1.7443385 0.39375448 1.5164821 0.43247852 0.0977024 0.89633507 254 143 191 255
1.1554407 0.26071596 1.3203156 -0.7152943 -0.1615909 0.67988414 254 143 191 255
1.1554407 0.26071596 0.68550754 -0.7152935 -0.16159487 -0.679884 254 143 191 255
1.7443385 0.39375448 0.48934102 0.43247864 0.09770128 -0.8963351 254 143 191 255
-0.0031213164 -2.0348678 1.1751294 -0.0008610785 -0.8468468 0.53183615 254 143 191 255
-0.3670194 -1.6103551 1.5164821 -0.63757193 -0.3340261 0.69421077 254 143 191 255
0.32462317 -1.6301855 1.5164821 0.6581306 -0.34650812 0.6684282 254 143 191 255
-0.0016210675 -1.3584764 1.3772912 0.018519938 0.69430774 0.71943986 254 143 191 255
-0.0036982298 -1.7728825 2.039095 0.010195196 -0.96554595 0.26003277 254 143 191 255
-0.0007647872 -2.0241833 2.7312577 0.033915818 0.25560796 -0.96618545 254 143 191 255
-0.36759645 -1.34837 2.3804474 -0.99187976 0.123276845 0.03126649 254 143 191 255
0.32404616 -1.3682003 2.3804474 0.9955494 0.087418534 0.0352091 254 143 191 255
-0.0021980703 -1.0964913 2.2412567 0.04241324 0.9865297 -0.15798883 254 143 191 255
-0.31867495 -1.3217093 2.821699 -0.91509354 0.29481325 -0.27511656 254 143 191 255
0.2776211 -1.338806 2.821699 0.92980087 0.26524013 -0.2551823 254 143 191 255
-0.0036486983 -1.1045537 2.7016964 0.04565972 0.9943598 -0.0957281 254 143 191 255
-0.2157551 -1.8866299 3.3078184 -0.82023096 -0.51839554 0.24184157 254 143 191 255
-0.55028754 -1.3831267 3.2467344 -0.96695036 0.18896073 -0.17117533 254 143 191 255
0.49416214 -1.4130726 3.2467344 0.9736051 0.1593959 -0.16335857 254 143 191 255
0.001500696 -0.9109143 3.448275 0.039381236 0.9917213 0.12222154 254 143 191 255
-0.0001847148 -1.7626238 3.7779586 0.00746742 -0.5584401 0.8295113 254 143 191 255
-0.55053806 -1.4960823 3.6218596 -0.87632555 -0.080566086 0.47493455 254 143 191 255
0.49391162 -1.5260282 3.6218596 0.8784765 -0.10683915 0.4656871 254 143 191 255
0.0012501776 -1.1157205 3.839151 0.032639295 0.5601144 0.827772 254 143 191 255
-0.22414374 -1.7635963 2.940797 -0.8983486 -0.23669961 -0.37005812 254 143 191 255
0.21136123 -1.7622609 2.9521914 0.909373 -0.21845403 -0.3540037 254 143 191 255
0.2064845 -1.8809288 3.3224983 0.82734555 -0.5118197 0.23138705 254 143 191 255
-0.0007035732 -2.1333933 3.358385 0.0043181777 -0.69080406 0.72302914 254 143 191 255
-0.00763309 -2.5928252 2.466651 -0.015016617 -0.9990723 -0.04036378 254 143 191 255
-0.0007648468 -2.570892 2.2364583 0.015623108 -0.36972243 -0.9290109 254 143 191 255
-0.22237295 -2.3957808 2.896194 -0.8265212 -0.5087158 0.24097899 254 143 191 255
-0.22414362 -2.3637693 2.674105 -0.92521495 -0.07906038 -0.37111574 254 143 191 255
0.21136123 -2.362434 2.6854992 0.9380758 -0.10618281 -0.32975617 254 143 191 255
0.19986671 -2.3900793 2.910874 0.819149 -0.5127461 0.2570727 254 143 191 255
-0.007321477 -2.5057566 2.9467607 0.004073352 -0.900276 0.4353007 254 143 191 255
-0.0007647872 -2.2526534 2.544718 0.023658063 0.6650452 -0.74642825 254 143 191 255
3 0 6 1
3 1 7 2
3 7 3 2
3 8 4 3
3 9 0 4
3 10 6 5
3 11 7 6
3 12 8 7
3 8 14 9
3 14 5 9
3 10 16 11
3 11 17 12
3 17 13 12
3 18 14 13
3 19 10 14
3 20 36 16
3 36 22 17
3 22 18 17
3 18 24 19
3 19 20 15
3 25 37 35
3 37 39 35
3 27 23 22
3 23 29 24
3 29 20 24
3 30 26 25
3 31 27 26
3 32 28 27
3 33 29 28
3 34 25 29
3 0 31 30
3 1 32 31
3 2 33 32
3 3 34 33
3 4 30 34
3 36 43 38
3 37 43 42
3 42 46 45
3 36 39 41
3 37 27 22
3 41 21 44
3 42 21 39
3 41 46 43
3 45 50 49
3 21 55 48
3 45 56 40
3 44 50 46
3 48 47 52
3 56 64 63
3 50 52 54
3 50 53 49
3 51 53 54
3 47 51 52
3 58 61 65
3 54 52 51
3 55 61 47
3 57 49 53
3 63 59 60
3 58 64 57
3 57 51 58
3 59 64 65
3 62 59 61
3 65 61 59
3 40 63 66
3 40 62 55
3 66 63 60
3 62 66 60
3 0 5 6
3 1 6 7
3 7 8 3
3 8 9 4
3 9 5 0
3 10 11 6
3 11 12 7
3 12 13 8
3 8 13 14
3 14 10 5
3 10 15 16
3 11 16 17
3 17 18 13
3 18 19 14
3 19 15 10
3 16 15 20
3 20 35 36
3 17 16 36
3 36 38 22
3 22 23 18
3 18 23 24
3 19 24 20
3 35 20 25
3 25 26 37
3 37 42 39
3 27 28 23
3 23 28 29
3 29 25 20
3 30 31 26
3 31 32 27
3 32 33 28
3 33 34 29
3 34 30 25
3 0 1 31
3 1 2 32
3 2 3 33
3 3 4 34
3 4 0 30
3 36 41 43
3 37 38 43
3 42 43 46
3 36 35 39
3 22 38 37
3 37 26 27
3 41 39 21
3 42 45 21
3 41 44 46
3 45 46 50
3 48 44 21
3 21 40 55
3 40 21 45
3 45 49 56
3 44 48 50
3 48 55 47
3 56 57 64
3 50 48 52
3 50 54 53
3 47 58 51
3 58 47 61
3 55 62 61
3 57 56 49
3 63 64 59
3 58 65 64
3 57 53 51
3 62 60 59
3 40 56 63
3 40 66 62
