ply
format ascii 1.0
comment Created in Blender version 4.3.2
element vertex 70
property float x
property float y
property float z
property float nx
property float ny
property float nz
property uchar red
property uchar green
property uchar blue
property uchar alpha
element face 114
property list uchar uint vertex_indices
end_header
-0.6005083 -0.43752804 0.43302596 -0.32506722 -0.44720143 -0.8332719 254 0 172 255
-0.6005083 -0.61439973 0.67634445 -0.2915512 -0.92011845 -0.26149553 254 0 172 255
-0.84382683 -0.437528 0.67634445 -0.846693 -0.45761207 -0.27148134 254 0 172 255
-0.61451864 -0.9306373 2.6440737 -0.41882542 -0.9073848 0.035185937 254 0 172 255
-0.6005083 -0.43752784 3.256546 -0.32889614 -0.42064506 0.84550875 254 0 172 255
-0.84382683 -0.43752784 3.0132265 -0.88646334 -0.32767677 0.32681906 254 0 172 255
-0.6005083 0.43753278 0.4330259 -0.32508254 0.44719538 -0.8332693 254 0 172 255
-0.84382683 0.4375328 0.67634434 -0.84620893 0.46038973 -0.26827532 254 0 172 255
-0.6005083 0.6144045 0.67634434 -0.26865312 0.9390504 -0.21449953 254 0 172 255
-0.6005083 0.437533 3.256546 -0.3250678 0.44720218 0.8332713 254 0 172 255
-0.6005083 0.6144047 3.0132265 -0.2686021 0.9389426 0.21503416 254 0 172 255
-0.84382683 0.437533 3.0132265 -0.8460806 0.46025038 0.2689187 254 0 172 255
0.603294 -0.43752804 0.43302596 0.3250825 -0.44719544 -0.83326924 254 0 172 255
0.84661263 -0.437528 0.67634445 0.84669286 -0.45761722 -0.27147326 254 0 172 255
0.603294 -0.61439973 0.67634445 0.29154745 -0.92011845 -0.26149967 254 0 172 255
0.603294 -0.43752784 3.256546 0.33037397 -0.42404452 0.84323144 254 0 172 255
0.58928365 -0.9306373 2.6440737 0.39746678 -0.91668385 0.041360784 254 0 172 255
0.84661263 -0.43752784 3.0132265 0.8821234 -0.34058684 0.32535964 254 0 172 255
0.603294 0.43753278 0.4330259 0.3250672 0.44720143 -0.833272 254 0 172 255
0.603294 0.6144045 0.67634434 0.26865882 0.93904954 -0.21449584 254 0 172 255
0.84661263 0.4375328 0.67634434 0.84620994 0.46038446 -0.26828143 254 0 172 255
0.603294 0.437533 3.256546 0.3250831 0.4471962 0.8332687 254 0 172 255
0.84661263 0.437533 3.0132265 0.84608036 0.4602556 0.26891053 254 0 172 255
0.603294 0.6144047 3.0132265 0.26860103 0.9389412 0.21504173 254 0 172 255
-0.51494175 -0.70762724 2.1858292 -0.4480533 -0.8644198 -0.22809346 254 0 172 255
-0.72366947 -0.3828495 1.8380897 -0.9485794 -0.31645626 -0.007255035 254 0 172 255
-0.51494175 0.5195371 1.8380897 -0.283593 0.9589447 0.00057329354 254 0 172 255
0.51772434 0.5195371 1.8380897 0.28358048 0.9589483 0.0005732803 254 0 172 255
0.51772434 -0.70762724 2.1858292 0.44919068 -0.86563885 -0.22112681 254 0 172 255
0.7264521 -0.3828495 1.8380897 0.9485794 -0.31645614 -0.007254718 254 0 172 255
0.7264521 0.36781 1.8380897 0.8743682 0.48526278 0.00068998226 254 0 172 255
-0.72366947 0.36781 1.8380897 -0.87436837 0.4852624 0.0006899836 254 0 172 255
-0.6057445 -0.6018963 3.365853 -0.33896163 -0.3685947 -0.8655882 254 182 177 255
-0.6057445 -0.84521484 3.6091716 -0.31028774 -0.89858234 -0.31027615 254 182 177 255
-0.84906304 -0.6018962 3.6091716 -0.86558694 -0.36858797 -0.3389724 254 182 177 255
-0.6057445 -0.8452148 4.812974 -0.34722146 -0.9377831 7.080065e-08 254 182 177 255
-0.84906304 -0.60189617 4.812974 -0.9128883 -0.4082096 3.0818963e-08 254 182 177 255
-0.6057445 0.601906 3.365853 -0.33897245 0.36858788 -0.86558694 254 182 177 255
-0.84906304 0.60190606 3.6091716 -0.86558825 0.3685946 -0.3389617 254 182 177 255
-0.6057445 0.8452246 3.6091716 -0.3102821 0.89857817 -0.31029373 254 182 177 255
-0.6057445 0.8452247 4.812974 -0.34722063 0.9377834 -7.0800674e-08 254 182 177 255
-0.84906304 0.6019061 4.812974 -0.91289026 0.40820515 -3.081863e-08 254 182 177 255
0.5980578 -0.6018963 3.365853 0.3389724 -0.36858797 -0.86558694 254 182 177 255
0.8413764 -0.6018962 3.6091716 0.8655883 -0.36859447 -0.3389616 254 182 177 255
0.5980578 -0.84521484 3.6091716 0.3102822 -0.89857817 -0.3102936 254 182 177 255
0.5980578 -0.8452148 4.812974 0.34722072 -0.9377834 7.0800674e-08 254 182 177 255
0.8413764 -0.60189617 4.812974 0.9128903 -0.40820497 3.0818615e-08 254 182 177 255
0.5980578 0.601906 3.365853 0.33896166 0.36859462 -0.8655882 254 182 177 255
0.5980578 0.8452246 3.6091716 0.31028762 0.89858234 -0.31027627 254 182 177 255
0.8413764 0.60190606 3.6091716 0.86558694 0.368588 -0.33897242 254 182 177 255
0.8413764 0.6019061 4.812974 0.9128882 0.40820965 -3.081897e-08 254 182 177 255
0.5980578 0.8452247 4.812974 0.3472214 0.9377831 -7.080065e-08 254 182 177 255
-0.6359822 -0.8876659 4.7981973 -0.20618516 -0.6919132 0.69191325 83 40 0 255
-0.6359822 -0.6321256 5.053737 -0.3389724 -0.36858788 0.8655868 83 40 0 255
-0.89152247 -0.6321256 4.7981973 -0.86580163 -0.18289977 0.46576306 83 40 0 255
-0.6359822 0.63214266 5.053737 -0.33896154 0.3685946 0.8655883 83 40 0 255
-0.6359822 0.887683 4.7981973 -0.31028938 0.8985788 0.3102846 83 40 0 255
-0.89152247 0.63214266 4.7981973 -0.8655898 0.36858982 0.33896294 83 40 0 255
0.6282861 -0.6321256 5.053737 0.33896166 -0.36859444 0.8655883 83 40 0 255
0.6282861 -0.8876659 4.7981973 0.2061924 -0.6919121 0.6919121 83 40 0 255
0.8838264 -0.6321256 4.7981973 0.8658057 -0.18289472 0.4657575 83 40 0 255
0.6282861 0.63214266 5.053737 0.33897233 0.36858803 0.86558694 83 40 0 255
0.8838264 0.63214266 4.7981973 0.8655867 0.36859307 0.33896723 83 40 0 255
0.6282861 0.887683 4.7981973 0.3102885 0.8985778 0.3102884 83 40 0 255
-0.89152247 -0.6321256 2.8333507 -1 -3.9272042e-16 -5.2017395e-09 83 40 0 255
-0.6359822 0.88768303 2.8333507 -0.34722993 0.93778 -5.367428e-09 83 40 0 255
-0.89152247 0.6321428 2.8333507 -0.9128883 0.40820944 -5.0183193e-08 83 40 0 255
0.8838264 -0.6321256 2.8333507 1 0 0 83 40 0 255
0.8838264 0.6321428 2.8333507 0.91289014 0.40820542 5.4688815e-08 83 40 0 255
0.6282861 0.88768303 2.8333507 0.34722555 0.9377817 3.1669824e-08 83 40 0 255
3 16 24 28
3 30 17 29
3 9 15 21
3 5 31 25
3 10 27 26
3 0 1 2
3 3 4 5
3 6 7 8
3 9 10 11
3 12 13 14
3 15 16 17
3 18 19 20
3 21 22 23
3 0 7 6
3 24 5 25
3 9 5 4
3 26 7 31
3 6 19 18
3 21 10 9
3 20 27 30
3 18 13 12
3 15 22 21
3 14 29 28
3 12 1 0
3 4 16 15
3 18 0 6
3 28 17 16
3 22 27 23
3 26 11 10
3 1 25 2
3 8 27 19
3 2 31 7
3 30 13 20
3 28 1 14
3 45 33 44
3 50 43 49
3 36 38 34
3 40 48 39
3 32 33 34
3 37 38 39
3 42 43 44
3 47 48 49
3 32 38 37
3 35 34 33
3 39 41 40
3 37 48 47
3 49 51 50
3 47 43 42
3 44 46 45
3 42 33 32
3 47 32 37
3 55 58 61
3 52 53 54
3 55 56 57
3 58 59 60
3 61 62 63
3 55 54 53
3 61 56 55
3 58 62 61
3 53 59 58
3 56 66 57
3 57 64 54
3 62 69 63
3 60 68 62
3 63 65 56
3 16 3 24
3 30 22 17
3 9 4 15
3 5 11 31
3 10 23 27
3 0 2 7
3 24 3 5
3 9 11 5
3 26 8 7
3 6 8 19
3 21 23 10
3 20 19 27
3 18 20 13
3 15 17 22
3 14 13 29
3 12 14 1
3 4 3 16
3 18 12 0
3 28 29 17
3 22 30 27
3 26 31 11
3 1 24 25
3 8 26 27
3 2 25 31
3 30 29 13
3 28 24 1
3 45 35 33
3 50 46 43
3 36 41 38
3 40 51 48
3 32 34 38
3 35 36 34
3 39 38 41
3 37 39 48
3 49 48 51
3 47 49 43
3 44 43 46
3 42 44 33
3 47 42 32
3 55 53 58
3 55 57 54
3 61 63 56
3 58 60 62
3 53 52 59
3 56 65 66
3 57 66 64
3 62 68 69
3 60 67 68
3 63 69 65
