ply
format ascii 1.0
comment Created in Blender version 4.2.9 LTS
element vertex 197
property float x
property float y
property float z
property float nx
property float ny
property float nz
property uchar red
property uchar green
property uchar blue
property uchar alpha
element face 237
property list uchar uint vertex_indices
end_header
-0.60569286 -0.60190094 3.3658526 -0.3415736 -0.34158394 -0.8755843 254 181 178 255
-0.8490115 -0.6019009 3.6091712 -0.87558 -0.34157628 -0.34159222 252 180 177 255
-0.60569286 -0.84521955 3.6091712 -0.34158155 -0.8755841 -0.34157652 252 180 177 255
-0.60569286 0.60190135 3.3658526 -0.34158915 0.34157896 -0.8755802 254 181 178 255
-0.8490115 0.6019014 3.6091712 -0.8755842 0.3415841 -0.3415739 254 181 178 255
0.5981094 -0.60190094 3.3658526 0.3415895 -0.34157884 -0.8755802 254 181 178 255
0.5981094 0.60190135 3.3658526 0.3415737 0.34158403 -0.8755843 254 181 178 255
0.841428 0.6019014 3.6091712 0.8755836 0.34157616 -0.34158325 254 181 178 255
0.5981094 0.84521997 3.6091712 0.34158438 0.87558407 -0.3415741 254 181 178 255
0.841428 -0.6019009 3.6091712 0.87558806 -0.34158427 -0.3415639 254 181 178 255
0.5981094 -0.84521955 3.6091712 0.34158263 -0.87558013 -0.34158584 254 181 178 255
0.8414023 0.60190475 4.8129745 0.87558675 0.34156606 0.34158534 254 181 178 255
0.8414023 -0.60189766 4.8129745 0.87558454 -0.34155807 0.34159914 254 180 178 255
0.5980837 -0.60189766 5.056293 0.34156948 -0.34157583 0.8755891 254 181 178 255
0.5981094 -0.8452195 4.8129735 0.34161115 -0.8755718 0.34157848 254 181 178 255
-0.60571873 -0.60189766 5.056293 -0.34161052 -0.34157497 0.8755734 254 181 178 255
-0.60571873 -0.84521633 4.8129745 -0.34159964 -0.8755729 0.3415871 254 181 178 255
-0.8490115 -0.6019008 4.8129735 -0.8755976 -0.34156847 0.34155506 254 181 178 255
-0.8490115 0.6019015 4.8129735 -0.8755964 0.34156036 0.34156623 254 181 178 255
-0.60571873 0.60190475 5.056293 -0.34159648 0.3415814 0.8755764 254 181 178 255
0.5980837 0.60190475 5.056293 0.34158486 0.34157565 0.8755832 254 181 178 255
-0.60571873 0.8452233 4.8129745 -0.34161127 0.8755769 0.3415654 254 181 178 255
-0.60569286 0.84521997 3.6091712 -0.34157905 0.8755796 -0.3415909 254 181 178 255
0.5981094 0.84522 4.8129735 0.34160092 0.8755706 0.3415919 252 179 176 255
-1.0063509 -0.3850444 4.486198 0.009966353 -0.99994683 0.0026692073 72 44 17 255
-1.1058725 -0.297771 4.4849105 -0.9327994 -0.36039054 0.0019846833 72 44 17 255
-0.921174 -0.18679297 5.095879 0.7506472 0.6607034 0 72 44 17 255
-0.891217 -0.31655094 5.095879 0.9743703 0.22495006 0 72 44 17 255
-1.0053669 -0.38513917 4.790395 0.15037853 -0.98862857 0 72 44 17 255
-0.891217 -0.31655094 4.790395 0.80252326 -0.59662086 0 72 44 17 255
-1.1058725 -0.297771 4.9431367 -0.99992496 0.012259077 0 72 44 17 255
-1.0538384 -0.17518634 4.9431367 -0.70707464 0.707139 0 72 44 17 255
-1.0538384 -0.17518634 4.6367154 -0.2967763 0.95494705 0 72 44 17 255
-0.921174 -0.18679297 4.6367154 0.46076894 0.88752013 0 72 44 17 255
-0.921174 -0.18679297 4.7135553 0.81520414 0.5791739 0 72 44 17 255
-0.891217 -0.31655094 4.7135553 0.98659354 -0.16319683 0 72 44 17 255
-1.1060864 -0.29680592 4.559661 -0.99381584 -0.11100806 -0.0026933432 72 44 17 255
-1.0538384 -0.17518634 4.560813 -0.6982999 0.71580374 -0.0015035707 72 44 17 255
-1.1058725 -0.297771 4.867675 -0.8949473 -0.44617188 0 72 44 17 255
-1.0053669 -0.38513917 4.867675 -0.3186904 -0.94785887 0 72 44 17 255
-1.0538384 -0.17518634 5.024856 -0.29598543 0.9551925 0 72 44 17 255
-0.921174 -0.18679297 5.024856 0.46511692 0.8852494 0 72 44 17 255
-1.0521348 -0.17418289 3.94754 0.10452875 0.994522 0 72 44 17 255
-0.9196931 -0.18810304 3.94754 0.5568126 0.83063823 0 72 44 17 255
-1.0073348 -0.38494965 4.5585084 -0.23939799 -0.97091955 -0.0019850167 72 44 17 255
-1.0521348 -0.17418289 4.253024 -0.6902367 0.72358364 0 72 44 17 255
-1.1063004 -0.2958408 4.253024 -0.9995963 0.028411688 0 72 44 17 255
-0.9196931 -0.18810304 4.405766 0.8261203 0.5634937 0 72 44 17 255
-0.89200526 -0.31836405 4.405766 0.9847678 -0.17387472 0 72 44 17 255
-0.89200526 -0.31836405 4.0993447 0.7931478 -0.6090292 0 72 44 17 255
-1.0073348 -0.38494965 4.0993447 0.13162279 -0.99129987 0 72 44 17 255
-1.0073348 -0.38494965 4.1761847 -0.33557278 -0.9420143 0 72 44 17 255
-1.1063004 -0.2958408 4.1761847 -0.90177405 -0.4322078 0 72 44 17 255
-0.9196931 -0.18810304 4.0234423 0.8238779 0.56676745 0 72 44 17 255
-0.89200526 -0.31836405 4.0234423 0.98317486 -0.18266717 0 72 44 17 255
-0.9196931 -0.18810304 4.330304 0.47718233 0.8788044 0 72 44 17 255
-1.0521348 -0.17418289 4.330304 -0.2826144 0.95923364 0 72 44 17 255
-0.89200526 -0.31836405 4.4874854 0.7922931 -0.61013883 0.0015526824 72 44 17 255
0.9736657 -0.15901455 4.4861975 -0.09708363 0.99527264 0.0026692546 72 44 17 255
1.0804151 -0.23728196 4.48491 0.89784163 0.44031405 0.00198543 72 44 17 255
0.9060917 -0.36393523 5.0958786 -0.6902062 -0.7236128 0 72 44 17 255
0.8649397 -0.23728198 5.0958786 -0.9510567 -0.3090166 0 72 44 17 255
0.97267723 -0.15900594 4.7903943 -0.23597716 0.9717586 0 72 44 17 255
0.8649397 -0.23728198 4.7903943 -0.8514698 0.52440363 0 72 44 17 255
1.0804151 -0.23728196 4.9431367 0.99718827 0.07493789 0 72 44 17 255
1.0392629 -0.36393523 4.9431367 0.7660151 -0.6428226 0 72 44 17 255
1.0392629 -0.36393523 4.6367154 0.37887463 -0.925448 0 72 44 17 255
0.9060917 -0.36393523 4.6367154 -0.38166454 -0.9243009 0 72 44 17 255
0.9060917 -0.36393523 4.713555 -0.7616247 -0.64801854 0 72 44 17 255
0.8649397 -0.23728198 4.713555 -0.99706274 0.0765892 0 72 44 17 255
1.0807122 -0.23822474 4.5596604 0.9803596 0.19719979 -0.002692757 72 44 17 255
1.0392629 -0.36393523 4.560813 0.7580274 -0.652221 -0.001503376 72 44 17 255
1.0804151 -0.23728196 4.867675 0.8526554 0.5224737 0 72 44 17 255
0.97267723 -0.15900594 4.867675 0.23486276 0.97202855 0 72 44 17 255
1.0392629 -0.36393523 5.0248556 0.3781102 -0.92576057 0 72 44 17 255
0.9060917 -0.36393523 5.0248556 -0.3861926 -0.9224183 0 72 44 17 255
1.0376531 -0.3650833 3.94754 -0.0174521 -0.99984777 0 72 44 17 255
0.90450215 -0.3627592 3.94754 -0.48229876 -0.8760069 0 72 44 17 255
0.9746542 -0.1590232 4.558508 0.15385371 0.9880917 -0.001985124 72 44 17 255
1.0376531 -0.3650833 4.2530236 0.7506747 -0.660672 0 72 44 17 255
1.0810095 -0.23916753 4.2530236 0.99826896 0.058815487 0 72 44 17 255
0.90450215 -0.3627592 4.405766 -0.7738646 -0.6333511 0 72 44 17 255
0.86556673 -0.23540705 4.405766 -0.9961744 0.08738752 0 72 44 17 255
0.86556673 -0.23540705 4.0993447 -0.84320927 0.53758556 0 72 44 17 255
0.9746542 -0.1590232 4.0993447 -0.2175181 0.97605634 0 72 44 17 255
0.9746542 -0.1590232 4.176184 0.25219405 0.9676767 0 72 44 17 255
1.0810095 -0.23916753 4.176184 0.8606743 0.5091559 0 72 44 17 255
0.90450215 -0.3627592 4.0234423 -0.77134615 -0.6364159 0 72 44 17 255
0.86556673 -0.23540705 4.0234423 -0.9953538 0.09628501 0 72 44 17 255
0.90450215 -0.3627592 4.330304 -0.39877287 -0.91704977 0 72 44 17 255
1.0376531 -0.3650833 4.330304 0.3651408 -0.9309523 0 72 44 17 255
0.86556673 -0.23540705 4.4874854 -0.8424529 0.5387679 0.0015527275 72 44 17 255
-0.6043823 -0.8700533 2.873172 -0.2650273 -0.9642363 -0.002992621 73 43 17 255
0.59129703 -0.8700533 2.873172 0.26502866 -0.9642359 -0.0029928044 73 43 17 255
-0.61618686 -0.8700531 3.918521 -0.46023285 -0.8877659 -0.0075841174 73 43 17 255
0.60310173 -0.8700532 3.918521 0.46022585 -0.8877695 -0.0075840903 73 43 17 255
-0.83118516 -0.62436867 3.2043037 -0.7390402 -0.67359805 -0.00924122 73 43 17 255
0.8181 -0.62436867 3.2043037 0.7390402 -0.67359805 -0.009241346 73 43 17 255
-0.84746814 -0.6243684 4.1168084 -0.7333151 -0.679763 -0.013085342 73 43 17 255
0.8343829 -0.6243684 4.1168084 0.73331547 -0.6797626 -0.0130853 73 43 17 255
-0.27132744 -0.8700532 3.710855 -1.8911989e-07 -1 3.0389856e-07 73 43 17 255
0.198879 -0.87005323 3.7123518 6.823092e-08 -1 -5.3451483e-09 73 43 17 255
0.11243665 -0.87005323 3.545147 1.91194e-07 -1 -5.618649e-07 73 43 17 255
-0.18464011 -0.8700532 3.543747 -1.1984787e-07 -1 4.8570405e-07 73 43 17 255
-0.8755661 0.06962597 4.4096174 -1 0 0 52 52 52 255
-0.87556607 -0.6640562 4.4957457 -0.91592604 -0.4013472 -1.8050255e-06 52 52 52 255
-0.6322668 -0.90737253 4.5071635 -0.30803904 -0.95137376 -4.236797e-06 52 52 52 255
-0.6322641 -0.90737283 4.37856 -0.3066372 -0.9518266 -2.9179278e-06 52 52 52 255
-0.87556607 -0.6640562 4.375147 -0.92568636 -0.37829208 0 52 52 52 255
-0.8755661 0.06962597 4.3559427 -1 0 0 52 52 52 255
-0.49679366 -0.90737253 4.6213098 -2.701239e-06 -1 1.8394109e-06 52 52 52 255
-0.25137883 -0.90737325 4.6229734 -3.0452602e-06 -1 1.5884966e-06 52 52 52 255
-0.10025072 -0.9073738 4.4940124 7.977558e-07 -1 2.8461932e-06 52 52 52 255
-0.09894067 -0.90737414 4.4236093 -4.2923166e-06 -1 2.4718765e-06 52 52 52 255
-0.09467673 -0.9073743 4.359601 -1.564179e-05 -1 9.665064e-06 52 52 52 255
-0.24835104 -0.9073744 4.2734838 -3.4394814e-06 -1 8.419445e-06 52 52 52 255
-0.5236176 -0.9073735 4.2708445 -3.8948606e-06 -1 2.0052796e-06 52 52 52 255
-0.579232 -0.90737265 4.4873123 -1.3489395e-06 -1 3.0659132e-06 52 52 52 255
-0.58018875 -0.90737295 4.4034715 -3.3061422e-06 -1 2.87112e-06 52 52 52 255
-0.5033849 -0.9073735 4.3264675 -4.130416e-06 -1 1.9908427e-06 52 52 52 255
-0.25912172 -0.9073739 4.324132 -3.9652364e-06 -1 9.463307e-06 52 52 52 255
-0.1460244 -0.9073741 4.388613 -3.0249262e-06 -1 4.692895e-06 52 52 52 255
-0.14761615 -0.90737385 4.486901 -4.0445448e-05 -0.99999994 0.00041852708 52 52 52 255
-0.25374067 -0.90737325 4.578129 -4.108625e-06 -1 8.203365e-07 52 52 52 255
-0.4788375 -0.9073727 4.575617 -2.6218256e-06 -1 1.7899695e-06 52 52 52 255
0.8573303 0.069626 4.4096174 -1 0 0 52 52 52 255
0.8573303 -0.6640562 4.4957457 -0.91592604 0.4013472 1.8050255e-06 52 52 52 255
0.6140311 -0.90737253 4.5071635 -0.3080411 0.95137304 5.1137695e-06 52 52 52 255
0.61402833 -0.90737283 4.37856 -0.30663675 0.95182663 2.3146188e-06 52 52 52 255
0.8573303 -0.6640562 4.375147 -0.92568636 0.37829208 0 52 52 52 255
0.8573303 0.069626 4.3559427 -1 0 0 52 52 52 255
0.47855783 -0.9073726 4.6213098 -2.2849983e-06 1 -1.0241226e-06 52 52 52 255
0.23314297 -0.90737325 4.6229734 -3.1654963e-06 1 -1.16646e-06 52 52 52 255
0.08201492 -0.9073739 4.4940124 -2.2060428e-06 1 -2.8461932e-06 52 52 52 255
0.08070493 -0.9073741 4.4236093 -1.0159873e-06 1 -1.9650383e-06 52 52 52 255
0.07644093 -0.9073743 4.359601 -7.934063e-07 1 -5.326908e-06 52 52 52 255
0.23011506 -0.9073743 4.2734838 -3.1935172e-06 1 -5.712794e-06 52 52 52 255
0.5053817 -0.90737355 4.2708445 -3.1202921e-06 1 -3.503965e-06 52 52 52 255
0.5609962 -0.9073727 4.4873123 -2.4572228e-06 1 -1.6638827e-06 52 52 52 255
0.56195295 -0.9073729 4.4034715 -2.803331e-06 1 -3.4880313e-06 52 52 52 255
0.48514903 -0.9073735 4.3264675 -3.45453e-06 1 -2.9082935e-06 52 52 52 255
0.24088597 -0.90737396 4.324132 -3.0774659e-06 1 -5.3205604e-06 52 52 52 255
0.12778854 -0.90737414 4.388613 -1.6579708e-06 1 -2.940135e-06 52 52 52 255
0.12938035 -0.9073738 4.486901 -9.309266e-05 1 -9.2278435e-07 52 52 52 255
0.23550475 -0.90737325 4.578129 -3.7986752e-06 1 -1.7669933e-06 52 52 52 255
0.4606017 -0.9073727 4.575617 -2.1807894e-06 1 -1.206556e-06 52 52 52 255
0.3656851 -0.876929 4.356189 0 1 -7.21685e-07 254 59 45 255
0.28044283 -0.876929 4.356189 0 1 -5.662306e-07 254 59 45 255
0.3656851 -0.8769289 4.598413 0 1 -1.5545447e-07 254 59 45 255
0.28044283 -0.8769289 4.598413 0 1 0 254 59 45 255
-0.2995625 -0.87692887 4.356189 0 1 0 254 59 45 255
-0.38480484 -0.87692887 4.356189 0 1 0 254 59 45 255
-0.2995625 -0.87692887 4.598413 0 1 0 254 59 45 255
-0.38480484 -0.87692887 4.598413 0 1 0 254 59 45 255
-5.9604645e-08 0.894315 5.079056 -5.299495e-06 0.41199186 0.9111876 40 40 42 255
0.8505126 0.27638143 5.079056 0.39182764 0.12731667 0.911187 40 40 42 255
0.5256456 -0.72345626 5.079056 0.24216446 -0.33330536 0.9111882 40 40 42 255
-0.52564573 -0.72345614 5.079056 -0.24215871 -0.33331108 0.91118765 40 40 42 255
-0.8505128 0.27638137 5.079056 -0.3918292 0.12730832 0.9111874 40 40 42 255
1.5679055 0.5094765 5.181285 -0.12772432 -0.041500553 0.9909411 40 40 42 255
-1.1920929e-07 1.6486264 5.181285 1.4671555e-06 -0.13429867 0.990941 40 40 42 255
0.9690188 -1.3337069 5.181285 -0.078939214 0.10864992 0.99094087 40 40 42 255
-0.96901894 -1.333707 5.181285 0.07893745 0.10865097 0.990941 40 40 42 255
-1.5679057 0.50947636 5.181285 0.12772538 -0.041498836 0.990941 40 40 42 255
0.8505126 0.27638143 5.644557 0.76389295 0.24819721 0.5957062 40 40 42 255
-5.9604645e-08 0.894315 5.644557 6.272529e-06 0.8031953 0.59571576 40 40 42 255
0.5256456 -0.72345626 5.644557 0.4721096 -0.64981407 0.5956964 40 40 42 255
-0.52564573 -0.72345614 5.644557 -0.4721199 -0.64980656 0.5956964 40 40 42 255
-0.8505128 0.27638137 5.644557 -0.76388866 0.24820942 0.5957065 40 40 42 255
-0.60045666 -0.43752804 0.43302596 -0.33272532 -0.40414873 -0.8520315 35 35 35 255
-0.60045666 -0.61439973 0.67634445 -0.28436753 -0.915573 -0.28436106 35 35 35 255
-0.8437753 -0.437528 0.67634445 -0.85202867 -0.40414673 -0.33273497 35 35 35 255
-0.60045666 -0.61439955 3.0132265 -0.34490365 -0.87297434 0.3449019 35 35 35 255
-0.60045666 -0.43752784 3.256546 -0.33273923 -0.4041409 0.8520299 35 35 35 255
-0.8437753 -0.43752784 3.0132265 -0.8520245 -0.40415785 0.33273214 35 35 35 255
-0.60045666 0.43753278 0.4330259 -0.33273858 0.40414014 -0.8520305 35 35 35 255
-0.8437753 0.4375328 0.67634434 -0.85202426 0.40415767 -0.332733 35 35 35 255
-0.60045666 0.6144045 0.67634434 -0.28436294 0.915574 -0.28436258 35 35 35 255
-0.60045666 0.437533 3.256546 -0.33272597 0.40414923 0.852031 35 35 35 255
-0.60045666 0.6144047 3.0132265 -0.2843677 0.9155733 0.28436026 35 35 35 255
-0.8437753 0.437533 3.0132265 -0.85202897 0.404147 0.33273426 35 35 35 255
0.60334563 -0.43752804 0.43302596 0.33273864 -0.4041402 -0.8520304 35 35 35 255
0.8466642 -0.437528 0.67634445 0.85202426 -0.40415767 -0.33273295 35 35 35 255
0.60334563 -0.61439973 0.67634445 0.28436583 -0.91557217 -0.2843653 35 35 35 255
0.60334563 -0.43752784 3.256546 0.33272606 -0.40414938 0.852031 35 35 35 255
0.60334563 -0.61439955 3.0132265 0.34721273 -0.87114465 0.34720346 35 35 35 255
0.8466642 -0.43752784 3.0132265 0.85202897 -0.40414676 0.33273417 35 35 35 255
0.60334563 0.43753278 0.4330259 0.3327254 0.40414855 -0.85203165 35 35 35 255
0.60334563 0.6144045 0.67634434 0.28436765 0.9155729 -0.28436124 35 35 35 255
0.8466642 0.4375328 0.67634434 0.85202867 0.40414664 -0.3327351 35 35 35 255
0.60334563 0.437533 3.256546 0.3327393 0.40414077 0.8520298 35 35 35 255
0.8466642 0.437533 3.0132265 0.8520245 0.4041579 0.33273217 35 35 35 255
0.60334563 0.6144047 3.0132265 0.28436306 0.9155743 0.2843616 35 35 35 255
0.025993168 -0.6143996 1.8924406 -2.012964e-09 -1 1.1258532e-07 35 35 35 255
-0.60045666 -0.61439955 3.0132265 0 -1 -4.417761e-08 254 254 254 255
0.60334563 -0.61439955 3.0132265 0 -1 -4.417761e-08 254 254 254 255
0.025993168 -0.6143996 1.8924406 0 -1 -4.417761e-08 254 254 254 255
3 0 1 4
3 0 2 1
3 5 2 0
3 6 0 3
3 0 4 3
3 6 5 0
3 6 7 9
3 6 8 7
3 3 8 6
3 6 9 5
3 11 9 7
3 5 9 10
3 10 9 12
3 11 12 9
3 13 12 11
3 13 14 12
3 10 12 14
3 14 2 10
3 14 16 2
3 15 14 13
3 15 16 14
3 16 15 17
3 16 1 2
3 16 17 1
3 17 4 1
3 17 18 4
3 19 18 17
3 19 17 15
3 20 21 19
3 19 13 20
3 19 15 13
3 19 21 18
3 20 23 21
3 22 18 21
3 21 8 22
3 21 23 8
3 7 8 23
3 7 23 11
3 20 11 23
3 3 22 8
3 3 4 22
3 22 4 18
3 13 11 20
3 5 10 2
3 40 26 41
3 35 29 28
3 34 29 35
3 38 30 31
3 39 30 38
3 36 32 37
3 32 34 33
3 33 34 35
3 28 39 38
3 29 39 28
3 30 40 31
3 36 25 24
3 41 31 40
3 37 25 36
3 33 37 32
3 27 41 26
3 57 44 24
3 52 46 45
3 51 46 52
3 55 47 48
3 56 47 55
3 53 49 54
3 49 51 50
3 50 51 52
3 45 56 55
3 46 56 45
3 47 57 48
3 53 43 42
3 24 48 57
3 54 43 53
3 50 54 49
3 36 24 44
3 74 60 75
3 69 63 62
3 68 63 69
3 72 64 65
3 73 64 72
3 70 66 71
3 66 68 67
3 67 68 69
3 62 73 72
3 63 73 62
3 64 74 65
3 70 59 58
3 75 65 74
3 71 59 70
3 67 71 66
3 61 75 60
3 91 78 58
3 86 80 79
3 85 80 86
3 89 81 82
3 90 81 89
3 87 83 88
3 83 85 84
3 84 85 86
3 79 90 89
3 80 90 79
3 81 91 82
3 87 77 76
3 58 82 91
3 88 77 87
3 84 88 83
3 70 58 78
3 92 102 103
3 95 97 99
3 94 96 92
3 94 101 95
3 105 107 106
3 104 108 105
3 116 115 119
3 124 111 110
3 126 128 127
3 125 129 126
3 137 136 141
3 145 132 131
3 147 148 146
3 151 152 150
3 157 168 158
3 155 160 154
3 155 161 159
3 157 161 156
3 158 162 157
3 154 163 158
3 165 167 166
3 155 166 156
3 158 165 154
3 156 167 157
3 154 164 155
3 193 183 185
3 191 182 189
3 178 184 190
3 174 176 171
3 179 188 177
3 169 170 171
3 172 173 174
3 175 176 177
3 178 179 180
3 181 182 183
3 184 185 186
3 187 188 189
3 190 191 192
3 169 176 175
3 172 171 170
3 178 174 173
3 177 180 179
3 175 188 187
3 190 179 178
3 189 192 191
3 187 182 181
3 184 191 190
3 183 186 185
3 181 170 169
3 173 185 184
3 187 169 175
3 191 186 182
3 178 173 184
3 174 180 176
3 179 192 188
3 169 171 176
3 172 174 171
3 178 180 174
3 177 176 180
3 175 177 188
3 190 192 179
3 189 188 192
3 187 189 182
3 184 186 191
3 183 182 186
3 181 183 170
3 173 172 185
3 187 181 169
3 193 172 170
3 195 194 196
3 92 93 95
3 95 101 102
3 103 100 94
3 92 95 102
3 103 94 92
3 95 93 97
3 94 98 96
3 94 100 101
3 105 108 107
3 104 109 108
3 118 107 116
3 115 114 121
3 115 121 120
3 119 118 116
3 115 120 119
3 122 121 114
3 113 112 111
3 122 114 113
3 122 113 111
3 106 107 118
3 106 118 117
3 123 122 111
3 106 117 124
3 124 123 111
3 110 106 124
3 126 129 128
3 125 130 129
3 139 128 137
3 135 114 142
3 135 142 141
3 140 139 137
3 136 135 141
3 141 140 137
3 142 114 113
3 134 133 132
3 142 113 134
3 143 142 134
3 127 128 139
3 127 139 138
3 143 134 132
3 144 143 132
3 131 127 138
3 145 144 132
3 131 138 145
3 147 149 148
3 151 153 152
3 157 167 168
3 155 159 160
3 155 156 161
3 157 162 161
3 158 163 162
3 154 160 163
3 166 164 165
3 165 168 167
3 155 164 166
3 158 168 165
3 156 166 167
3 154 165 164
3 193 170 183
