ply
format ascii 1.0
comment Created in Blender version 4.2.9 LTS
element vertex 44
property float x
property float y
property float z
property float nx
property float ny
property float nz
property uchar red
property uchar green
property uchar blue
property uchar alpha
element face 68
property list uchar uint vertex_indices
end_header
-0.7304587 -0.23540798 -2.8304152 -0.3415743 -0.3415848 -0.8755838 60 60 60 255
-0.7304587 -0.33057192 -2.735251 -0.63714856 -0.5675485 -0.52146953 60 60 60 255
-0.8256226 -0.23540798 -2.735251 -0.8755798 -0.3415852 -0.3415843 60 60 60 255
-0.7304587 0.23540775 -2.8304152 -0.34158987 0.34157962 -0.8755797 60 60 60 255
-0.8256226 0.23540775 -2.735251 -0.87558 0.34158605 -0.34158248 60 60 60 255
-0.7304587 0.3305717 -2.735251 -0.34158498 0.8755798 -0.3415844 60 60 60 255
-0.25964296 -0.23540798 -2.8304152 0.34158984 -0.34157962 -0.8755797 60 60 60 255
-0.16447899 -0.23540798 -2.735251 0.87558085 -0.34158525 -0.3415814 60 60 60 255
-0.25964296 -0.33057192 -2.735251 0.6371411 -0.56754816 -0.521479 60 60 60 255
-0.25964296 0.23540775 -2.8304152 0.3415742 0.34158465 -0.8755838 60 60 60 255
-0.25964296 0.3305717 -2.735251 0.34158602 0.8755801 -0.34158248 60 60 60 255
-0.16447899 0.23540775 -2.735251 0.8755788 0.34158614 -0.3415855 60 60 60 255
-0.7304587 -0.3305718 -2.4623911 -0.6456027 -0.6901833 0.32687035 60 60 60 255
-0.8256226 -0.23540784 -2.4623911 -0.92388153 -0.38267866 1.6470386e-07 60 60 60 255
-0.7304587 0.33057186 -2.4623911 -0.38267922 0.92388135 -4.577878e-07 60 60 60 255
-0.25964296 0.33057186 -2.4623911 0.38268363 0.92387956 -5.413537e-07 60 60 60 255
-0.25964296 -0.3305718 -2.4623911 0.6456077 -0.6901808 0.3268657 60 60 60 255
-0.16447899 -0.23540784 -2.4623911 0.92387897 -0.3826851 1.6470648e-07 60 60 60 255
-0.16447899 0.23540789 -2.4623911 0.9238821 0.38267708 -1.6470311e-07 60 60 60 255
-0.8256226 0.23540789 -2.4623911 -0.92387974 0.3826831 -1.6470575e-07 60 60 60 255
-0.7304846 -0.33056852 0.20874529 -0.3415871 -0.8755788 0.3415849 35 35 35 255
-0.82564855 -0.23540455 0.20874527 -0.87557876 -0.3415905 0.34158155 35 35 35 255
-0.7304846 -0.23540454 0.30390865 -0.34158853 -0.34157765 0.87558097 35 35 35 255
-0.7304846 -0.33056864 -2.462391 -0.38268647 -0.9238783 4.2474863e-08 35 35 35 255
-0.82564855 -0.23540464 -2.462391 -0.9238783 -0.3826864 1.6825044e-08 35 35 35 255
-0.25966877 -0.33056852 0.20874529 0.3415906 -0.8755786 0.34158158 35 35 35 255
-0.25966877 -0.33056864 -2.462391 0.38268676 -0.92387825 4.2654534e-08 35 35 35 255
-0.25966877 -0.23540454 0.30390865 0.34157273 -0.3415829 0.8755851 35 35 35 255
-0.16450481 -0.23540455 0.20874527 0.8755788 -0.34158695 0.34158462 35 35 35 255
-0.16450481 0.23541123 0.20874524 0.87557864 0.34159043 0.34158167 35 35 35 255
-0.16450481 -0.23540464 -2.462391 0.92387843 -0.38268608 1.6825016e-08 35 35 35 255
-0.16450481 0.23541114 -2.462391 0.9238783 0.3826865 -2.1894326e-08 35 35 35 255
-0.25966877 0.33057523 0.20874523 0.3415871 0.8755787 0.34158486 35 35 35 255
-0.25966877 0.33057514 -2.462391 0.3826864 0.9238783 -3.6682447e-08 35 35 35 255
-0.7304846 0.33057523 0.20874523 -0.34159076 0.8755785 0.34158167 35 35 35 255
-0.7304846 0.33057514 -2.462391 -0.38268653 0.9238783 -2.9470243e-08 35 35 35 255
-0.82564855 0.23541123 0.20874524 -0.8755788 0.34158677 0.34158483 35 35 35 255
-0.82564855 0.23541114 -2.462391 -0.9238783 0.38268638 -1.6825014e-08 35 35 35 255
-0.7304846 0.23541124 0.3039086 -0.34157255 0.34158295 0.8755851 35 35 35 255
-0.25966877 0.23541124 0.3039086 0.34158823 0.34157786 0.87558097 35 35 35 255
-0.38628954 -0.64911354 -2.8542745 0.45383173 -0.53439 -0.71306676 60 60 60 255
-0.38628954 -0.6491135 -2.6791372 0.4664972 -0.8047197 0.36716038 60 60 60 255
-0.60381216 -0.64911354 -2.8542745 -0.45382902 -0.5344189 -0.71304685 60 60 60 255
-0.60381216 -0.6491135 -2.6791372 -0.46650165 -0.8047138 0.36716744 60 60 60 255
3 0 1 2
3 3 4 5
3 6 7 8
3 9 10 11
3 0 4 3
3 14 4 19
3 3 10 9
3 18 10 15
3 9 7 6
3 16 7 17
3 6 1 0
3 9 0 3
3 1 13 2
3 14 10 5
3 13 4 2
3 11 17 7
3 8 42 1
3 0 2 4
3 14 5 4
3 3 5 10
3 18 11 10
3 9 11 7
3 16 8 7
3 6 8 1
3 9 6 0
3 1 12 13
3 14 15 10
3 13 19 4
3 11 18 17
3 1 43 12
3 20 21 24
3 20 22 21
3 22 20 25
3 25 20 23
3 20 24 23
3 26 28 25
3 25 23 26
3 22 25 27
3 27 25 28
3 27 28 29
3 26 30 28
3 29 28 30
3 29 30 31
3 31 32 29
3 31 33 32
3 34 32 33
3 34 33 35
3 35 36 34
3 35 37 36
3 21 36 37
3 21 37 24
3 38 36 21
3 38 34 36
3 39 34 38
3 38 27 39
3 38 22 27
3 38 21 22
3 27 29 39
3 39 32 34
3 39 29 32
3 41 42 40
3 41 43 42
3 8 41 40
3 12 41 16
3 8 40 42
3 1 42 43
3 8 16 41
3 12 43 41
