ply
format ascii 1.0
comment Created in Blender version 4.3.2
element vertex 481
property float x
property float y
property float z
property float nx
property float ny
property float nz
property uchar red
property uchar green
property uchar blue
property uchar alpha
element face 787
property list uchar uint vertex_indices
end_header
-1.9465748 1.4865202 -0.23837985 0.25681204 0.96646136 -6.531257e-06 40 40 40 255
-2.4767559 1.4865202 -0.2383798 -0.24553011 0.9693889 6.8817553e-06 40 40 40 255
-1.9465748 1.3821824 0.04828574 0.25681692 0.7403541 0.6212252 40 40 40 255
-2.4767559 1.3821824 0.048285782 -0.24552475 0.74259293 0.6231157 40 40 40 255
-1.9465748 1.1179899 0.20081729 0.25680718 0.16782887 0.95177925 40 40 40 255
-2.4767559 1.1179899 0.20081733 -0.24553 0.1683307 0.95466214 40 40 40 255
-1.9465748 0.8175614 0.14784363 0.25681207 -0.483225 0.8369833 40 40 40 255
-2.4767559 0.8175614 0.14784367 -0.24552986 -0.48469594 0.8395147 40 40 40 255
-1.9465748 0.62147063 -0.08584827 0.2568121 -0.90817434 0.33055526 40 40 40 255
-2.4767559 0.62147063 -0.085848235 -0.24553525 -0.9109281 0.33154583 40 40 40 255
-1.9465748 0.62147063 -0.39091143 0.25681198 -0.90817875 -0.3305432 40 40 40 255
-2.4767559 0.62147063 -0.3909114 -0.24553011 -0.9109254 -0.33155695 40 40 40 255
-1.9465748 0.8175614 -0.6246034 0.25681195 -0.4832364 -0.8369768 40 40 40 255
-2.4767559 0.8175614 -0.62460333 -0.24553001 -0.48468843 -0.8395191 40 40 40 255
-1.9465748 1.1179899 -0.677577 0.25681198 0.16781783 -0.9517798 40 40 40 255
-2.4767559 1.1179899 -0.67757696 -0.24553014 0.16833955 -0.9546605 40 40 40 255
-1.9465748 1.3821824 -0.5250455 0.25681207 0.74034816 -0.6212345 40 40 40 255
-2.4767559 1.3821824 -0.52504545 -0.24553005 0.7425993 -0.62310624 40 40 40 255
-2.6034908 1.2809179 -0.036685172 -0.87171364 0.3753735 0.3149764 40 40 40 255
-2.6034908 1.3543288 -0.2383798 -0.8717133 0.4900162 1.440519e-06 40 40 40 255
-2.6034908 1.0950351 0.07063428 -0.8717142 0.085091285 0.48257017 40 40 40 255
-2.6034908 0.883657 0.033362612 -0.8717148 -0.24500558 0.424365 40 40 40 255
-2.6034908 0.74568975 -0.13106033 -0.87171245 -0.4604663 0.16759527 40 40 40 255
-2.6034908 0.74568975 -0.34569925 -0.8717126 -0.46046576 -0.16759622 40 40 40 255
-2.6034908 0.883657 -0.51012224 -0.8717129 -0.24500751 -0.4243676 40 40 40 255
-2.6034908 1.0950351 -0.5473939 -0.87171155 0.0850923 -0.48257467 40 40 40 255
-2.6034908 1.2809179 -0.4400744 -0.87171316 0.37537518 -0.31497568 40 40 40 255
-1.8446537 1.3626729 -0.23837987 0.89884865 0.43825924 -1.1384893e-06 40 40 40 255
-1.8446537 1.2873099 -0.031321682 0.8988484 0.3357263 0.28170788 40 40 40 255
-1.8446537 1.0964841 0.07885167 0.89884907 0.07610291 0.4316002 40 40 40 255
-1.8446537 0.87948495 0.040588852 0.8988471 -0.21913053 0.37954682 40 40 40 255
-1.8446537 0.7378488 -0.1282065 0.89884853 -0.41182888 0.149894 40 40 40 255
-1.8446537 0.7378488 -0.34855318 0.8988481 -0.41183046 -0.14989299 40 40 40 255
-1.8446537 0.87948495 -0.5173486 0.8988485 -0.2191306 -0.37954333 40 40 40 255
-1.8446537 1.0964841 -0.55561143 0.89885014 0.07610139 -0.43159828 40 40 40 255
-1.8446537 1.2873099 -0.44543803 0.8988492 0.3357244 -0.28170756 40 40 40 255
1.947062 1.4865202 -0.23837958 -0.2568072 0.96646273 -4.66873e-06 40 40 40 255
2.4772425 1.4865202 -0.23837955 0.2455247 0.96939033 4.5310444e-06 40 40 40 255
1.9470615 1.3821825 0.048285954 -0.2568123 0.74035656 0.6212241 40 40 40 255
2.4772425 1.3821825 0.04828602 0.2455299 0.7425939 0.6231127 40 40 40 255
1.9470615 1.11799 0.2008175 -0.2568093 0.16782641 0.951779 40 40 40 255
2.4772425 1.11799 0.20081756 0.24553272 0.16833502 0.9546607 40 40 40 255
1.9470615 0.81756145 0.14784384 -0.25681713 -0.4832338 0.8369767 40 40 40 255
2.4772425 0.81756145 0.1478439 0.24553505 -0.48468992 0.8395167 40 40 40 255
1.9470615 0.62147063 -0.085848026 -0.25681058 -0.9081771 0.3305493 40 40 40 255
2.4772425 0.62147063 -0.08584798 0.24552709 -0.91092914 0.33154848 40 40 40 255
1.947062 0.62147063 -0.39091113 -0.2568136 -0.9081763 -0.33054918 40 40 40 255
2.477243 0.62147063 -0.3909111 0.245528 -0.9109283 -0.33155054 40 40 40 255
1.947062 0.81756145 -0.62460303 -0.2568118 -0.48322496 -0.83698344 40 40 40 255
2.477243 0.81756145 -0.624603 0.24553545 -0.48469764 -0.83951217 40 40 40 255
1.947062 1.11799 -0.6775767 -0.25681496 0.1678259 -0.9517775 40 40 40 255
2.477243 1.11799 -0.67757666 0.24552736 0.16833517 -0.95466197 40 40 40 255
1.947062 1.3821825 -0.52504516 -0.25681192 0.7403508 -0.62123126 40 40 40 255
2.477243 1.3821825 -0.5250451 0.24553028 0.74259967 -0.62310565 40 40 40 255
2.6039777 1.2809179 -0.036684927 0.8717125 0.37537616 0.31497625 40 40 40 255
2.6039777 1.3543288 -0.23837952 0.87171406 0.4900149 3.7969542e-07 40 40 40 255
2.6039777 1.0950352 0.07063451 0.87171286 0.08509183 0.4825725 40 40 40 255
2.6039777 0.8836571 0.03336283 0.8717124 -0.24500939 0.4243677 40 40 40 255
2.6039777 0.74568987 -0.13106008 0.8717109 -0.4604692 0.16759562 40 40 40 255
2.6039777 0.74568987 -0.345699 0.8717139 -0.4604638 -0.16759442 40 40 40 255
2.6039777 0.8836571 -0.5101219 0.8717121 -0.245009 -0.42436838 40 40 40 255
2.6039777 1.0950352 -0.5473936 0.87171316 0.085091464 -0.48257172 40 40 40 255
2.6039777 1.2809179 -0.44007418 0.87171566 0.37537187 -0.31497258 40 40 40 255
1.8451406 1.3626729 -0.2383796 -0.8988488 0.43825904 -2.7867188e-07 40 40 40 255
1.8451406 1.2873099 -0.031321425 -0.8988495 0.33572528 0.28170562 40 40 40 255
1.8451406 1.0964841 0.07885189 -0.8988508 0.076103 0.43159655 40 40 40 255
1.8451406 0.879485 0.040589083 -0.8988486 -0.21912962 0.37954378 40 40 40 255
1.8451406 0.7378489 -0.12820624 -0.8988489 -0.41182852 0.14989288 40 40 40 255
1.8451406 0.7378489 -0.34855294 -0.8988478 -0.41183096 -0.14989337 40 40 40 255
1.8451406 0.879485 -0.5173483 -0.8988466 -0.21913058 -0.37954792 40 40 40 255
1.8451408 1.0964841 -0.5556111 -0.89884776 0.07610349 -0.43160266 40 40 40 255
1.8451406 1.2873099 -0.44543776 -0.8988485 0.3357269 -0.28170705 40 40 40 255
-0.75870204 0.48777717 -0.31940648 -0.32303315 0.55860907 -0.7639408 85 85 85 255
0.014402331 0.48777717 -0.45281878 -4.9387705e-08 0.48058587 -0.87694764 85 85 85 255
-0.758702 1.1873924 2.1749928 -0.18242745 0.9832194 1.3772889e-08 85 85 85 255
0.01440229 1.1873924 2.2595856 -6.697687e-08 1 5.056612e-15 85 85 85 255
-1.1203848 -0.4213809 -0.23669997 -0.7012856 0.21721947 -0.6789803 85 85 85 255
-1.4965031 0.50659317 1.7731676 -0.6936685 0.71899015 -0.043327514 85 85 85 255
-0.75870204 1.1873924 1.2584474 -0.24893002 0.95976824 -0.12991852 85 85 85 255
0.014402221 1.1873924 1.3438008 1.2105733e-08 0.995107 -0.09880278 85 85 85 255
-1.3998762 0.5065931 1.0487546 -0.7257592 0.6517988 -0.22007228 85 85 85 255
0.014402161 0.99758863 0.5515945 1.15781456e-08 0.93068844 -0.3658129 85 85 85 255
-1.2881407 0.117658235 0.3192838 -0.7910874 0.44229856 -0.42255488 85 85 85 255
-0.7587021 0.99758863 0.4895403 -0.24630128 0.880867 -0.4042389 85 85 85 255
-0.5523637 -2.9577713 -0.4090273 -0.0033047092 -0.008990064 -0.99995416 85 85 85 255
0.014402335 -2.9577713 -0.40902734 -7.549181e-08 -0.012708561 -0.9999192 85 85 85 255
-1.0436199 -0.7984 -0.40902704 0.09290867 0.04871392 -0.9944822 85 85 85 255
0.78750664 0.48777717 -0.3194066 0.32303306 0.55860907 -0.76394075 85 85 85 255
0.7875066 1.1873924 2.174993 0.18242748 0.9832194 -1.377289e-08 85 85 85 255
1.1491894 -0.4213809 -0.23670015 0.70128524 0.21721931 -0.6789806 85 85 85 255
1.5253074 0.50659317 1.7731676 0.69366854 0.71899 -0.04332744 85 85 85 255
0.7875065 1.1873924 1.2584475 0.24893005 0.95976824 -0.12991849 85 85 85 255
1.4286809 0.5065931 1.0487546 0.7257592 0.65179884 -0.22007228 85 85 85 255
1.3169452 0.117658235 0.31928387 0.7910873 0.44229877 -0.42255488 85 85 85 255
0.78750646 0.99758863 0.48954043 0.24630122 0.880867 -0.40423888 85 85 85 255
0.58116806 -2.9577713 -0.40902737 0.0033045053 -0.008990075 -0.99995416 85 85 85 255
1.0724243 -0.7984 -0.40902722 -0.09290887 0.048713904 -0.9944822 85 85 85 255
-0.9159496 1.6302278 -0.35410193 -4.1511303e-08 -1 3.134016e-15 67 65 66 255
-0.9159496 1.6302278 -0.0016453585 -4.9604367e-08 -0.7071241 0.7070895 67 65 66 255
-0.9159496 1.9705548 -0.35410193 -0.0071246335 0.99997455 5.3789484e-10 67 65 66 255
-0.9159496 1.9705548 -0.0016454649 -0.0053900126 0.75672764 0.65370804 67 65 66 255
0.0047585834 1.6302278 -0.354102 2.710442e-08 -1 -2.0463264e-15 67 65 66 255
0.00475861 1.6302278 -0.0016453217 2.3763755e-08 -0.70711607 0.7070976 67 65 66 255
0.0047585834 1.8720353 -0.354102 2.1104897e-08 1 -1.5933754e-15 67 65 66 255
0.00475861 1.8720353 -0.0016453217 3.8256783e-08 0.6434911 0.7654536 67 65 66 255
-2.334115 1.7971716 -0.35410205 -0.17974651 0.98371303 -1.1459563e-07 67 65 66 255
-2.334115 1.6302278 -0.35410205 0 -1 0 67 65 66 255
-2.3341153 1.6302278 -0.0016453578 1.2262688e-08 -0.70708853 0.70712507 67 65 66 255
-2.3341153 1.7971716 -0.0016453578 -0.12765814 0.6986489 0.7039837 67 65 66 255
-2.6171608 1.7264273 -0.35410202 -0.59946835 0.8003984 -2.8463015e-07 67 65 66 255
-2.6171608 1.6302278 -0.35410202 -0.39652967 -0.9180219 2.9937155e-08 67 65 66 255
-2.617161 1.6302278 -0.0016453365 -0.29208046 -0.6762727 0.6762724 67 65 66 255
-2.617161 1.7264273 -0.0016453365 -0.37750065 0.5040334 0.7768163 67 65 66 255
0.9254667 1.6302278 -0.35410205 -6.776195e-08 -1 5.115885e-15 67 65 66 255
0.9254667 1.6302278 -0.0016452849 -7.3311215e-09 -0.70711285 0.70710063 67 65 66 255
0.9254667 1.9705548 -0.35410205 0.007125529 0.99997455 -5.379624e-10 67 65 66 255
0.9254667 1.9705548 -0.0016453912 0.0053892536 0.7567248 0.6537113 67 65 66 255
2.3436317 1.7971716 -0.35410196 0.17974548 0.9837132 -1.3570405e-08 67 65 66 255
2.3436317 1.6302278 -0.35410196 -9.713597e-09 -1 7.3335615e-16 67 65 66 255
2.3436317 1.6302278 -0.0016452856 4.9991908e-08 -0.70709044 0.7071231 67 65 66 255
2.3436317 1.7971716 -0.0016452856 0.12766092 0.69866014 0.70397216 67 65 66 255
2.6266778 1.7264273 -0.354102 0.5994555 0.8004081 -4.5257625e-08 67 65 66 255
2.6266778 1.6302278 -0.354102 0.3965297 -0.9180218 -2.993716e-08 67 65 66 255
2.6266778 1.6302278 -0.0016453069 0.29208043 -0.6762725 0.67627245 67 65 66 255
2.6266778 1.7264273 -0.0016453069 0.37749997 0.50401574 0.7768281 67 65 66 255
-1.9364204 1.1624445 -0.19106384 3.48308e-10 1 1.02642e-05 142 142 142 255
1.9067895 1.1624445 -0.19106391 8.211067e-09 1 -1.0245229e-05 142 142 142 255
-1.9364204 1.019142 -0.27379954 -9.276305e-09 -0.4999915 -0.86603034 142 142 142 255
1.9067895 1.019142 -0.27379954 -2.1329276e-08 -0.50000864 -0.8660204 142 142 142 255
-1.9364207 1.019142 -0.108328216 8.462563e-09 -0.50000864 0.8660204 142 142 142 255
1.9067895 1.019142 -0.10832819 -1.1368477e-09 -0.49999124 0.86603045 142 142 142 255
0.00071327866 -2.3678396 1.358273 7.783143e-08 0.6844242 -0.729084 142 142 142 255
0.0007133174 -1.7862861 1.8718942 -1.9862595e-07 0.97130483 -0.23783806 142 142 142 255
0.08120273 -2.4664187 1.4568526 0.48567596 -0.6367814 0.5988559 142 142 142 255
0.12280257 -1.935814 2.021422 0.35031775 0.030762581 0.9361256 142 142 142 255
-0.0797764 -2.4664187 1.4568526 -0.48567203 -0.63678294 0.59885734 142 142 142 255
-0.12137567 -1.935814 2.021422 -0.3503165 0.030759513 0.9361261 142 142 142 255
0.00071325316 -2.7050123 1.0211006 -5.3385115e-08 0.7071063 -0.70710725 142 142 142 255
0.08120295 -2.8035913 1.1196797 0.48381004 -0.61884123 0.6188403 142 142 142 255
-0.07977643 -2.8035913 1.1196797 -0.48380846 -0.6188418 0.618841 142 142 142 255
-2.0234568 -3.4217124 -0.19106373 0.042639177 0.9990257 -0.011378443 142 142 142 255
-1.392938 -3.4217124 -0.19106378 -2.8086014e-09 0.9993078 -0.037201047 142 142 142 255
-2.0234568 -3.565015 -0.27379945 0.038909707 -0.47673428 -0.87818587 142 142 142 255
-1.392938 -3.565015 -0.24586315 0.016345039 -0.5784561 -0.8155498 142 142 142 255
-2.0234568 -3.565015 -0.108328 0.02226588 -0.487487 0.87284625 142 142 142 255
-1.392938 -3.5612817 -0.12541445 0.012886381 -0.51974386 0.8542249 142 142 142 255
-1.2497747 -3.544671 -0.25689036 0.99999994 -8.091693e-06 4.5635115e-06 142 142 142 255
-1.2497747 -3.2190998 0.2830699 0.97524923 -0.1141702 -0.18935174 142 142 142 255
-1.3930774 -3.6155236 -0.2141694 -0.14222634 -0.84766906 0.5111055 142 142 142 255
-1.3930774 -3.2899523 0.32579097 -0.16532755 -0.82314074 0.54323673 142 142 142 255
-1.3930774 -3.4738183 -0.29961106 -0.14219013 0.8476734 -0.5111084 142 142 142 255
-1.3930774 -3.148247 0.24034898 -0.16535994 0.86463535 -0.47440684 142 142 142 255
-1.1147565 -2.9625692 0.8687557 -0.20331152 -0.7562266 0.62192094 142 142 142 255
-0.99570096 -2.9329002 0.7577317 0.8088463 -0.3036281 -0.503565 142 142 142 255
-1.1147566 -2.820864 0.7833138 -0.20328934 0.9030251 -0.3784431 142 142 142 255
-0.6878729 -2.8078728 1.1253194 -0.16255693 -0.39419296 0.904537 142 142 142 255
-0.68304867 -2.810973 0.9599473 0.35643733 -0.48163486 -0.80061245 142 142 142 255
-0.6868606 -2.6659844 1.0405338 -0.16194098 0.9837336 0.07773801 142 142 142 255
0.70007455 -2.8106635 0.96046233 -0.35533085 -0.4833494 -0.8000709 142 142 142 255
1.2676349 -3.5446715 -0.25689012 -0.99999994 -6.301909e-06 2.8012967e-06 142 142 142 255
1.2676349 -3.2191002 0.28307027 -0.97524905 -0.1141664 -0.18935551 142 142 142 255
1.4109375 -3.6155245 -0.21416909 0.14222723 -0.847669 0.5111053 142 142 142 255
1.4109375 -3.289953 0.32579115 0.16532685 -0.8231407 0.543237 142 142 142 255
1.4109375 -3.473819 -0.2996111 0.14219105 0.84767306 -0.5111086 142 142 142 255
1.4109375 -3.1482475 0.24034919 0.16536029 0.8646347 -0.4744078 142 142 142 255
1.1326165 -2.9625697 0.8687561 0.20330732 -0.75617784 0.6219816 142 142 142 255
1.013561 -2.9329007 0.7577319 -0.8088277 -0.30364153 -0.5035869 142 142 142 255
1.1326164 -2.820864 0.7833141 0.20330463 0.90298784 -0.37852377 142 142 142 255
0.70472115 -2.8073778 1.1257877 0.1619657 -0.39071584 0.9061502 142 142 142 255
0.7057332 -2.6661682 1.0398777 0.16240558 0.9840149 0.07306994 142 142 142 255
-1.2498509 -3.4953604 -0.1750766 0.88331014 5.359762e-06 -0.46878913 142 142 142 255
-1.2498823 1.6739274 -0.1750766 0.99999994 1.0158957e-07 -4.626093e-06 142 142 142 255
-1.3909794 -3.3627572 -0.09234087 -0.03272957 3.5242742e-06 0.9994643 142 142 142 255
-1.3909794 1.6594927 -0.09234087 -0.08220994 0 0.99661505 142 142 142 255
-1.3909794 -3.4617789 -0.2578123 0.18487796 3.4600007e-06 -0.9827615 142 142 142 255
-1.3909794 1.6594927 -0.2578122 -0.08221957 1.8927654e-08 -0.9966143 142 142 142 255
1.2677118 -3.4953604 -0.17507657 0.8833108 -5.3016374e-06 0.46878797 142 142 142 255
1.2677428 1.6739274 -0.17507657 0.99999994 -1.2461874e-07 4.415222e-06 142 142 142 255
1.4088401 -3.3627572 -0.09234087 -0.032729417 -3.486986e-06 -0.9994643 142 142 142 255
1.4088401 1.6594927 -0.09234087 -0.08221034 0 -0.99661505 142 142 142 255
1.4088401 -3.4617789 -0.25781244 0.18487869 -3.422304e-06 0.9827614 142 142 142 255
1.4088401 1.6594927 -0.25781223 -0.08221959 -4.731907e-08 0.99661416 142 142 142 255
2.041317 -3.4217124 -0.1910638 -0.042639267 0.9990257 -0.011378372 142 142 142 255
1.4107982 -3.4217124 -0.19106376 -2.8085942e-09 0.9993078 -0.037200958 142 142 142 255
2.041317 -3.565015 -0.27379954 -0.03890964 -0.47673416 -0.8781859 142 142 142 255
1.4107982 -3.565015 -0.24586315 -0.016345195 -0.578456 -0.8155498 142 142 142 255
2.041317 -3.565015 -0.1083281 -0.022265755 -0.48748705 0.8728463 142 142 142 255
1.4107982 -3.5612817 -0.12541445 -0.0128864385 -0.51974386 0.8542249 142 142 142 255
-1.6942062 -2.473905 -0.1747948 -0.06154406 -0.816887 0.5735049 142 142 142 255
-0.8904842 -2.473878 -0.47400135 0.041417323 -0.95646185 0.28890383 142 142 142 255
-1.6921947 -2.3103135 -0.17500554 0.3223807 0.5127542 0.79570967 142 142 142 255
-0.87921226 -2.2991817 -0.47718546 0.0038421387 0.96206385 0.27279708 142 142 142 255
-1.6940002 -2.394183 -0.31764728 -0.33219877 -0.16024482 -0.9294975 142 142 142 255
-0.90491855 -2.3941824 -0.60987127 -0.13669734 -0.06421508 -0.9885294 142 142 142 255
0.8905643 -2.463095 -0.47381988 -0.036499415 -0.94080085 0.33698887 142 142 142 255
-0.0034179739 -2.362464 -0.6105565 0.008312566 0.12938598 -0.99155945 142 142 142 255
-1.8818835 -2.3584318 -0.16506204 -0.38836443 -0.4436605 0.80767477 142 142 142 255
-1.8588809 -2.2995222 -0.31593642 -0.104210466 0.034900732 -0.99394274 142 142 142 255
-1.979911 -2.135208 -0.16570489 -0.14539692 -0.18514167 0.97189623 142 142 142 255
-1.8449343 -2.1452086 -0.18283309 0.6246484 0.17814226 0.7603156 142 142 142 255
-1.7894135 -1.9518238 -0.17256616 0.8018671 -0.11935342 0.5854603 142 142 142 255
-1.9881465 -2.0955834 -0.309171 0.37719655 -0.063650064 -0.9239434 142 142 142 255
-1.9868214 -1.2292073 -0.0656564 0.115213946 1.8023334e-07 0.99334073 142 142 142 255
-1.8243448 -1.2292075 -0.08450148 0.65182 -1.9188622e-07 0.7583737 142 142 142 255
-1.9873167 -1.2292073 -0.21653059 0.61545753 -2.5114915e-08 -0.7881701 142 142 142 255
1.7976909 -2.4314458 -0.1574741 0.14462091 -0.73637336 0.6609381 142 142 142 255
1.6853591 -2.3103137 -0.17500548 -0.37885556 0.47564244 0.79387194 142 142 142 255
0.8980831 -2.3103135 -0.47419605 -0.004193183 0.9520232 0.30599707 142 142 142 255
1.6871645 -2.3941839 -0.3176471 0.2912299 -0.2606953 -0.92044723 142 142 142 255
0.8980831 -2.394183 -0.6098714 0.13262442 -0.06753015 -0.9888632 142 142 142 255
1.8520454 -2.2995224 -0.3159363 0.119640626 0.07332218 -0.990106 142 142 142 255
1.973075 -2.135208 -0.16570488 0.14752218 -0.19264567 0.9701159 142 142 142 255
1.8380984 -2.1452081 -0.18283305 -0.63659626 0.21916634 0.73939925 142 142 142 255
1.7825775 -1.9518241 -0.1725661 -0.81317407 -0.11939263 0.569643 142 142 142 255
1.9912208 -2.0955837 -0.30917063 -0.3629075 -0.06458888 -0.929584 142 142 142 255
1.9799852 -1.2292078 -0.06565639 -0.11521284 -1.852397e-07 0.99334085 142 142 142 255
1.8175082 -1.2292075 -0.084501326 -0.66275626 1.9737811e-07 0.74883527 142 142 142 255
1.9903902 -1.2292075 -0.21653068 -0.593199 -8.847418e-08 -0.80505586 142 142 142 255
-1.6942062 0.015490838 -0.17479458 -0.05899827 0.8202398 0.568969 142 142 142 255
-1.6921947 -0.14810157 -0.17500532 0.32281116 -0.5124117 0.7957556 142 142 142 255
-0.87921226 -0.15923327 -0.47862142 0.0028426724 -0.9616575 0.27423856 142 142 142 255
-1.6940002 -0.064231545 -0.31764728 -0.32773566 0.16834441 -0.9296502 142 142 142 255
-0.90491855 -0.06423218 -0.61130744 -0.13540371 0.09160871 -0.9865464 142 142 142 255
-0.89739984 0.0046797134 -0.47525594 0.047838133 0.9485719 0.31292614 142 142 142 255
-0.0034179739 -0.095950924 -0.61199266 0.001344995 -0.12938985 -0.99159294 142 142 142 255
-1.8818835 -0.09998289 -0.16506204 -0.38836578 0.44366044 0.8076741 142 142 142 255
-1.8588809 -0.15889302 -0.31593642 -0.104210265 -0.03490351 -0.9939426 142 142 142 255
-1.979911 -0.32320687 -0.16570479 -0.1453977 0.18514103 0.9718963 142 142 142 255
-1.8449342 -0.3132066 -0.18283278 0.6246463 -0.1781414 0.76031744 142 142 142 255
-1.7894135 -0.5065913 -0.17256594 0.8018666 0.11935317 0.58546126 142 142 142 255
-1.9881465 -0.36283112 -0.30917078 0.3771966 0.06364886 -0.92394346 142 142 142 255
1.6873704 0.015491263 -0.17479475 0.05911341 0.8173434 0.5731101 142 142 142 255
0.8836482 0.015463618 -0.47543743 -0.036828075 0.95445037 0.29608804 142 142 142 255
1.6853596 -0.14810126 -0.17500527 -0.32738677 -0.5116771 0.7943579 142 142 142 255
0.8980831 -0.14810179 -0.47563222 -0.009477395 -0.95659643 0.29126185 142 142 142 255
1.6871649 -0.064231545 -0.3176471 0.33002934 0.154962 -0.93116456 142 142 142 255
0.8980831 -0.06423197 -0.61130756 0.1348694 0.040187683 -0.99004805 142 142 142 255
1.8750477 -0.09998289 -0.16506201 0.38836515 0.44365987 0.80767477 142 142 142 255
1.8520457 -0.1588926 -0.3159361 0.10389269 -0.035151955 -0.9939672 142 142 142 255
1.973075 -0.32320666 -0.16570488 0.1442203 0.1917692 0.97078574 142 142 142 255
1.8380984 -0.31320682 -0.18283272 -0.63146037 -0.19006991 0.7517521 142 142 142 255
1.782577 -0.5065908 -0.172566 -0.81317306 0.11939299 0.5696444 142 142 142 255
1.9912208 -0.36283132 -0.30917042 -0.36290774 0.06458891 -0.92958385 142 142 142 255
-0.9855975 -5.1529202 -0.2048621 -0.0665596 -0.73279935 0.6771816 184 2 125 255
-0.9855975 -4.9679832 -0.0047360724 -0.09112935 -0.4810069 0.8719678 184 2 125 255
-0.9855975 -4.74428 -0.2048621 -0.04014618 0.8771984 -0.4784467 184 2 125 255
-0.9855975 -4.635126 -0.0047360724 -0.22985278 0.808642 0.54154027 184 2 125 255
0.0144023495 -5.1529202 -0.2048621 3.5020086e-08 -0.72268695 0.69117546 184 2 125 255
0.014402365 -4.9578195 -0.004736068 0.016688617 -0.557747 0.8298432 184 2 125 255
0.01440238 -4.6507497 0.19551966 -1.3333442e-07 -0.54859585 0.83608764 184 2 125 255
-1.4115293 -4.6507497 -0.2048621 0.27828497 0.8100165 -0.51616937 184 2 125 255
-1.4115293 -5.063386 -0.2048621 -0.19184095 -0.71965164 0.66730696 184 2 125 255
-1.4115293 -4.917014 -0.047356006 -0.1680636 -0.41754302 0.89297956 184 2 125 255
-1.4115293 -4.5415955 -0.047356006 0.22881912 0.71659625 0.65888673 184 2 125 255
-0.45715338 -4.509146 0.18228349 -0.4148321 -0.31777442 0.85260403 184 2 125 255
-0.5899191 -4.595943 -0.2048621 -0.65124464 0.75016457 -0.11460147 184 2 125 255
-0.51445335 -4.074948 0.4388255 -0.51992536 -0.40180892 0.75380844 184 2 125 255
0.014402409 -4.074948 0.57758194 1.528851e-08 -0.48292854 0.87565976 184 2 125 255
-0.806134 -4.074948 -0.41715357 -0.9337229 -0.14093909 0.32908627 184 2 125 255
-1.9101892 -4.376451 -0.2048621 0.41260633 0.7302412 -0.54452175 184 2 125 255
-1.9101892 -4.8786225 -0.2048621 -0.34632534 -0.6588643 0.6677998 184 2 125 255
-1.927201 -4.728996 -0.072698355 -0.28454867 -0.3046314 0.9089729 184 2 125 255
-1.927201 -4.2666063 -0.072698355 0.22181149 0.6888405 0.6901437 184 2 125 255
-2.3796494 -4.110985 -0.2048621 -0.18350203 0.9644331 -0.19025227 184 2 125 255
-2.3796494 -4.350539 -0.2048621 -0.66931486 -0.41591623 0.61565506 184 2 125 255
-2.3796494 -4.256867 -0.14509022 -0.52769506 -0.06608312 0.8468595 184 2 125 255
-2.3796494 -4.110985 -0.14509022 -0.18554558 0.8421271 0.50635445 184 2 125 255
-0.4345445 -3.5979626 0.6901497 -0.490831 -0.46323067 0.737904 184 2 125 255
0.014402428 -3.5979626 0.8289062 -5.0360953e-08 -0.42942944 0.90310043 184 2 125 255
-0.8271465 -3.6067095 -0.41715357 -0.91215795 -0.2548033 0.32100326 184 2 125 255
-0.86690474 -2.9663856 0.8838796 -0.392828 0.6043584 0.69313574 184 2 125 255
0.014402443 -2.9663856 1.022636 -3.2418853e-07 0.52281934 0.8524435 184 2 125 255
0.014402334 -2.9663856 -0.41715357 6.548391e-08 1 -4.9438975e-15 184 2 125 255
-1.1632384 -2.9663856 -0.41715357 -0.5026393 0.84991956 0.1580841 184 2 125 255
1.0144023 -5.1529202 -0.2048621 0.06656043 -0.7327993 0.67718154 184 2 125 255
1.0144023 -4.9679832 -0.004736064 0.06542208 -0.4147858 0.9075641 184 2 125 255
1.0144023 -4.74428 -0.2048621 0.040146135 0.87719846 -0.47844654 184 2 125 255
1.0144023 -4.635126 -0.004736064 0.15611985 0.7111863 0.68544924 184 2 125 255
1.4403343 -4.6507497 -0.2048621 -0.27828476 0.8100166 -0.5161693 184 2 125 255
1.4403343 -5.063386 -0.2048621 0.19184138 -0.7196516 0.6673069 184 2 125 255
1.4403343 -4.917014 -0.04735601 0.16806364 -0.417543 0.8929795 184 2 125 255
1.4403343 -4.5415955 -0.04735601 -0.22881947 0.71659553 0.6588874 184 2 125 255
0.48595822 -4.509146 0.18228354 0.42952755 -0.39899626 0.8101285 184 2 125 255
0.6187239 -4.595943 -0.20486209 0.6512445 0.75016475 -0.114601664 184 2 125 255
0.5432581 -4.074948 0.4388255 0.5199252 -0.40180904 0.7538086 184 2 125 255
0.8349388 -4.074948 -0.41715357 0.9337228 -0.14093904 0.32908663 184 2 125 255
1.9389938 -4.376451 -0.2048621 -0.41260672 0.73024094 -0.5445217 184 2 125 255
1.9389938 -4.8786225 -0.2048621 0.34632573 -0.65886444 0.66779953 184 2 125 255
1.9560057 -4.728996 -0.07269836 0.2845489 -0.30463144 0.90897286 184 2 125 255
1.9560057 -4.2666063 -0.07269836 -0.22181174 0.68884027 0.6901439 184 2 125 255
2.4084542 -4.110985 -0.20486209 0.18350193 0.9644331 -0.19025224 184 2 125 255
2.4084542 -4.350539 -0.20486209 0.6693146 -0.41591668 0.6156552 184 2 125 255
2.4084542 -4.256867 -0.14509021 0.52769476 -0.06608321 0.84685963 184 2 125 255
2.4084542 -4.110985 -0.14509021 0.18554544 0.842127 0.50635463 184 2 125 255
0.46334934 -3.5979626 0.6901497 0.49083102 -0.4632305 0.7379041 184 2 125 255
0.8559513 -3.6067095 -0.41715357 0.9121579 -0.25480327 0.32100353 184 2 125 255
0.8957096 -2.9663856 0.88387966 0.39282757 0.60435843 0.69313586 184 2 125 255
1.1920432 -2.9663856 -0.41715357 0.5026393 0.84991956 0.15808396 184 2 125 255
-2.5200999 -2.0561109 -0.3800677 -0.97737473 -0.2115149 7.3789735e-08 184 2 125 255
-2.5200999 -2.0561109 0.014477243 -0.5875208 -0.12523763 0.7994591 184 2 125 255
-2.5200999 -0.056111477 -0.3800677 -0.99999994 0 7.549789e-08 184 2 125 255
-2.5200999 -0.056111477 0.014477243 -0.5892449 -0.023872128 0.80760175 184 2 125 255
-1.9557973 -2.0561109 -0.3800677 0.99999994 0 -7.549789e-08 184 2 125 255
-1.9557973 -2.0561109 0.14122427 0.24680445 -0.04113885 0.9681917 184 2 125 255
-1.9557973 -0.056111477 -0.3800677 0.83224386 0.5544098 -6.283266e-08 184 2 125 255
-1.9557973 -0.056111477 0.14122427 0.2738473 0.2670214 0.9239628 184 2 125 255
-2.5200999 0.11631574 0.014477243 -0.6437324 0 0.7652507 184 2 125 255
-2.5200999 0.11631574 -0.3800677 -0.99999994 0 7.549789e-08 184 2 125 255
-2.2913873 0.17491758 -0.3800677 0.80232817 0.5968831 -6.057409e-08 184 2 125 255
-2.2913873 0.17491758 0.08531291 0.13751625 0.3041263 0.9426539 184 2 125 255
-2.5200999 0.3935665 0.014477243 -0.5932648 0.42375153 0.68444973 184 2 125 255
-2.5200999 0.3935665 -0.3800677 -0.77249026 0.63502675 5.8321387e-08 184 2 125 255
-2.3364656 0.49117696 -0.3800677 0.1372807 0.99053216 -1.0364403e-08 184 2 125 255
-2.3364656 0.49117696 0.049400568 0.09782969 0.79889965 0.59345484 184 2 125 255
-2.3248146 -2.5033705 -0.3800677 -0.8664773 -0.49921635 6.541721e-08 184 2 125 255
-2.3248146 -2.5033705 0.014477254 -0.58558875 -0.31417698 0.7472473 184 2 125 255
-1.9557973 -2.5033705 0.11868365 0.21916248 -0.12193959 0.96803856 184 2 125 255
-1.9557973 -2.5033705 -0.3800677 0.9999652 -0.0083429115 -7.549527e-08 184 2 125 255
-2.1803381 -2.70411 -0.38006768 -0.30308005 -0.9529651 2.2881904e-08 184 2 125 255
-2.1803381 -2.70411 0.014477244 -0.31074923 -0.8456692 0.4339107 184 2 125 255
-1.9591471 -2.70411 0.07771973 0.19188511 -0.664067 0.72263074 184 2 125 255
-1.9591471 -2.70411 -0.3800677 0.39412057 -0.9190588 -2.9755272e-08 184 2 125 255
2.520587 -2.0561109 -0.38006768 0.97737485 -0.21151444 -7.378974e-08 184 2 125 255
2.520587 -2.0561109 0.014477261 0.5875208 -0.12523733 0.79945916 184 2 125 255
2.520587 -0.056111477 -0.38006768 0.99999994 0 -7.549789e-08 184 2 125 255
2.520587 -0.056111477 0.014477261 0.58924484 -0.02387206 0.80760175 184 2 125 255
1.9562848 -2.0561109 -0.38006768 -0.99999994 0 7.549789e-08 184 2 125 255
1.9562848 -2.0561109 0.14122425 -0.24680437 -0.04113875 0.9681917 184 2 125 255
1.9562848 -0.056111477 -0.38006768 -0.832244 0.55440956 6.283267e-08 184 2 125 255
1.9562848 -0.056111477 0.14122425 -0.27384722 0.26702124 0.92396283 184 2 125 255
2.520587 0.11631574 0.014477261 0.6437323 0 0.76525074 184 2 125 255
2.520587 0.11631574 -0.38006768 0.99999994 0 -7.549789e-08 184 2 125 255
2.2918744 0.17491758 -0.38006768 -0.8023284 0.5968828 6.05741e-08 184 2 125 255
2.2918744 0.17491758 0.08531289 -0.13751629 0.304126 0.942654 184 2 125 255
2.520587 0.3935665 0.014477261 0.5932647 0.4237519 0.68444955 184 2 125 255
2.520587 0.3935665 -0.38006768 0.7724899 0.63502705 -5.832136e-08 184 2 125 255
2.3369524 0.49117696 -0.38006768 -0.13728093 0.99053216 1.0364421e-08 184 2 125 255
2.3369524 0.49117696 0.04940056 -0.097829394 0.79889995 0.59345454 184 2 125 255
2.3253024 -2.5033705 -0.38006768 0.86647743 -0.49921614 -6.541722e-08 184 2 125 255
2.3253024 -2.5033705 0.014477248 0.5855889 -0.3141765 0.74724746 184 2 125 255
1.9562848 -2.5033705 0.11868367 -0.21916242 -0.121939406 0.9680386 184 2 125 255
1.9562848 -2.5033705 -0.38006768 -0.9999652 -0.008342299 7.549527e-08 184 2 125 255
2.1808257 -2.70411 -0.3800677 0.30307978 -0.9529652 -2.2881887e-08 184 2 125 255
2.1808257 -2.70411 0.0144772595 0.310749 -0.8456691 0.4339111 184 2 125 255
1.9596343 -2.70411 0.077719755 -0.1918855 -0.66406715 0.7226304 184 2 125 255
1.9596343 -2.70411 -0.38006768 -0.39412075 -0.9190586 2.9755288e-08 184 2 125 255
-1.2076297 0.9275354 -0.053542726 -0.35708314 -0.9188858 0.16775116 184 2 125 255
-1.2076297 1.0001758 0.34435764 -0.41686997 -0.90526414 0.08195283 184 2 125 255
-1.2076297 1.603719 -0.053542726 -0.32224035 0.8947178 0.309259 184 2 125 255
-1.2076297 1.4661849 0.34435764 -0.64316183 0.7085006 -0.2904648 184 2 125 255
1.2171469 0.9275354 -0.053542737 0.3570992 -0.91887987 0.16775003 184 2 125 255
1.2171469 1.0001758 0.34435767 0.41685838 -0.90526927 0.08195475 184 2 125 255
1.2171469 1.603719 -0.053542737 0.32225475 0.8947133 0.30925742 184 2 125 255
1.2171469 1.4661849 0.34435767 0.6431431 0.70851517 -0.29047072 184 2 125 255
-1.2076297 1.0001758 0.39066738 -0.335 -0.88142323 0.33296865 184 2 125 255
-1.2076297 1.8485438 0.53372914 -0.31215167 0.8071993 -0.5009897 184 2 125 255
1.2171469 1.8485438 0.5337291 0.31216002 0.80720323 -0.50097823 184 2 125 255
1.2171469 1.0001758 0.39066735 0.33501014 -0.88142216 0.33296132 184 2 125 255
-1.2076297 1.2262944 0.6472415 -0.32693067 -0.38896832 0.86128974 184 2 125 255
-1.2076297 1.8485438 0.6472415 -0.292093 0.6762718 0.67626774 184 2 125 255
1.2171469 1.8485438 0.6472414 0.29209095 0.6762735 0.6762671 184 2 125 255
1.2171469 1.2262944 0.6472414 0.32692403 -0.38898048 0.86128676 184 2 125 255
1.1427453 -1.7472807 1.7082665 0.95736104 0.18540244 -0.22155285 40 40 40 255
1.0146421 -1.6271442 1.846273 0.18814847 0.76403826 0.61712694 40 40 40 255
0.80736715 -1.7099177 1.8376365 -0.61761063 0.50620484 0.60192513 40 40 40 255
0.80736715 -1.8812109 1.6942924 -0.6176122 -0.68172336 -0.39218423 40 40 40 255
1.0146421 -1.9043028 1.6143374 0.18814799 -0.7421412 -0.64329374 40 40 40 255
0.51806796 -1.2407144 1.1029291 0.26118463 0.6194906 -0.7402796 40 40 40 255
0.4606648 -1.17791 1.3094466 0.17497168 0.9425823 0.28447077 40 40 40 255
0.3677848 -1.3534492 1.4116633 -0.24589261 0.16736032 0.9547394 40 40 40 255
0.36778477 -1.5247425 1.2683192 -0.24589668 -0.96928954 0.0035629428 40 40 40 255
0.4606648 -1.4550687 1.0775111 0.17497163 -0.44616538 -0.8776796 40 40 40 255
-0.48853514 -1.2383095 1.1000551 -0.25557277 0.62045354 -0.741431 40 40 40 255
-0.43201253 -1.1757772 1.3068979 -0.17280826 0.9443295 0.27996248 40 40 40 255
-0.34055734 -1.3517569 1.4096409 0.24115412 0.16696772 0.95601594 40 40 40 255
-0.34055737 -1.5230502 1.2662969 0.24116068 -0.9704762 0.0041605476 40 40 40 255
-0.43201253 -1.4529359 1.0749625 -0.17280835 -0.44203606 -0.8801939 40 40 40 255
-1.1190717 -1.7418767 1.7018089 -0.9544867 0.1914091 -0.22873028 40 40 40 255
-0.99118626 -1.6223518 1.8405464 -0.18848257 0.7644951 0.6164589 40 40 40 255
-0.78426313 -1.7061146 1.8330923 0.6168323 0.5030107 0.60539085 40 40 40 255
-0.78426313 -1.8774083 1.6897483 0.6168354 -0.68457097 -0.38842836 40 40 40 255
-0.99118626 -1.8995105 1.6086106 -0.18848178 -0.7415642 -0.6438611 40 40 40 255
-0.89873534 -2.3722198 2.4550571 -0.6553078 -0.4847665 0.57928675 40 40 40 255
-0.79578704 -2.1813536 2.5085433 -0.21536429 0.6634705 0.7165368 40 40 40 255
-0.6292134 -2.1496844 2.36315 0.50454223 0.8495054 0.15419991 40 40 40 255
-0.6292134 -2.3209777 2.219806 0.50453734 -0.30152607 -0.80902666 40 40 40 255
-0.79578704 -2.4585123 2.2766075 -0.21536432 -0.8222668 -0.52677846 40 40 40 255
0.0065571475 -2.6546779 2.7925894 -0.0017769333 -0.6417658 0.7668987 40 40 40 255
0.0070460564 -2.4318433 2.807874 -0.0015430587 0.312856 0.94979936 40 40 40 255
0.007836763 -2.3484485 2.6006699 0.0017815876 0.9999467 0.010171699 40 40 40 255
0.007836752 -2.5197423 2.4573257 0.0017813789 -0.18627888 -0.98249525 40 40 40 255
0.007046039 -2.7090023 2.5759385 -0.0015427017 -0.99007446 -0.1405359 40 40 40 255
0.9151011 -2.376554 2.4602368 0.6487177 -0.48840368 0.5836329 40 40 40 255
0.81276214 -2.185197 2.5131364 0.21570456 0.6611188 0.71860516 40 40 40 255
0.64717484 -2.1527343 2.3667946 -0.50134045 0.8520934 0.15031484 40 40 40 255
0.64717484 -2.3240278 2.2234504 -0.50133425 -0.29815942 -0.8122591 40 40 40 255
0.81276214 -2.4623559 2.281201 0.21570484 -0.8238886 -0.5240983 40 40 40 255
-0.1191844 -2.5209877 2.637185 4.8504628e-08 0.7663166 0.6424632 186 186 186 255
0.12157494 -2.5209877 2.637185 4.8504628e-08 0.7663166 0.6424632 186 186 186 255
-0.11918444 -2.0519798 2.0777621 4.8517837e-08 0.7661698 0.6426382 186 186 186 255
0.12157489 -2.0519798 2.0777621 4.8517855e-08 0.7661696 0.6426384 186 186 186 255
-0.24548997 -1.9202104 1.9207257 -0.0033583387 0.76744026 0.64111155 186 186 186 255
0.24988675 -1.9202104 1.9207257 0.0023365638 0.76707894 0.6415484 186 186 186 255
-0.13718545 -1.7955456 1.772008 -0.008091552 0.76730704 0.64122874 186 186 186 255
0.1415822 -1.7955456 1.772008 0.005414775 0.76642525 0.64231074 186 186 186 255
-0.76953286 -1.7271702 1.6756208 -0.016605536 0.7608708 0.648691 186 186 186 255
-0.6398714 -1.6112083 1.544498 -0.0175591 0.75752383 0.6525713 186 186 186 255
0.64851594 -1.6150846 1.5534743 0.0120132305 0.7571616 0.6531172 186 186 186 255
0.8208249 -1.7323141 1.6862096 0.0112327635 0.76041704 0.64933795 186 186 186 255
2.063168 -3.046443 -0.23837957 0.28953248 -0.9571681 -7.0530614e-06 40 40 40 255
2.3611364 -3.046443 -0.23837957 -0.28228402 -0.95933086 7.0542046e-06 40 40 40 255
2.063168 -3.1507807 0.04828597 0.28953806 -0.7332283 -0.6152592 40 40 40 255
2.3611364 -3.1507807 0.048286002 -0.2822967 -0.73489165 -0.61663824 40 40 40 255
2.063168 -3.4149733 0.20081753 0.28953838 -0.16620414 -0.942626 40 40 40 255
2.3611364 -3.4149733 0.20081754 -0.28229034 -0.16659066 -0.9447538 40 40 40 255
2.063168 -3.7154014 0.14784387 0.2895442 0.478581 -0.82892966 40 40 40 255
2.3611364 -3.7154014 0.1478439 -0.28227788 0.47966588 -0.8308068 40 40 40 255
2.063168 -3.9114926 -0.08584802 0.28953743 0.89943945 -0.32737857 40 40 40 255
2.3611364 -3.9114926 -0.08584799 -0.28229678 0.9014749 -0.32810298 40 40 40 255
2.063168 -3.9114926 -0.39091113 0.28953862 0.89944196 0.32737076 40 40 40 255
2.3611364 -3.9114926 -0.3909111 -0.2822952 0.9014725 0.32811123 40 40 40 255
2.063168 -3.7154014 -0.62460303 0.2895384 0.47857574 0.8289347 40 40 40 255
2.3611364 -3.7154014 -0.62460303 -0.2822838 0.47967118 0.8308016 40 40 40 255
2.063168 -3.4149733 -0.6775767 0.28953838 -0.16621825 0.94262344 40 40 40 255
2.3611364 -3.4149733 -0.67757666 -0.28229034 -0.16657725 0.9447562 40 40 40 255
2.063168 -3.1507807 -0.52504516 0.28953832 -0.7332373 0.61524844 40 40 40 255
2.3611364 -3.1507807 -0.52504516 -0.2822964 -0.73488253 0.61664927 40 40 40 255
2.432363 -3.2520454 -0.036684927 -0.95108473 -0.23665456 -0.1985765 40 40 40 255
2.432363 -3.1786344 -0.23837954 -0.95108485 -0.30892983 1.4380623e-07 40 40 40 255
2.432363 -3.4379277 0.07063449 -0.95108527 -0.05364482 -0.3042353 40 40 40 255
2.432363 -3.6493063 0.033362817 -0.9510856 0.15446362 -0.2675388 40 40 40 255
2.432363 -3.7872734 -0.1310601 -0.9510845 0.29030028 -0.10565995 40 40 40 255
2.432363 -3.7872734 -0.345699 -0.9510845 0.29030013 0.10566073 40 40 40 255
2.432363 -3.6493063 -0.51012194 -0.9510846 0.15446515 0.26754168 40 40 40 255
2.432363 -3.4379277 -0.5473936 -0.95108414 -0.053645417 0.3042388 40 40 40 255
2.432363 -3.2520454 -0.44007415 -0.95108485 -0.23665407 0.19857638 40 40 40 255
2.005887 -3.1702902 -0.23837958 0.96301174 -0.26945964 -8.249849e-09 40 40 40 255
2.005887 -3.2456534 -0.031321414 0.9630116 -0.20641844 -0.17320491 40 40 40 255
2.005887 -3.4364793 0.07885191 0.96301174 -0.046791628 -0.26536578 40 40 40 255
2.005887 -3.6534786 0.040589094 0.9630109 0.13473094 -0.23336156 40 40 40 255
2.005887 -3.7951145 -0.12820624 0.9630113 0.25321022 -0.09216191 40 40 40 255
2.005887 -3.7951145 -0.34855294 0.963011 0.25321162 0.092161715 40 40 40 255
2.005887 -3.6534786 -0.5173483 0.96301144 0.1347298 0.23336014 40 40 40 255
2.005887 -3.4364793 -0.5556111 0.96301246 -0.046791196 0.26536348 40 40 40 255
2.005887 -3.2456534 -0.44543773 0.96301186 -0.20641793 0.1732044 40 40 40 255
-2.0626812 -3.046443 -0.23837958 0.2895326 0.9571681 7.067522e-06 40 40 40 255
-2.3606496 -3.046443 -0.23837955 -0.28228405 0.9593309 -6.940277e-06 40 40 40 255
-2.0626812 -3.1507807 0.04828599 0.28953823 0.7332281 0.6152595 40 40 40 255
-2.3606496 -3.1507807 0.048286013 -0.2822902 0.7348942 0.6166383 40 40 40 255
-2.0626812 -3.4149733 0.20081753 0.2895383 0.16620418 0.942626 40 40 40 255
-2.3606496 -3.4149733 0.20081756 -0.28229 0.16659401 0.9447533 40 40 40 255
-2.0626812 -3.7154014 0.14784388 0.28953835 -0.47858793 0.8289277 40 40 40 255
-2.3606496 -3.7154014 0.14784391 -0.28229022 -0.47965682 0.83080786 40 40 40 255
-2.0626812 -3.9114926 -0.085848026 0.289544 -0.8994429 0.32736334 40 40 40 255
-2.3606496 -3.9114926 -0.085848 -0.2822964 -0.9014703 0.32811603 40 40 40 255
-2.0626812 -3.9114926 -0.39091116 0.28953817 -0.89943933 -0.32737842 40 40 40 255
-2.3606496 -3.9114926 -0.39091113 -0.2822902 -0.9014762 -0.32810494 40 40 40 255
-2.0626812 -3.7154014 -0.62460303 0.2895383 -0.4785754 -0.8289349 40 40 40 255
-2.3606496 -3.7154014 -0.62460303 -0.28229028 -0.47966856 -0.8308009 40 40 40 255
-2.0626812 -3.4149733 -0.67757666 0.2895382 0.16621813 -0.9426236 40 40 40 255
-2.3606496 -3.4149733 -0.67757666 -0.28228384 0.1665789 -0.94475776 40 40 40 255
-2.0626812 -3.1507807 -0.5250451 0.28953812 0.73323715 -0.6152486 40 40 40 255
-2.3606496 -3.1507807 -0.5250451 -0.28229636 0.7348828 -0.616649 40 40 40 255
-2.431876 -3.2520454 -0.03668495 -0.95108485 0.23665431 0.19857578 40 40 40 255
-2.431876 -3.1786344 -0.23837955 -0.951085 0.30892953 4.7804463e-08 40 40 40 255
-2.431876 -3.4379277 0.070634514 -0.9510846 0.05364633 0.304237 40 40 40 255
-2.431876 -3.6493063 0.033362836 -0.9510855 -0.1544634 0.26753935 40 40 40 255
-2.431876 -3.7872734 -0.13106011 -0.9510845 -0.2903003 0.10566008 40 40 40 255
-2.431876 -3.7872734 -0.345699 -0.95108455 -0.29030007 -0.105660684 40 40 40 255
-2.431876 -3.6493063 -0.51012194 -0.95108455 -0.1544647 -0.26754218 40 40 40 255
-2.431876 -3.4379277 -0.54739356 -0.95108396 0.05364572 -0.3042392 40 40 40 255
-2.431876 -3.2520454 -0.44007418 -0.9510845 0.23665504 -0.19857702 40 40 40 255
-2.0054002 -3.1702902 -0.23837958 0.9630119 0.2694591 -6.733408e-08 40 40 40 255
-2.0054002 -3.2456534 -0.03132143 0.96301174 0.20641802 0.1732054 40 40 40 255
-2.0054002 -3.4364793 0.078851916 0.96301174 0.04679155 0.2653659 40 40 40 255
-2.0054002 -3.6534786 0.040589105 0.96301115 -0.13473082 0.23336056 40 40 40 255
-2.0054002 -3.7951145 -0.12820624 0.96301144 -0.25321025 0.092160515 40 40 40 255
-2.0054002 -3.7951145 -0.34855294 0.9630114 -0.25321028 -0.09216149 40 40 40 255
-2.0054002 -3.6534786 -0.51734823 0.96301174 -0.13472961 -0.23335887 40 40 40 255
-2.0054002 -3.4364793 -0.5556111 0.96301234 0.04679115 -0.2653636 40 40 40 255
-2.0054002 -3.2456534 -0.44543776 0.96301186 0.20641756 -0.17320521 40 40 40 255
3 1 2 0
3 3 4 2
3 5 6 4
3 7 8 6
3 9 10 8
3 11 12 10
3 13 14 12
3 17 19 1
3 15 16 14
3 17 0 16
3 14 33 12
3 19 23 21
3 15 26 17
3 13 25 15
3 11 24 13
3 9 23 11
3 9 21 22
3 1 18 3
3 7 20 21
3 5 18 20
3 28 32 34
3 12 32 10
3 10 31 8
3 8 30 6
3 2 27 0
3 6 29 4
3 2 29 28
3 0 35 16
3 16 34 14
3 38 37 36
3 40 39 38
3 40 43 41
3 42 45 43
3 46 45 44
3 46 49 47
3 48 51 49
3 55 53 37
3 52 51 50
3 36 53 52
3 48 70 50
3 56 60 62
3 62 51 53
3 61 49 51
3 49 59 47
3 59 45 47
3 58 43 45
3 39 55 37
3 43 56 41
3 41 54 39
3 71 67 65
3 46 69 48
3 67 46 44
3 42 67 44
3 63 38 36
3 65 42 40
3 64 40 38
3 52 63 36
3 50 71 52
3 72 81 73
3 72 82 83
3 74 79 78
3 77 78 80
3 78 81 83
3 80 83 82
3 72 86 76
3 73 84 72
3 87 81 94
3 87 93 89
3 79 88 91
3 91 90 92
3 81 91 94
3 94 92 93
3 87 96 95
3 73 95 85
3 97 107 106
3 100 103 99
3 101 98 97
3 104 98 102
3 98 108 107
3 99 108 100
3 111 109 110
3 108 109 112
3 107 110 106
3 107 112 111
3 118 114 113
3 103 116 115
3 113 102 101
3 104 114 116
3 114 120 116
3 116 117 115
3 121 123 122
3 124 117 120
3 122 119 118
3 119 124 120
3 126 127 125
3 128 129 127
3 130 125 129
3 131 134 133
3 134 135 133
3 134 132 136
3 136 131 135
3 131 139 135
3 135 138 133
3 131 138 137
3 140 143 142
3 143 144 142
3 145 140 144
3 147 148 146
3 149 150 148
3 147 154 153
3 151 146 150
3 154 156 153
3 149 154 151
3 147 152 149
3 152 157 154
3 152 156 155
3 160 159 161
3 162 161 163
3 160 166 167
3 164 163 159
3 167 166 158
3 162 164 167
3 160 162 165
3 167 169 168
3 165 168 158
3 168 156 158
3 168 169 157
3 147 149 148
3 149 151 150
3 147 151 154
3 151 147 146
3 154 157 156
3 149 152 154
3 147 153 152
3 152 155 157
3 152 153 156
3 158 156 157
3 157 169 158
3 160 161 162
3 162 163 164
3 160 167 164
3 164 159 160
3 167 158 169
3 162 167 165
3 160 165 166
3 167 168 165
3 165 158 166
3 168 155 156
3 157 155 168
3 171 172 170
3 172 175 174
3 174 171 170
3 177 178 176
3 178 181 180
3 180 177 176
3 182 185 183
3 186 185 184
3 182 187 186
3 188 191 190
3 191 192 190
3 192 189 188
3 192 196 197
3 207 209 195
3 191 189 194
3 197 198 201
3 190 197 199
3 190 196 188
3 199 198 196
3 199 201 200
3 200 204 203
3 198 203 202
3 205 206 207
3 207 206 208
3 208 205 194
3 208 210 205
3 210 214 211
3 206 212 210
3 212 205 211
3 212 213 214
3 213 216 217
3 211 215 216
3 218 219 220
3 220 219 221
3 221 218 223
3 221 226 225
3 234 224 236
3 226 230 227
3 219 228 226
3 219 218 225
3 228 225 227
3 228 229 230
3 229 203 204
3 227 202 203
3 231 234 233
3 234 235 233
3 235 232 231
3 235 237 238
3 238 239 242
3 233 238 240
3 233 237 231
3 240 239 237
3 240 242 241
3 241 217 216
3 239 216 215
3 223 232 224
3 188 189 191
3 191 193 192
3 192 193 189
3 192 188 196
3 195 193 191
3 191 207 195
3 194 207 191
3 197 196 198
3 190 192 197
3 190 199 196
3 199 197 201
3 199 200 198
3 200 201 204
3 198 200 203
3 205 207 194
3 207 208 209
3 208 194 209
3 210 211 205
3 206 210 208
3 206 205 212
3 212 214 210
3 212 211 213
3 213 217 214
3 211 216 213
3 194 189 195
3 189 193 195
3 195 209 194
3 218 220 223
3 220 221 222
3 221 223 222
3 221 225 218
3 224 220 222
3 220 224 234
3 223 220 232
3 232 220 234
3 226 227 225
3 219 226 221
3 219 225 228
3 228 230 226
3 228 227 229
3 229 204 230
3 227 203 229
3 231 232 234
3 234 236 235
3 235 236 232
3 235 231 237
3 238 237 239
3 233 235 238
3 233 240 237
3 240 238 242
3 240 241 239
3 241 242 217
3 239 241 216
3 223 224 222
3 224 232 236
3 246 252 244
3 246 255 245
3 247 244 243
3 254 244 248
3 253 259 262
3 246 250 253
3 244 251 243
3 256 269 258
3 254 258 255
3 254 257 256
3 261 264 260
3 252 260 251
3 253 261 252
3 265 263 264
3 262 265 261
3 262 263 266
3 267 273 269
3 257 267 256
3 270 272 273
3 268 270 267
3 280 277 275
3 283 277 276
3 247 275 248
3 248 277 282
3 281 286 278
3 277 278 276
3 279 275 274
3 295 284 285
3 285 282 283
3 282 257 249
3 291 288 287
3 287 280 279
3 288 281 280
3 290 292 291
3 292 289 288
3 289 290 286
3 297 294 295
3 294 257 284
3 272 296 297
3 296 268 294
3 299 300 298
3 304 309 305
3 305 302 304
3 303 315 316
3 301 303 305
3 308 313 309
3 301 309 306
3 301 307 300
3 310 312 311
3 309 310 306
3 306 311 307
3 314 319 315
3 302 316 317
3 298 315 299
3 321 319 318
3 316 319 320
3 317 320 321
3 324 323 322
3 333 328 329
3 326 329 328
3 327 339 323
3 327 325 329
3 337 332 333
3 325 333 329
3 331 325 324
3 336 334 335
3 334 333 330
3 335 330 331
3 343 338 339
3 326 340 327
3 339 322 323
3 345 343 344
3 340 343 339
3 341 344 340
3 346 349 348
3 349 352 348
3 353 350 352
3 350 347 346
3 349 354 355
3 356 361 357
3 351 354 347
3 349 356 353
3 353 357 351
3 359 361 360
3 355 358 359
3 357 358 354
3 355 360 356
3 362 368 363
3 363 369 364
3 369 365 364
3 370 366 365
3 371 362 366
3 367 373 368
3 368 374 369
3 374 370 369
3 375 371 370
3 376 367 371
3 377 373 372
3 378 374 373
3 374 380 375
3 375 381 376
3 376 377 372
3 377 383 378
3 378 384 379
3 379 385 380
3 385 381 380
3 386 377 381
3 382 388 383
3 383 389 384
3 384 390 385
3 390 386 385
3 391 382 386
3 392 388 387
3 393 389 388
3 394 390 389
3 390 396 391
3 391 392 387
3 362 393 392
3 363 394 393
3 364 395 394
3 395 366 396
3 396 362 392
3 398 399 397
3 400 401 399
3 402 403 401
3 403 405 401
3 404 408 407
3 410 411 409
3 412 413 411
3 414 415 413
3 415 418 417
3 417 420 419
3 420 421 419
3 422 423 421
3 426 428 410
3 424 425 423
3 426 409 425
3 421 443 442
3 428 432 430
3 426 434 435
3 424 433 434
3 420 433 422
3 418 432 420
3 418 430 431
3 412 428 427
3 414 430 416
3 412 429 414
3 437 441 443
3 419 442 441
3 419 440 417
3 417 439 415
3 411 436 409
3 415 438 413
3 413 437 411
3 425 436 444
3 423 444 443
3 446 447 445
3 448 449 447
3 450 451 449
3 452 453 451
3 454 455 453
3 456 457 455
3 458 459 457
3 462 464 446
3 460 461 459
3 462 445 461
3 457 479 478
3 464 468 466
3 462 470 471
3 458 470 460
3 456 469 458
3 454 468 456
3 454 466 467
3 448 464 463
3 452 465 466
3 450 463 465
3 473 477 479
3 455 478 477
3 453 477 476
3 453 475 451
3 447 472 445
3 451 474 449
3 449 473 447
3 461 472 480
3 459 480 479
3 1 3 2
3 3 5 4
3 5 7 6
3 7 9 8
3 9 11 10
3 11 13 12
3 13 15 14
3 17 26 19
3 15 17 16
3 17 1 0
3 14 34 33
3 20 18 19
3 19 26 25
3 25 24 23
3 23 22 21
3 21 20 19
3 19 25 23
3 15 25 26
3 13 24 25
3 11 23 24
3 9 22 23
3 9 7 21
3 1 19 18
3 7 5 20
3 5 3 18
3 35 27 28
3 28 29 30
3 30 31 32
3 32 33 34
3 34 35 28
3 28 30 32
3 12 33 32
3 10 32 31
3 8 31 30
3 2 28 27
3 6 30 29
3 2 4 29
3 0 27 35
3 16 35 34
3 38 39 37
3 40 41 39
3 40 42 43
3 42 44 45
3 46 47 45
3 46 48 49
3 48 50 51
3 55 62 53
3 52 53 51
3 36 37 53
3 48 69 70
3 55 54 56
3 56 57 58
3 58 59 60
3 60 61 62
3 62 55 56
3 56 58 60
3 62 61 51
3 61 60 49
3 49 60 59
3 59 58 45
3 58 57 43
3 39 54 55
3 43 57 56
3 41 56 54
3 64 63 71
3 71 70 69
3 69 68 67
3 67 66 65
3 65 64 71
3 71 69 67
3 46 68 69
3 67 68 46
3 42 66 67
3 63 64 38
3 65 66 42
3 64 65 40
3 52 71 63
3 50 70 71
3 72 83 81
3 72 76 82
3 74 75 79
3 77 74 78
3 78 79 81
3 80 78 83
3 72 84 86
3 73 85 84
3 87 73 81
3 87 94 93
3 79 75 88
3 91 88 90
3 81 79 91
3 94 91 92
3 87 89 96
3 73 87 95
3 97 98 107
3 100 104 103
3 101 102 98
3 104 100 98
3 98 100 108
3 99 105 108
3 111 112 109
3 108 105 109
3 107 111 110
3 107 108 112
3 118 119 114
3 103 104 116
3 113 114 102
3 104 102 114
3 114 119 120
3 116 120 117
3 121 124 123
3 124 121 117
3 122 123 119
3 119 123 124
3 126 128 127
3 128 130 129
3 130 126 125
3 131 132 134
3 134 136 135
3 136 132 131
3 131 137 139
3 135 139 138
3 131 133 138
3 140 141 143
3 143 145 144
3 145 141 140
3 171 173 172
3 172 173 175
3 174 175 171
3 177 179 178
3 178 179 181
3 180 181 177
3 182 184 185
3 186 187 185
3 182 183 187
3 246 253 252
3 246 254 255
3 247 248 244
3 248 249 254
3 254 246 244
3 253 250 259
3 246 245 250
3 244 252 251
3 256 267 269
3 254 256 258
3 254 249 257
3 261 265 264
3 252 261 260
3 253 262 261
3 265 266 263
3 262 266 265
3 262 259 263
3 267 270 273
3 257 268 267
3 270 271 272
3 268 271 270
3 280 281 277
3 283 282 277
3 247 274 275
3 282 249 248
3 248 275 277
3 281 289 286
3 277 281 278
3 279 280 275
3 295 294 284
3 285 284 282
3 282 284 257
3 291 292 288
3 287 288 280
3 288 289 281
3 290 293 292
3 292 293 289
3 289 293 290
3 297 296 294
3 294 268 257
3 272 271 296
3 296 271 268
3 299 301 300
3 304 308 309
3 305 303 302
3 303 299 315
3 301 299 303
3 308 312 313
3 301 305 309
3 301 306 307
3 310 313 312
3 309 313 310
3 306 310 311
3 314 318 319
3 302 303 316
3 298 314 315
3 321 320 319
3 316 315 319
3 317 316 320
3 324 325 323
3 333 332 328
3 326 327 329
3 327 340 339
3 327 323 325
3 337 336 332
3 325 330 333
3 331 330 325
3 336 337 334
3 334 337 333
3 335 334 330
3 343 342 338
3 326 341 340
3 339 338 322
3 345 342 343
3 340 344 343
3 341 345 344
3 346 347 349
3 349 353 352
3 353 351 350
3 350 351 347
3 349 347 354
3 356 360 361
3 351 357 354
3 349 355 356
3 353 356 357
3 359 358 361
3 355 354 358
3 357 361 358
3 355 359 360
3 362 367 368
3 363 368 369
3 369 370 365
3 370 371 366
3 371 367 362
3 367 372 373
3 368 373 374
3 374 375 370
3 375 376 371
3 376 372 367
3 377 378 373
3 378 379 374
3 374 379 380
3 375 380 381
3 376 381 377
3 377 382 383
3 378 383 384
3 379 384 385
3 385 386 381
3 386 382 377
3 382 387 388
3 383 388 389
3 384 389 390
3 390 391 386
3 391 387 382
3 392 393 388
3 393 394 389
3 394 395 390
3 390 395 396
3 391 396 392
3 362 363 393
3 363 364 394
3 364 365 395
3 395 365 366
3 396 366 362
3 398 400 399
3 400 402 401
3 402 404 403
3 403 406 405
3 404 402 408
3 410 412 411
3 412 414 413
3 414 416 415
3 415 416 418
3 417 418 420
3 420 422 421
3 422 424 423
3 426 435 428
3 424 426 425
3 426 410 409
3 421 423 443
3 429 427 428
3 428 435 434
3 434 433 432
3 432 431 430
3 430 429 428
3 428 434 432
3 426 424 434
3 424 422 433
3 420 432 433
3 418 431 432
3 418 416 430
3 412 410 428
3 414 429 430
3 412 427 429
3 444 436 437
3 437 438 439
3 439 440 441
3 441 442 443
3 443 444 437
3 437 439 441
3 419 421 442
3 419 441 440
3 417 440 439
3 411 437 436
3 415 439 438
3 413 438 437
3 425 409 436
3 423 425 444
3 446 448 447
3 448 450 449
3 450 452 451
3 452 454 453
3 454 456 455
3 456 458 457
3 458 460 459
3 462 471 464
3 460 462 461
3 462 446 445
3 457 459 479
3 465 463 464
3 464 471 470
3 470 469 468
3 468 467 466
3 466 465 464
3 464 470 468
3 462 460 470
3 458 469 470
3 456 468 469
3 454 467 468
3 454 452 466
3 448 446 464
3 452 450 465
3 450 448 463
3 480 472 473
3 473 474 475
3 475 476 477
3 477 478 479
3 479 480 473
3 473 475 477
3 455 457 478
3 453 455 477
3 453 476 475
3 447 473 472
3 451 475 474
3 449 474 473
3 461 445 472
3 459 461 480
