ply
format ascii 1.0
comment Created in Blender version 4.2.8 LTS
element vertex 40
property float x
property float y
property float z
property float nx
property float ny
property float nz
property uchar red
property uchar green
property uchar blue
property uchar alpha
element face 60
property list uchar uint vertex_indices
end_header
0.25896382 -0.36363044 0.17089075 0.3532999 -0.8946917 0.27332383 203 223 254 255
-0.20713256 -0.2908817 -0.41709447 -0.37063384 -0.9172105 -0.14613484 203 223 254 255
0.20715354 -0.2908817 -0.41709447 0.3706434 -0.9172058 -0.14614078 203 223 254 255
0.29089153 0.20714225 -0.4170944 0.91720873 0.37063512 -0.1461436 203 223 254 255
0.36364424 -0.25895113 0.17089076 0.89469075 -0.3532925 0.2733369 203 223 254 255
0.29089153 -0.20714472 -0.41709447 0.91720116 -0.37065333 -0.14614488 203 223 254 255
-0.25893378 0.25894752 0.27557015 -0.34157187 0.3415821 0.8755858 203 223 254 255
0.25896382 -0.25895113 0.2755701 0.3415716 -0.34158444 0.8755849 203 223 254 255
0.25896382 0.25894752 0.27557015 0.34158754 0.34157702 0.87558156 203 223 254 255
-0.3636142 -0.25895113 0.17089076 -0.8946892 -0.3532971 0.27333587 203 223 254 255
-0.29087055 0.20714225 -0.4170944 -0.9172112 0.37063453 -0.14612974 203 223 254 255
-0.29087055 -0.20714472 -0.41709447 -0.91720355 -0.37065274 -0.14613102 203 223 254 255
-0.25893378 0.36362794 0.17089084 -0.3532937 0.8946908 0.27333516 203 223 254 255
0.20715354 0.29088014 -0.4170944 0.37063545 0.9172093 -0.14613917 203 223 254 255
-0.20713256 0.29088014 -0.4170944 -0.3706523 0.9172032 -0.14613421 203 223 254 255
-0.25893378 -0.36363044 0.17089075 -0.3532933 -0.8946913 0.2733339 203 223 254 255
-0.25893378 -0.25895113 0.2755701 -0.3415873 -0.34157944 0.8755808 203 223 254 255
-0.3636142 0.25894752 0.17089082 -0.8946888 0.35329616 0.2733383 203 223 254 255
0.36364424 0.25894752 0.17089082 0.89469135 0.3533005 0.27332443 203 223 254 255
0.25896382 0.36362794 0.17089084 0.35329112 0.89469045 0.27333957 203 223 254 255
-0.23541892 -0.23540702 -1.5840061 -0.3415733 -0.34158605 -0.8755836 203 223 254 255
-0.23541892 -0.33057 -1.488842 -0.35024744 -0.8897322 -0.29275134 203 223 254 255
-0.33058298 -0.23540704 -1.488842 -0.88973 -0.3502468 -0.29275906 203 223 254 255
-0.23541892 0.23540995 -1.5840061 -0.34158927 0.34157944 -0.87557995 203 223 254 255
-0.33058298 0.23540993 -1.488842 -0.88973755 0.35024118 -0.29274285 203 223 254 255
-0.23541892 0.33057392 -1.488842 -0.3502365 0.889737 -0.29275006 203 223 254 255
0.2353971 -0.23540702 -1.5840061 0.34158936 -0.34158108 -0.8755793 203 223 254 255
0.33056104 -0.23540704 -1.488842 0.8897299 -0.35025096 -0.29275417 203 223 254 255
0.2353971 -0.33057 -1.488842 0.35023436 -0.88973784 -0.29274988 203 223 254 255
0.2353971 0.23540995 -1.5840061 0.34157392 0.341584 -0.87558424 203 223 254 255
0.2353971 0.33057392 -1.488842 0.3502488 0.88973093 -0.29275355 203 223 254 255
0.33056104 0.23540993 -1.488842 0.8897363 0.35023636 -0.2927521 203 223 254 255
-0.23396635 0.16660853 -0.3928551 -0.9211007 0.37497124 0.10473865 203 223 254 255
-0.16661513 0.23395972 -0.3928551 -0.3749664 0.92110276 0.10473733 203 223 254 255
0.1665994 0.23395972 -0.3928551 0.37496823 0.92110234 0.104735285 203 223 254 255
0.23395061 0.16660853 -0.3928551 0.921103 0.37496716 0.10473339 203 223 254 255
0.23395061 -0.16660665 -0.39285517 0.92110175 -0.37497005 0.1047331 203 223 254 255
0.1665994 -0.23395716 -0.39285517 0.37496558 -0.9211035 0.104734086 203 223 254 255
-0.16661513 -0.23395716 -0.39285517 -0.37496465 -0.92110366 0.10473616 203 223 254 255
-0.23396635 -0.16660665 -0.39285517 -0.9211026 -0.3749666 0.10473815 203 223 254 255
3 0 1 2
3 3 4 5
3 6 7 8
3 9 10 11
3 12 13 14
3 15 16 9
3 6 12 17
3 7 0 4
3 8 18 19
3 1 9 11
3 6 9 16
3 8 12 6
3 7 18 8
3 16 0 7
3 2 4 0
3 3 19 18
3 12 10 17
3 20 21 22
3 23 24 25
3 26 27 28
3 29 30 31
3 20 24 23
3 25 32 33
3 23 30 29
3 31 34 35
3 29 27 26
3 28 36 37
3 26 21 20
3 29 20 23
3 38 22 21
3 33 30 25
3 22 32 24
3 35 27 31
3 37 21 28
3 0 15 1
3 3 18 4
3 6 16 7
3 9 17 10
3 12 19 13
3 1 15 9
3 6 17 9
3 8 19 12
3 7 4 18
3 16 15 0
3 2 5 4
3 3 13 19
3 12 14 10
3 20 22 24
3 25 24 32
3 23 25 30
3 31 30 34
3 29 31 27
3 28 27 36
3 26 28 21
3 29 26 20
3 38 39 22
3 33 34 30
3 22 39 32
3 35 36 27
3 37 38 21
