ply
format ascii 1.0
comment Created in Blender version 4.2.8 LTS
element vertex 81
property float x
property float y
property float z
property float nx
property float ny
property float nz
property uchar red
property uchar green
property uchar blue
property uchar alpha
element face 154
property list uchar uint vertex_indices
end_header
0.603346 -0.61440134 3.0132267 0.2843696 -0.9155726 0.2843604 203 223 254 255
-0.600457 -0.6144001 0.67634386 -0.28436846 -0.91557235 -0.2843622 203 223 254 255
0.603346 -0.6144001 0.67634386 0.2843638 -0.9155735 -0.2843635 203 223 254 255
0.846664 0.43753254 3.0132267 0.8520242 0.40415838 0.33273232 203 223 254 255
0.846664 -0.43752807 0.67634386 0.8520246 -0.40415686 -0.33273312 203 223 254 255
0.846664 0.43753287 0.676344 0.85202867 0.40414703 -0.3327348 203 223 254 255
-0.600457 0.43753153 3.2565458 -0.332726 0.40414825 0.8520315 203 223 254 255
0.603346 -0.4375294 3.2565458 0.3327265 -0.40414897 0.85203093 203 223 254 255
0.603346 0.43753153 3.2565458 0.33273917 0.40413985 0.8520303 203 223 254 255
-0.843775 -0.4375284 3.0132267 -0.85202557 -0.40415582 0.3327319 203 223 254 255
-0.843775 0.43753287 0.676344 -0.85202426 0.4041581 -0.33273277 203 223 254 255
-0.843775 -0.43752807 0.67634386 -0.8520291 -0.40414572 -0.33273524 203 223 254 255
-0.600457 0.61440355 3.0132267 -0.2843675 0.91557306 0.28436118 203 223 254 255
0.603346 0.61440384 0.676344 0.28436738 0.9155731 -0.28436068 203 223 254 255
-0.600457 0.61440384 0.676344 -0.2843627 0.9155742 -0.28436208 203 223 254 255
-0.600457 -0.43752804 0.4330259 -0.3327255 -0.4041478 -0.8520319 203 223 254 255
-0.600457 -0.61440134 3.0132267 -0.28436494 -0.91557354 0.28436202 203 223 254 255
-0.600457 -0.4375294 3.2565458 -0.3327399 -0.40414035 0.8520298 203 223 254 255
-0.600457 0.4375329 0.43302602 -0.3327387 0.40414053 -0.85203016 203 223 254 255
-0.843775 0.43753254 3.0132267 -0.8520287 0.40414715 0.33273435 203 223 254 255
0.603346 -0.43752804 0.4330259 0.33273867 -0.40413934 -0.8520308 203 223 254 255
0.846664 -0.4375284 3.0132267 0.85202986 -0.40414506 0.3327339 203 223 254 255
0.603346 0.4375329 0.43302602 0.33272538 0.4041491 -0.85203135 203 223 254 255
0.603346 0.61440355 3.0132267 0.28436252 0.9155741 0.2843625 203 223 254 255
0.598109 -0.84522057 4.5320225 0.53902155 -0.8050235 0.24777626 203 223 254 255
-0.003797 -1.9184794 4.2110662 1.1251652e-06 -0.99440044 0.10567776 203 223 254 255
0.598109 -0.8452214 3.6091707 0.492466 -0.71760064 -0.49246994 203 223 254 255
0.841402 0.60190326 4.8129735 0.9315504 0.3243874 0.16427681 203 223 254 255
0.841428 -0.6019024 3.6091707 0.8755875 -0.34158438 -0.34156504 203 223 254 255
0.841428 0.60189945 3.6091707 0.87558335 0.341576 -0.34158406 203 223 254 255
-0.849011 -0.6019026 4.8129725 -0.9311469 -0.32546058 0.16444147 203 223 254 255
-0.849011 0.60189945 3.6091707 -0.8755845 0.34158322 -0.3415739 203 223 254 255
-0.849011 -0.6019024 3.6091707 -0.87558055 -0.3415742 -0.34159327 203 223 254 255
-0.605719 0.8452213 4.8129735 -0.32443064 0.9315394 0.16425306 203 223 254 255
0.598109 0.8452185 3.6091707 0.3415842 0.87558377 -0.3415748 203 223 254 255
-0.605693 0.8452185 3.6091707 -0.34157988 0.87557876 -0.34159186 203 223 254 255
-0.605693 -0.6019024 3.3658528 -0.3415738 -0.34158313 -0.87558466 203 223 254 255
-0.605693 -0.8452214 3.6091707 -0.4924697 -0.71759725 -0.49247113 203 223 254 255
-0.605693 0.60189945 3.3658528 -0.34158924 0.34157786 -0.87558055 203 223 254 255
0.598109 -0.6019024 3.3658528 0.34158847 -0.34157786 -0.8755809 203 223 254 255
0.598109 0.60189945 3.3658528 0.34157297 0.34158343 -0.8755848 203 223 254 255
-0.605719 -0.8452175 4.5320234 -0.5390129 -0.8050336 0.247762 203 223 254 255
-0.849011 0.60189927 4.8129725 -0.9315619 0.32437733 0.16423093 203 223 254 255
0.598109 0.8452183 4.8129725 0.3244234 0.93153864 0.16427232 203 223 254 255
0.841402 -0.6018996 4.8129735 0.93113524 -0.3254635 0.16450119 203 223 254 255
-0.72594506 -0.7221246 5.056293 -0.568516 -0.6377612 0.5196637 203 223 254 255
-0.725945 0.7221293 5.0562925 -0.5921963 0.59216404 0.5464846 203 223 254 255
0.71830994 -0.7221246 5.056293 0.5684861 -0.6377718 0.51968324 203 223 254 255
0.71831 0.7221293 5.056293 0.5921642 0.592166 0.5465172 203 223 254 255
0.55892396 -0.7513215 4.9319415 -0.28878772 -0.95730555 -0.01295641 11 13 14 255
-0.56655204 -0.75132203 4.931942 0.28876683 -0.9573121 -0.012940394 21 23 25 255
-0.50335795 -0.8160215 4.6563745 0.2995419 -0.7691389 0.56453526 1 1 1 255
0.09519763 0.17265993 6.2918005 0.75809693 0.5605973 -0.3331965 168 0 0 255
0.4957439 -0.8160242 4.6563735 -0.29954207 -0.7691408 0.56453276 30 31 38 255
-0.50335795 -0.79770243 4.6520734 0.5050022 -0.43013 0.7483054 0 0 0 255
0.495744 -0.79770523 4.6520724 -0.5050345 -0.43010497 0.74829805 1 1 1 255
0.55892396 -0.73300254 4.9276404 -0.6429709 -0.66941434 -0.37211943 6 6 7 255
-0.56655204 -0.73300296 4.9276404 0.6429781 -0.6694286 -0.37208137 9 10 11 255
-0.028615667 0.024800858 5.776451 -0.6525041 0.614896 0.4428784 200 212 241 255
-0.028615667 -0.024796408 5.776451 -0.5793528 -0.609875 0.54074275 197 205 234 255
0.020981647 -0.024796417 5.776451 0.57912904 -0.6108658 0.5398636 203 223 254 255
0.020981647 0.024800869 5.776451 0.652195 0.6163414 0.44132203 200 215 245 255
-0.10283165 0.1726599 6.2918005 -0.7584551 0.5592154 -0.33470002 168 0 0 255
-0.10283165 -0.007653757 6.3736696 -0.6765344 -0.7253756 0.12700999 168 0 0 255
0.09519763 -0.007653787 6.3736696 0.67619437 -0.7254902 0.12816082 168 0 0 255
0.095704615 0.18693939 6.8226175 0.64191896 -0.5848258 0.4959021 168 0 0 255
0.095704615 0.40253407 6.6123247 0.814812 0.26155818 -0.51736706 168 1 1 255
-0.10333863 0.1869393 6.822617 -0.64270633 -0.58371997 0.49618506 168 0 0 255
-0.10333863 0.4025341 6.6123257 -0.8163194 0.26375285 -0.51386493 168 2 2 255
0.11028153 0.7364285 7.1625986 0.6184569 -0.012107938 0.78572553 168 0 0 255
0.11028153 0.99536574 6.640996 0.74603665 0.10626488 -0.6573714 168 0 0 255
-0.11791554 0.7364286 7.1625986 -0.6174702 -0.01601795 0.7864312 169 32 37 255
-0.11791554 0.9953655 6.640996 -0.7305625 0.071187325 -0.679125 168 0 0 255
0.074236006 1.2881265 6.8543606 0.5611815 0.7937325 0.23465742 168 2 2 255
0.074236006 1.1820065 6.6433377 0.5704624 0.46326938 -0.6781992 168 8 8 255
-0.08187011 1.2881265 6.8543606 -0.54034287 0.8057458 0.24249393 168 10 13 255
-0.08187011 1.1820064 6.643338 -0.52627206 0.47862858 -0.70281744 168 0 0 255
0.022724047 -0.024393952 5.790472 0.698775 -0.71176374 -0.07145646 171 61 70 255
-0.030358069 -0.024393942 5.790472 -0.70190614 -0.70902836 -0.067872636 168 14 17 255
-0.030358065 0.028272199 5.7885504 -0.69199353 0.6636792 -0.28403345 174 78 90 255
0.022724044 0.028272213 5.7885504 0.68804604 0.6656355 -0.289002 173 78 90 255
3 0 1 2
3 3 4 5
3 6 7 8
3 9 10 11
3 12 13 14
3 15 1 11
3 16 17 9
3 18 10 14
3 6 12 19
3 20 4 2
3 7 0 21
3 22 13 5
3 8 3 23
3 15 10 18
3 16 11 1
3 6 9 17
3 14 19 12
3 18 13 22
3 8 12 6
3 5 23 3
3 22 4 20
3 7 3 8
3 2 21 0
3 20 1 15
3 17 0 7
3 22 15 18
3 0 16 1
3 3 21 4
3 6 17 7
3 9 19 10
3 12 23 13
3 15 11 10
3 16 9 11
3 6 19 9
3 14 10 19
3 18 14 13
3 8 23 12
3 5 13 23
3 22 5 4
3 7 21 3
3 2 4 21
3 20 2 1
3 17 16 0
3 22 20 15
3 24 25 26
3 27 28 29
3 30 31 32
3 33 34 35
3 36 37 32
3 38 31 35
3 39 28 26
3 40 34 29
3 36 31 38
3 41 32 37
3 35 42 33
3 38 34 40
3 29 43 27
3 40 28 39
3 26 44 24
3 39 37 36
3 40 36 38
3 41 45 30
3 46 33 42
3 47 24 44
3 48 27 43
3 46 30 45
3 48 33 46
3 47 27 48
3 24 41 25
3 27 44 28
3 30 42 31
3 33 43 34
3 36 32 31
3 41 30 32
3 35 31 42
3 38 35 34
3 29 34 43
3 40 29 28
3 26 28 44
3 39 26 37
3 40 39 36
3 46 42 30
3 48 43 33
3 47 44 27
3 47 48 61
3 61 60 47
3 47 60 59
3 59 45 47
3 64 52 66
3 64 66 65
3 48 46 58
3 58 61 48
3 25 41 37
3 26 25 37
3 50 49 47
3 51 50 45
3 49 53 24
3 54 57 51
3 49 50 57
3 54 51 53
3 53 51 41
3 78 77 64
3 78 64 63
3 58 46 45
3 45 59 58
3 80 79 62
3 80 62 52
3 77 80 52
3 77 52 64
3 79 78 63
3 79 63 62
3 66 68 72
3 66 72 70
3 63 64 65
3 63 65 67
3 62 63 67
3 62 67 68
3 52 62 68
3 52 68 66
3 71 69 73
3 71 73 75
3 67 65 69
3 67 69 71
3 68 67 71
3 68 71 72
3 65 66 70
3 65 70 69
3 76 75 73
3 76 73 74
3 72 71 75
3 72 75 76
3 69 70 74
3 69 74 73
3 70 72 76
3 70 76 74
3 58 59 78
3 58 78 79
3 60 61 80
3 60 80 77
3 61 58 79
3 61 79 80
3 59 60 77
3 59 77 78
3 47 45 50
3 45 41 51
3 24 47 49
3 55 53 49
3 56 55 49
3 57 50 51
3 57 56 49
3 55 54 53
3 54 55 56
3 56 57 54
3 41 24 53
