ply
format ascii 1.0
comment Created in Blender version 4.2.8 LTS
element vertex 32
property float x
property float y
property float z
property float nx
property float ny
property float nz
property uchar red
property uchar green
property uchar blue
property uchar alpha
element face 60
property list uchar uint vertex_indices
end_header
-0.730459 -0.23540759 -2.8304148 -0.34157372 -0.34158358 -0.8755845 203 223 254 255
-0.730459 -0.33057162 -2.7352507 -0.31094435 -0.8228556 -0.47562847 203 223 254 255
-0.825623 -0.2354076 -2.7352507 -0.82283497 -0.3109515 -0.4756593 203 223 254 255
-0.730459 0.23540837 -2.8304148 -0.34158942 0.34157988 -0.87557983 203 223 254 255
-0.825623 0.23540835 -2.7352507 -0.82283354 0.31095424 -0.47566006 203 223 254 255
-0.730459 0.33057234 -2.7352507 -0.31093627 0.82285285 -0.47563857 203 223 254 255
-0.259643 -0.23540759 -2.8304148 0.34158954 -0.34157965 -0.8755797 203 223 254 255
-0.164479 -0.2354076 -2.7352507 0.8228808 -0.31094572 -0.47558406 203 223 254 255
-0.259643 -0.33057162 -2.7352507 0.31095073 -0.82285774 -0.4756206 203 223 254 255
-0.259643 0.23540837 -2.8304148 0.3415737 0.34158388 -0.87558436 203 223 254 255
-0.259643 0.33057234 -2.7352507 0.31096113 0.8228567 -0.47561562 203 223 254 255
-0.164479 0.23540835 -2.7352507 0.8228628 0.31094414 -0.47561595 203 223 254 255
-0.09666258 0.2836996 -2.4623907 0.9149669 0.38831395 -0.10976366 203 223 254 255
-0.2113485 -0.39838552 -2.4623907 0.3883509 -0.9149513 -0.10976195 203 223 254 255
-0.30825633 -0.2623402 0.21529213 0.3359657 -0.8662316 0.36982408 203 223 254 255
-0.7787792 -0.39838192 -2.4623907 -0.38831058 -0.91496485 -0.10979249 203 223 254 255
-0.23273382 0.18682364 0.21529219 0.8662316 0.335966 0.36982402 203 223 254 255
-0.0966939 -0.28369597 -2.4623907 0.9149961 -0.38825107 -0.109741844 203 223 254 255
-0.68189776 0.18682362 0.29081467 -0.3415737 0.34158394 0.87558436 203 223 254 255
-0.30825633 -0.1868177 0.2908146 0.34157366 -0.3415841 0.87558424 203 223 254 255
-0.30825633 0.18682362 0.29081467 0.34158924 0.34157884 0.87558025 203 223 254 255
-0.75742024 -0.18681769 0.21529213 -0.8662317 -0.3359676 0.36982223 203 223 254 255
-0.89346516 0.28370324 -2.4623907 -0.9149684 0.38829398 -0.10982155 203 223 254 255
-0.89346516 -0.28369597 -2.4623907 -0.9149735 -0.38828442 -0.109812334 203 223 254 255
-0.68189776 0.26234612 0.21529219 -0.3359673 0.86623174 0.36982223 203 223 254 255
-0.21137989 0.39838916 -2.4623907 0.38823593 0.9149997 -0.10976497 203 223 254 255
-0.7787792 0.39838916 -2.4623907 -0.38829884 0.91496927 -0.10979663 203 223 254 255
-0.68189776 -0.2623402 0.21529213 -0.33596662 -0.8662304 0.369826 203 223 254 255
-0.68189776 -0.1868177 0.2908146 -0.34158942 -0.3415791 0.87558013 203 223 254 255
-0.75742024 0.18682364 0.21529219 -0.86623025 0.33596665 0.36982644 203 223 254 255
-0.23273382 -0.18681769 0.21529213 0.8662305 -0.33596477 0.3698278 203 223 254 255
-0.30825633 0.26234612 0.21529219 0.33596513 0.8662303 0.36982778 203 223 254 255
3 0 1 2
3 3 4 5
3 6 7 8
3 9 10 11
3 0 4 3
3 26 4 22
3 3 10 9
3 12 10 25
3 9 7 6
3 13 7 17
3 6 1 0
3 9 0 3
3 1 23 2
3 26 10 5
3 23 4 2
3 11 17 7
3 13 1 8
3 14 15 13
3 16 17 12
3 18 19 20
3 21 22 23
3 24 25 26
3 27 28 21
3 18 24 29
3 19 14 30
3 20 16 31
3 27 23 15
3 18 21 28
3 20 24 18
3 19 16 20
3 28 14 19
3 13 30 14
3 12 31 16
3 26 29 24
3 0 2 4
3 26 5 4
3 3 5 10
3 12 11 10
3 9 11 7
3 13 8 7
3 6 8 1
3 9 6 0
3 1 15 23
3 26 25 10
3 23 22 4
3 11 12 17
3 13 15 1
3 14 27 15
3 16 30 17
3 18 28 19
3 21 29 22
3 24 31 25
3 27 21 23
3 18 29 21
3 20 31 24
3 19 30 16
3 28 27 14
3 13 17 30
3 12 25 31
3 26 22 29
