ply
format ascii 1.0
comment Created in Blender version 4.3.2
element vertex 40
property float x
property float y
property float z
property float nx
property float ny
property float nz
property uchar red
property uchar green
property uchar blue
property uchar alpha
element face 60
property list uchar uint vertex_indices
end_header
-0.7304587 -0.23540798 -2.8304152 -0.34157383 -0.34158483 -0.8755839 151 71 19 255
-0.7304587 -0.33057192 -2.735251 -0.34158576 -0.87558025 -0.34158206 151 71 19 255
-0.8256226 -0.23540798 -2.735251 -0.8755795 -0.34158546 -0.34158435 151 71 19 255
-0.7304587 0.23540775 -2.8304152 -0.34158957 0.34157965 -0.8755797 151 71 19 255
-0.8256226 0.23540775 -2.735251 -0.87557995 0.34158638 -0.3415825 151 71 19 255
-0.7304587 0.3305717 -2.735251 -0.34158495 0.8755796 -0.34158468 151 71 19 255
-0.25964296 -0.23540798 -2.8304152 0.34158957 -0.3415798 -0.8755797 151 71 19 255
-0.16447899 -0.23540798 -2.735251 0.8755806 -0.34158564 -0.3415813 151 71 19 255
-0.25964296 -0.33057192 -2.735251 0.34158486 -0.87557983 -0.3415841 151 71 19 255
-0.25964296 0.23540775 -2.8304152 0.3415739 0.34158477 -0.8755839 151 71 19 255
-0.25964296 0.3305717 -2.735251 0.34158584 0.8755801 -0.3415825 151 71 19 255
-0.16447899 0.23540775 -2.735251 0.8755787 0.34158632 -0.34158546 151 71 19 255
-0.7304587 -0.3305718 -2.4623911 -0.38268313 -0.92387956 4.264832e-07 151 71 19 255
-0.8256226 -0.23540784 -2.4623911 -0.9238813 -0.38267908 1.6323604e-07 151 71 19 255
-0.7304587 0.33057186 -2.4623911 -0.3826789 0.9238814 -3.8526161e-07 151 71 19 255
-0.25964296 0.33057186 -2.4623911 0.3826832 0.92387956 -4.131538e-07 151 71 19 255
-0.25964296 -0.3305718 -2.4623911 0.38267896 -0.9238814 4.1386267e-07 151 71 19 255
-0.16447899 -0.23540784 -2.4623911 0.92387867 -0.38268542 1.7134998e-07 151 71 19 255
-0.16447899 0.23540789 -2.4623911 0.9238821 0.38267723 -1.7633475e-07 151 71 19 255
-0.8256226 0.23540789 -2.4623911 -0.9238794 0.38268366 -1.4421461e-07 151 71 19 255
-0.7304846 -0.33056852 0.20874529 -0.34158722 -0.87557864 0.34158474 254 117 44 255
-0.7304846 -0.23540454 0.30390865 -0.34158832 -0.34157783 0.87558097 254 117 44 255
-0.82564855 -0.23540455 0.20874527 -0.87557864 -0.34159034 0.34158152 254 117 44 255
-0.7304846 0.23541124 0.3039086 -0.34157255 0.34158292 0.8755851 254 117 44 255
-0.7304846 0.33057523 0.20874523 -0.34159046 0.8755786 0.3415815 254 117 44 255
-0.82564855 0.23541123 0.20874524 -0.8755787 0.34158716 0.3415846 254 117 44 255
-0.25966877 -0.23540454 0.30390865 0.3415726 -0.3415828 0.8755852 254 117 44 255
-0.25966877 -0.33056852 0.20874529 0.3415905 -0.8755786 0.34158164 254 117 44 255
-0.16450481 -0.23540455 0.20874527 0.8755787 -0.3415869 0.34158483 254 117 44 255
-0.25966877 0.23541124 0.3039086 0.3415882 0.34157792 0.8755809 254 117 44 255
-0.16450481 0.23541123 0.20874524 0.87557864 0.34159037 0.34158152 254 117 44 255
-0.25966877 0.33057523 0.20874523 0.34158704 0.8755787 0.34158477 254 117 44 255
-0.7304846 -0.33056864 -2.462391 -0.38268614 -0.9238784 3.3310222e-08 254 117 44 255
-0.82564855 -0.23540464 -2.462391 -0.9238781 -0.38268682 1.3055944e-08 254 117 44 255
-0.7304846 0.33057514 -2.462391 -0.38268697 0.9238781 -3.905745e-08 254 117 44 255
-0.25966877 0.33057514 -2.462391 0.38268614 0.9238784 -3.4664016e-08 254 117 44 255
-0.25966877 -0.33056864 -2.462391 0.38268661 -0.9238782 3.507984e-08 254 117 44 255
-0.16450481 -0.23540464 -2.462391 0.9238784 -0.38268602 1.463584e-08 254 117 44 255
-0.16450481 0.23541114 -2.462391 0.9238782 0.3826866 -1.4176122e-08 254 117 44 255
-0.82564855 0.23541114 -2.462391 -0.9238785 0.38268593 -1.8614672e-08 254 117 44 255
3 0 1 2
3 3 4 5
3 6 7 8
3 9 10 11
3 0 4 3
3 14 4 19
3 3 10 9
3 18 10 15
3 9 7 6
3 16 7 17
3 6 1 0
3 9 0 3
3 1 13 2
3 14 10 5
3 13 4 2
3 11 17 7
3 16 1 8
3 27 32 36
3 30 37 38
3 23 26 29
3 22 39 33
3 24 35 34
3 20 21 22
3 23 24 25
3 26 27 28
3 29 30 31
3 20 33 32
3 23 22 21
3 29 24 23
3 26 30 29
3 21 27 26
3 36 28 27
3 38 31 30
3 34 25 24
3 0 2 4
3 14 5 4
3 3 5 10
3 18 11 10
3 9 11 7
3 16 8 7
3 6 8 1
3 9 6 0
3 1 12 13
3 14 15 10
3 13 19 4
3 11 18 17
3 16 12 1
3 27 20 32
3 30 28 37
3 23 21 26
3 22 25 39
3 24 31 35
3 20 22 33
3 23 25 22
3 29 31 24
3 26 28 30
3 21 20 27
3 36 37 28
3 38 35 31
3 34 39 25
