ply
format ascii 1.0
comment Created in Blender version 4.2.8 LTS
element vertex 128
property float x
property float y
property float z
property float nx
property float ny
property float nz
property uchar red
property uchar green
property uchar blue
property uchar alpha
element face 186
property list uchar uint vertex_indices
end_header
0.603346 -0.6144004 3.0132267 0.2843684 -0.9155728 0.28436074 0 0 0 255
-0.600457 -0.6144001 0.67634386 -0.2843684 -0.9155725 -0.284362 0 0 0 255
0.603346 -0.6144001 0.67634386 0.28436372 -0.91557354 -0.28436342 0 0 0 255
0.846664 0.43753254 3.0132267 0.8520249 0.4041572 0.33273217 0 0 0 255
0.846664 -0.43752807 0.67634386 0.8520246 -0.40415686 -0.33273312 0 0 0 255
0.846664 0.43753287 0.676344 0.85202867 0.40414694 -0.33273488 0 0 0 255
-0.600457 0.4375325 3.2565458 -0.33272633 0.4041485 0.85203135 2 2 2 255
0.603346 -0.43752843 3.2565458 0.3327262 -0.40414876 0.8520311 13 14 14 255
0.603346 0.4375325 3.2565458 0.3327394 0.40414014 0.85203016 13 13 14 255
-0.843775 -0.4375284 3.0132267 -0.852025 -0.40415704 0.3327321 0 0 0 255
-0.843775 0.43753287 0.676344 -0.85202426 0.4041581 -0.33273277 0 0 0 255
-0.843775 -0.43752807 0.67634386 -0.8520291 -0.4041459 -0.33273515 0 0 0 255
-0.600457 0.6144045 3.0132267 -0.28436866 0.9155728 0.28436086 49 50 52 255
0.603346 0.61440384 0.676344 0.2843674 0.9155732 -0.2843609 0 0 0 255
-0.600457 0.61440384 0.676344 -0.2843628 0.9155742 -0.28436223 0 0 0 255
-0.600457 -0.43752804 0.4330259 -0.3327255 -0.4041478 -0.8520319 0 0 0 255
-0.600457 -0.6144004 3.0132267 -0.2843639 -0.9155738 0.28436226 45 46 47 255
-0.600457 -0.43752843 3.2565458 -0.33273956 -0.40414008 0.85203004 7 7 7 255
-0.600457 0.4375329 0.43302602 -0.3327387 0.40414053 -0.85203016 26 27 28 255
-0.843775 0.43753254 3.0132267 -0.85202944 0.40414602 0.33273417 3 4 4 255
0.603346 -0.43752804 0.4330259 0.33273867 -0.40413934 -0.8520308 0 0 0 255
0.846664 -0.4375284 3.0132267 0.8520292 -0.40414622 0.3327341 3 3 3 255
0.603346 0.4375329 0.43302602 0.33272538 0.4041491 -0.85203135 9 9 9 255
0.603346 0.6144045 3.0132267 0.28436357 0.91557384 0.28436226 18 18 19 255
0.4435506 -0.78751975 5.3481374 0.39231238 -0.9196331 0.019134345 242 247 254 255
-0.45114017 -0.7240209 4.5441313 -0.25154835 -0.96683246 0.0442542 242 247 254 255
0.4435506 -0.7240209 4.5441313 0.26111397 -0.9635124 0.058851466 242 247 254 255
0.624371 0.6019043 5.3543673 0.9704632 0.22045863 0.09797528 242 247 254 255
0.6243903 -0.60190135 4.5441313 0.9166538 -0.38049677 -0.122344546 242 247 254 255
0.6243903 0.60190046 4.5441313 0.96265256 0.23748107 -0.13001105 242 247 254 255
-0.63197917 -0.6019016 5.354367 -0.90649027 -0.32355902 0.27126554 242 247 254 255
-0.63197917 0.60190046 4.5441313 -0.9626757 0.23575439 -0.1329489 242 247 254 255
-0.63197917 -0.60190135 4.5441313 -0.91899806 -0.36881024 -0.13936178 242 247 254 255
-0.4511595 0.8452223 5.3543673 -0.37430677 0.92394674 0.0788471 242 247 254 255
0.4435506 0.8452195 4.5441313 0.38714972 0.92193395 -0.012365208 242 247 254 255
-0.45114017 0.8452195 4.5441313 -0.387145 0.92193586 -0.012369076 242 247 254 255
-0.5453133 -0.733325 4.3688316 -0.65267843 -0.75580746 -0.052594747 242 247 254 255
-0.5453133 0.80794716 4.3486295 -0.66419387 0.72927856 -0.16431466 242 247 254 255
0.5377237 -0.733325 4.3688316 0.6520774 -0.7562982 -0.052991677 242 247 254 255
0.5377237 0.80794716 4.3486295 0.66373485 0.729653 -0.16450715 242 247 254 255
-0.4511595 -0.7875167 5.3481383 -0.38405204 -0.92279243 0.030953905 242 247 254 255
-0.63197917 0.6019003 5.354367 -0.967072 0.24821529 0.05622172 242 247 254 255
0.4435506 0.8452193 5.354367 0.3743022 0.9239475 0.07886127 242 247 254 255
0.624371 -0.6018986 5.3543677 0.9050359 -0.3124823 0.28855675 242 247 254 255
-0.57671595 0.77083987 5.564514 -0.6923899 0.6655879 0.27854797 242 247 254 255
0.4202099 -0.7708343 5.564514 0.55262876 -0.78843594 0.2701301 242 247 254 255
0.5690885 0.77083987 5.564514 0.7061854 0.64687 0.28785667 242 247 254 255
-0.42783734 -0.7708343 5.564514 -0.5367682 -0.8039927 0.2558824 242 247 254 255
-0.43147328 0.5754165 5.9940624 -0.6027411 0.5835555 0.54421145 242 247 254 255
0.42384574 -0.6763866 5.9629164 0.76548207 -0.6157076 0.18692675 242 247 254 255
0.42384574 0.5754165 5.9940624 0.62952 0.57256025 0.52524227 242 247 254 255
-0.43147328 -0.6763866 5.9629164 -0.745544 -0.6293157 0.21937612 242 247 254 255
-0.27490002 0.26586473 6.409372 -0.5865457 0.4915279 0.64371145 242 247 254 255
0.26727253 -0.727464 6.3188095 0.7395226 -0.6731 0.0065458324 242 247 254 255
0.26727253 0.26586473 6.409372 0.57814527 0.49450663 0.6490079 242 247 254 255
-0.27490002 -0.727464 6.3188095 -0.7436201 -0.66860145 0.0011520974 242 247 254 255
-0.19563562 -0.03963554 6.681792 -0.56904006 0.33053553 0.752954 242 247 254 255
0.18800814 -0.94955957 6.6088443 0.8126584 -0.51860845 -0.26576635 242 247 254 255
0.18800814 -0.03963554 6.681792 0.57050586 0.32905036 0.7524953 242 247 254 255
-0.19563562 -0.94955957 6.6088443 -0.80723774 -0.51883477 -0.2813854 242 247 254 255
-0.115694664 -0.5315421 6.822409 -0.48142543 0.07553549 0.8732263 242 247 254 255
0.10806716 -1.3032585 6.7996373 0.49077648 -0.8458713 0.20890224 242 247 254 255
0.10806716 -0.5315421 6.822409 0.50684065 0.06862751 0.85930383 242 247 254 255
-0.115694664 -1.3032585 6.7996373 -0.48724824 -0.84786296 0.20908752 242 247 254 255
-0.51957875 -0.70889604 3.990295 -0.73872966 -0.66804206 -0.08943332 242 247 254 255
-0.51957875 0.6939844 3.9668956 -0.65927047 0.63625574 -0.40067577 242 247 254 255
0.5119892 0.6939844 3.9668956 0.6591994 0.6365519 -0.40032223 242 247 254 255
0.5119892 -0.70889604 3.990295 0.73845786 -0.66845393 -0.088597365 242 247 254 255
-0.45666277 -0.7483152 3.706147 -0.784776 -0.61977553 -0.0022750907 242 247 254 255
-0.45666277 0.4824779 3.7012672 -0.5851679 0.44191423 -0.67991936 242 247 254 255
0.44907317 0.4824779 3.7012672 0.58393896 0.4422349 -0.680767 242 247 254 255
0.44907317 -0.7483152 3.706147 0.7850471 -0.61940765 -0.005944847 242 247 254 255
-0.37856367 -0.9227341 3.500665 -0.7827985 -0.62078047 0.043106712 242 247 254 255
-0.37856367 0.020852791 3.4819777 -0.55412126 0.20700811 -0.80628604 242 247 254 255
0.37097406 0.020852791 3.4819777 0.5586464 0.20690644 -0.8031837 232 237 244 255
0.37097406 -0.9227341 3.500665 0.7842311 -0.6150073 0.08214343 240 245 251 255
-0.18501014 -1.2328303 3.2685242 -0.4162165 -0.84508616 -0.33554918 242 247 254 255
-0.18501014 -0.78410023 3.3011086 -0.3621281 0.09457886 -0.9273178 239 244 250 255
0.17742057 -0.78410023 3.3011086 0.25575653 0.11437655 -0.95995134 237 242 248 255
0.17742057 -1.2328303 3.2685242 0.40216798 -0.85183454 -0.3356171 242 247 254 255
-0.58080673 -0.7965331 4.5949535 0 -1 -1.3435887e-07 5 5 5 255
0.58080673 -0.7965331 4.5949535 0 -1 -1.3435887e-07 0 0 0 255
-0.58080673 -0.79653317 5.2635365 0 -1 -1.3435887e-07 3 3 3 255
0.58080673 -0.79653317 5.2635365 0 -1 -1.3435887e-07 25 26 27 255
3.5541387e-10 -0.7965331 5.0890875 -2.2123298e-07 -1 -1.3435887e-07 8 8 8 255
3.5541387e-10 -0.79653317 5.237061 0 -1 -1.3435887e-07 1 1 1 255
0.29040337 -0.7965331 4.5949535 -4.431804e-08 -1 -3.502074e-08 5 5 5 255
0.29040337 -0.79653317 5.2635365 5.4259143e-08 -1 -6.143445e-08 30 31 32 255
-0.29040337 -0.79653317 5.2635365 -9.15952e-08 -1 -6.143445e-08 19 19 20 255
-0.29040337 -0.7965331 4.5949535 5.778571e-08 -1 -3.502074e-08 38 39 40 255
-0.7092034 -0.79653317 4.7011695 1.9984435e-07 -1 -2.2765768e-08 21 22 23 255
0.7092034 -0.79653317 4.7011695 -2.6645912e-07 -1 -2.2765768e-08 4 4 4 255
-0.7092034 -0.79653317 5.2047343 -1 -0 0 0 0 0 255
-0.7092034 -0.79653317 5.2047343 0 -1 -1.3435887e-07 0 0 0 255
0.7092034 -0.79653317 5.2047343 0 -1 -1.3435887e-07 2 2 2 255
0.7092034 -0.79653317 5.2047343 1 0 0 2 2 2 255
-0.7092034 -0.79653317 5.1307473 -1 -0 0 0 0 0 255
-0.7092034 -0.79653317 5.1307473 7.304918e-08 -1 -7.059435e-08 0 0 0 255
0.7092034 -0.79653317 5.1307473 -6.997073e-08 -1 -7.059435e-08 1 1 1 255
0.7092034 -0.79653317 5.1307473 1 0 0 1 1 1 255
-0.14520168 -0.7965331 4.6434436 0 -1 -2.726695e-08 14 16 16 255
-0.14520168 -0.7965331 4.6434436 0 -1 -2.7267085e-08 14 16 16 255
-0.14520168 -0.79653317 5.237061 0 -1 -1.3435887e-07 39 40 41 255
-0.14520168 -0.79653317 5.237061 -6.926129e-07 -1 -1.3435887e-07 39 40 41 255
-0.14520168 -0.79653317 5.2000184 0 -1 -1.0898711e-07 0 0 0 255
-0.14520168 -0.79653317 5.2000184 -3.4078246e-07 -1 -7.673661e-08 0 0 0 255
0.14520168 -0.79653317 5.237061 6.926129e-07 -1 -1.3435887e-07 1 1 1 255
0.14520168 -0.79653317 5.237061 -6.953549e-07 -1 -5.370884e-08 1 1 1 255
0.14520168 -0.79653317 5.2000184 2.623033e-07 -1 -7.673661e-08 0 0 0 255
0.14520168 -0.79653317 5.2000184 1 0 0 0 0 0 255
0.14520168 -0.7965331 4.6434436 9.219227e-08 -1 -2.7267085e-08 9 9 9 255
0.14520168 -0.7965331 4.6434436 -6.760554e-07 -1 -5.5947282e-08 9 9 9 255
0.029217703 -0.79653317 5.237061 0 -1 -1.3435887e-07 3 3 3 255
0.029217703 -0.79653317 5.237061 0 -1 -1.3435887e-07 3 3 3 255
0.029217703 -0.79653317 5.2000184 -4.6143714e-07 -1 -8.0839555e-08 0 0 0 255
0.029217703 -0.79653317 5.2000184 0 -1 -1.3435887e-07 0 0 0 255
0.029217703 -0.7965331 5.0740786 0 -1 -1.3435887e-07 3 4 4 255
0.029217703 -0.7965331 5.0740786 0 -1 -1.3435887e-07 3 4 4 255
-0.029217703 -0.7965331 5.0740786 0 -1 -5.4957916e-08 1 1 1 255
-0.029217703 -0.7965331 5.0740786 -5.0620406e-07 -1 -1.3435887e-07 1 1 1 255
-0.029217703 -0.79653317 5.237061 0 -1 -1.3435887e-07 2 2 2 255
-0.029217703 -0.79653317 5.237061 0 -1 -1.3435887e-07 2 2 2 255
-0.029217703 -0.79653317 5.2000184 0 -1 -1.3435887e-07 0 0 0 255
-0.029217703 -0.79653317 5.2000184 -4.1490498e-08 -1 -1.3435887e-07 0 0 0 255
-0.7092034 0.16228145 5.204734 -1 -0 0 0 0 0 255
0.7092034 0.16228145 5.204734 1 0 0 0 1 1 255
-0.7092034 0.16228147 5.1307473 -1 -0 0 0 0 0 255
0.7092034 0.16228147 5.1307473 1 0 0 0 0 0 255
3 0 1 2
3 3 4 5
3 6 7 8
3 9 10 11
3 12 13 14
3 15 1 11
3 16 17 9
3 18 10 14
3 6 12 19
3 20 4 2
3 7 0 21
3 22 13 5
3 8 3 23
3 15 10 18
3 16 11 1
3 6 9 17
3 14 19 12
3 18 13 22
3 8 12 6
3 5 23 3
3 22 4 20
3 7 3 8
3 2 21 0
3 20 1 15
3 17 0 7
3 22 15 18
3 0 16 1
3 3 21 4
3 6 17 7
3 9 19 10
3 12 23 13
3 15 11 10
3 16 9 11
3 6 19 9
3 14 10 19
3 18 14 13
3 8 23 12
3 5 13 23
3 22 5 4
3 7 21 3
3 2 4 21
3 20 2 1
3 17 16 0
3 22 20 15
3 24 25 26
3 27 28 29
3 30 31 32
3 33 34 35
3 36 25 32
3 37 31 35
3 38 28 26
3 39 34 29
3 36 31 37
3 40 32 25
3 35 41 33
3 37 34 39
3 29 42 27
3 39 28 38
3 26 43 24
3 38 25 36
3 37 39 66
3 37 66 65
3 47 45 49
3 47 49 51
3 40 47 30
3 44 33 41
3 45 24 43
3 46 27 42
3 44 30 47
3 46 33 44
3 45 27 46
3 47 24 45
3 24 40 25
3 27 43 28
3 30 41 31
3 33 42 34
3 36 32 31
3 40 30 32
3 35 31 41
3 37 35 34
3 29 34 42
3 39 29 28
3 26 28 43
3 38 26 25
3 38 36 64
3 38 64 67
3 44 47 51
3 44 51 48
3 44 41 30
3 46 42 33
3 45 43 27
3 47 40 24
3 50 48 52
3 50 52 54
3 49 50 54
3 49 54 53
3 46 44 48
3 46 48 50
3 45 46 50
3 45 50 49
3 52 55 59
3 52 59 56
3 55 53 57
3 55 57 59
3 51 49 53
3 51 53 55
3 48 51 55
3 48 55 52
3 57 58 62
3 57 62 61
3 56 59 63
3 56 63 60
3 53 54 58
3 53 58 57
3 54 52 56
3 54 56 58
3 60 61 62
3 60 63 61
3 58 56 60
3 58 60 62
3 59 57 61
3 59 61 63
3 67 64 68
3 67 68 71
3 66 67 71
3 66 71 70
3 39 38 67
3 39 67 66
3 36 37 65
3 36 65 64
3 69 70 74
3 69 74 73
3 68 69 73
3 68 73 72
3 64 65 69
3 64 69 68
3 65 66 70
3 65 70 69
3 74 75 79
3 74 79 78
3 73 74 78
3 73 78 77
3 70 71 75
3 70 75 74
3 71 68 72
3 71 72 75
3 78 76 77
3 78 79 76
3 75 72 76
3 75 76 79
3 72 73 77
3 72 77 76
3 90 80 89
3 89 101 105
3 105 103 88
3 88 82 93
3 97 90 89
3 88 93 97
3 89 105 88
3 89 88 97
3 111 109 107
3 107 112 114
3 114 116 111
3 107 114 111
3 104 100 118
3 122 120 102
3 104 118 122
3 122 102 104
3 96 92 124
3 96 124 126
3 95 99 127
3 95 127 125
3 113 85 121
3 123 119 84
3 113 121 123
3 84 117 115
3 115 113 123
3 123 84 115
3 94 83 87
3 87 106 108
3 108 110 86
3 86 81 91
3 98 94 87
3 86 91 98
3 87 108 86
3 87 86 98
