ply
format ascii 1.0
comment Created in Blender version 4.2.8 LTS
element vertex 40
property float x
property float y
property float z
property float nx
property float ny
property float nz
property uchar red
property uchar green
property uchar blue
property uchar alpha
element face 60
property list uchar uint vertex_indices
end_header
-0.2073884 -0.20563906 -1.4188874 -0.34159243 -0.34158945 -0.8755748 254 254 254 255
-0.29122055 -0.20563908 -1.3350552 -0.8755751 -0.3415927 -0.34158856 254 254 254 255
-0.2073884 -0.28947023 -1.3350552 -0.34159145 -0.8755783 -0.34158152 254 254 254 255
-0.2073884 -0.03947095 -1.4188874 -0.34158924 0.34158006 -0.8755797 254 254 254 255
-0.29122055 -0.03947096 -1.3350552 -0.87305737 0.30503088 -0.38043022 254 254 254 255
0.20736349 -0.20563906 -1.4188874 0.34158924 -0.34158167 -0.8755792 254 254 254 255
0.20736349 -0.03947095 -1.4188874 0.34159306 0.34158763 -0.8755753 254 254 254 255
0.2911955 -0.03947096 -1.3350552 0.8730592 0.3050265 -0.38042948 254 254 254 255
0.20736349 0.04436101 -1.3350552 0.33813953 0.827105 -0.44895345 254 254 254 255
0.2911955 -0.20563908 -1.3350552 0.87557507 -0.34158936 -0.34159207 254 254 254 255
0.20736349 -0.28947023 -1.3350552 0.3415837 -0.87558115 -0.3415821 254 254 254 255
0.2911955 0.20911355 -0.36516806 0.896225 0.4297104 -0.110135786 254 254 254 255
0.2911955 -0.20563921 -0.36516812 0.9238782 -0.38268688 -5.1417377e-08 254 254 254 255
0.20736349 -0.28947034 -0.36516812 0.38268992 -0.9238768 -1.2413105e-07 254 254 254 255
-0.2073884 -0.28947034 -0.36516812 -0.38268173 -0.92388034 -1.2413152e-07 254 254 254 255
-0.29122055 -0.20563921 -0.36516812 -0.9238784 -0.3826862 -5.1417285e-08 254 254 254 255
-0.29122055 0.20911355 -0.36516806 -0.8962277 0.42970487 -0.110134445 254 254 254 255
-0.2073884 0.04436101 -1.3350552 -0.33812645 0.8271084 -0.44895685 254 254 254 255
-0.2073884 0.29294553 -0.36516806 -0.35289547 0.9063662 -0.23230392 254 254 254 255
0.20736349 0.29294553 -0.36516806 0.3528763 0.9063732 -0.23230568 254 254 254 255
0.23541999 -0.3288374 0.16520968 0.34158266 -0.87558466 0.34157413 0 0 0 255
-0.23539603 -0.3288373 -0.3738723 -0.38266364 -0.9238877 -1.2413251e-07 4 4 4 255
0.23541999 -0.3288373 -0.3738723 0.38267362 -0.9238836 -1.2413196e-07 0 0 0 255
0.33058393 0.23714261 -0.37387225 0.9238867 0.38266608 5.141458e-08 0 0 0 255
0.33058393 -0.2336744 0.1652097 0.8755826 -0.34157702 0.34158522 0 0 0 255
0.33058393 -0.23367435 -0.3738723 0.9238786 -0.38268584 -5.1417235e-08 0 0 0 255
-0.23539603 0.23714253 0.26037285 -0.34157187 0.34158227 0.8755856 0 0 0 255
0.23541999 -0.23367442 0.2603728 0.34157196 -0.34158462 0.8755848 0 0 0 255
0.23541999 0.23714253 0.26037285 0.34158775 0.34157723 0.87558144 0 0 0 255
-0.3305601 -0.2336744 0.1652097 -0.87558305 -0.34158167 0.3415794 3 3 3 255
-0.3305601 0.23714261 -0.37387225 -0.92388666 0.3826664 5.1414627e-08 0 0 0 255
-0.3305601 -0.23367435 -0.3738723 -0.9238785 -0.38268614 -5.1417278e-08 0 0 0 255
-0.23539603 0.3323065 0.16520977 -0.3415791 0.87558377 0.34157985 1 1 1 255
0.23541999 0.3323066 -0.37387225 0.38267392 0.92388356 1.2413194e-07 0 0 0 255
-0.23539603 0.3323066 -0.37387225 -0.3826833 0.9238796 1.2413142e-07 0 0 0 255
-0.23539603 -0.3288374 0.16520968 -0.3415828 -0.8755803 0.34158492 0 0 0 255
-0.23539603 -0.23367442 0.2603728 -0.3415873 -0.3415797 0.87558067 0 0 0 255
-0.3305601 0.23714255 0.16520976 -0.87557864 0.3415849 0.34158716 3 3 3 255
0.33058393 0.23714255 0.16520976 0.8755796 0.341589 0.3415809 0 0 0 255
0.23541999 0.3323065 0.16520977 0.34157977 0.8755793 0.3415906 0 0 0 255
3 0 1 4
3 0 2 1
3 5 2 0
3 6 0 3
3 0 4 3
3 6 5 0
3 6 7 9
3 6 8 7
3 3 8 6
3 6 9 5
3 5 9 10
3 10 9 12
3 11 12 9
3 11 9 7
3 10 12 13
3 13 2 10
3 13 14 2
3 14 1 2
3 14 15 1
3 1 15 16
3 17 4 16
3 17 16 18
3 1 16 4
3 18 8 17
3 18 19 8
3 7 8 19
3 7 19 11
3 3 17 8
3 3 4 17
3 5 10 2
3 20 21 22
3 23 24 25
3 26 27 28
3 29 30 31
3 32 33 34
3 35 36 29
3 26 32 37
3 27 20 24
3 28 38 39
3 21 29 31
3 26 29 36
3 28 32 26
3 27 38 28
3 36 20 27
3 22 24 20
3 23 39 38
3 32 30 37
3 20 35 21
3 23 38 24
3 26 36 27
3 29 37 30
3 32 39 33
3 21 35 29
3 26 37 29
3 28 39 32
3 27 24 38
3 36 35 20
3 22 25 24
3 23 33 39
3 32 34 30
