ply
format ascii 1.0
comment Created in Blender version 4.2.8 LTS
element vertex 40
property float x
property float y
property float z
property float nx
property float ny
property float nz
property uchar red
property uchar green
property uchar blue
property uchar alpha
element face 60
property list uchar uint vertex_indices
end_header
-0.259669 -0.330569 0.20874494 0.34159067 -0.8755791 0.3415802 0 0 0 255
-0.259669 -0.33056864 -2.4623907 0.38268667 -0.9238782 -1.2413123e-07 0 0 0 255
-0.730485 -0.33056864 -2.4623907 -0.3826861 -0.92387843 -1.2413126e-07 0 0 0 255
-0.259669 -0.23540503 0.30390894 0.34157372 -0.34158418 0.8755843 0 0 0 255
-0.164505 -0.23540501 0.20874496 0.8755792 -0.34158728 0.34158346 0 0 0 255
-0.730485 -0.23540503 0.30390894 -0.3415895 -0.34157917 0.87557995 0 0 0 255
-0.730485 -0.330569 0.20874494 -0.34158728 -0.87557924 0.34158334 0 0 0 255
-0.825649 -0.23540501 0.20874496 -0.8755813 -0.34158793 0.3415773 0 0 0 255
-0.825649 -0.23540466 -2.4623907 -0.9238782 -0.3826867 -5.1417352e-08 0 0 0 255
-0.825649 -0.02284501 -2.4623907 -0.93149084 0.36207646 -0.035007007 0 0 0 255
-0.825649 0.23541096 0.20874502 -0.87696123 0.35529962 0.32357574 0 0 0 255
-0.730485 0.07231896 -2.4623907 -0.38968647 0.9166731 -0.08862761 0 0 0 255
-0.730485 0.33057493 0.20874503 -0.341712 0.8906298 0.30001915 0 0 0 255
-0.259669 0.07231896 -2.4623907 0.38968796 0.9166725 -0.08862754 0 0 0 255
-0.259669 0.33057493 0.20874503 0.3417047 0.8906304 0.30002567 0 0 0 255
-0.164505 -0.02284501 -2.4623907 0.9314895 0.36207977 -0.035007305 0 0 1 255
-0.164505 0.23541096 0.20874502 0.87695974 0.35530618 0.32357252 0 0 0 255
-0.164505 -0.23540466 -2.4623907 0.92387843 -0.38268614 -4.5104166e-08 0 0 0 255
-0.259669 0.23541094 0.303909 0.3415894 0.34157896 0.87558013 0 0 0 255
-0.730485 0.23541094 0.303909 -0.34157354 0.34158397 0.87558436 0 0 0 255
-0.7304609 -0.23540758 -2.8304145 -0.34159476 -0.34158686 -0.87557495 254 254 254 255
-0.7304609 -0.3305716 -2.7352505 -0.341586 -0.87557995 -0.34158286 254 254 254 255
-0.8256249 -0.23540759 -2.7352505 -0.87557954 -0.34158495 -0.3415848 254 254 254 255
-0.7304609 -0.060554083 -2.8304145 -0.34158927 0.34157944 -0.87557995 254 254 254 255
-0.8256249 -0.060554095 -2.7352505 -0.87400883 0.32168478 -0.36418048 254 254 254 255
-0.7304609 0.0346099 -2.7352505 -0.3403461 0.85074484 -0.4004969 254 254 254 255
-0.2596449 -0.23540758 -2.8304145 0.34158963 -0.3415787 -0.8755801 254 254 254 255
-0.16448091 -0.23540759 -2.7352505 0.87557966 -0.3415769 -0.34159285 254 254 254 255
-0.2596449 -0.3305716 -2.7352505 0.3415854 -0.87557936 -0.34158513 254 254 254 255
-0.2596449 -0.060554083 -2.8304145 0.341595 0.34158656 -0.87557495 254 254 254 255
-0.2596449 0.0346099 -2.7352505 0.34035036 0.8507448 -0.40049338 254 254 254 255
-0.16448091 -0.060554095 -2.7352505 0.8740088 0.32169417 -0.36417258 254 254 254 255
-0.7304609 0.07231595 -2.4623904 -0.36834762 0.92093664 -0.12726268 254 254 254 255
-0.8256249 -0.022848034 -2.4623904 -0.91040194 0.4098304 -0.056633838 254 254 254 255
-0.16448091 -0.022848034 -2.4623904 0.91040266 0.40982908 -0.056633484 254 254 254 255
-0.2596449 0.07231595 -2.4623904 0.36835623 0.9209333 -0.12726216 254 254 254 255
-0.2596449 -0.33057162 -2.4623904 0.38267908 -0.92388135 -1.2413166e-07 254 254 254 255
-0.16448091 -0.23540764 -2.4623904 0.92388016 -0.38268217 -7.1177775e-09 254 254 254 255
-0.8256249 -0.23540764 -2.4623904 -0.92388284 -0.38267562 -1.6216512e-07 254 254 254 255
-0.7304609 -0.33057162 -2.4623904 -0.3826836 -0.92387944 -1.241314e-07 254 254 254 255
3 1 4 0
3 0 2 1
3 0 6 2
3 5 0 3
3 3 0 4
3 5 6 0
3 6 7 8
3 6 5 7
3 6 8 2
3 7 9 8
3 7 10 9
3 11 9 10
3 11 10 12
3 12 13 11
3 12 14 13
3 15 13 14
3 15 14 16
3 16 17 15
3 16 4 17
3 1 17 4
3 3 16 18
3 18 16 14
3 3 4 16
3 18 12 19
3 19 3 18
3 18 14 12
3 19 5 3
3 19 10 7
3 19 12 10
3 19 7 5
3 20 21 22
3 23 24 25
3 26 27 28
3 29 30 31
3 20 24 23
3 32 24 33
3 23 30 29
3 34 30 35
3 29 27 26
3 36 27 37
3 26 21 20
3 29 20 23
3 21 38 22
3 32 30 25
3 38 24 22
3 31 37 27
3 36 21 28
3 20 22 24
3 32 25 24
3 23 25 30
3 34 31 30
3 29 31 27
3 36 28 27
3 26 28 21
3 29 26 20
3 21 39 38
3 32 35 30
3 38 33 24
3 31 34 37
3 36 39 21
