ply
format ascii 1.0
comment Created in Blender version 4.2.9 LTS
element vertex 48
property float x
property float y
property float z
property float nx
property float ny
property float nz
property uchar red
property uchar green
property uchar blue
property uchar alpha
element face 60
property list uchar uint vertex_indices
end_header
-0.23540948 -0.33057174 0.18103555 -0.38147166 -0.8876657 -0.2579323 254 109 242 255
-0.33057344 -0.23540941 0.18103553 -0.8876667 -0.38147214 -0.25792837 254 109 242 255
-0.23540948 0.33057192 0.18103549 -0.38147572 0.88766414 -0.2579315 254 109 242 255
-0.33057344 0.23540793 0.1810355 -0.88766855 0.3814683 -0.25792727 254 109 242 255
0.23540625 -0.33057174 0.18103555 0.38146406 -0.88766724 -0.25793803 254 109 242 255
0.33057022 -0.23540941 0.18103553 0.8876595 -0.38147876 -0.25794312 254 109 242 255
0.33057022 0.23540793 0.1810355 0.8876614 0.381475 -0.25794205 254 109 242 255
0.23540625 0.33057192 0.18103549 0.38146812 0.88766587 -0.25793722 254 109 242 255
-0.157504 -0.2211666 -0.31069776 -0.3556848 -0.8987712 -0.25631768 254 109 242 255
-0.22117285 -0.15749884 -0.31069776 -0.89877385 -0.35568127 -0.25631312 254 109 242 255
-0.157504 0.22116742 -0.31069782 -0.35568878 0.8987698 -0.25631693 254 109 242 255
0.1574923 0.22116742 -0.31069782 0.35567588 0.8987736 -0.2563218 254 109 242 255
0.1574923 -0.2211666 -0.31069776 0.35567188 -0.898775 -0.25632262 254 109 242 255
0.22116116 -0.15749884 -0.31069776 0.8987702 -0.3556801 -0.2563276 254 109 242 255
0.22116116 0.15749855 -0.31069782 0.89876777 0.35568663 -0.25632727 254 109 242 255
-0.22117285 0.15749855 -0.31069782 -0.89877135 0.35568792 -0.25631276 254 109 242 255
-0.23540948 -0.33057174 0.18103555 -0.28943962 -0.79603606 0.53155565 254 181 179 255
-0.33057344 -0.23540941 0.18103553 -0.7960332 -0.28943464 0.5315627 254 181 179 255
-0.23540948 -0.2354094 0.3235468 -0.40709648 -0.40711525 0.8176367 254 181 179 255
0.23540625 -0.33057174 0.18103555 0.28943068 -0.7960383 0.531557 254 181 179 255
0.23540625 -0.2354094 0.3235468 0.40711838 -0.40710646 0.81763 254 181 179 255
0.33057022 -0.23540941 0.18103553 0.7960308 -0.2894435 0.53156126 254 181 179 255
0.33057022 0.23540793 0.1810355 0.79603386 0.2894319 0.5315631 254 181 179 255
0.23540625 0.23540795 0.32354674 0.40709698 0.40711245 0.81763774 254 181 179 255
0.23540625 0.33057192 0.18103549 0.28944066 0.7960318 0.53156155 254 181 179 255
-0.23540948 0.33057192 0.18103549 -0.28943184 0.79603374 0.5315633 254 181 179 255
-0.23540948 0.23540795 0.32354674 -0.40711892 0.40710357 0.8176313 254 181 179 255
-0.33057344 0.23540793 0.1810355 -0.7960316 0.2894407 0.5315617 254 181 179 255
-0.07682106 -0.07679139 -1.4641068 -0.34158906 -0.34158275 -0.8755787 253 179 177 255
-0.107865006 -0.076791376 -1.4330628 -0.85620284 -0.3300285 -0.3974897 253 179 177 255
-0.07682106 -0.107834816 -1.4330628 -0.3300224 -0.8562044 -0.39749125 253 179 177 255
-0.07682106 0.07679644 -1.4641068 -0.3415739 0.34158462 -0.87558407 253 179 177 255
0.07676624 -0.07679139 -1.4641068 0.34157375 -0.34158796 -0.8755827 253 179 177 255
0.07676624 -0.107834816 -1.4330628 0.33002177 -0.8562056 -0.3974893 253 179 177 255
0.10781017 -0.076791376 -1.4330628 0.85620034 -0.33002785 -0.39749545 253 179 177 255
0.07676624 0.07679644 -1.4641068 0.34158874 0.3415794 -0.8755802 253 179 177 255
0.10781017 0.07679644 -1.4330628 0.85620165 0.33002898 -0.39749175 253 179 177 255
0.07676624 0.107840374 -1.4330628 0.3300203 0.85620254 -0.39749694 253 179 177 255
-0.07682106 0.107840374 -1.4330628 -0.33002907 0.85620296 -0.3974889 253 179 177 255
0.15747507 0.2211696 -0.31069723 0.38581452 0.9147249 -0.1201068 253 179 177 255
0.22114393 0.15750073 -0.31069723 0.91472566 0.38581216 -0.120108835 253 179 177 255
-0.1575213 0.2211696 -0.31069723 -0.38582173 0.9147222 -0.12010407 253 179 177 255
-0.22119014 0.15750073 -0.31069723 -0.9147216 0.38582355 -0.120102204 253 179 177 255
-0.107865006 0.07679644 -1.4330628 -0.856203 0.33002147 -0.39749494 253 179 177 255
-0.22119014 -0.15749669 -0.3106972 -0.914724 -0.3858181 -0.12010238 253 179 177 255
-0.1575213 -0.22116448 -0.3106972 -0.385818 -0.9147237 -0.12010429 253 179 177 255
0.15747507 -0.22116448 -0.3106972 0.38581103 -0.9147264 -0.12010704 253 179 177 255
0.22114393 -0.15749669 -0.3106972 0.9147198 -0.38582557 -0.120109536 253 179 177 255
3 6 13 14
3 3 9 1
3 2 11 10
3 14 7 6
3 8 1 9
3 10 3 2
3 13 4 12
3 0 12 4
3 16 18 17
3 16 20 18
3 20 19 21
3 21 23 20
3 23 22 24
3 24 26 23
3 26 25 27
3 27 18 26
3 18 23 26
3 28 30 29
3 29 31 28
3 33 28 32
3 32 31 35
3 32 34 33
3 36 32 35
3 35 37 36
3 38 35 31
3 36 39 40
3 41 37 38
3 38 42 41
3 29 42 43
3 44 30 45
3 45 33 46
3 34 46 33
3 47 36 40
3 31 43 38
3 6 5 13
3 3 15 9
3 2 7 11
3 14 11 7
3 8 0 1
3 10 15 3
3 13 5 4
3 0 8 12
3 16 19 20
3 21 22 23
3 24 25 26
3 27 17 18
3 18 20 23
3 29 43 31
3 33 30 28
3 32 28 31
3 36 34 32
3 38 37 35
3 36 37 39
3 41 39 37
3 38 43 42
3 29 44 42
3 44 29 30
3 45 30 33
3 34 47 46
3 47 34 36
