ply
format ascii 1.0
comment Created in Blender version 4.2.9 LTS
element vertex 166
property float x
property float y
property float z
property float nx
property float ny
property float nz
property uchar red
property uchar green
property uchar blue
property uchar alpha
property float Color_r
property float Color_g
property float Color_b
property float Color_a
element face 198
property list uchar uint vertex_indices
end_header
0.84661263 -0.43752784 2.7256398 0.8821458 -0.2415875 0.40429476 254 181 179 255 1 1 1 1
0.603294 -0.43752784 3.256546 0.4737135 -0.36492476 0.80151445 254 181 179 255 1 1 1 1
0.84661263 0.437533 2.7256398 0.9019041 0.12534223 0.41335014 254 181 179 255 1 1 1 1
0.58928365 -0.9306373 2.6440737 0.30393076 -0.74545884 0.5932262 254 181 179 255 1 1 1 1
-0.61451864 -0.9306373 2.6440737 -0.31761774 -0.73502654 0.5990451 254 181 179 255 1 1 1 1
-0.6005083 -0.43752784 3.256546 -0.47167355 -0.36164156 0.8042012 254 181 179 255 1 1 1 1
-0.84382683 -0.43752784 2.7256398 -0.88604546 -0.22365367 0.406082 254 181 179 255 1 1 1 1
-0.6005083 0.437533 3.256546 -0.46935055 0.3821468 0.79603636 254 181 179 255 1 1 1 1
-0.84382683 0.437533 2.7256398 -0.90190405 0.1253436 0.41334987 254 181 179 255 1 1 1 1
-0.6005083 0.6144047 3.0132265 -0.47832632 0.7103397 0.51635396 254 181 179 255 1 1 1 1
0.603294 0.437533 3.256546 0.46935675 0.38214415 0.796034 254 181 179 255 1 1 1 1
0.603294 0.6144047 3.0132265 0.4783181 0.7103435 0.5163565 254 181 179 255 1 1 1 1
-0.84382683 -0.437528 0.67634445 -0.8786316 -0.45696846 0.13851541 254 109 242 255 1 1 1 1
-0.6005083 -0.61439973 0.67634445 -0.31906143 -0.9406515 0.11564903 254 109 242 255 1 1 1 1
-0.84382683 0.4375328 0.67634434 -0.8724272 0.46324205 0.15581295 254 109 242 255 1 1 1 1
0.84661263 0.4375328 0.67634434 0.8724271 0.46324176 0.15581392 254 109 242 255 1 1 1 1
0.603294 0.6144045 0.67634434 0.3045783 0.9373587 0.169088 254 109 242 255 1 1 1 1
0.84661263 -0.437528 0.67634445 0.8786315 -0.45696822 0.13851644 254 109 242 255 1 1 1 1
0.603294 -0.61439973 0.67634445 0.3190588 -0.9406524 0.115649186 254 109 242 255 1 1 1 1
0.64190125 0.18815072 1.8600837 0.8631647 0.5027057 -0.047261965 254 109 242 255 1 1 1 1
0.64190125 -0.24032676 1.8600837 0.9359853 -0.3520258 0.0030748586 254 109 242 255 1 1 1 1
0.84661263 -0.43752784 2.7256398 0.88613635 -0.2643623 -0.3806245 254 109 242 255 1 1 1 1
0.4575136 -0.42571032 2.1198475 0.3544556 -0.88275623 -0.30838722 254 109 242 255 1 1 1 1
0.58928365 -0.9306373 2.6440737 0.39964768 -0.60796934 -0.68604296 254 109 242 255 1 1 1 1
-0.45473105 -0.42571032 2.1198475 -0.35350877 -0.88184625 -0.31205568 254 109 242 255 1 1 1 1
-0.63911855 -0.24032676 1.8600837 -0.9359853 -0.35202563 0.0030747799 254 109 242 255 1 1 1 1
-0.84382683 -0.43752784 2.7256398 -0.889709 -0.24659988 -0.38419574 254 109 242 255 1 1 1 1
-0.61451864 -0.9306373 2.6440737 -0.4149097 -0.58883834 -0.6936277 254 109 242 255 1 1 1 1
0.84661263 0.437533 2.7256398 0.6545221 0.67923486 -0.33202538 254 109 242 255 1 1 1 1
0.603294 0.6144047 3.0132265 0.105900444 0.9501533 -0.2932472 254 109 242 255 1 1 1 1
0.4575136 0.27475673 1.8600837 0.21096921 0.9772766 -0.020557 254 109 242 255 1 1 1 1
-0.6005083 0.6144047 3.0132265 -0.10589943 0.95015347 -0.2932468 254 109 242 255 1 1 1 1
-0.45473105 0.27475673 1.8600837 -0.21097721 0.9772749 -0.020557597 254 109 242 255 1 1 1 1
-0.6005083 0.6144045 0.67634434 -0.30457574 0.93735963 0.1690873 254 109 242 255 1 1 1 1
-0.63911855 0.18815072 1.8600837 -0.86316514 0.50270504 -0.04726145 254 109 242 255 1 1 1 1
-0.84382683 0.437533 2.7256398 -0.65452284 0.6792352 -0.33202332 254 109 242 255 1 1 1 1
-0.99970305 -0.51821786 -2.364624 -0.8895249 -0.45323852 0.057622258 254 109 242 255 1 1 1 1
-0.71151143 -0.7277084 -2.364624 -0.31306323 -0.94857997 0.046772357 254 109 242 255 1 1 1 1
-0.99970305 0.51822263 -2.3646243 -0.889533 0.45322284 0.057622258 254 109 242 255 1 1 1 1
1.0024891 0.51822263 -2.3646243 0.88953286 0.4532229 0.057622313 254 109 242 255 1 1 1 1
0.71429735 0.72771317 -2.3646243 0.3130631 0.94857997 0.046772357 254 109 242 255 1 1 1 1
1.0024891 -0.51821786 -2.364624 0.8895249 -0.4532386 0.057622343 254 109 242 255 1 1 1 1
0.71429735 -0.7277084 -2.364624 0.31307438 -0.9485763 0.04677266 254 109 242 255 1 1 1 1
-0.71151143 0.72771317 -2.3646243 -0.31307447 0.94857615 0.04677263 254 109 242 255 1 1 1 1
0.07164106 -0.6210424 3.5984957 2.4273473e-07 0.9847732 0.17384386 223 69 101 255 0 0 0 0
-0.08167325 -0.62108123 3.5987158 -5.7735565e-07 0.9847733 0.17384352 223 69 101 255 0 0 0 0
0.14939067 -0.63586247 3.6824467 3.98214e-07 0.9847731 0.1738445 223 69 101 255 0 0 0 0
-0.15369916 -0.6357322 3.6817088 3.8094342e-08 0.9847729 0.17384556 223 69 101 255 0 0 0 0
0.07586149 -0.6463926 3.7420962 3.8454385e-07 0.984773 0.1738456 223 69 101 255 0 0 0 0
-0.089515224 -0.6463215 3.7416935 2.1435616e-07 0.9847723 0.17384902 223 69 101 255 0 0 0 0
-0.2778105 -0.41538495 3.2738035 -0.3824569 -0.2988556 -0.87430674 254 181 178 255 0 0 0 0
-0.38858277 -0.4153849 3.441723 -0.8438659 -0.3218558 -0.42930084 252 180 177 255 0 0 0 0
-0.2778105 -0.5833044 3.441723 -0.37846607 -0.80515504 -0.456606 252 180 177 255 0 0 0 0
-0.4191764 0.41538513 3.4161186 -0.36555195 0.37934476 -0.849982 254 181 178 255 0 0 0 0
-0.58709586 0.41538525 3.5840383 -0.8434522 0.28252512 -0.45691136 254 181 178 255 0 0 0 0
0.27022785 -0.41538495 3.2738035 0.39226037 -0.29028982 -0.87284803 254 181 178 255 0 0 0 0
0.4115938 0.41538513 3.4161186 0.37551126 0.3658636 -0.85154873 254 181 178 255 0 0 0 0
0.57951325 0.41538525 3.5840383 0.86603045 0.24412313 -0.4363431 254 181 178 255 0 0 0 0
0.4115938 0.58330464 3.5840383 0.31567875 0.8313058 -0.45746863 254 181 178 255 0 0 0 0
0.38100013 -0.4153849 3.441723 0.8567729 -0.2831738 -0.43099067 254 181 178 255 0 0 0 0
0.27022785 -0.5833044 3.441723 0.36812043 -0.8050384 -0.46518877 254 181 178 255 0 0 0 0
0.8414027 0.60190475 4.812974 0.8919667 0.35132873 -0.28454122 254 181 178 255 0 0 0 0
0.8414027 -0.6018976 4.812974 0.8756483 -0.35402334 -0.32849288 254 180 178 255 0 0 0 0
0.59810984 -0.8452194 4.812973 0.39724237 -0.8792436 -0.26292443 254 181 178 255 0 0 0 0
-0.6057182 -0.8452163 4.812974 -0.4024092 -0.8722602 -0.27790117 254 181 178 255 0 0 0 0
-0.84901094 -0.6019007 4.812973 -0.8688722 -0.3896323 -0.30536526 254 181 178 255 0 0 0 0
-0.84901094 0.6019014 4.812973 -0.8903077 0.38207063 -0.2477381 254 181 178 255 0 0 0 0
-0.6057182 0.84522307 4.812974 -0.3821298 0.8902803 -0.2477455 254 181 178 255 0 0 0 0
-0.4191764 0.58330464 3.5840383 -0.31567857 0.831301 -0.45747778 254 181 178 255 0 0 0 0
0.59810984 0.84521997 4.812973 0.3821129 0.8902916 -0.2477314 252 179 176 255 0 0 0 0
0.94432247 0.67519736 4.730485 0.8862425 0.38682052 0.2548413 254 181 23 255 0 0 0 0
0.94432247 -0.6751901 4.730485 0.84774864 -0.13064837 0.5140559 254 192 21 255 0 0 0 0
0.67137533 -0.6751901 5.0034323 0.3415697 -0.34157586 0.87558895 254 176 23 255 0 0 0 0
0.6714042 -0.94814086 4.730484 0.24186085 -0.686098 0.6861289 254 192 21 255 0 0 0 0
-0.67901224 -0.6751901 5.0034323 -0.3416111 -0.34157526 0.87557316 254 177 23 255 0 0 0 0
-0.67901224 -0.9481373 4.730485 -0.24184817 -0.6861159 0.68611544 254 192 21 255 0 0 0 0
-0.9519304 -0.6751936 4.730484 -0.8680295 -0.21028516 0.44978324 254 191 21 255 0 0 0 0
-0.9519304 0.67519367 4.730484 -0.8760988 0.3885955 0.2853846 254 173 24 255 0 0 0 0
-0.67901224 0.67519724 5.0034323 -0.34159648 0.34158164 0.87557626 254 195 21 255 0 0 0 0
0.67137533 0.67519724 5.0034323 0.3415853 0.34157565 0.875583 254 182 23 255 0 0 0 0
-0.67901224 0.94814444 4.730485 -0.40999153 0.83848965 0.35894603 254 195 21 255 0 0 0 0
0.6714042 0.94814074 4.730484 0.42136163 0.81859183 0.39033562 254 174 24 255 0 0 0 0
0.84810627 0.37220156 1.6063006 0.87569815 0.46134976 -0.14251094 254 192 21 255 0 0 0 0
1.0011748 -0.122240424 1.6063008 0.95391214 0.2953102 0.053325593 254 192 21 255 0 0 0 0
-1.3234351 0.07874048 1.6062999 -0.74616945 0.639324 0.1857308 254 187 22 255 0 0 0 0
-1.01647 0.43700635 1.6062996 -0.7114848 0.70019805 0.05926279 254 191 21 255 0 0 0 0
-0.20378414 1.0878187 1.1217089 -0.13191257 0.9773463 0.16550922 254 173 24 255 0 0 0 0
0.30988055 0.94814146 1.2882912 0.3433176 0.9345112 0.09392513 254 192 21 255 0 0 0 0
0.29248798 1.0652637 3.1683917 0.37456453 0.90453106 -0.20377705 254 173 24 255 0 0 0 0
1.0238938 0.06547898 3.168393 0.99398863 0.10939482 0.0043989266 254 192 21 255 0 0 0 0
-1.0139455 -0.2080338 3.1683917 -0.98597074 -0.10325809 0.13114686 254 192 21 255 0 0 0 0
-1.0615323 0.52123165 3.168392 -0.9613127 0.27107862 0.048931353 254 192 21 255 0 0 0 0
-0.74102736 1.0652676 3.168393 -0.5056913 0.85774773 -0.09244055 254 177 23 255 0 0 0 0
0.88230735 -0.21022677 3.168393 0.8846222 -0.45429093 -0.10518314 254 175 24 255 0 0 0 0
0.6109654 1.2398674 3.954 0.52303445 0.8509852 -0.04752979 254 179 23 255 0 0 0 0
-0.8126902 -0.49443346 3.9539998 -0.9811184 -0.18519852 -0.05575315 254 174 24 255 0 0 0 0
0.9137526 0.40516627 3.954001 0.94917125 0.30756912 -0.066898696 254 192 21 255 0 0 0 0
-0.9825002 0.40516245 3.9539998 -0.9800948 0.19233699 0.04920129 254 192 21 255 0 0 0 0
-0.53977203 1.1289046 3.954001 -0.4359069 0.89612424 0.08334609 254 181 23 255 0 0 0 0
1.0835626 -0.4944299 3.954001 0.9866237 0.12257843 0.1074633 254 192 21 255 0 0 0 0
1.0085537 0.67519736 2.4076123 0.750134 0.6588507 0.05669975 254 192 21 255 0 0 0 0
-0.88769907 0.67519367 2.4076114 -0.68845403 0.70094436 -0.18630135 254 192 21 255 0 0 0 0
-0.4249434 0.840207 2.407612 -0.19474445 0.96695983 -0.16450922 254 173 24 255 0 0 0 0
1.0085537 -0.29077244 2.4076123 0.99936724 -0.007389114 -0.03479207 254 192 21 255 0 0 0 0
0.5457981 0.84020436 2.4076116 0.3752424 0.92687607 -0.009695855 254 192 21 255 0 0 0 0
-1.1239786 0.07874054 2.4076114 -0.9486629 0.31474125 0.03125296 254 192 21 255 0 0 0 0
-0.72356725 0.72355926 5.271188 -0.6109677 0.6029232 -0.51303226 254 202 23 255 0 0 0 0
-0.72356725 -0.72356135 5.2711873 -0.60479057 -0.6092597 -0.51286536 254 202 23 255 0 0 0 0
-0.6019177 -0.60195863 4.983275 -0.6025239 -0.6033393 -0.522443 254 202 23 255 0 0 0 0
0.6018846 -0.60195863 4.9832754 0.6015896 -0.60367614 -0.5231301 254 202 23 255 0 0 0 0
0.72355366 -0.7235614 5.271188 0.6157234 -0.59821284 -0.5128607 254 202 23 255 0 0 0 0
0.72355366 0.72355926 5.271188 0.5992812 0.61453 -0.5130448 254 202 23 255 0 0 0 0
0.6018846 0.6018436 4.9832754 0.60315764 0.59945685 -0.52616775 254 202 23 255 0 0 0 0
-0.6019177 0.6018437 4.983275 -0.6052717 0.5981483 -0.5252283 254 202 23 255 0 0 0 0
0.003128238 -0.8452208 5.271188 -0.00015626932 -0.7638519 -0.6453916 254 202 23 255 0 0 0 0
0.0031184405 -0.60195863 4.9832754 -0.00025404492 -0.7945746 -0.60716647 254 202 23 255 0 0 0 0
0.30253357 -0.64503795 5.071007 0.022327699 -0.8742031 -0.48504683 254 202 23 255 0 0 0 0
-0.2932065 -0.64503944 5.0710073 -0.022550555 -0.87387055 -0.48563534 254 202 23 255 0 0 0 0
0.8452 0.0065027475 5.2711883 0.76378316 -0.000647078 -0.6454726 254 202 23 255 0 0 0 0
0.6018846 0.0064479113 4.9832754 0.7943529 -0.0010291926 -0.60745573 254 202 23 255 0 0 0 0
0.64726216 -0.2820266 5.073229 0.86983967 -0.023768319 -0.49276182 254 202 23 255 0 0 0 0
0.64726216 0.3075832 5.073229 0.8710411 0.02276927 -0.4906821 254 202 23 255 0 0 0 0
-0.003446661 0.6018437 4.9832754 0.000292749 0.7933583 -0.60875493 254 202 23 255 0 0 0 0
-0.0034369975 0.84521854 5.271188 0.00019896969 0.76370454 -0.64556587 254 202 23 255 0 0 0 0
0.2919067 0.6509732 5.0769396 0.023991533 0.86542964 -0.5004558 254 202 23 255 0 0 0 0
-0.3026785 0.6509714 5.07694 -0.023800513 0.8658691 -0.49970433 254 202 23 255 0 0 0 0
-0.84521365 0.0031347275 5.271187 -0.76380724 0.0010065881 -0.6454436 254 202 23 255 0 0 0 0
-0.6019177 0.0030767322 4.983275 -0.79492676 0.0015967719 -0.6067033 254 202 23 255 0 0 0 0
-0.6454606 0.28642428 5.071434 -0.8721826 0.024036909 -0.48858958 254 202 23 255 0 0 0 0
-0.6454606 -0.29938293 5.071434 -0.87362367 -0.0220751 -0.48610112 254 202 23 255 0 0 0 0
-0.20359263 -0.7627626 4.33359 7.146028e-10 0.986143 0.16589755 254 254 254 255 0 0 0 0
-0.35690692 -0.7627997 4.3338103 -1.1547111e-06 0.9861429 0.16589849 254 254 254 255 0 0 0 0
-0.12584302 -0.77690524 4.417658 -2.5236278e-07 0.9861428 0.16589896 254 254 254 255 0 0 0 0
-0.42893285 -0.77678096 4.4169188 -6.738917e-08 0.98614293 0.16589844 254 254 254 255 0 0 0 0
-0.1993722 -0.78695405 4.47739 -5.954854e-07 0.9861425 0.16590053 254 254 254 255 0 0 0 0
-0.36474887 -0.7868862 4.476987 1.2166147e-06 0.986143 0.16589786 254 254 254 255 0 0 0 0
-0.36852455 -0.8030388 4.524834 0.064447574 0.997446 0.030789547 169 111 23 255 0 0 0 0
-0.46153456 -0.7871593 4.503514 0.112665005 0.96695065 0.22872089 169 111 23 255 0 0 0 0
-0.13488026 -0.80768275 4.569522 -0.016823592 0.9816443 0.18997754 169 111 23 255 0 0 0 0
-0.4615302 -0.79041266 4.5172663 0.118018165 0.9767097 0.17919213 169 111 23 255 0 0 0 0
-0.11487366 -0.7977091 4.5257716 -0.021311328 0.97683245 0.21294208 169 111 23 255 0 0 0 0
-0.3895646 -0.8021161 4.5755005 0.079753935 0.99670225 0.014966958 169 111 23 255 0 0 0 0
-0.20359263 -0.7694403 4.33359 -2.7295656e-07 0.986143 0.16589762 136 232 254 255 0 0 0 0
-0.26381966 -0.76947737 4.3338103 -2.9451178e-06 0.9861432 0.165897 136 232 254 255 0 0 0 0
-0.12584302 -0.783583 4.417658 5.7548462e-08 0.9861429 0.16589864 136 232 254 255 0 0 0 0
-0.33584556 -0.78345865 4.4169188 1.0321844e-07 0.98614293 0.16589813 136 232 254 255 0 0 0 0
-0.1993722 -0.79363173 4.47739 -8.4236e-09 0.9861427 0.16589926 136 232 254 255 0 0 0 0
-0.27166167 -0.7935639 4.476987 2.7926376e-06 0.986143 0.16589779 136 232 254 255 0 0 0 0
0.1970911 -0.7627626 4.33359 7.1455364e-10 -0.9861432 -0.1658966 254 254 254 255 0 0 0 0
0.3504054 -0.7627997 4.3338103 -1.1547114e-06 -0.9861429 -0.16589855 254 254 254 255 0 0 0 0
0.119341485 -0.77690524 4.417658 -2.5236284e-07 -0.9861428 -0.1658985 254 254 254 255 0 0 0 0
0.42243132 -0.77678096 4.4169188 -6.7389266e-08 -0.9861429 -0.16589825 254 254 254 255 0 0 0 0
0.19287068 -0.78695405 4.47739 -5.9548546e-07 -0.9861425 -0.16590093 254 254 254 255 0 0 0 0
0.35824734 -0.7868862 4.476987 1.2166148e-06 -0.986143 -0.16589789 254 254 254 255 0 0 0 0
0.36202303 -0.8030388 4.524834 0.06444763 -0.99744594 -0.030791933 169 111 23 255 0 0 0 0
0.45503303 -0.7871593 4.503514 0.11266514 -0.9669505 -0.22872117 169 111 23 255 0 0 0 0
0.12837872 -0.80768275 4.569522 -0.016823597 -0.98164463 -0.18997605 169 111 23 255 0 0 0 0
0.45502865 -0.79041266 4.5172663 0.11801831 -0.9767097 -0.17919242 169 111 23 255 0 0 0 0
0.10837214 -0.7977091 4.5257716 -0.021311335 -0.97683287 -0.21293986 169 111 23 255 0 0 0 0
0.38306308 -0.8021161 4.5755005 0.07975399 -0.99670225 -0.014969178 169 111 23 255 0 0 0 0
0.1970911 -0.7694403 4.33359 -2.72956e-07 -0.986143 -0.16589761 136 232 254 255 0 0 0 0
0.25731814 -0.76947737 4.3338103 -2.9451157e-06 -0.9861432 -0.16589689 136 232 254 255 0 0 0 0
0.119341485 -0.783583 4.417658 5.754854e-08 -0.9861428 -0.1658989 136 232 254 255 0 0 0 0
0.32934403 -0.78345865 4.4169188 1.0321892e-07 -0.9861429 -0.16589826 136 232 254 255 0 0 0 0
0.19287068 -0.79363173 4.47739 -8.423462e-09 -0.9861427 -0.16589978 136 232 254 255 0 0 0 0
0.2651601 -0.7935639 4.476987 2.7926385e-06 -0.986143 -0.16589783 136 232 254 255 0 0 0 0
3 1 0 2
3 1 3 0
3 5 4 3
3 5 3 1
3 4 5 6
3 7 6 5
3 7 5 1
3 7 1 10
3 7 8 6
3 7 9 8
3 10 9 7
3 1 2 10
3 10 2 11
3 10 11 9
3 18 17 20
3 19 17 15
3 19 20 17
3 19 21 20
3 22 20 21
3 18 20 22
3 23 24 22
3 22 21 23
3 22 24 13
3 22 13 18
3 23 27 24
3 24 26 25
3 13 24 25
3 24 27 26
3 28 30 29
3 28 19 30
3 19 28 21
3 31 30 32
3 31 29 30
3 33 32 30
3 15 30 19
3 15 16 30
3 33 30 16
3 32 33 14
3 32 35 31
3 32 14 34
3 32 34 35
3 26 35 34
3 26 34 25
3 12 25 34
3 12 34 14
3 13 25 12
3 12 37 13
3 15 40 16
3 15 41 39
3 17 42 41
3 14 43 38
3 14 36 12
3 13 42 18
3 16 43 33
3 44 47 46
3 47 48 46
3 50 51 54
3 50 52 51
3 55 52 50
3 56 50 53
3 50 54 53
3 56 55 50
3 56 57 59
3 56 58 57
3 53 58 56
3 56 59 55
3 61 59 57
3 55 59 60
3 60 59 62
3 61 62 59
3 60 62 63
3 63 52 60
3 63 64 52
3 64 51 52
3 64 65 51
3 65 54 51
3 65 66 54
3 68 66 67
3 67 58 68
3 67 69 58
3 57 58 69
3 57 69 61
3 53 68 58
3 53 54 68
3 68 54 66
3 55 60 52
3 72 71 70
3 72 73 71
3 74 73 72
3 74 75 73
3 75 74 76
3 78 77 76
3 78 76 74
3 79 80 78
3 78 72 79
3 78 74 72
3 78 80 77
3 79 81 80
3 79 70 81
3 72 70 79
3 104 82 87
3 105 85 84
3 102 85 101
3 102 87 86
3 103 82 100
3 99 89 96
3 98 88 92
3 97 92 91
3 97 90 95
3 96 88 94
3 81 96 94
3 76 97 95
3 80 97 77
3 81 98 80
3 71 96 70
3 89 103 100
3 88 102 92
3 92 101 91
3 91 105 90
3 89 104 88
3 121 112 111
3 112 124 111
3 108 117 107
3 129 108 107
3 116 115 109
3 109 110 116
3 115 117 108
3 120 119 118
3 110 109 120
3 119 121 118
3 125 122 113
3 122 124 112
3 113 106 125
3 128 127 126
3 106 113 128
3 127 129 126
3 130 133 132
3 133 134 132
3 136 138 140
3 139 136 137
3 142 145 144
3 145 146 144
3 148 151 150
3 151 152 150
3 154 156 158
3 157 154 155
3 160 163 162
3 163 164 162
3 12 36 37
3 15 39 40
3 15 17 41
3 17 18 42
3 14 33 43
3 14 38 36
3 13 37 42
3 16 40 43
3 44 45 47
3 47 49 48
3 104 100 82
3 105 101 85
3 102 86 85
3 102 104 87
3 103 83 82
3 99 93 89
3 98 94 88
3 97 98 92
3 97 91 90
3 96 89 88
3 81 70 96
3 76 77 97
3 80 98 97
3 81 94 98
3 71 99 96
3 89 93 103
3 88 104 102
3 92 102 101
3 91 101 105
3 89 100 104
3 116 114 115
3 115 114 117
3 120 109 119
3 119 112 121
3 125 123 122
3 122 123 124
3 128 113 127
3 127 108 129
3 130 131 133
3 133 135 134
3 136 141 138
3 139 141 136
3 142 143 145
3 145 147 146
3 148 149 151
3 151 153 152
3 154 159 156
3 157 159 154
3 160 161 163
3 163 165 164
