ply
format ascii 1.0
comment Created in Blender version 4.2.9 LTS
element vertex 119
property float x
property float y
property float z
property float nx
property float ny
property float nz
property uchar red
property uchar green
property uchar blue
property uchar alpha
property float Color_r
property float Color_g
property float Color_b
property float Color_a
element face 146
property list uchar uint vertex_indices
end_header
-0.60045666 -0.61439955 3.0132265 0 -1 -4.417761e-08 254 254 254 255 1 1 1 1
0.60334563 -0.61439955 3.0132265 0 -1 -4.417761e-08 254 254 254 255 1 1 1 1
0.025993168 -0.6143996 1.8924406 0 -1 -4.417761e-08 254 254 254 255 1 1 1 1
0.2070457 -0.85131556 3.7514176 0 1 0 133 0 4 255 1 1 1 1
-0.2133281 -0.85131556 3.7530138 0 1 0 133 0 4 255 1 1 1 1
0.14574811 -0.85131556 3.8248737 0 1 0 133 0 4 255 1 1 1 1
-0.15734172 -0.85131556 3.8276286 0 1 0 133 0 4 255 1 1 1 1
-0.6004583 -0.4375281 0.43302608 -0.3327254 -0.40414867 -0.85203147 35 35 35 255 1 1 1 1
-0.6004583 -0.6143998 0.67634463 -0.28436762 -0.915573 -0.28436095 35 35 35 255 1 1 1 1
-0.84377694 -0.43752807 0.67634463 -0.8520288 -0.4041468 -0.33273485 35 35 35 255 1 1 1 1
-0.6004583 -0.61439955 3.0132265 -0.34490347 -0.87297446 0.34490192 35 35 35 255 1 1 1 1
-0.6004583 -0.43752787 3.256546 -0.33273897 -0.4041408 0.85203004 35 35 35 255 1 1 1 1
-0.84377694 -0.4375279 3.0132265 -0.8520244 -0.4041579 0.33273238 35 35 35 255 1 1 1 1
-0.6004583 0.43753272 0.43302608 -0.33273864 0.40414032 -0.8520303 35 35 35 255 1 1 1 1
-0.84377694 0.43753272 0.67634463 -0.85202426 0.40415776 -0.3327329 35 35 35 255 1 1 1 1
-0.6004583 0.6144044 0.67634463 -0.28436288 0.915574 -0.28436238 35 35 35 255 1 1 1 1
-0.6004583 0.43753296 3.2565458 -0.33272582 0.40414956 0.852031 35 35 35 255 1 1 1 1
-0.6004583 0.6144045 3.0132265 -0.28436747 0.9155733 0.2843602 35 35 35 255 1 1 1 1
-0.84377694 0.43753284 3.0132265 -0.85202885 0.40414694 0.33273426 35 35 35 255 1 1 1 1
0.6033439 -0.4375281 0.43302608 0.33273882 -0.40414017 -0.8520303 35 35 35 255 1 1 1 1
0.8466624 -0.43752807 0.67634463 0.8520244 -0.40415776 -0.33273283 35 35 35 255 1 1 1 1
0.6033439 -0.6143998 0.67634463 0.28436586 -0.9155723 -0.28436524 35 35 35 255 1 1 1 1
0.6033439 -0.43752787 3.256546 0.33272588 -0.40414926 0.85203105 35 35 35 255 1 1 1 1
0.6033439 -0.61439955 3.0132265 0.3472125 -0.8711447 0.34720358 35 35 35 255 1 1 1 1
0.8466624 -0.4375279 3.0132265 0.85202897 -0.40414685 0.3327343 35 35 35 255 1 1 1 1
0.6033439 0.43753272 0.43302608 0.33272544 0.40414864 -0.85203147 35 35 35 255 1 1 1 1
0.6033439 0.6144044 0.67634463 0.28436777 0.915573 -0.28436106 35 35 35 255 1 1 1 1
0.8466624 0.43753272 0.67634463 0.85202885 0.40414667 -0.33273494 35 35 35 255 1 1 1 1
0.6033439 0.43753296 3.2565458 0.33273897 0.4041409 0.85202986 35 35 35 255 1 1 1 1
0.8466624 0.43753284 3.0132265 0.85202444 0.40415797 0.33273238 35 35 35 255 1 1 1 1
0.6033439 0.6144045 3.0132265 0.2843629 0.9155743 0.28436172 35 35 35 255 1 1 1 1
0.025991458 -0.6143996 1.8924407 -4.21302e-09 -1 1.12585354e-07 35 35 35 255 1 1 1 1
-0.60569453 -0.60190094 3.3658526 -0.3415735 -0.34158388 -0.87558436 254 181 178 255 1 1 1 1
-0.8490131 -0.60190094 3.6091712 -0.89023924 -0.35053644 -0.2908582 252 180 177 255 1 1 1 1
-0.60569453 -0.8452196 3.6091712 -0.35054576 -0.8902409 -0.2908418 252 180 177 255 1 1 1 1
-0.60569453 0.60190135 3.3658526 -0.3415894 0.341579 -0.8755801 254 181 178 255 1 1 1 1
-0.8490131 0.60190135 3.6091712 -0.8902407 0.35054803 -0.2908397 254 181 178 255 1 1 1 1
0.5981077 -0.60190094 3.3658526 0.3415896 -0.34157893 -0.87558 254 181 178 255 1 1 1 1
0.5981077 0.60190135 3.3658526 0.34157345 0.34158412 -0.8755843 254 181 178 255 1 1 1 1
0.8414262 0.60190135 3.6091712 0.8902421 0.35053608 -0.29084954 254 181 178 255 1 1 1 1
0.5981077 0.8452199 3.6091712 0.35054862 0.89024067 -0.29083893 254 181 178 255 1 1 1 1
0.8414262 -0.60190094 3.6091712 0.89024377 -0.3505482 -0.29082984 254 181 178 255 1 1 1 1
0.5981077 -0.8452196 3.6091712 0.35054153 -0.8902395 -0.29085132 254 181 178 255 1 1 1 1
0.7301322 0.5226669 4.823652 0.85813814 0.33113495 0.39236307 254 181 178 255 1 1 1 1
0.7301322 -0.5226601 4.823652 0.85813326 -0.3311316 0.39237627 254 180 178 255 1 1 1 1
0.5188455 -0.52266014 5.0349383 0.34156886 -0.34157583 0.8755893 254 181 178 255 1 1 1 1
0.51886785 -0.7339496 4.823651 0.3311789 -0.8581233 0.39235845 254 181 178 255 1 1 1 1
-0.52648145 -0.52266014 5.0349383 -0.3416115 -0.34157488 0.87557304 254 181 178 255 1 1 1 1
-0.52648145 -0.73394686 4.823652 -0.33117265 -0.8581228 0.3923648 254 181 178 255 1 1 1 1
-0.7377457 -0.5226628 4.823651 -0.85815084 -0.33113754 0.39233306 254 181 178 255 1 1 1 1
-0.7377457 0.522664 4.823651 -0.8581478 0.3311346 0.39234233 254 181 178 255 1 1 1 1
-0.52648145 0.52266675 5.0349383 -0.34159696 0.34158134 0.8755763 254 181 178 255 1 1 1 1
0.5188455 0.52266675 5.0349383 0.34158581 0.3415758 0.8755827 254 181 178 255 1 1 1 1
-0.52648145 0.73395354 4.823652 -0.3311793 0.8581289 0.39234582 254 181 178 255 1 1 1 1
-0.60569453 0.8452199 3.6091712 -0.35053855 0.89023894 -0.29085654 254 181 178 255 1 1 1 1
0.51886785 0.7339507 4.823651 0.3311729 0.8581205 0.39236966 252 179 176 255 1 1 1 1
-0.8149089 0.18027574 4.4096174 -1 0 0 52 52 52 255 1 1 1 1
-0.8149089 -0.55340636 4.4957457 -0.94316655 -0.33232042 -1.9045413e-06 52 52 52 255 1 1 1 1
-0.6322639 -0.7967227 4.5071635 -0.35867834 -0.9334612 -5.9605663e-06 52 52 52 255 1 1 1 1
-0.63226116 -0.79672307 4.3785605 -0.35782304 -0.9337895 -3.489277e-06 52 52 52 255 1 1 1 1
-0.8149089 -0.5534064 4.375147 -0.9498594 -0.31267753 4.230478e-07 52 52 52 255 1 1 1 1
-0.8149089 0.18027574 4.3559427 -1 0 0 52 52 52 255 1 1 1 1
-0.4967907 -0.79672277 4.6213098 -2.7830426e-06 -1 2.7038825e-06 52 52 52 255 1 1 1 1
-0.25137582 -0.7967234 4.6229734 -2.6847435e-06 -1 9.342304e-07 52 52 52 255 1 1 1 1
-0.1002478 -0.7967241 4.4940124 -2.0695948e-06 -1 3.29646e-06 52 52 52 255 1 1 1 1
-0.099368185 -0.79672456 4.359601 -1.6443709e-06 -1 3.5039852e-06 52 52 52 255 1 1 1 1
-0.24834806 -0.7967246 4.2734838 -2.4014212e-06 -1 3.5586165e-06 52 52 52 255 1 1 1 1
-0.52361465 -0.7967238 4.2708445 -3.0654987e-06 -1 3.981954e-06 52 52 52 255 1 1 1 1
0.79667896 0.18027574 4.4096174 -1 -8.541864e-08 0 52 52 52 255 1 1 1 1
0.79667896 -0.55340636 4.4957457 -0.9431667 0.3323204 2.0196107e-06 52 52 52 255 1 1 1 1
0.614034 -0.7967227 4.5071635 -0.67226565 -0.7403101 1.5317499e-05 52 52 52 255 1 1 1 1
0.61403126 -0.79672307 4.3785605 -0.6698722 -0.7424764 1.3696091e-05 52 52 52 255 1 1 1 1
0.79667896 -0.5534064 4.375147 -0.94985944 0.31267744 -2.1152394e-07 52 52 52 255 1 1 1 1
0.79667896 0.18027574 4.3559427 -1 -9.4598356e-08 0 52 52 52 255 1 1 1 1
0.4785608 -0.79672277 4.6213098 2.5441977e-06 -1 2.3317664e-06 52 52 52 255 1 1 1 1
0.23314597 -0.7967234 4.6229734 2.6847445e-06 -1 1.4013461e-06 52 52 52 255 1 1 1 1
0.08201793 -0.7967241 4.4940124 2.4278834e-06 -1 3.0301426e-06 52 52 52 255 1 1 1 1
0.08254644 -0.79672456 4.359601 1.6701679e-06 -1 3.0118872e-06 52 52 52 255 1 1 1 1
0.23011816 -0.7967246 4.2734838 2.6679782e-06 -1 3.945857e-06 52 52 52 255 1 1 1 1
0.50538474 -0.7967238 4.2708445 3.0654987e-06 -1 3.981954e-06 52 52 52 255 1 1 1 1
0.56099916 -0.7967229 4.487312 0.12217174 -0.17350653 0.97722554 52 52 52 255 1 1 1 1
-0.10192607 -0.7967243 4.493556 0 -1 2.5046609e-06 52 52 52 255 1 1 1 1
-0.10173908 -0.7967245 4.429548 0 -1 2.5220672e-06 52 52 52 255 1 1 1 1
0.08396791 -0.7967243 4.493556 0 -1 2.569796e-06 52 52 52 255 1 1 1 1
0.08420007 -0.7967245 4.429548 0 -1 2.5871946e-06 52 52 52 255 1 1 1 1
-0.8797371 -0.025751352 3.898745 0.012757422 -0.8445233 -0.5353669 254 254 254 255 0.9999933 1.0000007 1.0000002 1
-0.9257146 0.01016593 3.9235985 -0.9067228 -0.38359687 -0.17523536 254 254 254 255 0.9999933 1.0000007 1.0000002 1
-0.8019784 -0.2345441 4.401061 0.8342183 0.49101695 0.25096285 254 254 254 255 0.9999933 1.0000007 1.0000002 1
-0.7901019 -0.28703845 4.366817 0.9805713 0.18998384 0.04884892 254 254 254 255 0.9999933 1.0000007 1.0000002 1
-0.8626308 -0.16998279 4.125499 0.23320659 -0.8127968 -0.5338316 254 254 254 255 0.9999933 1.0000007 1.0000002 1
-0.8068103 -0.1422351 4.1390443 0.69362843 -0.5837721 -0.42200693 254 254 254 255 0.9999933 1.0000007 1.0000002 1
-0.900652 -0.20703918 4.2652574 -0.98301214 0.11348041 0.14425442 254 254 254 255 0.9999933 1.0000007 1.0000002 1
-0.87349313 -0.1574468 4.294793 -0.76409274 0.5175631 0.38508528 254 254 254 255 0.9999933 1.0000007 1.0000002 1
-0.8902529 -0.012199342 4.0663214 -0.13759544 0.8312724 0.53856635 254 254 254 255 0.9999933 1.0000007 1.0000002 1
-0.82709223 -0.016894877 4.0587034 0.38311687 0.7919774 0.4753875 254 254 254 255 0.9999933 1.0000007 1.0000002 1
-0.82288957 -0.053317785 4.115996 0.89677703 0.40024444 0.18866731 254 254 254 255 0.9999933 1.0000007 1.0000002 1
-0.81101304 -0.10581219 4.081752 0.99496037 -0.033726037 -0.09442688 254 254 254 255 0.9999933 1.0000007 1.0000002 1
-0.9217104 -0.024876177 3.9795876 -0.9978628 -0.054496642 0.036056202 254 254 254 255 0.9999933 1.0000007 1.0000002 1
-0.8944043 0.023779452 4.009728 -0.7545819 0.52803683 0.38959366 254 254 254 255 0.9999933 1.0000007 1.0000002 1
-0.90477943 -0.17126936 4.208992 -0.85265297 -0.4669826 -0.23432967 254 254 254 255 0.9999933 1.0000007 1.0000002 1
-0.858404 -0.20661461 4.18312 -0.4679701 -0.7609344 -0.44942528 254 254 254 255 0.9999933 1.0000007 1.0000002 1
-0.86902356 -0.19618279 4.355724 -0.13392554 0.8318211 0.5386443 254 254 254 255 0.9999933 1.0000007 1.0000002 1
-0.80586296 -0.20087832 4.3481054 0.39080897 0.78949803 0.47324535 254 254 254 255 0.9999933 1.0000007 1.0000002 1
-0.9271145 0.31488472 3.552661 0.14320187 0.83992505 0.52346826 254 254 254 255 0.9999933 1.0000007 1.0000002 1
-0.86410373 0.30925328 3.5444586 0.49985868 0.74704266 0.43825626 254 254 254 255 0.9999933 1.0000007 1.0000002 1
-0.8762503 -0.059989095 3.9527192 -0.3712975 -0.7947338 -0.4801419 254 254 254 255 0.9999933 1.0000007 1.0000002 1
-0.9104061 0.1700812 3.7804337 -0.74766564 0.5342195 0.39446887 254 254 254 255 0.9999933 1.0000007 1.0000002 1
-0.93856573 0.120863855 3.75121 -0.9798302 0.12813972 0.15334019 254 254 254 255 0.9999933 1.0000007 1.0000002 1
-0.8390411 0.09204805 3.8861177 0.90436846 0.38706043 0.17972752 254 254 254 255 0.9999933 1.0000007 1.0000002 1
-0.8282581 0.039350152 3.8518248 0.9941468 -0.041915916 -0.09957452 254 254 254 255 0.9999933 1.0000007 1.0000002 1
-0.84501773 0.18459779 3.6233532 0.6825665 -0.59304124 -0.4270891 254 254 254 255 0.9999933 1.0000007 1.0000002 1
-0.90136427 0.15766019 3.6103616 0.21479514 -0.8169936 -0.53514904 254 254 254 255 0.9999933 1.0000007 1.0000002 1
-0.8971615 0.12123728 3.667654 -0.48328316 -0.75442517 -0.44416228 254 254 254 255 0.9999933 1.0000007 1.0000002 1
-0.9427686 0.15728682 3.6939175 -0.8603187 -0.4564034 -0.22704135 254 254 254 255 0.9999933 1.0000007 1.0000002 1
-0.8599523 0.27327436 3.6010525 0.903235 0.38906795 0.18108775 254 254 254 255 0.9999933 1.0000007 1.0000002 1
-0.8491692 0.22057658 3.5667596 0.9931887 -0.050539616 -0.1049864 254 254 254 255 0.9999933 1.0000007 1.0000002 1
-0.8431685 0.12781793 3.8298523 0.40088508 0.78615224 0.47037837 254 254 254 255 0.9999933 1.0000007 1.0000002 1
-0.90617925 0.1334495 3.8380547 -0.122307315 0.8334789 0.5388449 254 254 254 255 0.9999933 1.0000007 1.0000002 1
-0.82378846 0.00061428547 3.9127555 0.6797757 -0.5960931 -0.42729163 254 254 254 255 0.9999933 1.0000007 1.0000002 1
3 1 0 2
3 4 5 3
3 31 21 23
3 29 20 27
3 16 22 28
3 12 14 9
3 17 26 15
3 7 8 9
3 10 11 12
3 13 14 15
3 16 17 18
3 19 20 21
3 22 23 24
3 25 26 27
3 28 29 30
3 7 14 13
3 10 9 8
3 16 12 11
3 15 18 17
3 13 26 25
3 28 17 16
3 27 30 29
3 25 20 19
3 22 29 28
3 21 24 23
3 19 8 7
3 11 23 22
3 25 7 13
3 29 24 20
3 16 11 22
3 12 18 14
3 17 30 26
3 7 9 14
3 10 12 9
3 16 18 12
3 15 14 18
3 13 15 26
3 28 30 17
3 27 26 30
3 25 27 20
3 22 24 29
3 21 20 24
3 19 21 8
3 11 10 23
3 25 19 7
3 31 10 8
3 32 33 36
3 32 34 33
3 37 34 32
3 38 32 35
3 32 36 35
3 38 37 32
3 38 39 41
3 38 40 39
3 35 40 38
3 38 41 37
3 43 41 39
3 37 41 42
3 42 41 44
3 43 44 41
3 45 44 43
3 45 46 44
3 42 44 46
3 46 34 42
3 46 48 34
3 47 46 45
3 47 48 46
3 48 47 49
3 48 33 34
3 48 49 33
3 49 36 33
3 49 50 36
3 51 50 49
3 51 49 47
3 52 53 51
3 51 45 52
3 51 47 45
3 51 53 50
3 52 55 53
3 54 50 53
3 53 40 54
3 53 55 40
3 39 40 55
3 39 55 43
3 52 43 55
3 35 54 40
3 35 36 54
3 54 36 50
3 45 43 52
3 37 42 34
3 57 59 58
3 56 60 57
3 62 59 66
3 69 71 70
3 68 72 69
3 71 74 76
3 82 83 81
3 101 87 102
3 96 90 89
3 95 90 96
3 99 91 92
3 100 91 99
3 97 93 98
3 93 95 94
3 94 95 96
3 89 100 99
3 90 100 89
3 91 101 92
3 97 86 85
3 102 92 101
3 98 86 97
3 94 98 93
3 88 102 87
3 118 105 85
3 113 107 106
3 112 107 113
3 116 108 109
3 117 108 116
3 114 110 115
3 110 112 111
3 111 112 113
3 106 117 116
3 107 117 106
3 108 118 109
3 114 104 103
3 85 109 118
3 115 104 114
3 111 115 110
3 97 85 105
3 4 6 5
3 31 8 21
3 57 60 59
3 56 61 60
3 66 65 64
3 64 63 62
3 62 58 59
3 59 67 66
3 66 64 62
3 69 72 71
3 68 73 72
3 76 77 78
3 78 79 71
3 71 70 74
3 74 75 76
3 76 78 71
3 82 84 83
