ply
format ascii 1.0
comment Created in Blender version 4.2.9 LTS
element vertex 42
property float x
property float y
property float z
property float nx
property float ny
property float nz
property uchar red
property uchar green
property uchar blue
property uchar alpha
element face 64
property list uchar uint vertex_indices
end_header
-0.7304587 -0.23540798 -2.8304152 -0.572954 -0.25911355 -0.77755 60 60 60 255
-0.8256226 -0.23540798 -2.735251 -0.7163899 -0.6860124 -0.1271715 60 60 60 255
-0.7304587 0.23540775 -2.8304152 -0.34158987 0.34157962 -0.8755797 60 60 60 255
-0.8256226 0.23540775 -2.735251 -0.91405064 0.36524335 -0.1763768 60 60 60 255
-0.7304587 0.3305717 -2.735251 -0.3652532 0.9140468 -0.17637637 60 60 60 255
-0.25964296 -0.23540798 -2.8304152 0.5506119 -0.25453123 -0.79500973 60 60 60 255
-0.16447899 -0.23540798 -2.735251 0.77914387 -0.5989279 -0.18498713 60 60 60 255
-0.25964296 0.23540775 -2.8304152 0.3415742 0.34158465 -0.8755838 60 60 60 255
-0.25964296 0.3305717 -2.735251 0.3652446 0.9140515 -0.17637011 60 60 60 255
-0.16447899 0.23540775 -2.735251 0.91405106 0.3652495 -0.17636237 60 60 60 255
-0.66976094 -0.24533144 -2.4623911 -0.64291835 -0.5953854 0.48184264 60 60 60 255
-0.74038625 -0.17470609 -2.4623911 -0.8688311 -0.43476704 0.23687583 60 60 60 255
-0.66976094 0.24533232 -2.4623911 -0.33922663 0.8737978 0.34842893 60 60 60 255
-0.3203479 0.24533232 -2.4623911 0.33922067 0.87379724 0.34843627 60 60 60 255
-0.3203479 -0.24533144 -2.4623911 0.56147397 -0.61823577 0.5500287 60 60 60 255
-0.24972253 -0.17470609 -2.4623911 0.8737922 -0.33922455 0.3484453 60 60 60 255
-0.24972253 0.17470697 -2.4623911 0.8737944 0.33922088 0.3484431 60 60 60 255
-0.74038625 0.17470697 -2.4623911 -0.87380147 0.3392235 0.34842288 60 60 60 255
-0.7304846 -0.33056852 0.20874529 -0.3448878 -0.8810119 0.3238373 35 35 35 255
-0.82564855 -0.23540455 0.20874527 -0.88101166 -0.34489217 0.32383335 35 35 35 255
-0.7304846 -0.23540454 0.30390865 -0.34158853 -0.34157765 0.87558097 35 35 35 255
-0.66978014 -0.24532908 -2.462391 -0.3804038 -0.9240342 -0.038132228 35 35 35 255
-0.7404055 -0.1747037 -2.462391 -0.9240321 -0.38040859 -0.038133018 35 35 35 255
-0.25966877 -0.33056852 0.20874529 0.34489217 -0.88101125 0.32383415 35 35 35 255
-0.32036704 -0.24532908 -2.462391 0.38040933 -0.9240318 -0.038131382 35 35 35 255
-0.25966877 -0.23540454 0.30390865 0.34157273 -0.3415829 0.8755851 35 35 35 255
-0.16450481 -0.23540455 0.20874527 0.8810118 -0.34488773 0.32383752 35 35 35 255
-0.16450481 0.23541123 0.20874524 0.88101125 0.34489223 0.32383442 35 35 35 255
-0.2497417 -0.1747037 -2.462391 0.9240343 -0.38040328 -0.03813082 35 35 35 255
-0.2497417 0.17470936 -2.462391 0.92403215 0.38040847 -0.03813101 35 35 35 255
-0.25966877 0.33057523 0.20874523 0.34488788 0.88101184 0.32383725 35 35 35 255
-0.32036704 0.24533476 -2.462391 0.38040403 0.924034 -0.038131695 35 35 35 255
-0.7304846 0.33057523 0.20874523 -0.34489262 0.88101137 0.32383358 35 35 35 255
-0.66978014 0.24533476 -2.462391 -0.38040844 0.92403215 -0.0381326 35 35 35 255
-0.82564855 0.23541123 0.20874524 -0.8810121 0.34488767 0.32383668 35 35 35 255
-0.7404055 0.17470936 -2.462391 -0.9240342 0.38040367 -0.03813309 35 35 35 255
-0.7304846 0.23541124 0.3039086 -0.34157255 0.34158295 0.8755851 35 35 35 255
-0.25966877 0.23541124 0.3039086 0.34158823 0.34157786 0.87558097 35 35 35 255
-0.34395248 -0.64911354 -2.8542745 0.5715636 -0.60504484 -0.55428857 60 60 60 255
-0.38206214 -0.6491135 -2.6791372 0.4769773 -0.74716884 0.46285138 60 60 60 255
-0.6461492 -0.64911354 -2.8542745 -0.57156146 -0.6050692 -0.55426425 60 60 60 255
-0.6080396 -0.6491135 -2.6791372 -0.47696733 -0.7471723 0.46285623 60 60 60 255
3 2 3 4
3 7 8 9
3 0 3 2
3 12 3 17
3 2 8 7
3 16 8 13
3 7 6 5
3 14 6 15
3 7 0 2
3 0 11 1
3 12 8 4
3 11 3 1
3 9 15 6
3 0 38 40
3 0 1 3
3 12 4 3
3 2 4 8
3 16 9 8
3 7 9 6
3 14 5 6
3 7 5 0
3 0 10 11
3 12 13 8
3 11 17 3
3 9 16 15
3 0 41 10
3 18 19 22
3 18 20 19
3 20 18 23
3 23 18 21
3 18 22 21
3 24 26 23
3 23 21 24
3 20 23 25
3 25 23 26
3 25 26 27
3 24 28 26
3 27 26 28
3 27 28 29
3 29 30 27
3 29 31 30
3 32 30 31
3 32 31 33
3 33 34 32
3 33 35 34
3 19 34 35
3 19 35 22
3 36 34 19
3 36 32 34
3 37 32 36
3 36 25 37
3 36 20 25
3 36 19 20
3 25 27 37
3 37 30 32
3 37 27 30
3 39 40 38
3 39 41 40
3 5 39 38
3 14 41 39
3 0 5 38
3 0 40 41
3 5 14 39
3 14 10 41
