ply
format ascii 1.0
comment Created in Blender version 4.2.9 LTS
element vertex 40
property float x
property float y
property float z
property float nx
property float ny
property float nz
property uchar red
property uchar green
property uchar blue
property uchar alpha
element face 60
property list uchar uint vertex_indices
end_header
-0.23540948 -0.33057174 0.22838365 -0.34158182 -0.87558126 0.34158376 35 35 35 255
-0.23540948 -0.2354094 0.3235468 -0.34158736 -0.34158096 0.8755801 35 35 35 255
-0.33057344 -0.23540941 0.22838363 -0.87557435 -0.34159893 0.34158415 35 35 35 255
-0.23540948 0.23540795 0.32354674 -0.34157225 0.34158275 0.8755853 35 35 35 255
-0.23540948 0.33057192 0.22838359 -0.34159538 0.8755757 0.34158453 35 35 35 255
-0.33057344 0.23540793 0.2283836 -0.8755789 0.34158483 0.34158674 35 35 35 255
0.23540625 -0.2354094 0.3235468 0.3415717 -0.34158587 0.8755843 35 35 35 255
0.23540625 -0.33057174 0.22838365 0.34159097 -0.8755781 0.34158272 35 35 35 255
0.33057022 -0.23540941 0.22838363 0.87557364 -0.34159464 0.34159023 35 35 35 255
0.23540625 0.23540795 0.32354674 0.34158778 0.3415775 0.8755814 35 35 35 255
0.33057022 0.23540793 0.2283836 0.8755795 0.34158918 0.34158075 35 35 35 255
0.23540625 0.33057192 0.22838359 0.3415862 0.87557876 0.34158581 35 35 35 255
-0.23540948 -0.33057183 -1.0788261 -0.3826917 -0.9238762 5.960113e-08 35 35 35 255
-0.33057344 -0.23540948 -1.0788261 -0.92387795 -0.3826874 1.146005e-08 35 35 35 255
-0.23540948 0.33057183 -1.0788261 -0.38268352 0.92387956 -7.533281e-08 35 35 35 255
0.23540625 0.33057183 -1.0788261 0.3826935 0.92387545 -6.956495e-08 35 35 35 255
0.23540625 -0.33057183 -1.0788261 0.3826816 -0.92388034 6.53692e-08 35 35 35 255
0.33057022 -0.23540948 -1.0788261 0.92387795 -0.3826874 1.146005e-08 35 35 35 255
0.33057022 0.23540786 -1.0788261 0.9238745 0.38269565 -2.2172282e-08 35 35 35 255
-0.33057344 0.23540786 -1.0788261 -0.9238746 0.38269556 -2.2172285e-08 35 35 35 255
-0.2354353 -0.23540635 -1.5068536 -0.3415734 -0.34158796 -0.8755828 253 179 177 255
-0.33059928 -0.23540634 -1.4116894 -0.87558085 -0.3415799 -0.34158662 253 179 177 255
-0.2354353 -0.33056873 -1.4116894 -0.34158403 -0.87558436 -0.34157333 253 179 177 255
-0.2354353 0.23541105 -1.5068536 -0.3415896 0.34157944 -0.87557983 253 179 177 255
-0.33059928 0.23541106 -1.4116894 -0.87558025 0.34158954 -0.34157872 253 179 177 255
0.23538049 -0.23540635 -1.5068536 0.34158918 -0.34158278 -0.8755787 253 179 177 255
0.23538049 0.23541105 -1.5068536 0.34157354 0.34158444 -0.8755842 253 179 177 255
0.33054447 0.23541106 -1.4116894 0.87558 0.34157878 -0.34158978 253 179 177 255
0.23538049 0.33057502 -1.4116894 0.34158704 0.875582 -0.3415765 253 179 177 255
0.33054447 -0.23540634 -1.4116894 0.8755807 -0.34159082 -0.34157592 253 179 177 255
0.23538049 -0.33056873 -1.4116894 0.34157544 -0.8755827 -0.3415863 253 179 177 255
0.33054447 0.23541111 -1.0788252 0.9238815 0.382679 -4.5004384e-08 253 179 177 255
0.33054447 -0.23540628 -1.0788252 0.9238819 -0.3826777 5.601195e-08 253 179 177 255
0.23538049 -0.33056867 -1.0788252 0.38267526 -0.92388296 1.4792266e-07 253 179 177 255
-0.2354353 -0.33056867 -1.0788252 -0.3826702 -0.9238851 1.8191989e-07 253 179 177 255
-0.33059928 -0.23540628 -1.0788252 -0.923878 -0.3826872 9.001076e-08 253 179 177 255
-0.33059928 0.23541111 -1.0788252 -0.9238854 0.38266924 -5.60108e-08 253 179 177 255
-0.2354353 0.33057502 -1.4116894 -0.34157848 0.8755804 -0.34158936 253 179 177 255
-0.2354353 0.3305751 -1.0788252 -0.38267902 0.92388135 -1.8824439e-07 253 179 177 255
0.23538049 0.3305751 -1.0788252 0.3826739 0.9238835 -2.6185037e-07 253 179 177 255
3 7 12 16
3 18 8 17
3 3 6 9
3 2 19 13
3 4 15 14
3 0 1 2
3 3 4 5
3 6 7 8
3 9 10 11
3 12 2 13
3 3 2 1
3 9 4 3
3 6 10 9
3 1 7 6
3 16 8 7
3 18 11 10
3 4 19 5
3 7 0 12
3 18 10 8
3 3 1 6
3 2 5 19
3 4 11 15
3 12 0 2
3 3 5 2
3 9 11 4
3 6 8 10
3 1 0 7
3 16 17 8
3 18 15 11
3 4 14 19
3 20 21 24
3 20 22 21
3 25 22 20
3 26 20 23
3 20 24 23
3 26 25 20
3 26 27 29
3 26 28 27
3 23 28 26
3 26 29 25
3 25 29 30
3 30 29 32
3 31 32 29
3 31 29 27
3 30 32 33
3 33 22 30
3 33 34 22
3 34 21 22
3 34 35 21
3 21 35 36
3 37 24 36
3 37 36 38
3 21 36 24
3 38 28 37
3 38 39 28
3 27 28 39
3 27 39 31
3 23 37 28
3 23 24 37
3 25 30 22
