ply
format ascii 1.0
comment Created in Blender version 4.2.9 LTS
element vertex 184
property float x
property float y
property float z
property float nx
property float ny
property float nz
property uchar red
property uchar green
property uchar blue
property uchar alpha
property float Color_r
property float Color_g
property float Color_b
property float Color_a
element face 256
property list uchar uint vertex_indices
end_header
-0.84382683 -0.437528 0.67634445 -0.85773927 -0.44566205 0.25625902 254 111 254 255 1 1 1 1
-0.6005083 -0.61439973 0.67634445 -0.30456957 -0.9291723 0.20946705 254 111 254 255 1 1 1 1
-0.84382683 0.4375328 0.67634434 -0.84989953 0.45068192 0.2730508 254 111 254 255 1 1 1 1
0.84661263 0.4375328 0.67634434 0.849899 0.45068216 0.27305192 254 111 254 255 1 1 1 1
0.603294 0.6144045 0.67634434 0.28867412 0.92095375 0.261747 254 111 254 255 1 1 1 1
0.84661263 -0.437528 0.67634445 0.8577393 -0.4456615 0.25626013 254 111 254 255 1 1 1 1
0.603294 -0.61439973 0.67634445 0.30456713 -0.929173 0.20946702 254 111 254 255 1 1 1 1
0.64190125 0.18815072 1.8600837 0.861133 0.508368 -0.003452618 254 111 254 255 1 1 1 1
0.64190125 -0.24032676 1.8600837 0.93778056 -0.34585842 0.030814815 254 111 254 255 1 1 1 1
0.84661263 -0.43752784 3.0132265 0.9045951 -0.31810847 0.28375116 254 111 254 255 1 1 1 1
0.4575136 -0.42571032 2.1198475 0.39824092 -0.8750673 -0.27506644 254 111 254 255 1 1 1 1
0.58928365 -0.9306373 2.6440737 0.49569917 -0.86233145 -0.103280485 254 111 254 255 1 1 1 1
-0.45473105 -0.42571032 2.1198475 -0.39752233 -0.8741111 -0.27911592 254 111 254 255 1 1 1 1
-0.63911855 -0.24032676 1.8600837 -0.9377807 -0.34585842 0.030814404 254 111 254 255 1 1 1 1
-0.84382683 -0.43752784 3.0132265 -0.90777594 -0.305273 0.28766513 254 111 254 255 1 1 1 1
-0.61451864 -0.9306373 2.6440737 -0.51902187 -0.84810185 -0.106488094 254 111 254 255 1 1 1 1
-0.6005083 -0.43752784 3.256546 -0.3346283 -0.3834482 0.86080855 254 111 254 255 1 1 1 1
-0.6005083 0.437533 3.256546 -0.33272603 0.40414923 0.8520311 254 111 254 255 1 1 1 1
0.603294 -0.43752784 3.256546 0.33638877 -0.38601238 0.85897446 254 111 254 255 1 1 1 1
0.603294 0.437533 3.256546 0.33273923 0.40414083 0.8520299 254 111 254 255 1 1 1 1
0.84661263 0.437533 3.0132265 0.8751197 0.4367613 0.20833947 254 111 254 255 1 1 1 1
0.603294 0.6144047 3.0132265 0.2956126 0.945269 0.13812986 254 111 254 255 1 1 1 1
0.4575136 0.27475673 1.8600837 0.22460313 0.9744434 -0.003702088 254 111 254 255 1 1 1 1
-0.6005083 0.6144047 3.0132265 -0.29561442 0.9452694 0.13812271 254 111 254 255 1 1 1 1
-0.45473105 0.27475673 1.8600837 -0.22461157 0.97444135 -0.0037021232 254 111 254 255 1 1 1 1
-0.6005083 0.6144045 0.67634434 -0.288672 0.9209546 0.26174635 254 111 254 255 1 1 1 1
-0.63911855 0.18815072 1.8600837 -0.8611334 0.5083674 -0.0034526014 254 111 254 255 1 1 1 1
-0.84382683 0.437533 3.0132265 -0.87512004 0.43675512 0.20835054 254 111 254 255 1 1 1 1
-0.9956265 -0.51610756 0.0969365 -0.85444003 -0.4357419 0.28295094 254 111 254 255 1 1 1 1
-0.7086084 -0.7247451 0.0969365 -0.3200105 -0.91792923 0.23451938 254 111 254 255 1 1 1 1
-0.9956265 0.5161124 0.09693637 -0.8544394 0.43574327 0.2829511 254 111 254 255 1 1 1 1
0.9984125 0.5161124 0.09693637 0.85444 0.43574178 0.28295138 254 111 254 255 1 1 1 1
0.7113943 0.72474986 0.09693637 0.32001045 0.91792923 0.2345195 254 111 254 255 1 1 1 1
0.9984125 -0.51610756 0.0969365 0.8544393 -0.43574306 0.28295127 254 111 254 255 1 1 1 1
0.7113943 -0.7247451 0.0969365 0.3200138 -0.917928 0.23451976 254 111 254 255 1 1 1 1
-0.7086084 0.72474986 0.09693637 -0.32001358 0.9179281 0.2345197 254 111 254 255 1 1 1 1
0.26892674 -0.853535 3.7449005 0 1 2.0391354e-07 223 69 101 255 0 0 0 0
-0.31663027 -0.853535 3.743873 0 1 6.4093643e-07 223 69 101 255 0 0 0 0
0.1697846 -0.853535 3.9032912 0 1 0 223 69 101 255 0 0 0 0
-0.20674574 -0.853535 3.9028823 0 1 5.462037e-07 223 69 101 255 0 0 0 0
-0.6057444 -0.6018963 3.3658533 -0.34158897 -0.341579 -0.87558025 253 183 178 255 1 1 1 1
-0.849063 0.601906 3.6091716 -0.8755802 0.34157893 -0.34158933 253 183 178 255 1 1 1 1
-0.849063 -0.6018963 3.6091716 -0.87558264 -0.34158605 -0.34157598 253 183 178 255 1 1 1 1
-0.6057444 -0.84521484 3.6091719 -0.34157827 -0.8755802 -0.34158984 253 183 178 255 1 1 1 1
0.5980578 -0.6018963 3.3658533 0.3415734 -0.34158406 -0.87558436 253 183 178 255 1 1 1 1
0.5980578 0.601906 3.365853 0.3415894 0.3415789 -0.8755802 253 183 178 255 1 1 1 1
-0.6057444 0.601906 3.365853 -0.34157363 0.34158403 -0.8755843 253 183 178 255 1 1 1 1
0.5980578 0.84522456 3.6091716 0.34158507 0.87557936 -0.34158516 253 183 178 255 1 1 1 1
-0.6057444 0.84522456 3.6091716 -0.3415879 0.8755813 -0.34157756 253 183 178 255 1 1 1 1
0.84137636 0.601906 3.6091716 0.8755808 0.3415832 -0.34158334 253 183 178 255 1 1 1 1
0.84137636 -0.6018963 3.6091716 0.8755819 -0.34158176 -0.34158212 253 183 178 255 1 1 1 1
0.5980578 -0.84521484 3.6091719 0.34157756 -0.87558484 -0.34157872 253 183 178 255 1 1 1 1
-0.6057444 0.84522456 4.421131 -0.41579908 0.9094565 0 253 183 178 255 1 1 1 1
0.5980578 0.84522456 4.421131 0.41579616 0.9094579 0 253 183 178 255 1 1 1 1
0.84137636 0.601906 4.527678 0.9397358 0.34190172 0 253 183 178 255 1 1 1 1
0.84137636 -0.60189617 4.527678 0.9028202 -0.4300182 5.0119155e-08 253 183 178 255 1 1 1 1
0.5980578 -0.8452148 4.693775 0.3179854 -0.9480957 1.5097129e-07 253 183 178 255 1 1 1 1
-0.6057444 -0.8452148 4.693775 -0.3179752 -0.948099 8.962879e-08 253 183 178 255 1 1 1 1
-0.849063 -0.60189617 4.527678 -0.90282017 -0.43001825 5.011914e-08 253 183 178 255 1 1 1 1
-0.849063 0.601906 4.527678 -0.9397358 0.34190172 0 253 183 178 255 1 1 1 1
-0.849063 0.6019061 4.812974 -0.92387927 0.38268408 -1.6429323e-07 254 213 64 255 1 1 1 1
-0.6057444 0.8452247 4.812974 -0.38269198 0.92387605 -4.128482e-07 254 213 64 255 1 1 1 1
0.5980578 0.8452247 4.812974 0.38270187 0.92387193 -1.9410747e-07 254 213 64 255 1 1 1 1
0.84137636 0.6019061 4.812974 0.92387927 0.38268408 -1.6429323e-07 254 213 64 255 1 1 1 1
0.84137636 -0.60189617 4.812974 0.9238811 -0.38267988 0 254 213 64 255 1 1 1 1
0.5980578 -0.8452147 4.812974 0.38268316 -0.92387974 0 254 213 64 255 1 1 1 1
-0.6057444 -0.8452147 4.812974 -0.3826809 -0.9238806 8.42743e-07 254 213 64 255 1 1 1 1
-0.849063 -0.60189617 4.812974 -0.9238811 -0.38267988 0 254 213 64 255 1 1 1 1
-0.6057444 0.84522456 4.421131 -0.34191835 0.93972975 -3.485088e-07 254 213 64 255 1 1 1 1
0.5980578 0.84522456 4.421131 0.34190843 0.9397333 -1.06874175e-07 254 213 64 255 1 1 1 1
0.84137636 0.601906 4.527678 0.9094525 0.41580787 -1.5276628e-07 254 213 64 255 1 1 1 1
0.84137636 -0.60189617 4.527678 0.94809574 -0.31798512 0 254 213 64 255 1 1 1 1
0.5980578 -0.8452148 4.693775 0.43002355 -0.9028178 4.9346003e-08 254 213 64 255 1 1 1 1
-0.6057444 -0.8452148 4.693775 -0.4300257 -0.9028168 7.8556536e-07 254 213 64 255 1 1 1 1
-0.849063 -0.60189617 4.527678 -0.94809574 -0.31798512 0 254 213 64 255 1 1 1 1
-0.849063 0.601906 4.527678 -0.9094525 0.41580787 -1.5276628e-07 254 213 64 255 1 1 1 1
-0.7578676 0.53696364 4.685796 -0.82815164 0.36323917 0.4268749 254 90 202 255 1 1 1 1
-0.54080194 0.7540292 4.685796 -0.3632424 0.8281504 0.42687476 254 90 202 255 1 1 1 1
0.5331154 0.7540292 4.685796 0.36324233 0.8281504 0.42687473 254 90 202 255 1 1 1 1
0.75018096 0.53696364 4.685796 0.8281517 0.36323926 0.4268747 254 90 202 255 1 1 1 1
0.75018096 -0.5369537 4.685796 0.8281485 -0.36324596 0.42687514 254 90 202 255 1 1 1 1
0.5331154 -0.7540194 4.685796 0.3632393 -0.82815176 0.42687464 254 90 202 255 1 1 1 1
-0.54080194 -0.7540194 4.685796 -0.36324248 -0.82815045 0.4268745 254 90 202 255 1 1 1 1
-0.7578676 -0.5369537 4.685796 -0.8281498 -0.36324325 0.4268752 254 90 202 255 1 1 1 1
-0.6443787 0.45614547 4.9747386 -0.71478564 0.28860337 0.6370162 254 90 202 255 1 1 1 1
-0.45998383 0.6405404 4.9747386 -0.20368575 0.71870184 0.66481566 254 90 202 255 1 1 1 1
0.45229727 0.6405404 4.9747386 0.20404261 0.71872354 0.6646827 254 90 202 255 1 1 1 1
0.63669217 0.45614547 4.9747386 0.7147858 0.2886035 0.63701594 254 90 202 255 1 1 1 1
0.63669217 -0.4561356 4.9747386 0.7147875 -0.2885947 0.6370181 254 90 202 255 1 1 1 1
0.45229727 -0.64053047 4.9747386 0.2540831 -0.71671355 0.64943326 254 90 202 255 1 1 1 1
-0.45998383 -0.64053047 4.9747386 -0.25331452 -0.71688026 0.6495494 254 90 202 255 1 1 1 1
-0.6443787 -0.4561356 4.9747386 -0.71478695 -0.28860328 0.63701475 254 90 202 255 1 1 1 1
-0.38543046 0.27174252 5.160439 -0.30685094 0.11948844 0.9442272 254 90 202 255 1 1 1 1
-0.23382622 0.38159233 5.160439 0.20108281 0.37655497 0.9043075 254 90 202 255 1 1 1 1
0.22613999 0.38159233 5.160439 -0.19895549 0.376485 0.90480703 254 90 202 255 1 1 1 1
0.37774435 0.27174252 5.160439 0.3068518 0.119488545 0.9442269 254 90 202 255 1 1 1 1
0.37774435 -0.2717325 5.160439 0.1954975 -0.08140974 0.9773194 254 90 202 255 1 1 1 1
0.22613999 -0.38158244 5.160439 -0.21135542 -0.18429242 0.9598778 254 90 202 255 1 1 1 1
-0.23382622 -0.38158244 5.160439 0.2169623 -0.18385194 0.95871055 254 90 202 255 1 1 1 1
-0.38543046 -0.2717325 5.160439 -0.19423608 -0.08086751 0.97761595 254 90 202 255 1 1 1 1
-0.0038433224 0.7540292 4.685796 -0.000187768 0.7740252 0.63315475 254 90 202 255 1 1 1 1
-0.0050214157 0.3929662 4.9907784 0.0017204192 0.59091425 0.80673254 254 90 202 255 1 1 1 1
-0.005021319 0.17128664 5.074133 0.00043825342 -0.061334845 0.99811727 254 90 202 255 1 1 1 1
-0.010150529 -0.7540194 4.685796 0.00086071406 -0.88119173 0.47275835 254 90 202 255 1 1 1 1
-0.0074264184 -0.60794795 4.9164295 0.0015051615 -0.6926814 0.7212422 254 90 202 255 1 1 1 1
-0.0064540654 -0.17127663 4.9997845 0.0031613538 -0.067725554 0.99769896 254 90 202 255 1 1 1 1
-0.849063 0.6019061 4.812974 0.6904915 -0.31012303 0.653487 224 5 0 255 1 1 1 1
-0.6057444 0.8452247 4.812974 0.3101271 -0.6904866 0.65349025 224 5 0 255 1 1 1 1
0.5980578 0.8452247 4.812974 -0.31012312 -0.69048893 0.6534897 224 5 0 255 1 1 1 1
0.84137636 0.6019061 4.812974 -0.6904849 -0.3101285 0.6534914 224 5 0 255 1 1 1 1
0.84137636 -0.60189617 4.812974 -0.69049054 0.3101236 0.65348774 224 5 0 255 1 1 1 1
0.5980578 -0.8452147 4.812974 -0.31012762 0.6904868 0.65348977 224 5 0 255 1 1 1 1
-0.6057444 -0.8452147 4.812974 0.31012335 0.6904893 0.65348923 224 5 0 255 1 1 1 1
-0.849063 -0.60189617 4.812974 0.69048494 0.31012866 0.6534913 224 5 0 255 1 1 1 1
-0.7578676 0.53696364 4.685796 0.71777457 -0.25830522 0.64658964 224 5 0 255 1 1 1 1
-0.54080194 0.7540292 4.685796 0.2583004 -0.7177745 0.64659166 224 5 0 255 1 1 1 1
0.5331154 0.7540292 4.685796 -0.25830597 -0.7177713 0.646593 224 5 0 255 1 1 1 1
0.75018096 0.53696364 4.685796 -0.7177723 -0.25830063 0.6465939 224 5 0 255 1 1 1 1
0.75018096 -0.5369537 4.685796 -0.7177734 0.25830585 0.6465907 224 5 0 255 1 1 1 1
0.5331154 -0.7540194 4.685796 -0.25830022 0.71777457 0.6465916 224 5 0 255 1 1 1 1
-0.54080194 -0.7540194 4.685796 0.25830594 0.7177719 0.6465924 224 5 0 255 1 1 1 1
-0.7578676 -0.5369537 4.685796 0.71777236 0.2583007 0.64659387 224 5 0 255 1 1 1 1
-0.43846762 -0.85035086 4.534028 1.3638153e-07 1 0 157 79 31 255 0 0 0 0
-0.5574813 -0.85035086 4.502607 3.7202045e-07 1 0 157 79 31 255 0 0 0 0
-0.26356298 -0.8503508 4.567889 1.2658209e-08 1 7.690251e-08 157 79 31 255 0 0 0 0
-0.5036791 -0.8503508 4.5591106 2.4895954e-07 1 1.2546376e-07 157 79 31 255 0 0 0 0
-0.30791542 -0.8503508 4.6115994 0 1 0 157 79 31 255 0 0 0 0
-0.47112978 -0.8503508 4.5883884 0 1 5.004499e-07 157 79 31 255 0 0 0 0
-0.3442461 -0.85035086 4.4976196 1.5634156e-07 1 2.3440862e-06 0 204 254 255 0 0 0 0
-0.39318243 -0.85035086 4.4934506 7.246958e-07 1 -5.876141e-06 0 204 254 255 0 0 0 0
-0.31883973 -0.8503508 4.5322595 9.440033e-08 1 -3.0054548e-06 0 204 254 255 0 0 0 0
-0.42580897 -0.8503508 4.504015 1.9647445e-07 1 5.7000295e-07 0 204 254 255 0 0 0 0
-0.31413803 -0.8503508 4.557282 0 1 -4.809704e-06 0 204 254 255 0 0 0 0
-0.44231373 -0.8503508 4.534071 0 1 1.8174372e-06 0 204 254 255 0 0 0 0
0.39697877 -0.85035086 4.534028 1.3638149e-07 -1 -2.8845358e-07 157 79 31 255 0 0 0 0
0.5159924 -0.85035086 4.502607 3.720202e-07 -1 -1.4799961e-06 157 79 31 255 0 0 0 0
0.2220741 -0.8503508 4.567889 1.2658216e-08 -1 -7.690206e-08 157 79 31 255 0 0 0 0
0.4621902 -0.8503508 4.5591106 2.4895937e-07 -1 -1.074309e-06 157 79 31 255 0 0 0 0
0.2664265 -0.8503508 4.6115994 0 -1 0 157 79 31 255 0 0 0 0
0.4296409 -0.8503508 4.5883884 0 -1 -5.0045e-07 157 79 31 255 0 0 0 0
0.3027572 -0.85035086 4.4976196 1.5634156e-07 -1 -2.3440862e-06 0 204 254 255 0 0 0 0
0.35169354 -0.85035086 4.4934506 7.246971e-07 -1 5.876152e-06 0 204 254 255 0 0 0 0
0.27735084 -0.8503508 4.5322595 9.440049e-08 -1 1.0101903e-07 0 204 254 255 0 0 0 0
0.38432005 -0.8503508 4.504015 1.9647484e-07 -1 9.693497e-07 0 204 254 255 0 0 0 0
0.2726491 -0.8503508 4.557282 0 -1 0 0 204 254 255 0 0 0 0
0.40082484 -0.8503508 4.534071 0 -1 -8.548036e-07 0 204 254 255 0 0 0 0
-0.8428829 0.15263814 4.629651 -0.41570622 0.7880946 -0.4539772 254 213 64 255 0 0 0 0
-1.0826048 0.15263802 4.978158 0.12491973 0.9762264 0.17713602 254 213 64 255 0 0 0 0
-0.84521663 -0.0763191 4.805953 0.6284311 -0.6663077 0.40138322 254 213 64 255 0 0 0 0
-0.9955013 -0.0763191 5.077591 0.5451566 -0.42152357 0.72465324 254 213 64 255 0 0 0 0
-0.8438137 -0.07631904 4.530219 -0.6975827 -0.29640642 -0.6523202 254 213 64 255 0 0 0 0
-1.169708 -0.0763191 4.878726 -0.33879438 -0.6368412 -0.6925689 254 213 64 255 0 0 0 0
-1.2662896 0.15263802 5.008436 -0.010743098 0.98660535 0.16277143 254 213 64 255 0 0 0 0
-1.288417 -0.0763191 5.1387596 -0.12649202 -0.43759105 0.89023256 254 213 64 255 0 0 0 0
-1.2441621 -0.07631916 4.878113 0.20817138 -0.56666374 -0.7972182 254 213 64 255 0 0 0 0
-1.4075855 0.15263802 4.93577 -0.082517594 0.96720415 0.24022274 254 213 64 255 0 0 0 0
-1.4958936 -0.0763191 5.0341344 -0.595076 -0.4218633 0.68404377 254 213 64 255 0 0 0 0
-1.3192775 -0.07631916 4.837406 0.70967144 -0.61834043 -0.337671 254 213 64 255 0 0 0 0
-1.6134739 0.3416813 4.3746257 -0.11846049 0.987612 0.10290664 254 213 64 255 0 0 0 0
-1.9092187 -0.17084062 4.3843594 -0.88319445 -0.4531391 0.12096541 254 213 64 255 0 0 0 0
-1.3177296 -0.17084056 4.3648925 0.82343656 -0.5608066 0.0863029 254 213 64 255 0 0 0 0
-1.4884881 0.272425 3.8165488 0.053880647 0.915812 -0.39797667 254 213 64 255 0 0 0 0
-1.7242873 -0.13621235 3.8243093 -0.71901816 -0.46213526 -0.51908 254 213 64 255 0 0 0 0
-1.2526888 -0.13621235 3.8087885 0.8406053 -0.47889537 -0.25306517 254 213 64 255 0 0 0 0
-1.3780352 1.1920929e-07 3.5811098 0.28584847 0.020270126 -0.9580605 254 213 64 255 0 0 0 0
0.8428811 0.15263814 4.629651 -0.4157061 -0.7880947 0.45397732 254 213 64 255 0 0 0 0
1.082603 0.15263802 4.978158 0.124920055 -0.97622633 -0.17713627 254 213 64 255 0 0 0 0
0.8452149 -0.0763191 4.805953 0.62843096 0.66630775 -0.40138322 254 213 64 255 0 0 0 0
0.99549955 -0.0763191 5.077591 0.54515654 0.42152372 -0.7246531 254 213 64 255 0 0 0 0
0.8438119 -0.07631904 4.530219 -0.69758254 0.29640642 0.6523203 254 213 64 255 0 0 0 0
1.1697063 -0.0763191 4.878726 -0.33879426 0.63684106 0.6925691 254 213 64 255 0 0 0 0
1.2662879 0.15263802 5.008436 -0.010743129 -0.9866054 -0.16277125 254 213 64 255 0 0 0 0
1.2884152 -0.0763191 5.1387596 -0.12649193 0.43759096 -0.8902325 254 213 64 255 0 0 0 0
1.2441604 -0.07631916 4.878113 0.20817159 0.5666637 0.7972182 254 213 64 255 0 0 0 0
1.4075837 0.15263802 4.93577 -0.08251725 -0.9672042 -0.24022253 254 213 64 255 0 0 0 0
1.4958918 -0.0763191 5.0341344 -0.5950762 0.42186314 -0.6840437 254 213 64 255 0 0 0 0
1.3192757 -0.07631916 4.837406 0.70967185 0.6183401 0.33767068 254 213 64 255 0 0 0 0
1.6134721 0.3416813 4.3746257 -0.11846022 -0.987612 -0.10290666 254 213 64 255 0 0 0 0
1.9092168 -0.17084062 4.3843594 -0.8831943 0.45313922 -0.12096547 254 213 64 255 0 0 0 0
1.3177278 -0.17084056 4.3648925 0.82343656 0.5608066 -0.08630286 254 213 64 255 0 0 0 0
1.4884863 0.272425 3.8165488 0.053880986 -0.91581184 0.39797676 254 213 64 255 0 0 0 0
1.7242855 -0.13621235 3.8243093 -0.71901816 0.46213517 0.51908 254 213 64 255 0 0 0 0
1.252687 -0.13621235 3.8087885 0.8406054 0.47889534 0.25306535 254 213 64 255 0 0 0 0
1.3780334 1.1920929e-07 3.5811098 0.2858484 -0.020269495 0.95806044 254 213 64 255 0 0 0 0
3 6 5 8
3 7 5 3
3 7 8 5
3 7 9 8
3 10 8 9
3 6 8 10
3 11 12 10
3 10 9 11
3 10 12 1
3 10 1 6
3 11 15 12
3 12 14 13
3 1 12 13
3 12 15 14
3 15 16 14
3 16 15 11
3 17 14 16
3 17 16 18
3 16 11 18
3 17 18 19
3 18 20 19
3 18 11 9
3 18 9 20
3 19 20 21
3 20 22 21
3 20 7 22
3 7 20 9
3 23 22 24
3 23 21 22
3 25 24 22
3 3 22 7
3 3 4 22
3 25 22 4
3 24 25 2
3 24 27 23
3 24 2 26
3 24 26 27
3 17 23 27
3 17 27 14
3 14 27 26
3 14 26 13
3 0 13 26
3 0 26 2
3 19 23 17
3 19 21 23
3 1 13 0
3 0 29 1
3 3 32 4
3 5 31 3
3 5 34 33
3 2 35 30
3 2 28 0
3 1 34 6
3 4 35 25
3 36 39 38
3 55 51 50
3 50 54 55
3 40 43 42
3 46 42 41
3 48 45 46
3 52 41 59
3 46 41 48
3 53 48 52
3 53 49 47
3 57 51 56
3 44 49 50
3 58 43 57
3 59 42 58
3 51 40 44
3 44 50 51
3 45 47 49
3 46 44 40
3 70 64 71
3 66 72 65
3 64 72 71
3 61 75 60
3 62 68 61
3 62 70 69
3 67 75 74
3 67 73 66
3 78 87 79
3 77 84 85
3 83 84 76
3 103 89 104
3 80 87 88
3 100 85 101
3 82 91 83
3 80 89 81
3 90 99 91
3 89 96 97
3 86 95 87
3 85 92 93
3 84 99 92
3 104 97 105
3 87 96 88
3 101 93 102
3 99 105 93
3 101 94 86
3 100 86 78
3 104 98 90
3 103 90 82
3 105 96 94
3 107 116 108
3 110 119 111
3 106 115 107
3 113 114 106
3 109 118 110
3 108 117 109
3 111 120 112
3 112 121 113
3 122 125 124
3 124 127 126
3 129 130 128
3 130 133 132
3 134 137 136
3 136 139 138
3 141 142 140
3 142 145 144
3 147 148 146
3 148 151 150
3 151 146 150
3 151 152 147
3 151 153 154
3 147 153 149
3 154 155 152
3 154 156 157
3 152 156 153
3 157 158 155
3 157 159 160
3 155 159 156
3 160 161 158
3 160 162 163
3 158 162 159
3 161 163 164
3 163 162 164
3 162 161 164
3 166 167 165
3 167 170 169
3 170 165 169
3 170 171 166
3 170 172 173
3 166 172 168
3 173 174 171
3 173 175 176
3 171 175 172
3 176 177 174
3 176 178 179
3 174 178 175
3 179 180 177
3 179 181 182
3 177 181 178
3 180 182 183
3 182 181 183
3 181 180 183
3 0 28 29
3 3 31 32
3 5 33 31
3 5 6 34
3 2 25 35
3 2 30 28
3 1 29 34
3 4 32 35
3 36 37 39
3 55 56 51
3 50 49 54
3 46 40 42
3 48 47 45
3 52 48 41
3 53 47 48
3 53 54 49
3 57 43 51
3 44 45 49
3 58 42 43
3 59 41 42
3 51 43 40
3 46 45 44
3 70 63 64
3 66 73 72
3 64 65 72
3 61 68 75
3 62 69 68
3 62 63 70
3 67 60 75
3 67 74 73
3 78 86 87
3 77 76 84
3 83 91 84
3 103 81 89
3 80 79 87
3 100 77 85
3 82 90 91
3 80 88 89
3 90 98 99
3 89 88 96
3 86 94 95
3 85 84 92
3 84 91 99
3 104 89 97
3 87 95 96
3 101 85 93
3 93 92 99
3 99 98 105
3 105 102 93
3 101 102 94
3 100 101 86
3 104 105 98
3 103 104 90
3 94 102 105
3 105 97 96
3 96 95 94
3 107 115 116
3 110 118 119
3 106 114 115
3 113 121 114
3 109 117 118
3 108 116 117
3 111 119 120
3 112 120 121
3 122 123 125
3 124 125 127
3 129 131 130
3 130 131 133
3 134 135 137
3 136 137 139
3 141 143 142
3 142 143 145
3 147 149 148
3 148 149 151
3 151 147 146
3 151 154 152
3 151 149 153
3 147 152 153
3 154 157 155
3 154 153 156
3 152 155 156
3 157 160 158
3 157 156 159
3 155 158 159
3 160 163 161
3 160 159 162
3 158 161 162
3 166 168 167
3 167 168 170
3 170 166 165
3 170 173 171
3 170 168 172
3 166 171 172
3 173 176 174
3 173 172 175
3 171 174 175
3 176 179 177
3 176 175 178
3 174 177 178
3 179 182 180
3 179 178 181
3 177 180 181
