ply
format ascii 1.0
comment Created in Blender version 4.2.9 LTS
element vertex 40
property float x
property float y
property float z
property float nx
property float ny
property float nz
property uchar red
property uchar green
property uchar blue
property uchar alpha
element face 60
property list uchar uint vertex_indices
end_header
-0.23540948 -0.33057174 0.22838365 -0.35918525 -0.9041836 0.23116677 254 111 254 255
-0.23540948 -0.2354094 0.3235468 -0.34157175 -0.34158593 0.87558424 254 111 254 255
-0.33057344 -0.23540941 0.22838363 -0.9041811 -0.359181 0.231183 254 111 254 255
-0.23540948 0.23540795 0.32354674 -0.3415878 0.34157753 0.87558126 254 111 254 255
-0.23540948 0.33057192 0.22838359 -0.3591839 0.9041811 0.23117867 254 111 254 255
-0.33057344 0.23540793 0.2283836 -0.90418124 0.35918367 0.23117812 254 111 254 255
0.23540625 -0.2354094 0.3235468 0.34158733 -0.3415809 0.87558013 254 111 254 255
0.23540625 -0.33057174 0.22838365 0.35917494 -0.9041853 0.23117606 254 111 254 255
0.33057022 -0.23540941 0.22838363 0.90418243 -0.35919103 0.23116224 254 111 254 255
0.23540625 0.23540795 0.32354674 0.34157214 0.34158272 0.8755854 254 111 254 255
0.33057022 0.23540793 0.2283836 0.904182 0.35918453 0.23117393 254 111 254 255
0.23540625 0.33057192 0.22838359 0.35918272 0.9041835 0.23117125 254 111 254 255
-0.157504 -0.2211666 -0.31069776 -0.35895023 -0.90324044 -0.23518391 254 111 254 255
-0.22117285 -0.15749884 -0.31069776 -0.903243 -0.35894683 -0.23517972 254 111 254 255
-0.157504 0.22116742 -0.31069782 -0.35895422 0.90323913 -0.23518324 254 111 254 255
0.1574923 0.22116742 -0.31069782 0.35894132 0.903243 -0.2351878 254 111 254 255
0.1574923 -0.2211666 -0.31069776 0.35893732 -0.9032444 -0.23518853 254 111 254 255
0.22116116 -0.15749884 -0.31069776 0.90323955 -0.35894632 -0.23519324 254 111 254 255
0.22116116 0.15749855 -0.31069782 0.90323734 0.35895237 -0.23519288 254 111 254 255
-0.22117285 0.15749855 -0.31069782 -0.9032406 0.35895294 -0.23517941 254 111 254 255
-0.07682106 -0.07679139 -1.4641068 -0.34158906 -0.34158275 -0.8755787 253 179 177 255
-0.107865006 -0.076791376 -1.4330628 -0.85620284 -0.3300285 -0.3974897 253 179 177 255
-0.07682106 -0.107834816 -1.4330628 -0.3300224 -0.8562044 -0.39749125 253 179 177 255
-0.07682106 0.07679644 -1.4641068 -0.3415739 0.34158462 -0.87558407 253 179 177 255
0.07676624 -0.07679139 -1.4641068 0.34157375 -0.34158796 -0.8755827 253 179 177 255
0.07676624 -0.107834816 -1.4330628 0.33002177 -0.8562056 -0.3974893 253 179 177 255
0.10781017 -0.076791376 -1.4330628 0.85620034 -0.33002785 -0.39749545 253 179 177 255
0.07676624 0.07679644 -1.4641068 0.34158874 0.3415794 -0.8755802 253 179 177 255
0.10781017 0.07679644 -1.4330628 0.85620165 0.33002898 -0.39749175 253 179 177 255
0.07676624 0.107840374 -1.4330628 0.3300203 0.85620254 -0.39749694 253 179 177 255
-0.07682106 0.107840374 -1.4330628 -0.33002907 0.85620296 -0.3974889 253 179 177 255
0.15747507 0.2211696 -0.31069723 0.38581452 0.9147249 -0.1201068 253 179 177 255
0.22114393 0.15750073 -0.31069723 0.91472566 0.38581216 -0.120108835 253 179 177 255
-0.1575213 0.2211696 -0.31069723 -0.38582173 0.9147222 -0.12010407 253 179 177 255
-0.22119014 0.15750073 -0.31069723 -0.9147216 0.38582355 -0.120102204 253 179 177 255
-0.107865006 0.07679644 -1.4330628 -0.856203 0.33002147 -0.39749494 253 179 177 255
-0.22119014 -0.15749669 -0.3106972 -0.914724 -0.3858181 -0.12010238 253 179 177 255
-0.1575213 -0.22116448 -0.3106972 -0.385818 -0.9147237 -0.12010429 253 179 177 255
0.15747507 -0.22116448 -0.3106972 0.38581103 -0.9147264 -0.12010704 253 179 177 255
0.22114393 -0.15749669 -0.3106972 0.9147198 -0.38582557 -0.120109536 253 179 177 255
3 10 17 18
3 1 9 3
3 5 13 2
3 4 15 14
3 11 3 9
3 0 1 2
3 3 4 5
3 6 7 8
3 9 10 11
3 18 11 10
3 12 2 13
3 0 6 1
3 14 5 4
3 8 9 6
3 17 7 16
3 5 1 3
3 0 16 7
3 20 22 21
3 21 23 20
3 25 20 24
3 24 23 27
3 24 26 25
3 28 24 27
3 27 29 28
3 30 27 23
3 28 31 32
3 33 29 30
3 30 34 33
3 21 34 35
3 36 22 37
3 37 25 38
3 26 38 25
3 39 28 32
3 23 35 30
3 10 8 17
3 1 6 9
3 5 19 13
3 4 11 15
3 11 4 3
3 18 15 11
3 12 0 2
3 0 7 6
3 14 19 5
3 8 10 9
3 17 8 7
3 5 2 1
3 0 12 16
3 21 35 23
3 25 22 20
3 24 20 23
3 28 26 24
3 30 29 27
3 28 29 31
3 33 31 29
3 30 35 34
3 21 36 34
3 36 21 22
3 37 22 25
3 26 39 38
3 39 26 28
